<?xml version="1.0" encoding="utf-8"?>
<!-- Generator: Adobe Illustrator 25.2.0, SVG Export Plug-In . SVG Version: 6.00 Build 0)  -->
<svg version="1.1" id="Layer_1" xmlns="http://www.w3.org/2000/svg" xmlns:xlink="http://www.w3.org/1999/xlink" x="0px" y="0px"
	 viewBox="0 0 148.63177 80.65051" style="enable-background:new 0 0 148.63177 80.65051;" xml:space="preserve">
<style type="text/css">
	.st0{fill:#B1D1E1;}
	.st1{fill:#005B7F;}
	.st2{fill:none;stroke:#231F20;stroke-width:0.5;}
	.st3{fill:#231F20;}
	.st4{fill:none;stroke:#231F20;stroke-width:0.25;}
	.st5{opacity:0;fill:none;stroke:#000000;stroke-width:1.000000e-06;stroke-miterlimit:10;}
	.st6{opacity:0;clip-path:url(#SVGID_2_);fill:none;stroke:#000000;stroke-width:9.999999e-07;stroke-miterlimit:10;}
	.st7{clip-path:url(#SVGID_2_);}
	.st8{opacity:0;clip-path:url(#SVGID_4_);fill:none;stroke:#000000;stroke-width:9.999999e-07;stroke-miterlimit:10;}
	.st9{clip-path:url(#SVGID_4_);}
	.st10{opacity:0;clip-path:url(#SVGID_6_);fill:none;stroke:#000000;stroke-width:9.999999e-07;stroke-miterlimit:10;}
	.st11{clip-path:url(#SVGID_6_);}
	.st12{opacity:0;clip-path:url(#SVGID_8_);fill:none;stroke:#000000;stroke-width:9.999999e-07;stroke-miterlimit:10;}
	.st13{clip-path:url(#SVGID_8_);}
</style>
<g>
	<polygon class="st0" points="2.01801,20.31239 4.77701,78.78242 40.082,46.30544 41.51102,1.85744 	"/>
</g>
<polygon class="st1" points="9.98002,61.99945 9.74147,61.41278 38.66232,20.20394 38.90007,20.78917 "/>
<polygon class="st1" points="129.58572,58.48263 129.23392,58.53907 123.38756,26.37259 123.73842,26.31645 "/>
<path class="st1" d="M54.38234,55.92002c-1.233,0.58105-2.74399,1.52203-3.64999,2.45801l0.58899-2.19696l-0.95297-2.06604
	C51.42034,54.88504,53.06936,55.55704,54.38234,55.92002"/>
<g>
	<path class="st1" d="M125.54195,44.80891c-0.40302-0.651-0.19702-1.50403,0.45898-1.90302
		c0.65601-0.401,1.517-0.19702,1.91901,0.45502c0.40298,0.651,0.19799,1.50397-0.45901,1.90295
		C126.80492,45.66292,125.94494,45.45992,125.54195,44.80891"/>
	<path class="st1" d="M126.73193,45.59352c-0.53299,0-1.01801-0.26904-1.297-0.71899
		c-0.21198-0.34204-0.27698-0.74603-0.18399-1.138c0.09399-0.39301,0.33701-0.72601,0.68399-0.93701
		c0.24002-0.14703,0.51501-0.224,0.79401-0.224c0.534,0,1.01901,0.26898,1.29699,0.71997
		c0.21201,0.34204,0.27701,0.74701,0.18301,1.138c-0.09302,0.39404-0.33599,0.72601-0.68398,0.93701
		C127.28594,45.51649,127.01095,45.59352,126.73193,45.59352 M126.72894,42.82552c-0.233,0-0.46301,0.06396-0.66299,0.18701
		c-0.29001,0.17596-0.49301,0.45398-0.57101,0.78198c-0.078,0.32599-0.02399,0.66296,0.15302,0.94897
		c0.23199,0.37604,0.638,0.60004,1.08398,0.60004c0.233,0,0.46301-0.06403,0.66302-0.18604
		c0.28998-0.177,0.49298-0.45398,0.57098-0.78101c0.078-0.32697,0.02399-0.664-0.15298-0.94995
		C127.58092,43.05049,127.17495,42.82552,126.72894,42.82552"/>
</g>
<g>
	<path class="st1" d="M126.58025,51.58731c-0.40302-0.651-0.19702-1.50403,0.45898-1.90302
		c0.65601-0.401,1.51699-0.19702,1.919,0.45502c0.40298,0.651,0.198,1.50397-0.45901,1.90295
		C127.84322,52.44131,126.98324,52.23831,126.58025,51.58731"/>
	<path class="st1" d="M127.77023,52.37192c-0.53299,0-1.01801-0.26904-1.297-0.71899
		c-0.21198-0.34204-0.27698-0.74603-0.18399-1.138c0.09399-0.39301,0.33701-0.72601,0.68399-0.93701
		c0.24002-0.14703,0.51501-0.224,0.79401-0.224c0.53399,0,1.019,0.26898,1.29699,0.71997
		c0.21201,0.34204,0.27701,0.74701,0.18301,1.138c-0.09302,0.39404-0.336,0.72601-0.68399,0.93701
		C128.32423,52.29489,128.04924,52.37192,127.77023,52.37192 M127.76723,49.60391c-0.233,0-0.46301,0.06396-0.66299,0.18701
		c-0.29001,0.17596-0.49301,0.45398-0.57101,0.78198c-0.078,0.32599-0.02399,0.66296,0.15302,0.94897
		c0.23199,0.37604,0.638,0.60004,1.08398,0.60004c0.23299,0,0.46301-0.06403,0.66302-0.18604
		c0.28998-0.177,0.49298-0.45398,0.57098-0.78101c0.078-0.32697,0.02399-0.664-0.15298-0.94995
		C128.61922,49.82889,128.21324,49.60391,127.76723,49.60391"/>
</g>
<g>
	<path class="st1" d="M124.74878,39.57911c-0.40302-0.651-0.19702-1.50403,0.45898-1.90302
		c0.65601-0.401,1.517-0.19702,1.91901,0.45502c0.40298,0.651,0.198,1.50397-0.45901,1.90295
		C126.01175,40.43311,125.15176,40.23011,124.74878,39.57911"/>
	<path class="st1" d="M125.93875,40.36371c-0.53299,0-1.01801-0.26904-1.297-0.71899
		c-0.21198-0.34204-0.27698-0.74603-0.18399-1.138c0.09399-0.39301,0.33701-0.72601,0.68399-0.93701
		c0.24002-0.14703,0.51501-0.224,0.79401-0.224c0.534,0,1.01901,0.26898,1.297,0.71997
		c0.21201,0.34204,0.27701,0.74701,0.18301,1.138c-0.09302,0.39404-0.336,0.72601-0.68399,0.93701
		C126.49277,40.28669,126.21777,40.36371,125.93875,40.36371 M125.93576,37.59571c-0.233,0-0.46301,0.06396-0.66299,0.18701
		c-0.29001,0.17596-0.49301,0.45398-0.57101,0.78198c-0.078,0.32599-0.02399,0.66296,0.15302,0.94897
		c0.23199,0.37604,0.638,0.60004,1.08398,0.60004c0.233,0,0.46301-0.06403,0.66302-0.18604
		c0.28998-0.177,0.49298-0.45398,0.57098-0.78101c0.078-0.32697,0.02399-0.664-0.15298-0.94995
		C126.78775,37.82068,126.38177,37.59571,125.93576,37.59571"/>
</g>
<g>
	<path class="st1" d="M124.14587,35.76263c-0.40302-0.651-0.19702-1.50403,0.45898-1.90302
		c0.65601-0.401,1.517-0.19702,1.91901,0.45502c0.40298,0.651,0.198,1.50397-0.45901,1.90295
		C125.40884,36.61664,124.54885,36.41364,124.14587,35.76263"/>
	<path class="st1" d="M125.33584,36.54724c-0.53299,0-1.01801-0.26904-1.297-0.71899
		c-0.21198-0.34204-0.27698-0.74603-0.18399-1.138c0.09399-0.39301,0.33701-0.72601,0.68399-0.93701
		c0.24002-0.14703,0.51501-0.224,0.79401-0.224c0.534,0,1.01901,0.26898,1.297,0.71997
		c0.21201,0.34204,0.27701,0.74701,0.18301,1.138c-0.09302,0.39404-0.336,0.72601-0.68399,0.93701
		C125.88985,36.47021,125.61486,36.54724,125.33584,36.54724 M125.33285,33.77924c-0.233,0-0.46301,0.06396-0.66299,0.18701
		c-0.29001,0.17596-0.49301,0.45398-0.57101,0.78198c-0.078,0.32599-0.02399,0.66296,0.15302,0.94897
		c0.23199,0.37604,0.638,0.60004,1.08398,0.60004c0.233,0,0.46301-0.06403,0.66302-0.18604
		c0.28998-0.177,0.49298-0.45398,0.57098-0.78101c0.078-0.32697,0.02399-0.664-0.15298-0.94995
		C126.18484,34.00421,125.77886,33.77924,125.33285,33.77924"/>
</g>
<polyline class="st2" points="113.86407,43.97453 112.60901,1.85689 144.83798,23.65791 142.354,78.78291 113.86407,43.97453 "/>
<rect x="11.64615" y="54.33327" transform="matrix(0.99753 -0.07019 0.07019 0.99753 -3.67138 5.03778)" class="st1" width="116.40822" height="0.85621"/>
<g>
	<g>
		<path class="st1" d="M58.43991,44.149c-1.28601,0.45099-2.88501,1.23303-3.88202,2.07202l0.811-2.125l-0.73801-2.15302
			C55.59891,42.81599,57.1709,43.65303,58.43991,44.149"/>
		
			<rect x="22.42899" y="43.70951" transform="matrix(1 -0.00269 0.00269 1 -0.11812 0.20028)" class="st1" width="104.17822" height="0.75"/>
	</g>
	<path class="st3" d="M21.31592,45.0309c-0.46402-0.60901-0.345-1.47797,0.267-1.94c0.61099-0.46301,1.483-0.34399,1.94699,0.26501
		c0.46399,0.60999,0.34399,1.479-0.267,1.94202C22.65192,45.7599,21.77991,45.63991,21.31592,45.0309"/>
	<path class="st4" d="M21.31592,45.0309c-0.46402-0.60901-0.345-1.47797,0.267-1.94c0.61099-0.46301,1.483-0.34399,1.94699,0.26501
		c0.46399,0.60999,0.34399,1.479-0.267,1.94202C22.65192,45.7599,21.77991,45.63991,21.31592,45.0309z"/>
</g>
<g>
	<path class="st1" d="M60.03949,36.10001c-1.3203,0.41765-2.96808,1.15999-4.0058,1.97658l0.88451-2.11525l-0.68686-2.18621
		C57.18985,34.6801,58.76323,35.56561,60.03949,36.10001"/>
	<g>
		<polygon class="st1" points="125.90295,39.27979 28.67288,35.0708 28.70806,34.30568 125.9371,38.5147 		"/>
		<g>
			<path class="st3" d="M27.64569,35.58424c-0.49696-0.60765-0.40543-1.50241,0.20361-1.99855
				c0.61008-0.49624,1.50693-0.40503,2.00389,0.20263c0.49699,0.60872,0.40547,1.50347-0.20361,1.99861
				C29.03949,36.28316,28.14264,36.19189,27.64569,35.58424"/>
			<path class="st4" d="M27.64569,35.58424c-0.49696-0.60765-0.40543-1.50241,0.20361-1.99855
				c0.61008-0.49624,1.50693-0.40503,2.00389,0.20263c0.49699,0.60872,0.40547,1.50347-0.20361,1.99861
				C29.03949,36.28316,28.14264,36.19189,27.64569,35.58424z"/>
		</g>
	</g>
</g>
<g>
	<path class="st1" d="M63.16708,30.18604c-1.29344,0.36896-2.91518,1.04901-3.94832,1.82397L60.14742,29.94L59.5559,27.745
		C60.45402,28.677,61.94855,29.61102,63.16708,30.18604"/>
	<g>
		<polygon class="st1" points="126.50634,35.5639 33.75996,28.11591 33.81911,27.36792 126.5645,34.81592 		"/>
		<g>
			<path class="st3" d="M32.76151,28.5835c-0.45448-0.612-0.33717-1.48499,0.26123-1.94995
				c0.5994-0.46503,1.45313-0.34503,1.90761,0.26697c0.45447,0.61304,0.33717,1.48602-0.26123,1.95001
				C34.06972,29.31555,33.21598,29.1955,32.76151,28.5835"/>
			<path class="st4" d="M32.76151,28.5835c-0.45448-0.612-0.33717-1.48499,0.26123-1.94995
				c0.5994-0.46503,1.45313-0.34503,1.90761,0.26697c0.45447,0.61304,0.33717,1.48602-0.26123,1.95001
				C34.06972,29.31555,33.21598,29.1955,32.76151,28.5835z"/>
		</g>
	</g>
</g>
<path class="st3" d="M10.91289,59.57145c-0.46201-0.60901-0.34302-1.47803,0.26599-1.94s1.479-0.34302,1.94101,0.26501
	c0.46201,0.60999,0.34299,1.479-0.26599,1.94098C12.24489,60.30045,11.3749,60.18143,10.91289,59.57145"/>
<path class="st4" d="M10.91289,59.57145c-0.46201-0.60901-0.34302-1.47803,0.26599-1.94s1.479-0.34302,1.94101,0.26501
	c0.46201,0.60999,0.34299,1.479-0.26599,1.94098C12.24489,60.30045,11.3749,60.18143,10.91289,59.57145z"/>
<polygon class="st5" points="92.94124,18.9444 92.94134,18.94428 92.94134,18.9443 92.94135,18.9443 92.94132,18.94428 
	92.94135,18.94432 92.94129,18.94431 92.94131,18.9443 92.9413,18.94429 92.9413,18.94433 92.94135,18.9443 92.94132,18.9443 
	92.94128,18.94435 92.94134,18.9443 92.94131,18.94431 92.94132,18.94432 92.94135,18.94429 92.94131,18.94431 92.94134,18.9443 
	92.94136,18.94429 92.94129,18.94428 92.94134,18.9443 92.94134,18.94436 92.94131,18.94428 92.94132,18.94433 92.94131,18.94428 
	92.94135,18.94428 92.94136,18.94428 92.94133,18.94429 92.94135,18.9443 92.94129,18.94435 92.94135,18.94431 92.94131,18.94428 
	92.94131,18.9443 92.94128,18.94432 92.94132,18.94433 92.94134,18.94428 92.94128,18.9443 92.94132,18.94429 92.94131,18.94432 
	92.94135,18.94431 92.94135,18.94435 92.94135,18.94433 92.94134,18.94428 92.94132,18.94428 92.94133,18.94432 92.94135,18.94432 
	92.94135,18.94434 92.94131,18.94432 92.94135,18.94429 92.94133,18.9443 92.94134,18.94432 92.94135,18.94432 92.94135,18.94428 
	92.94135,18.94432 92.94135,18.94435 92.94135,18.94431 92.94134,18.94429 92.94135,18.94435 92.94135,18.94432 92.94134,18.94428 
	92.94136,18.94434 92.94129,18.94429 92.94133,18.94431 92.94132,18.94429 92.94131,18.94432 92.94132,18.94433 92.94132,18.94433 
	92.94131,18.94432 92.94131,18.94429 92.94128,18.94432 92.94132,18.94429 92.94135,18.94432 92.94135,18.94431 92.94135,18.94428 
	92.94135,18.94428 92.94134,18.94433 92.94131,18.94433 92.94135,18.94433 92.94132,18.94434 92.9413,18.94433 92.94131,18.94435 
	92.94128,18.94435 92.94135,18.94432 92.94132,18.94432 92.94129,18.94435 92.94128,18.9443 92.9413,18.94435 92.94135,18.94429 "/>
<g>
	<polygon class="st5" points="133.83157,61.64855 133.83171,61.64855 133.83171,61.64856 133.83171,61.64857 133.83171,61.64854 
		133.8317,61.64859 133.83167,61.64854 133.83168,61.64854 133.83168,61.64853 133.83167,61.64856 133.83171,61.64856 
		133.8317,61.64854 133.83163,61.64855 133.83171,61.64856 133.83168,61.64855 133.83168,61.64856 133.83173,61.64857 
		133.83168,61.64855 133.83171,61.64856 133.83173,61.64857 133.83168,61.64852 133.83171,61.64856 133.83167,61.64859 
		133.8317,61.64853 133.83168,61.64857 133.8317,61.64853 133.83173,61.64856 133.83173,61.64856 133.8317,61.64855 
		133.83171,61.64857 133.83165,61.64856 133.8317,61.64857 133.83171,61.64854 133.83168,61.64854 133.83165,61.64854 
		133.83168,61.64857 133.83171,61.64855 133.83167,61.64852 133.83171,61.64854 133.83168,61.64856 133.8317,61.64857 
		133.83168,61.64859 133.8317,61.64859 133.83171,61.64855 133.83171,61.64854 133.83168,61.64856 133.8317,61.64858 
		133.83168,61.64859 133.83168,61.64856 133.83173,61.64857 133.8317,61.64855 133.8317,61.64857 133.8317,61.64858 
		133.83173,61.64856 133.8317,61.64858 133.83168,61.64859 133.8317,61.64858 133.83171,61.64856 133.83168,61.6486 
		133.8317,61.64858 133.83171,61.64854 133.8317,61.6486 133.83168,61.64853 133.83168,61.64856 133.8317,61.64854 
		133.83168,61.64856 133.83168,61.64857 133.83168,61.64857 133.83167,61.64855 133.8317,61.64854 133.83165,61.64854 
		133.8317,61.64854 133.8317,61.64858 133.83171,61.64857 133.83173,61.64856 133.83173,61.64855 133.83168,61.64858 
		133.83167,61.64856 133.83168,61.64859 133.83167,61.64857 133.83167,61.64856 133.83165,61.64857 133.83163,61.64855 
		133.8317,61.64858 133.83168,61.64856 133.83165,61.64856 133.83167,61.64853 133.83165,61.64856 133.83173,61.64857 	"/>
	<g>
		<defs>
			<polygon id="SVGID_1_" points="129.17516,59.71064 136.82317,68.98466 141.21971,64.90172 132.53593,56.58957 			"/>
		</defs>
		<clipPath id="SVGID_2_">
			<use xlink:href="#SVGID_1_"  style="overflow:visible;"/>
		</clipPath>
		<path class="st6" d="M134.39334,61.95962L134.39334,61.95962z"/>
		<path class="st7" d="M132.47444,60.25887c0.03696,0.03082,0.06104,0.04762,0.09808,0.08796
			c0.07156,0.07795,0.18576,0.18329,0.26772,0.25151c-0.04469,0.18657-0.39032,1.57761-0.39574,2.43464l-0.46857-0.55747
			L132.47444,60.25887 M130.2294,60.39758c0.11674-0.03724,0.24509-0.15643,0.28667-0.19504l2.321-2.15545
			c0.0461-0.0428,0.16992-0.1578,0.21581-0.27159l0.53635,0.52632c-0.13637,0.00814-0.22995,0.09505-0.2997,0.15981
			l-2.37556,2.20613c-0.0468,0.04346-0.1725,0.1602-0.2222,0.27991L130.2294,60.39758z M133.44133,58.64141
			c0.09874-0.09171,0.25378-0.23568,0.55576,0.06064c0.42538,0.41742,0.4696,0.78463-0.10187,1.31534
			c-0.62482,0.58025-0.86745,0.50408-1.61299-0.29956L133.44133,58.64141z M133.26591,60.64237
			c0.31781-0.01933,0.59123-0.24395,0.80586-0.44327c0.23378-0.21711,0.46112-0.48679,0.49599-0.83524
			c0.16803,0.24984,0.53716,0.90767,0.03593,1.37315C134.28093,61.03676,133.87503,61.10772,133.26591,60.64237z
			 M132.11797,59.87038l0.16528,0.18013l-0.41245,1.81794c-0.03033,0.12671-0.10837,0.43622-0.12967,0.56547
			c-0.02541,0.09418-0.0116,0.1108,0.09669,0.24107l0.66812,0.80374c0.089,0.10706,0.16376,0.19699,0.2552,0.11207
			c0.03975-0.03692,0.04581-0.10555,0.01025-0.16888c-0.14401-0.25688-0.05779-0.84657-0.01718-1.13081
			c0.01474-0.08604,0.09474-0.66585,0.29323-1.51538c0.51857,0.40545,1.1478,0.70299,1.74136,0.15176
			c0.69365-0.64417,0.14658-1.62988-0.45633-2.21509l-1.49466-1.45079c-0.08069-0.07832-0.15302-0.14852-0.23453-0.07281
			c-0.0762,0.07077,0.00891,0.15429,0.04504,0.18974c0.25821,0.25339,0.24834,0.3055,0.02007,0.5175l-2.29002,2.12667
			c-0.22827,0.212-0.2809,0.21793-0.51372-0.05906c-0.03256-0.03875-0.10931-0.13005-0.18552-0.05928
			c-0.08151,0.07571-0.01707,0.15322,0.05482,0.23972l1.15475,1.38916c0.07906,0.0951,0.1463,0.176,0.23247,0.09598
			c0.08055-0.0748,0.0041-0.16574-0.04488-0.22401c-0.25076-0.29835-0.23004-0.35386-0.00026-0.56725L132.11797,59.87038z"/>
		<path class="st7" d="M137.00253,63.46999c-0.09779,0.04806-0.26724,0.12719-0.28622,0.14482
			c-0.0844,0.07837-0.04472,0.1958,0.02489,0.26946c0.07837,0.08292,0.19865,0.11079,0.25462,0.10223
			c0.05713-0.00955,0.21638-0.08724,0.31967-0.13952c0.09595-0.04539,0.32318-0.15909,0.44814-0.22147
			c0.11229-0.05053,0.22458-0.10342,0.33646-0.1632c0.21858-0.10474,0.2261-0.11174,0.44054-0.13083
			c0.34084-0.03085,0.80528-0.00751,1.18779,0.36099c0.27823,0.26805,0.10783,0.45505,0.01114,0.54485
			c-0.24115,0.22396-0.89604,0.42734-1.1409,0.50433c-0.16399,0.04903-0.21886,0.06142-0.28705,0.12474
			c-0.21117,0.19611-0.13347,0.53839,0.10963,0.79563c0.48862,0.51703,1.27551,0.22164,1.33809,0.16352
			c0.05348-0.04965-0.01291-0.11736-0.0284-0.13316c-0.07021-0.0716-0.10069-0.05413-0.16559-0.0321
			c-0.4431,0.18305-0.82201,0.11753-1.01682-0.08733c-0.1013-0.10653-0.06316-0.17864,0.0213-0.25707
			c0.09224-0.08566,0.16855-0.10923,0.43752-0.18765c0.1834-0.05637,0.81903-0.24898,1.04593-0.45969
			c0.06516-0.0605,0.23589-0.21906,0.16473-0.51073c-0.0345-0.13232-0.12427-0.3255-0.35905-0.55029
			c-0.44177-0.42297-0.93735-0.46119-1.25085-0.45472c0.29369-0.34412,0.02415-0.71977-0.21083-0.94476
			c-0.37428-0.35835-0.81494-0.41805-1.09506-0.40687c0.2274-0.268,0.05556-0.58839-0.12016-0.75663
			c-0.18082-0.17312-0.3912-0.16099-0.5289-0.13517c-0.22487,0.03804-0.49043,0.17493-0.50851,0.19172
			c-0.04723,0.04385,0.00987,0.10057,0.02222,0.11283c0.05623,0.05585,0.07182,0.05002,0.19899-0.01387
			c0.27791-0.13852,0.53645-0.23017,0.70038-0.07225c0.11137,0.1073,0.05891,0.2117-0.0414,0.30487
			c-0.06961,0.06464-0.24516,0.15417-0.3743,0.21852c-0.12889,0.06424-0.32224,0.1619-0.42427,0.21688l-0.59998,0.30433
			c-0.06433,0.0269-0.18089,0.08706-0.19102,0.09647c-0.08104,0.07527-0.0459,0.18493,0.01828,0.25284
			c0.07338,0.07763,0.18504,0.10036,0.23907,0.09245c0.054-0.01006,0.20552-0.08608,0.30382-0.13714
			c0.09125-0.04447,0.30746-0.15557,0.4252-0.2177c0.1067-0.04959,0.21461-0.1002,0.32112-0.15847
			c0.19955-0.09483,0.23773-0.11442,0.51646-0.13437c0.27084-0.01999,0.67538-0.00209,1.01367,0.3238
			c0.26587,0.25613,0.07263,0.44284-0.00089,0.5111c-0.09586,0.08903-0.15979,0.12185-0.43842,0.26019L137.00253,63.46999"/>
	</g>
</g>
<g>
	<polygon class="st5" points="10.42381,66.6909 10.42383,66.69075 10.42384,66.69077 10.42385,66.69076 10.42383,66.69076 
		10.42381,66.69078 10.42386,66.69078 10.42384,66.69077 10.42383,66.69083 10.42383,66.69081 10.42384,66.69077 10.42382,66.69077 
		10.42382,66.69083 10.42384,66.69077 10.42383,66.69079 10.42384,66.69079 10.42385,66.69075 10.42383,66.69075 10.42383,66.69079 
		10.42385,66.69077 10.42383,66.69076 10.42385,66.69077 10.42379,66.69079 10.42387,66.69079 10.4238,66.6908 10.42383,66.69075 
		10.42383,66.6908 10.42384,66.69081 10.42385,66.69076 10.42379,66.69078 10.42379,66.69079 10.42384,66.69077 10.42381,66.69077 
		10.42382,66.69077 10.42385,66.69079 10.42381,66.69082 10.42384,66.69076 10.42379,66.6908 10.42386,66.69077 10.42382,66.69078 
		10.42383,66.69081 10.42384,66.69081 10.42381,66.69078 10.42382,66.69082 10.42385,66.69081 10.42387,66.6908 10.42383,66.6908 
		10.42383,66.69076 10.42383,66.6908 10.42384,66.69079 10.42386,66.6908 10.42385,66.69077 10.42383,66.69075 10.42384,66.6908 
		10.42384,66.69076 10.42385,66.69078 10.42379,66.6908 10.42381,66.69077 10.42387,66.69079 10.42384,66.69077 10.42386,66.69077 
		10.42382,66.69081 10.42379,66.6908 10.42383,66.69078 10.42382,66.6908 10.42384,66.69077 10.42385,66.6908 10.42381,66.69079 
		10.42383,66.69079 10.42382,66.69078 10.42384,66.69082 10.42382,66.69077 10.42384,66.69075 10.42386,66.69077 10.42384,66.69081 
		10.42381,66.69077 10.42382,66.69077 10.42383,66.69079 10.42386,66.69079 10.42383,66.69077 10.42383,66.6908 10.42388,66.6908 
		10.42383,66.69077 10.42386,66.6908 10.42385,66.6908 10.42379,66.69079 10.42384,66.69077 10.42383,66.69083 10.42385,66.69075 	
		"/>
	<g>
		<defs>
			<polygon id="SVGID_3_" points="8.0867,72.242 15.20481,65.15308 12.61419,61.99945 4.27813,67.60575 			"/>
		</defs>
		<clipPath id="SVGID_4_">
			<use xlink:href="#SVGID_3_"  style="overflow:visible;"/>
		</clipPath>
		<path class="st8" d="M10.78129,66.14601L10.78129,66.14601z"/>
		<path class="st9" d="M9.54617,67.50279c0.042-0.04402,0.0654-0.07243,0.11795-0.11641
			c0.1004-0.08405,0.23626-0.21513,0.32382-0.30736c0.19894,0.04523,1.59547,0.37594,2.39292,0.35161l-0.5345,0.5164
			L9.54617,67.50279 M9.31422,70.39339c-0.02594-0.16013-0.15685-0.3195-0.19926-0.37112l-2.3675-2.88202
			c-0.04701-0.05723-0.17332-0.21098-0.32511-0.26721l0.91381-0.64166C7.30804,66.38999,7.39913,66.50088,7.467,66.5835
			l2.31218,2.81467c0.04555,0.05544,0.1679,0.20438,0.30502,0.25131L9.31422,70.39339z M7.74737,66.40858
			c-0.09445-0.11497-0.24274-0.29549,0.21814-0.61912c0.60399-0.42411,1.03713-0.44449,1.53543,0.16211
			c0.54481,0.66322,0.42821,0.92352-0.64492,1.8066L7.74737,66.40858z M10.0935,66.6197
			c0.02056-0.33127-0.18278-0.61607-0.3668-0.84009c-0.20045-0.24401-0.45992-0.48524-0.8452-0.54399
			c0.31045-0.14666,1.06306-0.4399,1.47239,0.05839C10.61748,65.61488,10.64714,66.00883,10.0935,66.6197z M9.01314,67.94943
			l0.2522-0.21132l1.97117,0.3643c0.12694,0.02528,0.4317,0.09035,0.5575,0.10459c0.09035,0.02119,0.10711,0.00472,0.2368-0.12282
			l0.74141-0.72906c0.09174-0.09021,0.16762-0.16483,0.09667-0.2512c-0.03085-0.03755-0.08871-0.04224-0.1428-0.00684
			c-0.22419,0.14651-0.75176,0.07407-1.01502,0.03892c-0.08074-0.01331-0.64096-0.08521-1.50201-0.28433
			c0.48087-0.53498,0.82934-1.13538,0.35255-1.7158c-0.55718-0.67828-1.6869-0.2664-2.50307,0.29599L5.54978,67.1606
			c-0.16007,0.1103-0.30609,0.21091-0.21746,0.31882c0.08285,0.10086,0.25422-0.01948,0.32595-0.06985
			c0.49572-0.34808,0.57113-0.33654,0.80818-0.04797l2.37796,2.89474c0.23705,0.28857,0.23389,0.36498-0.2019,0.78601
			c-0.06306,0.06092-0.21371,0.20647-0.13086,0.30733c0.08864,0.1079,0.21513-0.01649,0.3538-0.15285l1.92175-1.88975
			c0.11357-0.11167,0.20863-0.20515,0.12976-0.30117c-0.07373-0.08974-0.18206,0.01492-0.25243,0.0829
			c-0.37264,0.36002-0.43505,0.34129-0.65484,0.07374L9.01314,67.94943z"/>
		<path class="st9" d="M11.75026,64.51602c0.01968,0.05473,0.0651,0.15526,0.07258,0.16437
			c0.05984,0.07285,0.15292,0.05283,0.21155,0.00606c0.06626-0.05288,0.08842-0.14046,0.08373-0.18419
			c-0.00641-0.04375-0.06291-0.1703-0.10082-0.25222c-0.03271-0.07551-0.11443-0.25407-0.16001-0.35094
			c-0.03571-0.08671-0.07205-0.17411-0.11453-0.26103c-0.06757-0.16028-0.08161-0.19101-0.08429-0.39735
			c-0.00303-0.1969,0.02999-0.47726,0.29408-0.65686c0.19883-0.13523,0.3302,0.01936,0.37815,0.07773
			c0.1508,0.18357,0.28874,0.62907,0.34204,0.79897c0.03425,0.11449,0.04299,0.15251,0.08668,0.20569
			c0.13529,0.1647,0.36296,0.15201,0.52543,0.02236c0.31086-0.24807,0.10741-0.76372,0.07033-0.80886
			c-0.03168-0.03857-0.07172-0.00854-0.08112-0.0015c-0.04286,0.03214-0.03138,0.05288-0.01627,0.09496
			c0.12447,0.29438,0.09307,0.52295-0.0332,0.62267c-0.06693,0.05286-0.11477,0.01949-0.16759-0.04481
			c-0.05769-0.07022-0.07426-0.12237-0.12922-0.30418c-0.03903-0.12312-0.17018-0.54217-0.30861-0.71069
			c-0.24055-0.29283-0.54175-0.17048-0.72414-0.04776c-0.2924,0.19673-0.36218,0.49579-0.3679,0.69849
			c-0.20611-0.20248-0.48535-0.12441-0.64311-0.01826c-0.16688,0.11228-0.17447,0.27625-0.16345,0.38729
			c0.01449,0.18288,0.11523,0.41298,0.12887,0.42958c0.03562,0.04336,0.09117,0.00353,0.10311-0.00503
			c0.05409-0.03879,0.05012-0.05197,0.00336-0.16095c-0.10046-0.23634-0.16009-0.44898-0.0088-0.55187
			c0.10062-0.06843,0.18582-0.01463,0.25797,0.0732c0.05006,0.06094,0.11447,0.20526,0.16083,0.31179
			c0.04648,0.10682,0.11771,0.26811,0.1584,0.35404L11.75026,64.51602"/>
	</g>
</g>
<g>
</g>
<polygon class="st5" points="81.75118,16.35213 81.75128,16.35202 81.75128,16.35204 81.7513,16.35204 81.75126,16.35206 
	81.7513,16.35208 81.75124,16.35206 81.75123,16.35201 81.75124,16.35204 81.75124,16.35207 81.75129,16.35204 81.75127,16.35203 
	81.75123,16.35206 81.7513,16.35203 81.75129,16.35205 81.75125,16.35208 81.75129,16.35204 81.75125,16.35205 81.75129,16.35204 
	81.75125,16.35204 81.75125,16.35209 81.75124,16.35205 81.75128,16.35205 81.75126,16.35207 81.75126,16.35202 81.75127,16.35207 
	81.75122,16.35205 81.75124,16.35209 81.7513,16.35207 81.75123,16.35204 81.75128,16.35204 81.75127,16.35203 81.75126,16.35206 
	81.75126,16.35207 81.75126,16.35203 81.75129,16.35207 81.7513,16.35205 81.75128,16.35205 81.7513,16.35207 81.75129,16.35206 
	81.75128,16.35206 81.75124,16.35203 81.7513,16.35206 81.75128,16.35208 81.7513,16.35208 81.75124,16.35209 81.75126,16.35205 
	81.7513,16.35206 81.75124,16.35202 81.7513,16.35206 81.75127,16.35206 81.75123,16.35208 81.75127,16.35205 81.75123,16.35207 
	81.75125,16.35206 81.75128,16.35206 81.75127,16.35202 81.75126,16.35209 81.7513,16.35206 81.75126,16.35205 81.75126,16.35205 
	81.75129,16.35202 81.75124,16.35202 81.7513,16.35206 81.75127,16.35205 81.7513,16.35206 81.75128,16.35205 81.75126,16.35205 
	81.75129,16.35207 81.75128,16.35206 81.75123,16.35207 81.75124,16.35202 81.75129,16.35205 81.75128,16.35206 81.75129,16.35202 
	81.75129,16.35202 81.75127,16.35201 81.75126,16.35202 81.75127,16.35203 81.75123,16.35203 81.75127,16.35202 81.75127,16.35207 
	81.75129,16.35209 81.75125,16.35205 81.75128,16.35206 81.75126,16.35205 81.75126,16.35204 81.75128,16.35206 81.75127,16.35208 
	81.75123,16.35207 81.75123,16.35202 81.75124,16.35204 81.75127,16.35204 81.75129,16.35205 81.75124,16.35205 81.7513,16.35206 
	81.75129,16.35204 81.7513,16.35207 "/>
<g>
	<path d="M76.474,20.45199l0.03125-0.51172c0.00879-0.08008-0.00781-0.23145-0.03125-0.2959
		c-0.02441-0.0957-0.3125-0.13574-0.93555-0.13574h-0.58398l-0.75195,4.42188c-0.03125,0.16699-0.03125,0.19922-0.03125,0.2793
		c0,0.16797,0.08008,0.23242,0.28711,0.24023l0.47266,0.02344l-0.02441,0.22461c-0.35156-0.0166-0.7041-0.02441-1.06348-0.02441
		c-0.37598,0-0.75977,0.00781-1.13574,0.02441l0.03223-0.22461l0.4082-0.02344c0.31934-0.0166,0.34375-0.04785,0.46387-0.77539
		l0.6875-4.16602h-0.89551c-0.2959,0-0.59961,0.04785-0.64746,0.10352c-0.04883,0.05664-0.10449,0.18457-0.14453,0.36035
		l-0.12012,0.47949h-0.23145l0.14355-1.31152c0.75195,0.0166,1.50391,0.02441,2.25488,0.02441
		c0.75195,0,1.50293-0.00781,2.25488-0.02441l-0.21582,1.31152H76.474z"/>
</g>
<polygon class="st5" points="17.07985,40.5986 17.07995,40.59848 17.07995,40.5985 17.07996,40.5985 17.07996,40.5985 
	17.07996,40.5985 17.07996,40.59848 17.07989,40.59856 17.07995,40.59848 17.07991,40.59853 17.07995,40.5985 17.07993,40.5985 
	17.07997,40.59852 17.07993,40.59851 17.07993,40.5985 17.07996,40.59852 17.0799,40.59852 17.07992,40.5985 17.07996,40.59852 
	17.07994,40.59849 17.07997,40.59854 17.0799,40.59853 17.0799,40.59855 17.07996,40.59848 17.07997,40.59849 17.0799,40.5985 
	17.07992,40.59855 17.07996,40.59855 17.07994,40.59854 17.0799,40.5985 17.0799,40.59851 17.07994,40.5985 17.07993,40.59853 
	17.07996,40.59853 17.07991,40.5985 17.07995,40.5985 17.07992,40.59851 17.07995,40.59855 17.07994,40.59855 17.07993,40.59853 
	17.07993,40.59853 17.07997,40.59849 17.07993,40.59851 17.07997,40.59851 17.07996,40.59851 17.07995,40.59849 17.07994,40.5985 
	17.07996,40.59848 17.07992,40.59852 17.07996,40.5985 17.07994,40.59853 17.07994,40.59848 17.07993,40.59853 17.07992,40.59851 
	17.07992,40.59855 17.07992,40.5985 17.0799,40.59852 17.07992,40.59851 17.07995,40.59851 17.07992,40.59852 17.07992,40.59848 
	17.07994,40.59852 17.07993,40.59849 17.07993,40.59853 17.07992,40.5985 17.07995,40.5985 17.07989,40.59851 17.07995,40.59853 
	17.07996,40.5985 17.07993,40.59849 17.07997,40.59853 17.07992,40.5985 17.07996,40.59852 17.07994,40.59849 17.07996,40.5985 
	17.0799,40.5985 17.0799,40.59851 17.07992,40.59853 17.07997,40.59849 17.07996,40.59852 17.07997,40.59853 17.07997,40.59855 
	17.07992,40.59855 17.07993,40.59849 17.07996,40.59848 17.07993,40.59855 17.07991,40.59854 17.07996,40.5985 "/>
<g>
	<defs>
		<rect id="SVGID_5_" x="15.03385" y="36.5446" width="5" height="8"/>
	</defs>
	<clipPath id="SVGID_6_">
		<use xlink:href="#SVGID_5_"  style="overflow:visible;"/>
	</clipPath>
	<path class="st10" d="M17.03385,40.5446L17.03385,40.5446z"/>
	<path class="st11" d="M18.40104,37.91647c-0.11094,0.10313-0.37344,0.325-0.37344,0.46875
		c0,0.07969,0.07969,0.15938,0.15938,0.15938c0.07187,0,0.11093-0.05625,0.15156-0.10469
		c0.09531-0.11875,0.27812-0.34062,0.62656-0.51562c0.05625-0.03125,0.13594-0.07188,0.13594-0.16719
		c0-0.07969-0.05625-0.11875-0.11094-0.15938c-0.175-0.11875-0.2625-0.26093-0.32656-0.45312
		c-0.01563-0.07031-0.04688-0.17344-0.15938-0.17344c-0.11093,0-0.15781,0.10313-0.15781,0.16563
		c0,0.04062,0.0625,0.29531,0.19063,0.46093h-2.67813c-0.13594,0-0.27812,0-0.27812,0.15938
		c0,0.15937,0.14218,0.15937,0.27812,0.15937H18.40104"/>
	<path class="st11" d="M16.71198,44.3446c-0.30938,0-0.77813-0.19844-0.92188-0.96094
		c-0.0875-0.47812-0.0875-1.20781-0.0875-1.67812c0-0.50782,0-1.03282,0.06406-1.46094
		c0.15157-0.94688,0.74688-1.01719,0.94532-1.01719c0.2625,0,0.7875,0.14219,0.93906,0.92969
		c0.07812,0.44375,0.07812,1.04844,0.07812,1.54844c0,0.59687,0,1.1375-0.0875,1.64531
		C17.52291,44.10554,17.06979,44.3446,16.71198,44.3446 M18.3901,41.80085c0-0.63438-0.04062-1.27031-0.31875-1.85938
		c-0.36562-0.7625-1.01719-0.88906-1.35-0.88906c-0.47812,0-1.05781,0.20625-1.38281,0.94531
		c-0.25469,0.54844-0.29531,1.16875-0.29531,1.80313c0,0.59687,0.03281,1.3125,0.35781,1.91562
		c0.34219,0.64375,0.92187,0.80313,1.31094,0.80313c0.42968,0,1.03437-0.16719,1.38281-0.92188
		C18.34948,43.04929,18.3901,42.42897,18.3901,41.80085z"/>
</g>
<g>
	<path class="st3" d="M126.11316,24.00716c-0.45801-0.14648-0.94531-0.47705-1.47266-1.00439
		c-1.49316-1.49316-2.41602-3.68262-2.2959-5.43506c0.0752-1.09521,0.51562-1.56543,1.27734-1.38477
		c0.44727,0.10938,0.98633,0.46631,1.53906,1.01904c0.46484,0.46484,0.92188,1.03418,1.44629,1.80176
		c-0.12695,0.44531-0.17188,0.7124-0.20605,1.11182l-0.19727-0.19727l0.04004-0.58398
		c0.02148-0.31641-0.59766-1.28271-1.2207-1.90576c-1.09277-1.09277-1.88477-0.82715-1.9873,0.66553
		c-0.11035,1.59863,0.64355,3.47949,1.88281,4.71875c0.4834,0.4834,0.93359,0.75977,1.34863,0.82861l0.05273,0.13867
		L126.11316,24.00716z"/>
	<path class="st3" d="M128.10144,26.46371c-0.81934-0.81934-1.33105-2.16357-1.25293-3.30762
		c0.08301-1.20898,0.78125-1.4043,1.70996-0.47559c0.87012,0.87012,1.43945,2.28027,1.36426,3.37598
		C129.83875,27.27328,129.07996,27.44222,128.10144,26.46371z M128.42468,22.83334c-0.55859-0.55859-0.90039-0.33691-0.9668,0.63672
		c-0.0791,1.15234,0.28711,2.35107,0.91016,2.97412c0.51465,0.51465,0.87891,0.25439,0.94336-0.67871
		C129.3866,24.66244,129.00964,23.4183,128.42468,22.83334z"/>
	<path class="st3" d="M130.92468,29.11312c-0.26758-0.26758-0.5293-0.52051-0.79688-0.77051l0.0166-0.24365l0.29492,0.26855
		c0.2168,0.19971,0.23926,0.16162,0.27441-0.34961l0.28809-4.20312c0.0166-0.24316-0.02051-0.37646-0.13574-0.4917l-0.35547-0.35547
		l0.01562-0.22705c0.50879,0.4043,0.72266,0.54932,1.01172,0.69092l0.05273,0.12256l-0.34277,4.99805
		c-0.03516,0.51123-0.02051,0.58643,0.19531,0.81934l0.29004,0.31641l-0.0166,0.24365
		C131.45105,29.64828,131.19128,29.37972,130.92468,29.11312z"/>
	<path class="st3" d="M137.43445,35.62289c-0.29297-0.29297-0.5918-0.58301-0.88477-0.8584l0.0166-0.24365l0.2998,0.27344
		c0.16016,0.14307,0.26562,0.18799,0.27148,0.09863c0.00488-0.07324-0.0127-0.2041-0.09766-0.65283l-0.22852-1.2251
		l-1.83008-1.83008l-0.21484,0.36572c-0.16113,0.27197-0.27441,0.53174-0.28125,0.63721
		c-0.00879,0.12988,0.07031,0.27002,0.29004,0.51562l0.2334,0.25977l-0.0166,0.24365
		c-0.25293-0.27051-0.5127-0.53906-0.7666-0.79297c-0.22852-0.22852-0.46582-0.45703-0.69531-0.66895l0.0166-0.24365
		l0.23828,0.21191c0.13965,0.12256,0.27051,0.09766,0.37012-0.05469l1.68359-2.66895
		c0.28906-0.44824,0.37695-0.65479,0.37695-0.65479l0.2041,0.2041l1.22168,6.14648c0.17676,0.87891,0.23584,1.10352,0.40088,1.28564
		l0.21387,0.24023l-0.0166,0.24365C137.97302,36.17074,137.70105,35.88949,137.43445,35.62289z M136.08484,29.35726
		l-0.97266,1.61133l1.60742,1.60742L136.08484,29.35726z"/>
</g>
<g>
	<defs>
		<rect id="SVGID_7_" x="130.19743" y="39.59999" width="5" height="8"/>
	</defs>
	<clipPath id="SVGID_8_">
		<use xlink:href="#SVGID_7_"  style="overflow:visible;"/>
	</clipPath>
	<path class="st12" d="M132.19743,43.59999L132.19743,43.59999z"/>
	<path class="st13" d="M133.56462,40.97186c-0.11093,0.10313-0.37344,0.325-0.37344,0.46875
		c0,0.07969,0.0797,0.15938,0.15939,0.15938c0.07187,0,0.11092-0.05625,0.15155-0.10469
		c0.09531-0.11875,0.27812-0.34062,0.62656-0.51562c0.05626-0.03125,0.13594-0.07188,0.13594-0.16719
		c0-0.07969-0.05624-0.11875-0.11093-0.15938c-0.175-0.11875-0.2625-0.26093-0.32657-0.45312
		c-0.01562-0.07031-0.04688-0.17344-0.15938-0.17344c-0.11093,0-0.15781,0.10313-0.15781,0.16563
		c0,0.04062,0.0625,0.29531,0.19063,0.46093h-2.67813c-0.13594,0-0.27812,0-0.27812,0.15938
		c0,0.15937,0.14218,0.15937,0.27812,0.15937H133.56462"/>
	<path class="st13" d="M131.87556,47.39999c-0.30939,0-0.77814-0.19844-0.92188-0.96094
		c-0.08751-0.47812-0.08751-1.20781-0.08751-1.67812c0-0.50782,0-1.03282,0.06406-1.46094
		c0.15158-0.94688,0.74689-1.01719,0.94533-1.01719c0.2625,0,0.78751,0.14219,0.93906,0.92969
		c0.07812,0.44375,0.07812,1.04844,0.07812,1.54844c0,0.59687,0,1.1375-0.08751,1.64531
		C132.68649,47.16093,132.23337,47.39999,131.87556,47.39999 M133.55368,44.85624c0-0.63438-0.04062-1.27031-0.31874-1.85938
		c-0.36563-0.7625-1.0172-0.88906-1.35001-0.88906c-0.47812,0-1.05782,0.20625-1.38281,0.94531
		c-0.25468,0.54844-0.2953,1.16875-0.2953,1.80313c0,0.59687,0.03281,1.3125,0.3578,1.91563
		c0.34219,0.64375,0.92188,0.80312,1.31094,0.80312c0.42967,0,1.03436-0.16719,1.38281-0.92188
		C133.51306,46.10468,133.55368,45.48436,133.55368,44.85624z"/>
</g>
<g>
</g>
<g>
</g>
<g>
</g>
<g>
</g>
<g>
</g>
</svg>
