<?xml version="1.0" encoding="utf-8"?>
<!-- Generator: Adobe Illustrator 25.2.0, SVG Export Plug-In . SVG Version: 6.00 Build 0)  -->
<svg version="1.1" id="Layer_1" xmlns="http://www.w3.org/2000/svg" xmlns:xlink="http://www.w3.org/1999/xlink" x="0px" y="0px"
	 viewBox="0 0 143.07602 98.30393" style="enable-background:new 0 0 143.07602 98.30393;" xml:space="preserve">
<style type="text/css">
	.st0{fill:#B1D1E1;}
	.st1{fill:#005B7F;}
	.st2{clip-path:url(#SVGID_2_);fill:#005B7F;}
	.st3{clip-path:url(#SVGID_2_);fill:none;stroke:#231F20;stroke-width:0.5;}
	.st4{clip-path:url(#SVGID_2_);fill:#231F20;}
	.st5{clip-path:url(#SVGID_2_);fill:none;stroke:#231F20;stroke-width:0.25;}
	.st6{opacity:0;fill:none;stroke:#000000;stroke-width:1.000000e-06;stroke-miterlimit:10;}
	.st7{opacity:0;clip-path:url(#SVGID_4_);fill:none;stroke:#000000;stroke-width:9.999999e-07;stroke-miterlimit:10;}
	.st8{clip-path:url(#SVGID_4_);}
	.st9{opacity:0;clip-path:url(#SVGID_6_);fill:none;stroke:#000000;stroke-width:9.999999e-07;stroke-miterlimit:10;}
	.st10{clip-path:url(#SVGID_6_);}
	.st11{fill:#231F20;}
	.st12{opacity:0;clip-path:url(#SVGID_8_);fill:none;stroke:#000000;stroke-width:9.999999e-07;stroke-miterlimit:10;}
	.st13{clip-path:url(#SVGID_8_);}
	.st14{opacity:0;clip-path:url(#SVGID_10_);fill:none;stroke:#000000;stroke-width:9.999999e-07;stroke-miterlimit:10;}
	.st15{clip-path:url(#SVGID_10_);}
</style>
<polygon class="st0" points="0,18.93646 2.759,77.40649 38.064,44.9295 39.49301,0.48151 "/>
<rect x="-2.84687" y="42.27106" transform="matrix(0.79566 -0.60574 0.60574 0.79566 -21.62186 20.94603)" class="st1" width="46.16407" height="0.49953"/>
<g>
	<defs>
		<rect id="SVGID_1_" width="143.07602" height="78.07098"/>
	</defs>
	<clipPath id="SVGID_2_">
		<use xlink:href="#SVGID_1_"  style="overflow:visible;"/>
	</clipPath>
	<path class="st2" d="M51.04739,47.66956c-1.233,0.58105-2.74399,1.52203-3.64999,2.45801l0.58899-2.19696l-0.95297-2.06604
		C48.08539,46.63458,49.73441,47.30658,51.04739,47.66956"/>
	<path class="st2" d="M56.42191,42.77307c-1.28601,0.45099-2.88501,1.23303-3.88202,2.07202l0.811-2.125l-0.73801-2.15302
		C53.5809,41.44006,55.15289,42.2771,56.42191,42.77307"/>
	<path class="st2" d="M61.29391,37.5954c-1.31201,0.36896-2.95703,1.04901-4.005,1.82397l0.94199-2.07001l-0.60001-2.19501
		C58.5419,36.08636,60.05789,37.02039,61.29391,37.5954"/>
	<path class="st2" d="M123.39801,43.323c-0.40302-0.651-0.19702-1.50403,0.45898-1.90302
		c0.65601-0.401,1.517-0.19702,1.91901,0.45502c0.40298,0.651,0.198,1.50397-0.45901,1.90295
		C124.66098,44.177,123.80099,43.974,123.39801,43.323"/>
	<path class="st2" d="M124.58798,44.1076c-0.53299,0-1.01801-0.26904-1.297-0.71899c-0.21198-0.34204-0.27698-0.74603-0.18399-1.138
		c0.09399-0.39301,0.33701-0.72601,0.68399-0.93701c0.24002-0.14703,0.51501-0.224,0.79401-0.224
		c0.534,0,1.01901,0.26898,1.297,0.71997c0.21201,0.34204,0.27701,0.74701,0.18301,1.138
		c-0.09302,0.39404-0.336,0.72601-0.68399,0.93701C125.142,44.03058,124.867,44.1076,124.58798,44.1076 M124.58499,41.3396
		c-0.233,0-0.46301,0.06396-0.66299,0.18701c-0.29001,0.17596-0.49301,0.45398-0.57101,0.78198
		c-0.078,0.32599-0.02399,0.66296,0.15302,0.94897c0.23199,0.37604,0.638,0.60004,1.08398,0.60004
		c0.233,0,0.46301-0.06403,0.66302-0.18604c0.28998-0.177,0.49298-0.45398,0.57098-0.78101
		c0.078-0.32697,0.02399-0.664-0.15298-0.94995C125.43698,41.56458,125.03101,41.3396,124.58499,41.3396"/>
	<polyline class="st3" points="111.77899,40.237 110.591,0.48096 142.81998,22.28198 140.336,77.40698 113.49399,44.612 	"/>
	
		<rect x="77.17557" y="-8.31066" transform="matrix(0.07892 -0.99688 0.99688 0.07892 32.67632 113.11604)" class="st2" width="0.75035" height="94.37186"/>
	
		<rect x="20.41099" y="42.33359" transform="matrix(1 -0.00269 0.00269 1 -0.11443 0.19486)" class="st2" width="104.17822" height="0.75"/>
	
		<rect x="10.30068" y="49.84018" transform="matrix(0.99759 -0.06936 0.06936 0.99759 -3.44849 1.1057)" class="st2" width="7.79693" height="0.74979"/>
	
		<rect x="23.97364" y="45.69098" transform="matrix(0.99759 -0.06936 0.06936 0.99759 -3.0159 5.26685)" class="st2" width="100.73441" height="0.74979"/>
	<path class="st4" d="M19.29791,43.65497c-0.46402-0.60901-0.345-1.47797,0.267-1.94c0.61099-0.46301,1.483-0.34399,1.94699,0.26501
		c0.46399,0.60999,0.34399,1.479-0.267,1.94202C20.63391,44.38397,19.7619,44.26398,19.29791,43.65497"/>
	<path class="st5" d="M19.29791,43.65497c-0.46402-0.60901-0.345-1.47797,0.267-1.94c0.61099-0.46301,1.483-0.34399,1.94699,0.26501
		c0.46399,0.60999,0.34399,1.479-0.267,1.94202C20.63391,44.38397,19.7619,44.26398,19.29791,43.65497z"/>
	<path class="st4" d="M29.46921,35.99286c-0.461-0.612-0.34201-1.48499,0.26498-1.94995c0.608-0.46503,1.474-0.34503,1.935,0.26697
		c0.461,0.61304,0.34201,1.48602-0.26498,1.95001C30.7962,36.72491,29.93021,36.60486,29.46921,35.99286"/>
	<path class="st5" d="M29.46921,35.99286c-0.461-0.612-0.34201-1.48499,0.26498-1.94995c0.608-0.46503,1.474-0.34503,1.935,0.26697
		c0.461,0.61304,0.34201,1.48602-0.26498,1.95001C30.7962,36.72491,29.93021,36.60486,29.46921,35.99286z"/>
	<path class="st4" d="M9.2485,51.32098c-0.46201-0.60901-0.34302-1.47803,0.26599-1.94s1.479-0.34302,1.94101,0.26501
		c0.46201,0.60999,0.34299,1.479-0.26599,1.94098C10.58051,52.04999,9.71051,51.93097,9.2485,51.32098"/>
	<path class="st5" d="M9.2485,51.32098c-0.46201-0.60901-0.34302-1.47803,0.26599-1.94s1.479-0.34302,1.94101,0.26501
		c0.46201,0.60999,0.34299,1.479-0.26599,1.94098C10.58051,52.04999,9.71051,51.93097,9.2485,51.32098z"/>
</g>
<polygon class="st6" points="90.92323,17.56847 90.92333,17.56835 90.92333,17.56837 90.92335,17.56837 90.92332,17.56835 
	90.92335,17.56839 90.92329,17.56838 90.9233,17.56837 90.92329,17.56836 90.92329,17.56841 90.92333,17.56837 90.92331,17.56837 
	90.92328,17.56842 90.92333,17.56837 90.92331,17.56838 90.92332,17.56839 90.92335,17.56837 90.9233,17.56838 90.92333,17.56837 
	90.92335,17.56836 90.92329,17.56835 90.92333,17.56837 90.92333,17.56843 90.9233,17.56836 90.92332,17.5684 90.92329,17.56835 
	90.92334,17.56836 90.92335,17.56835 90.92332,17.56836 90.92335,17.56837 90.92329,17.56842 90.92334,17.56838 90.92331,17.56835 
	90.9233,17.56837 90.92328,17.56839 90.92332,17.5684 90.92333,17.56835 90.92328,17.56837 90.92332,17.56836 90.92331,17.56839 
	90.92334,17.56838 90.92334,17.56842 90.92335,17.5684 90.92333,17.56835 90.92332,17.56835 90.92332,17.56839 90.92334,17.56839 
	90.92334,17.56841 90.92331,17.56839 90.92335,17.56836 90.92332,17.56837 90.92333,17.56839 90.92335,17.56839 90.92334,17.56835 
	90.92334,17.56839 90.92334,17.56842 90.92334,17.56838 90.92333,17.56837 90.92334,17.56842 90.92333,17.5684 90.92332,17.56835 
	90.92335,17.56841 90.92329,17.56837 90.92332,17.56839 90.92332,17.56836 90.92331,17.56839 90.92332,17.56841 90.92332,17.5684 
	90.9233,17.56839 90.92331,17.56836 90.92328,17.56839 90.92332,17.56836 90.92334,17.56839 90.92335,17.56838 90.92334,17.56835 
	90.92333,17.56835 90.92333,17.5684 90.92329,17.5684 90.92333,17.56841 90.92332,17.56841 90.92329,17.56841 90.9233,17.56842 
	90.92328,17.56842 90.92334,17.56839 90.92332,17.56839 90.92329,17.56842 90.92328,17.56837 90.92329,17.56842 90.92335,17.56837 
	"/>
<g>
	<polygon class="st6" points="131.81357,60.27262 131.81371,60.27262 131.81369,60.27264 131.81371,60.27264 131.81371,60.27261 
		131.81369,60.27266 131.81366,60.27261 131.81367,60.27261 131.81367,60.2726 131.81364,60.27262 131.81371,60.27263 
		131.81369,60.27262 131.81363,60.27262 131.81369,60.27263 131.81367,60.27262 131.81367,60.27263 131.81371,60.27264 
		131.81367,60.27262 131.81371,60.27263 131.81372,60.27264 131.81367,60.27259 131.81369,60.27263 131.81366,60.27266 
		131.81369,60.2726 131.81367,60.27264 131.81369,60.2726 131.81371,60.27263 131.81372,60.27264 131.81369,60.27262 
		131.81371,60.27264 131.81364,60.27262 131.81369,60.27264 131.81369,60.27261 131.81367,60.27261 131.81364,60.27261 
		131.81367,60.27264 131.81371,60.27262 131.81366,60.27259 131.81369,60.27261 131.81367,60.27262 131.81369,60.27264 
		131.81367,60.27266 131.81369,60.27266 131.81371,60.27262 131.81371,60.27261 131.81367,60.27263 131.81369,60.27265 
		131.81367,60.27266 131.81367,60.27263 131.81372,60.27264 131.81369,60.27262 131.81369,60.27264 131.81369,60.27266 
		131.81372,60.27262 131.81369,60.27265 131.81367,60.27267 131.81369,60.27265 131.81371,60.27263 131.81367,60.27267 
		131.81369,60.27265 131.81371,60.27262 131.81367,60.27267 131.81367,60.27259 131.81367,60.27263 131.81369,60.27262 
		131.81367,60.27263 131.81366,60.27264 131.81367,60.27264 131.81366,60.27262 131.81369,60.27261 131.81364,60.27261 
		131.81369,60.27261 131.81369,60.27265 131.81371,60.27265 131.81372,60.27263 131.81372,60.27262 131.81367,60.27265 
		131.81366,60.27262 131.81367,60.27266 131.81366,60.27264 131.81366,60.27262 131.81364,60.27264 131.81363,60.27262 
		131.81369,60.27265 131.81367,60.27263 131.81363,60.27263 131.81366,60.27259 131.81364,60.27263 131.81371,60.27264 	"/>
	<g>
		<defs>
			<polygon id="SVGID_3_" points="127.15715,58.33471 134.80516,67.60873 139.20171,63.52579 130.51793,55.21364 			"/>
		</defs>
		<clipPath id="SVGID_4_">
			<use xlink:href="#SVGID_3_"  style="overflow:visible;"/>
		</clipPath>
		<path class="st7" d="M132.37534,60.58369L132.37534,60.58369z"/>
		<path class="st8" d="M130.45644,58.88294c0.03696,0.03083,0.06104,0.04762,0.09808,0.08796
			c0.07156,0.07795,0.18576,0.18329,0.26772,0.25151c-0.04469,0.18657-0.39032,1.5776-0.39574,2.43464l-0.46857-0.55747
			L130.45644,58.88294 M128.2114,59.02165c0.11674-0.03725,0.24509-0.15643,0.28667-0.19505l2.321-2.15545
			c0.0461-0.0428,0.16992-0.1578,0.21581-0.27159l0.53635,0.52632c-0.13637,0.00814-0.22995,0.09505-0.2997,0.15982
			l-2.37556,2.20613c-0.0468,0.04346-0.1725,0.16019-0.2222,0.2799L128.2114,59.02165z M131.42332,57.26548
			c0.09874-0.0917,0.25378-0.23568,0.55576,0.06064c0.42537,0.41742,0.4696,0.78463-0.10187,1.31534
			c-0.62482,0.58024-0.86745,0.50408-1.61299-0.29956L131.42332,57.26548z M131.24789,59.26644
			c0.31783-0.01933,0.59125-0.24395,0.80588-0.44327c0.23378-0.21711,0.46112-0.48679,0.49599-0.83523
			c0.16803,0.24984,0.53716,0.90767,0.03592,1.37315C132.26292,59.66083,131.85703,59.73179,131.24789,59.26644z
			 M130.09996,58.49445l0.16528,0.18013l-0.41245,1.81794c-0.03033,0.12671-0.10837,0.43622-0.12967,0.56547
			c-0.02541,0.09418-0.0116,0.1108,0.09669,0.24107l0.66812,0.80374c0.08899,0.10706,0.16376,0.19699,0.2552,0.11208
			c0.03975-0.03692,0.04581-0.10555,0.01025-0.16888c-0.14401-0.25687-0.05779-0.84656-0.01718-1.13081
			c0.01474-0.08604,0.09474-0.66585,0.29323-1.51537c0.51857,0.40545,1.1478,0.70298,1.74136,0.15175
			c0.69365-0.64417,0.14658-1.62988-0.45633-2.21509l-1.49466-1.45079c-0.08069-0.07832-0.15302-0.14852-0.23453-0.07281
			c-0.0762,0.07077,0.00891,0.15429,0.04504,0.18974c0.25821,0.25339,0.24834,0.3055,0.02005,0.5175l-2.29001,2.12667
			c-0.22827,0.212-0.2809,0.21793-0.51371-0.05906c-0.03258-0.03876-0.10931-0.13005-0.18552-0.05929
			c-0.08152,0.07571-0.01708,0.15322,0.05482,0.23972l1.15476,1.38916c0.07904,0.0951,0.1463,0.176,0.23247,0.09599
			c0.08055-0.0748,0.0041-0.16575-0.04488-0.22401c-0.25076-0.29835-0.23004-0.35386-0.00026-0.56726L130.09996,58.49445z"/>
		<path class="st8" d="M134.98453,62.09406c-0.09779,0.04806-0.26724,0.12719-0.28622,0.14482
			c-0.0844,0.07837-0.04472,0.1958,0.02489,0.26946c0.07837,0.08292,0.19865,0.11079,0.25462,0.10223
			c0.05713-0.00955,0.21638-0.08724,0.31966-0.13952c0.09596-0.04539,0.3232-0.15908,0.44815-0.22147
			c0.11229-0.05053,0.22458-0.10342,0.33646-0.1632c0.21858-0.10474,0.2261-0.11174,0.44054-0.13083
			c0.34084-0.03085,0.80527-0.00751,1.18777,0.36099c0.27824,0.26805,0.10785,0.45505,0.01115,0.54484
			c-0.24117,0.22396-0.89604,0.42734-1.14091,0.50433c-0.16397,0.04903-0.21884,0.06142-0.28703,0.12474
			c-0.21117,0.19611-0.13347,0.53839,0.10963,0.79563c0.48862,0.51703,1.27551,0.22164,1.33809,0.16352
			c0.05348-0.04965-0.01291-0.11736-0.02841-0.13316c-0.07021-0.07159-0.10068-0.05413-0.16557-0.0321
			c-0.4431,0.18305-0.82201,0.11753-1.01682-0.08733c-0.1013-0.10653-0.06316-0.17864,0.0213-0.25707
			c0.09224-0.08566,0.16855-0.10923,0.43752-0.18765c0.1834-0.05637,0.81903-0.24898,1.04593-0.4597
			c0.06514-0.0605,0.23589-0.21906,0.16472-0.51073c-0.03448-0.13233-0.12425-0.3255-0.35904-0.5503
			c-0.44177-0.42297-0.93735-0.46119-1.25085-0.45471c0.29369-0.34412,0.02415-0.71977-0.21083-0.94476
			c-0.37428-0.35835-0.81494-0.41806-1.09508-0.40687c0.2274-0.268,0.05557-0.58839-0.12015-0.75663
			c-0.18082-0.17312-0.3912-0.16099-0.5289-0.13517c-0.22488,0.03804-0.49045,0.17493-0.50853,0.19172
			c-0.04721,0.04385,0.00989,0.10057,0.02223,0.11283c0.05623,0.05585,0.07182,0.05003,0.19897-0.01387
			c0.27792-0.13853,0.53647-0.23017,0.70039-0.07226c0.11137,0.1073,0.05891,0.2117-0.0414,0.30487
			c-0.06961,0.06464-0.24516,0.15417-0.3743,0.21852c-0.12889,0.06424-0.32225,0.1619-0.42429,0.21688l-0.59996,0.30433
			c-0.06433,0.0269-0.18089,0.08706-0.19102,0.09647c-0.08105,0.07527-0.0459,0.18493,0.01828,0.25284
			c0.07336,0.07763,0.18504,0.10036,0.23907,0.09245c0.054-0.01006,0.20552-0.08607,0.30382-0.13714
			c0.09125-0.04447,0.30746-0.15557,0.4252-0.2177c0.1067-0.04958,0.21461-0.1002,0.32111-0.15847
			c0.19955-0.09483,0.23775-0.11442,0.51648-0.13437c0.27084-0.01999,0.67538-0.00209,1.01367,0.32381
			c0.26587,0.25613,0.07263,0.44283-0.00089,0.5111c-0.09587,0.08903-0.15979,0.12185-0.43842,0.26019L134.98453,62.09406"/>
	</g>
</g>
<g>
	<polygon class="st6" points="8.4058,65.31496 8.40582,65.31482 8.40583,65.31483 8.40584,65.31483 8.40582,65.31483 
		8.4058,65.31485 8.40585,65.31485 8.40583,65.31483 8.40582,65.3149 8.40582,65.31488 8.40583,65.31483 8.40581,65.31484 
		8.40582,65.3149 8.40583,65.31483 8.40582,65.31486 8.40583,65.31486 8.40584,65.31482 8.40583,65.31483 8.40582,65.31486 
		8.40585,65.31484 8.40582,65.31483 8.40584,65.31484 8.40578,65.31486 8.40586,65.31486 8.40579,65.31487 8.40582,65.31482 
		8.40583,65.31487 8.40583,65.31488 8.40584,65.31483 8.40579,65.31486 8.40579,65.31486 8.40584,65.31484 8.4058,65.31484 
		8.40581,65.31483 8.40585,65.31486 8.4058,65.31489 8.40584,65.31483 8.40579,65.31487 8.40586,65.31483 8.40581,65.31485 
		8.40582,65.31488 8.40584,65.31489 8.4058,65.31486 8.40581,65.31489 8.40585,65.31488 8.40586,65.31487 8.40582,65.31487 
		8.40583,65.31483 8.40582,65.31487 8.40583,65.31486 8.40586,65.31487 8.40585,65.31484 8.40582,65.31482 8.40583,65.31487 
		8.40583,65.31483 8.40584,65.31485 8.40578,65.31487 8.40581,65.31484 8.40586,65.31486 8.40584,65.31483 8.40585,65.31484 
		8.40581,65.31489 8.40578,65.31487 8.40582,65.31485 8.40582,65.31487 8.40583,65.31483 8.40584,65.31487 8.40581,65.31486 
		8.40582,65.31486 8.40581,65.31485 8.40583,65.31489 8.40581,65.31483 8.40584,65.31482 8.40585,65.31483 8.40584,65.31488 
		8.4058,65.31484 8.40581,65.31483 8.40582,65.31487 8.40585,65.31486 8.40582,65.31483 8.40582,65.31487 8.40587,65.31487 
		8.40583,65.31483 8.40585,65.31487 8.40584,65.31488 8.40578,65.31486 8.40583,65.31483 8.40583,65.3149 8.40584,65.31482 	"/>
	<g>
		<defs>
			<polygon id="SVGID_5_" points="6.06869,70.86607 13.18681,63.77715 10.59618,60.62352 2.26013,66.22982 			"/>
		</defs>
		<clipPath id="SVGID_6_">
			<use xlink:href="#SVGID_5_"  style="overflow:visible;"/>
		</clipPath>
		<path class="st9" d="M8.76328,64.77009L8.76328,64.77009z"/>
		<path class="st10" d="M7.52816,66.12687c0.042-0.04403,0.0654-0.07243,0.11795-0.11642
			c0.1004-0.08405,0.23626-0.21513,0.32382-0.30735c0.19894,0.04523,1.59547,0.37593,2.39292,0.3516l-0.5345,0.5164
			L7.52816,66.12687 M7.29621,69.01746c-0.02594-0.16013-0.15685-0.31949-0.19926-0.37112l-2.3675-2.88201
			c-0.04701-0.05724-0.17332-0.21099-0.32511-0.26721l0.91381-0.64167c-0.02811,0.15861,0.06298,0.26949,0.13085,0.35212
			l2.31219,2.81467c0.04555,0.05544,0.1679,0.20438,0.30502,0.25131L7.29621,69.01746z M5.72936,65.03265
			c-0.09445-0.11497-0.24274-0.29549,0.21814-0.61912c0.60399-0.42411,1.03713-0.44449,1.53543,0.16211
			c0.54481,0.66322,0.42821,0.92353-0.64492,1.8066L5.72936,65.03265z M8.07549,65.24377
			c0.02056-0.33127-0.18278-0.61607-0.3668-0.84009c-0.20045-0.24401-0.45992-0.48524-0.8452-0.54399
			c0.31045-0.14666,1.06305-0.4399,1.47239,0.05839C8.59948,64.23895,8.62914,64.6329,8.07549,65.24377z M6.99513,66.57351
			l0.2522-0.21133l1.97117,0.36431c0.12694,0.02528,0.4317,0.09035,0.5575,0.10459c0.09035,0.02119,0.10711,0.00471,0.23681-0.12283
			l0.7414-0.72906c0.09174-0.09021,0.16762-0.16483,0.09667-0.2512c-0.03085-0.03755-0.08871-0.04224-0.1428-0.00684
			c-0.22419,0.14651-0.75176,0.07407-1.01502,0.03893c-0.08074-0.01331-0.64096-0.08521-1.50201-0.28434
			c0.48087-0.53497,0.82934-1.13538,0.35255-1.7158c-0.55718-0.67827-1.6869-0.2664-2.50306,0.296l-2.50876,1.72872
			c-0.16007,0.1103-0.30609,0.21092-0.21746,0.31882c0.08285,0.10086,0.25422-0.01948,0.32595-0.06984
			c0.49572-0.34809,0.57113-0.33655,0.80818-0.04798l2.37796,2.89474c0.23705,0.28857,0.23389,0.36498-0.2019,0.78601
			c-0.06306,0.06093-0.21371,0.20647-0.13086,0.30733c0.08864,0.1079,0.21513-0.01649,0.3538-0.15285l1.92175-1.88975
			c0.11357-0.11167,0.20863-0.20515,0.12976-0.30117c-0.07373-0.08974-0.18206,0.01492-0.25243,0.0829
			c-0.37264,0.36002-0.43505,0.34129-0.65484,0.07374L6.99513,66.57351z"/>
		<path class="st10" d="M9.73225,63.14009c0.01968,0.05474,0.0651,0.15526,0.07258,0.16437
			c0.05984,0.07285,0.15292,0.05284,0.21155,0.00605c0.06626-0.05288,0.08842-0.14045,0.08373-0.18419
			c-0.00641-0.04375-0.06291-0.1703-0.10082-0.25222c-0.03271-0.0755-0.11443-0.25407-0.16001-0.35094
			c-0.03571-0.08671-0.07205-0.17411-0.11453-0.26102c-0.06757-0.16029-0.08161-0.19101-0.08429-0.39735
			c-0.00303-0.1969,0.02999-0.47726,0.29408-0.65686c0.19883-0.13523,0.3302,0.01936,0.37815,0.07774
			c0.1508,0.18357,0.28874,0.62907,0.34204,0.79897c0.03425,0.11449,0.04299,0.15251,0.08668,0.20569
			c0.13529,0.16469,0.36296,0.152,0.52543,0.02235c0.31086-0.24806,0.10741-0.76372,0.07033-0.80886
			c-0.03168-0.03857-0.07172-0.00854-0.08112-0.0015c-0.04286,0.03214-0.03138,0.05288-0.01627,0.09496
			c0.12448,0.29438,0.09307,0.52295-0.0332,0.62267c-0.06693,0.05286-0.11477,0.01949-0.16759-0.04481
			c-0.05769-0.07022-0.07427-0.12237-0.12922-0.30418c-0.03903-0.12312-0.17018-0.54217-0.30861-0.71069
			c-0.24055-0.29283-0.54174-0.17049-0.72414-0.04777c-0.2924,0.19673-0.36218,0.49579-0.3679,0.69849
			c-0.20612-0.20248-0.48535-0.12441-0.64311-0.01826c-0.16688,0.11228-0.17447,0.27625-0.16345,0.38729
			c0.01448,0.18288,0.11523,0.41297,0.12887,0.42957c0.03562,0.04337,0.09117,0.00354,0.10311-0.00503
			c0.05409-0.03879,0.05012-0.05196,0.00336-0.16095c-0.10046-0.23634-0.16009-0.44898-0.0088-0.55187
			c0.10062-0.06844,0.18582-0.01463,0.25797,0.0732c0.05006,0.06094,0.11447,0.20527,0.16083,0.31179
			c0.04648,0.10682,0.11771,0.26811,0.1584,0.35404L9.73225,63.14009"/>
	</g>
</g>
<g>
	<path class="st11" d="M10.56939,37.94409c-0.31982,0.26953-0.35889,0.3667-0.40088,0.98389l-0.29834,4.36035
		c-0.00537,0.0791,0.00488,0.19873-0.00049,0.27783l-0.61426,0.35449L6.294,41.81616l-0.25,3.6582
		c-0.04199,0.61621-0.01172,0.66064,0.30518,0.43896l0.30273-0.2124L6.6358,45.93726
		c-0.27637,0.19873-0.55225,0.40479-0.82959,0.61914c-0.27051,0.20898-0.53467,0.42041-0.80615,0.64502l0.01611-0.23633
		l0.30762-0.25928c0.3208-0.271,0.35986-0.36914,0.40186-0.98535l0.24268-3.54688c0.04199-0.61719,0.0127-0.66162-0.30518-0.4375
		l-0.3042,0.2124l0.0166-0.23828c0,0,0.50488-0.3667,0.83105-0.61865c0.14453-0.1123,0.37598-0.31348,0.37598-0.31348
		l3.01221,2.11719l0.25439-3.7207c0.04199-0.61719,0.01172-0.66162-0.30518-0.43799l-0.30322,0.2124l0.0166-0.23828
		c0.26953-0.19238,0.53223-0.38818,0.80176-0.59619c0.27734-0.21484,0.55566-0.43701,0.83398-0.66797l-0.0166,0.23828
		L10.56939,37.94409z"/>
	<path class="st11" d="M14.09527,40.15112c-0.19434,0.1499-0.38135,0.30225-0.57666,0.46729
		c0.04688-0.38721,0.0625-0.51953,0.07812-0.74805l-0.49854,0.84912c-0.2002,0.3418-0.48486,0.6665-0.79639,0.90723
		c-0.39551,0.30566-0.65088,0.39111-0.78711,0.27148c-0.11084-0.10107-0.13574-0.31396-0.09814-0.8667l0.09082-1.32812
		c0.03564-0.52051,0.01123-0.55469-0.26611-0.34033l-0.25586,0.19824l0.01514-0.22168
		c0.37012-0.33105,0.73828-0.71973,1.10303-1.15918l0.06055-0.0166l-0.15967,2.33008
		c-0.02344,0.34766,0.00781,0.55615,0.09668,0.60693c0.1001,0.06396,0.28809,0.00195,0.53027-0.18555
		c0.27051-0.20898,0.5-0.4917,0.70947-0.8623c0.17139-0.3042,0.28467-0.60156,0.29639-0.77539l0.08789-1.28809
		c0.03564-0.52051,0.01123-0.55469-0.26611-0.33984l-0.25586,0.19824l0.01514-0.22168
		c0.37012-0.33154,0.73828-0.71973,1.10303-1.15967l0.06055-0.01611L14.1856,39.3186
		c-0.03467,0.50586-0.01709,0.53662,0.21729,0.37109l0.28223-0.19629L14.669,39.72974
		C14.47662,39.86353,14.28961,40.00024,14.09527,40.15112z"/>
	<path class="st11" d="M15.8355,38.8064c-0.29102,0.22412-0.57568,0.45166-0.86768,0.69238l0.01611-0.23633l0.32129-0.27002
		c0.23633-0.19873,0.26074-0.26953,0.29443-0.76758l0.27979-4.09277c0.0166-0.2373-0.02539-0.28564-0.15039-0.18945
		l-0.38867,0.30029l0.01465-0.22168c0.55469-0.51904,0.7876-0.75928,1.10156-1.12695l0.05811,0.01367l-0.33301,4.86719
		c-0.03369,0.49805-0.01611,0.53662,0.21826,0.37109l0.31738-0.22314l-0.01611,0.23633
		C16.41021,38.3689,16.12652,38.58081,15.8355,38.8064z"/>
	<path class="st11" d="M22.93218,33.32202c-0.31836,0.24609-0.64453,0.50586-0.96484,0.76758l0.0166-0.23633l0.32715-0.2749
		c0.17383-0.15039,0.28906-0.29102,0.29492-0.37793c0.00488-0.07129-0.01562-0.15332-0.11035-0.39355l-0.25684-0.6626
		l-1.99609,1.54248l-0.23047,0.6792c-0.17188,0.50781-0.29248,0.92188-0.2998,1.02539
		c-0.00879,0.12695,0.07764,0.11182,0.31934-0.05127l0.25391-0.17432l-0.01611,0.23633
		c-0.27637,0.19824-0.56006,0.41016-0.8374,0.62451c-0.24902,0.19287-0.50635,0.39893-0.75635,0.60693l0.01611-0.23633
		l0.25781-0.22119c0.1543-0.13477,0.29492-0.37793,0.40137-0.67725l1.80273-5.15039
		c0.30957-0.87451,0.40332-1.20264,0.40332-1.20264l0.22168-0.17139l1.37012,3.19287
		c0.19922,0.45117,0.26465,0.54297,0.44434,0.42041l0.2334-0.15869l-0.01562,0.23633
		C23.52203,32.87427,23.2232,33.09692,22.93218,33.32202z M21.4234,30.24536l-1.04199,3.03515l1.75391-1.35547L21.4234,30.24536z"/>
	<path class="st11" d="M24.91949,32.677l-0.41602,0.32129l3.03516-8.66846l0.41602-0.32129L24.91949,32.677z"/>
	<path class="st11" d="M30.2691,24.052c1.31152-0.26514,0.78711,1.17383,0.36719,1.07178
		c-0.01562-0.35449-0.19727-0.6709-0.38086-0.87354l-0.27539,4.0293c-0.00488,0.0791-0.24316,0.39844-0.43066,0.54297
		l-0.11133,0.08594l0.24316-3.55566c-0.31543,0.87988-0.71191,1.77002-1.19043,2.64209l-0.08496-0.0249
		c0.59082-1.33984,1.01465-2.84229,1.27832-4.19092l-0.88672,0.68555l-0.0332-0.19092l1.0459-0.80859l0.12891-1.88965
		l0.77051-0.49658c-0.0293,0.13525-0.08301,0.24316-0.26562,0.41357l-0.10645,1.56543l0.15234-0.11768l0.35059-0.71338
		c0,0,0.31641,0.06982,0.52246,0.13477c-0.02637,0.10303-0.0918,0.19141-0.18848,0.26611l-0.85254,0.65869L30.2691,24.052z
		 M35.01812,21.41529c-0.06152,0.12988-0.13867,0.21191-0.2959,0.29541c-0.3916,0.83447-0.80469,1.5957-1.24805,2.31982
		c1.89355-0.71533,1.40332,0.97363,0.80469,1.00244c-0.14648-0.35889-0.58203-0.62109-0.95312-0.76074
		c-0.89062,1.43018-1.89746,2.70947-3.02637,3.94873l-0.04785-0.08398c1.59961-1.96875,2.99512-4.04297,4.05762-6.61426
		L35.01812,21.41529z M31.12945,22.22779l-0.04004-0.18555l3.16015-2.44238l0.38281-0.79736c0,0,0.36328,0.06348,0.58105,0.1499
		c-0.02051,0.09766-0.09277,0.19043-0.18945,0.26514l-2.09277,1.61768l0.46973-0.15234
		c-0.03906,0.09619-0.12695,0.23193-0.27148,0.3208c-0.33496,0.67041-0.87012,1.59375-1.36133,2.33936
		c0.38281-0.31787,0.90625-0.75977,1.45508-1.22168c0.22949-0.47705,0.44824-0.97461,0.65332-1.47754l0.66992-0.11328
		c-0.04688,0.11816-0.12402,0.20068-0.28809,0.29004c-0.98145,2.15771-2.20508,4.02393-3.67773,5.78271l-0.05371-0.08691
		c0.93945-1.24805,1.78418-2.56787,2.50683-4.0083c-0.38965,0.4126-0.8916,0.93555-1.41406,1.4668
		c-0.06055,0.12939-0.12012,0.22607-0.18457,0.29883l-0.17871-0.54199c0,0,0.12598-0.12012,0.17676-0.19727
		c0.4043-0.61914,0.93652-1.79395,1.19238-2.46338L31.12945,22.22779z M32.6148,19.50806
		c1.50586-0.71436,0.93066,0.875,0.42188,0.84229c-0.0498-0.32861-0.28613-0.61768-0.49414-0.74072L32.6148,19.50806z"/>
</g>
<g>
	<path d="M14.17632,84.20874c1.37988,0.70117,0.9248,1.66699,0.46924,1.26758c-0.04199-0.34277-0.25879-0.76953-0.46924-1.0918
		v3.57129c0,0.07031-0.23096,0.19629-0.41992,0.19629h-0.1123v-3.15137c-0.27295,0.59473-0.63037,1.1416-1.07861,1.61035
		l-0.09082-0.08398c0.53223-0.82617,0.87549-1.92578,1.05762-2.99707H12.6358l-0.04932-0.20312h1.05762v-1.67383l0.78467,0.09082
		c-0.021,0.10449-0.07031,0.16797-0.25244,0.19629v1.38672h0.1543l0.32227-0.41309c0,0,0.34326,0.29395,0.56738,0.50391
		c-0.021,0.07715-0.08398,0.1123-0.18213,0.1123h-0.86182V84.20874z M19.05132,85.17554
		c-0.05615,0.07715-0.1333,0.09766-0.29443,0.06348c-0.35693,0.49707-0.74219,0.91016-1.1626,1.26758
		c1.96826,0.7002,1.56885,1.92578,0.93164,1.51953c-0.18213-0.44141-0.66553-1.00195-1.07178-1.40039
		c-0.84717,0.69336-1.82764,1.16211-2.94141,1.50586l-0.05615-0.1123c1.56201-0.68652,2.8999-1.61816,3.84522-3.25684
		L19.05132,85.17554z M14.96099,83.12378l-0.05615-0.20312h3.19385l0.3501-0.46973c0,0,0.39209,0.32227,0.63037,0.56055
		c-0.01416,0.07715-0.08398,0.1123-0.18213,0.1123h-2.11523l0.49023,0.19629c-0.03467,0.0625-0.11865,0.12598-0.26611,0.10449
		c-0.30811,0.38574-0.8125,0.86133-1.28174,1.20508c0.38525-0.02148,0.91065-0.05664,1.46387-0.0918
		c0.21045-0.2793,0.40625-0.58789,0.58838-0.91016l0.70752,0.37793c-0.04199,0.07715-0.11914,0.09863-0.28711,0.06348
		c-0.88965,1.30957-2.05908,2.1709-3.50195,2.75195l-0.06299-0.11816c0.91016-0.49121,1.71582-1.11426,2.38135-1.94043
		c-0.38525,0.10449-0.88281,0.23145-1.40088,0.35059c-0.05615,0.07617-0.1123,0.12598-0.17529,0.14648l-0.23096-0.6377
		c0,0,0.12598-0.02051,0.17529-0.05566c0.38477-0.28711,0.86817-1.00098,1.09229-1.44238H14.96099z M16.34771,81.65308
		c1.55469,0.41992,1.05762,1.49121,0.51123,1.0918c-0.07715-0.34277-0.3501-0.78418-0.58105-1.0498L16.34771,81.65308z"/>
	<path d="M23.13775,87.46558c0.18896,0.00684,0.39893,0.01465,0.62305,0.01465c0.52539,0,1.76514,0,2.31836-0.01465v0.09863
		c-0.18896,0.03516-0.29395,0.20996-0.30127,0.41992H23.7398c-1.28174,0-1.98193-0.24512-2.43701-1.35156
		c-0.34326,0.58789-0.86865,1.13477-1.69531,1.50586l-0.06299-0.07715c0.95947-0.67285,1.40088-1.7373,1.55518-2.6543
		l0.84717,0.18848c-0.03467,0.09863-0.11182,0.1543-0.26611,0.1543c-0.06982,0.24512-0.16797,0.49023-0.29395,0.73535
		c0.28027,0.52539,0.64404,0.77734,1.1626,0.89648v-2.30371h-2.87158l-0.05615-0.20312h5.36475l0.36426-0.47656
		c0,0,0.42041,0.3291,0.67236,0.56738c-0.021,0.07715-0.08398,0.1123-0.18213,0.1123h-2.70312v0.96582h1.21875l0.37109-0.49023
		c0,0,0.43408,0.33691,0.68604,0.58203c-0.021,0.07617-0.09082,0.11133-0.18896,0.11133h-2.08691V87.46558z M21.40777,84.45386
		c0,0.05664-0.25244,0.18945-0.4834,0.18945h-0.09082v-2.80859l0.62305,0.2666h2.74561l0.30127-0.3291l0.65137,0.49707
		c-0.04932,0.05566-0.1543,0.11133-0.29443,0.13965v1.98926c-0.00684,0.04199-0.30811,0.16113-0.49023,0.16113h-0.09814v-0.32227
		h-2.86426V84.45386z M21.40777,82.31128v0.74219h2.86426v-0.74219H21.40777z M24.27203,84.03394v-0.77734h-2.86426v0.77734
		H24.27203z"/>
	<path d="M30.09576,87.38843c0.3501,0.0498,0.74902,0.06348,1.19727,0.06348c0.40625,0,1.33105,0,1.78613-0.01367v0.09766
		c-0.21729,0.04199-0.32227,0.23828-0.33594,0.46875h-1.49219c-1.61084,0-2.50732-0.30078-3.06055-1.65234
		c-0.30127,0.7002-0.79834,1.35156-1.57568,1.7998l-0.07715-0.07715c0.93848-0.79785,1.33057-2.08008,1.44971-3.16504
		l0.82666,0.16797c-0.02832,0.09766-0.10498,0.15332-0.26611,0.16113c-0.06299,0.30078-0.1543,0.62305-0.28027,0.93066
		c0.30127,0.5957,0.70752,0.9248,1.26758,1.09277v-3.0459h-2.04492l-0.05615-0.20312h3.81006l0.36426-0.42773
		c0,0,0.39892,0.30078,0.66553,0.51855c-0.021,0.07715-0.09814,0.1123-0.19629,0.1123h-1.98193v1.30176h1.12744l0.35693-0.44824
		c0,0,0.40625,0.30859,0.65137,0.54004c-0.01367,0.07715-0.08398,0.11133-0.18164,0.11133h-1.9541V87.38843z M27.60943,83.01831
		c0.021,0.47656-0.16846,0.79199-0.39258,0.9248c-0.1958,0.13281-0.49707,0.10449-0.58838-0.1123
		c-0.06982-0.19629,0.05615-0.37109,0.24561-0.46191c0.25879-0.14062,0.5459-0.51172,0.51123-0.9248l0.11182-0.00684
		c0.04199,0.13281,0.07715,0.25879,0.09131,0.37793h4.50342l0.33594-0.34277L33.044,83.0603
		c-0.05566,0.04883-0.13281,0.06348-0.26611,0.07031c-0.1958,0.22363-0.56006,0.51074-0.83349,0.68652l-0.08398-0.05664
		c0.08398-0.19531,0.18945-0.49707,0.25244-0.74219H27.60943z M29.32525,81.68726c1.56885,0.22461,1.0293,1.41504,0.44824,0.98145
		c-0.02832-0.33008-0.26611-0.72168-0.51123-0.93164L29.32525,81.68726z"/>
	<path d="M39.86187,87.61304c0.16846,0.13965,0.24512,0.27344,0.19629,0.37109c-0.09814,0.2168-0.44824,0.1748-0.82666,0.04199
		c-0.53223-0.16113-0.92432-0.43457-1.22559-0.78418c-0.51123,0.31445-1.12061,0.57422-1.77197,0.73535l-0.04883-0.09082
		c0.58105-0.23828,1.13477-0.5752,1.59668-0.95312c-0.20996-0.33594-0.35693-0.72168-0.45508-1.12695h-1.48486v0.50391
		c0.37842-0.05566,0.77051-0.12598,1.1626-0.19629l0.021,0.11914c-0.33594,0.10547-0.72852,0.22363-1.18359,0.35059v0.86133
		c0,0.3916-0.09082,0.64453-0.79834,0.70703c-0.00684-0.1543-0.04932-0.27344-0.14697-0.34961
		c-0.09814-0.08496-0.26611-0.14062-0.58838-0.18945V87.5144c0,0,0.69336,0.0498,0.8335,0.0498
		c0.11914,0,0.15381-0.04199,0.15381-0.13379v-0.70703c-0.38525,0.09766-0.80518,0.19629-1.26758,0.30078
		c-0.03516,0.0918-0.09082,0.14062-0.15381,0.16113l-0.31543-0.55273c0.38525-0.03516,1.00879-0.11914,1.73682-0.23145V85.8064
		h-1.63184l-0.06299-0.20312h1.69482v-0.55371c-0.47607,0.04883-0.97314,0.07715-1.44287,0.07715l-0.02783-0.11914
		c0.90332-0.1123,2.01025-0.37793,2.59863-0.58887l0.50391,0.47656c-0.06982,0.05664-0.18896,0.05664-0.3501-0.00684
		c-0.2168,0.04199-0.46191,0.07715-0.73535,0.10547v0.60938h1.44287c-0.07715-0.38574-0.11914-0.77832-0.14014-1.16309
		l0.77734,0.07031c-0.01367,0.09082-0.06982,0.16113-0.20996,0.18164c0.021,0.28711,0.04883,0.5957,0.11914,0.91113h1.27441
		l0.3291-0.43457c0,0,0.37842,0.30762,0.60254,0.52539c-0.01416,0.07715-0.08398,0.1123-0.17529,0.1123h-1.98193
		c0.07031,0.26562,0.16797,0.53223,0.30811,0.76953c0.23828-0.2373,0.44141-0.49023,0.58838-0.72754l0.66553,0.36328
		c-0.04932,0.07031-0.1123,0.09863-0.26611,0.06348c-0.18945,0.22461-0.42725,0.44824-0.71436,0.66504
		c0.22412,0.24512,0.5249,0.44141,0.91016,0.54688c0.14014,0.04883,0.20312,0.04199,0.24512-0.03516
		c0.07715-0.11914,0.17529-0.38574,0.23828-0.58105l0.08398,0.02051L39.86187,87.61304z M36.52105,84.12476V83.5437h-2.22021
		l-0.05566-0.20312h2.27588v-0.55371H33.9439l-0.06299-0.20312h1.87012c-0.1123-0.2793-0.39941-0.62305-0.6377-0.81152
		l0.07031-0.05664c1.05762,0.09863,1.18359,0.6582,0.96631,0.86816h1.14893c0.16797-0.27246,0.35693-0.63672,0.47607-0.91699
		l0.7915,0.27344c-0.02832,0.07715-0.11914,0.13281-0.26611,0.11133c-0.19629,0.16895-0.4834,0.36426-0.76367,0.53223h1.28174
		l0.3501-0.41992c0,0,0.39258,0.29395,0.6377,0.51172c-0.01416,0.07715-0.08398,0.11133-0.18213,0.11133h-2.53564v0.55371h1.4707
		l0.33643-0.38477c0,0,0.37109,0.26562,0.61621,0.47559c-0.021,0.07715-0.09082,0.1123-0.18896,0.1123h-2.23438v0.58105h1.89111
		l0.35742-0.42676c0,0,0.40625,0.30078,0.6582,0.51855c-0.021,0.07617-0.08398,0.11133-0.18213,0.11133h-6.06543l-0.04883-0.20312
		H36.52105z M38.10406,84.51733c1.40088,0.18945,1.03662,1.13477,0.53955,0.82617c-0.08447-0.25879-0.37158-0.58789-0.60254-0.77051
		L38.10406,84.51733z"/>
	<path d="M42.82769,85.91089c-0.41309,0.30859-1.0083,0.74902-1.82764,1.28223c-0.01416,0.08398-0.07031,0.16016-0.14014,0.18848
		l-0.35742-0.67188c0.18213-0.05664,0.50439-0.17578,0.88965-0.32227v-2.48633h-0.76367l-0.05566-0.19629h0.81934v-1.89062
		l0.79834,0.08398c-0.021,0.09766-0.07715,0.16797-0.25195,0.19531v1.61133h0.10498l0.30811-0.44824
		c0,0,0.30811,0.28027,0.51123,0.49023v-0.00684l0.51855,0.2168h0.7002l0.23096-0.23145l0.49023,0.37207
		c-0.02783,0.03418-0.11182,0.08398-0.20996,0.10449v1.56152c-0.00684,0.0498-0.23828,0.14746-0.39209,0.14746h-0.07031v-0.35742
		h-0.8125v0.39258c0,0.04199-0.14697,0.16113-0.37793,0.16113h-0.07715v-2.24805c-0.03516,0.02734-0.07715,0.04199-0.13281,0.04199
		h-0.7915v2.26855c0.27295-0.10449,0.56006-0.22363,0.84717-0.34277L42.82769,85.91089z M44.93609,86.20483
		c-0.52539,0.25195-1.26758,0.5957-2.25537,1.00879c-0.02783,0.08398-0.09082,0.1543-0.15381,0.1748l-0.31543-0.60156
		c0.46924-0.0918,1.56885-0.37891,2.69678-0.68652L44.93609,86.20483z M46.98101,87.52222
		c0.14014,0.23047,0.18213,0.44043,0.09814,0.51758c-0.20996,0.18945-0.56006-0.02051-0.8335-0.32227
		c-0.29395-0.31445-0.53223-0.7002-0.72119-1.14844c-0.58154,0.67285-1.31689,1.13477-2.26953,1.49219l-0.05566-0.12598
		c0.91016-0.46289,1.61768-1.01562,2.15723-1.82812c-0.2666-0.83398-0.39941-1.82812-0.45557-2.92773h-2.24121l-0.05615-0.20312
		h2.29053c-0.021-0.39258-0.02832-0.79102-0.02832-1.2041l0.77783,0.09082c-0.01416,0.08398-0.07715,0.16797-0.23828,0.19629
		c-0.00684,0.30078-0.00684,0.60938,0,0.91699h0.80518l0.16113-0.20996c-0.08398,0.03516-0.18896,0.02832-0.29395-0.04883
		c-0.04199-0.24512-0.23828-0.53223-0.43408-0.69336l0.06982-0.05664c0.65137,0.09863,0.84033,0.39258,0.8125,0.60254v-0.00684
		c0,0,0.36426,0.29395,0.58105,0.50391c-0.021,0.07715-0.08398,0.1123-0.1748,0.1123h-1.52002
		c0.02832,0.82617,0.1123,1.63184,0.28711,2.3252c0.25244-0.49707,0.45557-1.07812,0.62354-1.77148l0.74951,0.24512
		c-0.03516,0.09082-0.09814,0.12598-0.28027,0.11914c-0.24512,0.8125-0.53906,1.4707-0.91064,2.00977
		c0.16846,0.44824,0.38525,0.81934,0.66553,1.07129c0.08398,0.07715,0.14014,0.09863,0.19629-0.02051
		c0.08398-0.17578,0.20312-0.51172,0.27979-0.79199l0.08398,0.01465L46.98101,87.52222z M43.31792,84.16675v1.18359h0.8125v-1.18359
		H43.31792z"/>
	<path d="M11.23052,91.52417c-0.04932,0.05566-0.16113,0.11133-0.30127,0.14648v4.25195
		c-0.00732,0.04883-0.26611,0.18164-0.45557,0.18164h-0.07666v-0.53906H9.03814v0.56055c0,0.0625-0.20312,0.19531-0.42725,0.19531
		H8.51275v-5.21777l0.56055,0.25977h0.18213c0.06982-0.35742,0.16797-0.88965,0.23096-1.26074l0.84766,0.19629
		c-0.02832,0.09766-0.11914,0.15332-0.26611,0.15332c-0.1543,0.2666-0.37158,0.62402-0.56055,0.91113h0.81934l0.28711-0.3291
		L11.23052,91.52417z M9.03814,91.56616v1.74414h1.35889v-1.74414H9.03814z M10.39703,95.36206v-1.84863H9.03814v1.84863H10.39703z
		 M14.64117,91.52417c-0.05615,0.0625-0.14014,0.09766-0.30127,0.11914c-0.04883,2.6543-0.16797,4.13184-0.50439,4.53809
		c-0.20996,0.24512-0.49707,0.35059-0.87549,0.35059c0-0.18262-0.02783-0.33691-0.13965-0.4209
		c-0.1123-0.09766-0.39941-0.18164-0.70752-0.23828l0.00684-0.11914c0.3291,0.03516,0.81934,0.07715,0.99463,0.07715
		c0.14014,0,0.19629-0.02051,0.25928-0.09766c0.26611-0.24512,0.36426-1.78613,0.40625-4.17383H12.19
		c-0.30127,0.58105-0.66553,1.0918-1.06494,1.4707l-0.09766-0.06348c0.42725-0.7002,0.85449-1.79297,1.07129-2.86426
		l0.82666,0.23047c-0.02832,0.08496-0.1123,0.14746-0.25928,0.14746c-0.11182,0.30859-0.23828,0.5957-0.37109,0.87598h1.41455
		l0.3291-0.35742L14.64117,91.52417z M11.7066,92.79175c1.77881,0.71387,1.28174,1.96094,0.70752,1.49902
		c-0.07031-0.47656-0.44141-1.0791-0.77734-1.4502L11.7066,92.79175z"/>
	<path d="M20.28961,92.98022l0.48291-0.65137c0,0,0.54639,0.45605,0.88281,0.77051c-0.021,0.08398-0.10498,0.1123-0.21729,0.1123
		h-6.14209l-0.07031-0.23145H20.28961z"/>
	<path d="M28.63433,90.82397c-0.04932,0.05566-0.1543,0.11133-0.29443,0.13965v5.28125
		c-0.00684,0.05566-0.27295,0.19531-0.4834,0.19531h-0.06982v-0.49023h-2.96973v0.35059c0,0.0625-0.1958,0.20312-0.43408,0.20312
		h-0.09082V90.4519c-0.04932,0.03516-0.1123,0.05664-0.21045,0.0498c-0.18213,0.49707-0.39893,0.97266-0.63721,1.41406
		l0.32227,0.12598c-0.021,0.06348-0.07715,0.09863-0.20312,0.12598v4.18848c-0.00732,0.04883-0.23145,0.17578-0.44141,0.17578
		h-0.09814v-3.93652c-0.25195,0.37793-0.53223,0.70703-0.81934,0.9873l-0.09814-0.0625
		c0.53955-0.82715,1.10693-2.14355,1.42871-3.43262l0.81982,0.28027c-0.00732,0.02148-0.01416,0.03516-0.02832,0.0498
		l0.53223,0.24512h2.86475l0.28711-0.33691L28.63433,90.82397z M27.78668,95.74683v-4.88086h-2.96973v4.88086H27.78668z
		 M26.51177,92.30151v0.95898h0.36426l0.21045-0.25195l0.42725,0.42773c-0.05615,0.04883-0.14746,0.09082-0.25928,0.11133v1.52051
		c-0.01416,0.03516-0.18213,0.14648-0.36426,0.14648h-0.08398v-0.35742h-1.02246v0.28809c0,0.04883-0.18213,0.14648-0.37109,0.14648
		h-0.06348V93.0437l0.46924,0.2168h0.22412v-0.95898h-0.96631l-0.05615-0.19629h1.02246v-1.00195l0.70068,0.07031
		c-0.01416,0.09082-0.07031,0.1543-0.23145,0.18262v0.74902h0.37158l0.27295-0.37793c0,0,0.3291,0.27246,0.51855,0.46191
		c-0.01416,0.07715-0.08447,0.1123-0.17529,0.1123H26.51177z M26.80621,93.46362h-1.02246v1.19141h1.02246V93.46362z"/>
	<path d="M34.88482,92.66577c0,0,0.46924,0.34961,0.74951,0.60156c-0.01416,0.07715-0.09131,0.1123-0.18213,0.1123h-2.71045v2.36719
		c0,0.44141-0.1123,0.71484-0.98779,0.79199c-0.03516-0.18262-0.09082-0.31543-0.22412-0.40625
		c-0.14697-0.09863-0.38525-0.16797-0.8335-0.22461v-0.11133c0,0,1.05762,0.07617,1.26074,0.07617
		c0.14697,0,0.19629-0.04883,0.19629-0.16797v-2.3252h-2.86474l-0.06299-0.20312h2.92773v-1.16895l0.47607,0.04883
		c0.4624-0.32227,0.97363-0.79199,1.30273-1.14844h-3.93603L29.94,90.70483h4.09033l0.37793-0.35742l0.63037,0.56055
		c-0.06299,0.05566-0.14697,0.07617-0.30078,0.08398c-0.49756,0.34961-1.21191,0.79102-1.89795,1.08496l0.13965,0.01465
		c-0.01367,0.09082-0.08398,0.15332-0.23779,0.1748v0.91016h1.73682L34.88482,92.66577z"/>
	<path d="M42.669,91.36987c-0.04883,0.05566-0.12598,0.07031-0.27295,0.07715c-0.18896,0.25879-0.52539,0.62305-0.80566,0.84766
		c0.98779,0.58105,0.7915,1.28809,0.25928,1.0918c-0.37109-0.53223-1.28174-1.2041-1.94678-1.56836l0.06299-0.07715
		c0.67236,0.12598,1.16943,0.30078,1.52686,0.49707c0.08398-0.24512,0.18213-0.61621,0.24512-0.90332h-4.60156
		c0.04199,0.49707-0.14697,0.83301-0.37109,0.97363c-0.19629,0.13965-0.4624,0.12598-0.54639-0.07031
		c-0.07031-0.1748,0.04199-0.33594,0.20996-0.42676c0.26611-0.16797,0.50439-0.60254,0.44824-1.0791l0.11914-0.00684
		c0.05615,0.14062,0.09082,0.27344,0.11182,0.39941h4.59473l0.3501-0.35059L42.669,91.36987z M41.87798,95.49487
		c0,0,0.41992,0.3291,0.6792,0.57422c-0.021,0.07715-0.09131,0.1123-0.19629,0.1123h-6.05127l-0.05566-0.20312h2.87842v-2.10156
		h-2.12939l-0.06299-0.20312h4.03418l0.35742-0.44824c0,0,0.39209,0.31543,0.64404,0.54004
		c-0.01367,0.07715-0.09082,0.11133-0.18896,0.11133H39.7066v2.10156h1.7998L41.87798,95.49487z M39.2022,92.02124
		c-0.04199,0.07715-0.13281,0.12598-0.33594,0.1123c-0.53223,0.46875-1.48486,1.08496-2.36035,1.42188l-0.07031-0.08496
		c0.72852-0.45508,1.66699-1.3584,2.01709-1.8623L39.2022,92.02124z M38.92193,90.02515
		c1.54102,0.22363,0.98779,1.42188,0.40625,0.98047c-0.021-0.32227-0.24512-0.72168-0.46924-0.93848L38.92193,90.02515z"/>
	<path d="M44.12896,92.53979v3.78125c0,0.07715-0.18896,0.21777-0.44824,0.21777h-0.09766v-6.24023l0.58105,0.27246h1.24658
		l0.27344-0.30078l0.58105,0.44824c-0.04199,0.04199-0.14014,0.10547-0.25879,0.12598v1.87695
		c-0.00732,0.04199-0.27344,0.1543-0.44824,0.1543h-0.08447v-0.33594H44.12896z M44.12896,90.76733v0.67285h1.34473v-0.67285
		H44.12896z M45.47369,92.32886v-0.68555h-1.34473v0.68555H45.47369z M47.96734,93.47827
		c-0.03516,0.04199-0.14014,0.09766-0.25928,0.11914V95.698c-0.00684,0.04883-0.26611,0.18262-0.44824,0.18262h-0.08398v-0.38574
		h-1.56201v0.28027c0,0.05566-0.22412,0.1748-0.43408,0.1748h-0.08398v-2.87109l0.55322,0.24512h1.46387l0.27295-0.30176
		L47.96734,93.47827z M45.61382,93.52026v0.75586h1.56201v-0.75586H45.61382z M47.17583,95.28491v-0.80566h-1.56201v0.80566
		H47.17583z M49.54302,90.73218c-0.04199,0.04883-0.15381,0.1123-0.29395,0.13379v4.91602c0,0.43457-0.08398,0.68652-0.8125,0.75684
		c-0.01416-0.17578-0.05615-0.31543-0.14697-0.40625c-0.10498-0.08398-0.25928-0.1543-0.57471-0.20312v-0.1123
		c0,0,0.67236,0.05566,0.81982,0.05566c0.12598,0,0.16113-0.04883,0.16113-0.15332v-3.17969h-1.40088v0.14648
		c0,0.04883-0.23828,0.16797-0.4624,0.16797h-0.06982v-2.53516l0.56006,0.25195h1.30273l0.26611-0.34277L49.54302,90.73218z
		 M47.29498,90.76733v0.67285h1.40088v-0.67285H47.29498z M48.69585,92.32886v-0.68555h-1.40088v0.68555H48.69585z"/>
</g>
<g>
</g>
<g>
	<path d="M96.8814,81.95435c-0.03516,0.08398-0.10547,0.14746-0.27344,0.13965c-0.18848,0.53223-0.40625,1.03711-0.66504,1.49902
		l0.28711,0.10547c-0.02832,0.0625-0.09082,0.1123-0.2168,0.13281v4.125c-0.01465,0.04883-0.24512,0.17578-0.45508,0.17578h-0.1123
		v-3.7334c-0.25195,0.36426-0.52539,0.67969-0.8125,0.95215l-0.10547-0.05566c0.58203-0.87598,1.16992-2.24805,1.49219-3.59961
		L96.8814,81.95435z M100.62847,87.24927c0,0,0.35742,0.29395,0.56738,0.51074c-0.02148,0.07715-0.08398,0.1123-0.18262,0.1123
		h-4.70605l-0.05566-0.20312h0.82617v-4.32812l0.60938,0.25879h0.59473c0.00781-0.20996,0.01465-0.46875,0.02832-0.74902h-1.6875
		l-0.0498-0.20312h1.74414c0.00684-0.3291,0.02148-0.66504,0.02148-0.95996l0.81934,0.07031
		c-0.01367,0.09863-0.09863,0.1748-0.24512,0.19629c-0.01367,0.20996-0.03516,0.44824-0.06348,0.69336h1.09277l0.37793-0.46973
		c0,0,0.41406,0.32227,0.66602,0.56055c-0.01465,0.07715-0.09082,0.1123-0.18945,0.1123h-1.96777
		c-0.02148,0.2666-0.04883,0.53223-0.07715,0.74902h0.88281l0.2793-0.36426l0.67285,0.51172
		c-0.04883,0.07031-0.14746,0.10547-0.31543,0.13281v3.78906h0.04883L100.62847,87.24927z M97.60992,83.80298v0.77734h2.1084
		v-0.77734H97.60992z M99.71832,84.78345h-2.1084v0.77734h2.1084V84.78345z M97.60992,86.54907h2.1084v-0.78516h-2.1084V86.54907z
		 M97.60992,87.66919h2.1084V86.7522h-2.1084V87.66919z"/>
	<path d="M103.86773,85.91138c-0.41309,0.30859-1.00879,0.74902-1.82812,1.28223c-0.01367,0.08398-0.07031,0.16016-0.14062,0.18848
		l-0.35645-0.67188c0.18164-0.05664,0.50391-0.17578,0.88867-0.32227v-2.48633h-0.7627l-0.05664-0.19629h0.81934V81.8147
		l0.79883,0.08398c-0.02051,0.09766-0.07715,0.16797-0.25195,0.19531v1.61133h0.10449l0.30859-0.44824
		c0,0,0.30859,0.28027,0.51172,0.49023v-0.00684l0.51758,0.2168h0.7002l0.23145-0.23145l0.49023,0.37207
		c-0.02832,0.03418-0.1123,0.08398-0.20996,0.10449v1.56152c-0.00684,0.0498-0.23828,0.14746-0.39258,0.14746h-0.06934v-0.35742
		h-0.8125v0.39258c0,0.04199-0.14746,0.16113-0.37891,0.16113h-0.07617v-2.24805c-0.03516,0.02734-0.07715,0.04199-0.13379,0.04199
		h-0.79102v2.26855c0.27344-0.10449,0.56055-0.22363,0.84766-0.34277L103.86773,85.91138z M105.97515,86.20532
		c-0.52441,0.25195-1.26758,0.5957-2.25488,1.00879c-0.02832,0.08398-0.09082,0.1543-0.1543,0.1748l-0.31445-0.60156
		c0.46875-0.0918,1.56836-0.37891,2.69629-0.68652L105.97515,86.20532z M108.02105,87.52271
		c0.13965,0.23047,0.18164,0.44043,0.09766,0.51758c-0.20996,0.18945-0.56055-0.02051-0.83301-0.32227
		c-0.29492-0.31445-0.53223-0.7002-0.72168-1.14844c-0.58105,0.67285-1.31641,1.13477-2.26953,1.49219l-0.05566-0.12598
		c0.91016-0.46289,1.61816-1.01562,2.15723-1.82812c-0.2666-0.83398-0.39941-1.82812-0.45508-2.92773h-2.24121l-0.05664-0.20312
		h2.29004c-0.02051-0.39258-0.02734-0.79102-0.02734-1.2041l0.77734,0.09082c-0.01465,0.08398-0.07715,0.16797-0.23828,0.19629
		c-0.00684,0.30078-0.00684,0.60938,0,0.91699h0.80566l0.16113-0.20996c-0.08398,0.03516-0.18945,0.02832-0.29492-0.04883
		c-0.04199-0.24512-0.2373-0.53223-0.43359-0.69336l0.07031-0.05664c0.65137,0.09863,0.83984,0.39258,0.81152,0.60254v-0.00684
		c0,0,0.36426,0.29395,0.58203,0.50391c-0.02148,0.07715-0.08398,0.1123-0.17578,0.1123h-1.51953
		c0.02832,0.82617,0.1123,1.63184,0.28711,2.3252c0.25195-0.49707,0.45508-1.07812,0.62305-1.77148l0.75,0.24512
		c-0.03516,0.09082-0.09863,0.12598-0.28027,0.11914c-0.24512,0.8125-0.53906,1.4707-0.91016,2.00977
		c0.16797,0.44824,0.38477,0.81934,0.66504,1.07129c0.08398,0.07715,0.13965,0.09863,0.19629-0.02051
		c0.08398-0.17578,0.20312-0.51172,0.28027-0.79199l0.08398,0.01465L108.02105,87.52271z M104.35796,84.16724v1.18359h0.8125
		v-1.18359H104.35796z"/>
	<path d="M112.1773,87.46606c0.18848,0.00684,0.39941,0.01465,0.62305,0.01465c0.52539,0,1.76465,0,2.31836-0.01465v0.09863
		c-0.18945,0.03516-0.29395,0.20996-0.30078,0.41992h-2.03809c-1.28223,0-1.98242-0.24512-2.4375-1.35156
		c-0.34375,0.58789-0.86914,1.13477-1.69531,1.50586l-0.0625-0.07715c0.95898-0.67285,1.40039-1.7373,1.55469-2.6543
		l0.84766,0.18848c-0.03516,0.09863-0.1123,0.1543-0.2666,0.1543c-0.07031,0.24512-0.16797,0.49023-0.29395,0.73535
		c0.28027,0.52539,0.64453,0.77734,1.16211,0.89648v-2.30371h-2.87109l-0.05566-0.20312h5.36426l0.36426-0.47656
		c0,0,0.41992,0.3291,0.67285,0.56738c-0.02148,0.07715-0.08398,0.1123-0.18262,0.1123h-2.70312v0.96582h1.21875l0.37109-0.49023
		c0,0,0.43457,0.33691,0.68652,0.58203c-0.02148,0.07617-0.0918,0.11133-0.18945,0.11133h-2.08691V87.46606z M110.44683,84.45435
		c0,0.05664-0.25195,0.18945-0.48242,0.18945h-0.0918v-2.80859l0.62402,0.2666h2.74512l0.30078-0.3291l0.65137,0.49707
		c-0.04883,0.05566-0.15332,0.11133-0.29395,0.13965v1.98926c-0.00684,0.04199-0.30762,0.16113-0.49023,0.16113h-0.09766v-0.32227
		h-2.86523V84.45435z M110.44683,82.31177v0.74219h2.86523v-0.74219H110.44683z M113.31207,84.03442v-0.77734h-2.86523v0.77734
		H113.31207z"/>
	<path d="M117.80425,86.94849c0.55371-0.09863,1.16309-0.20312,1.77246-0.31543l0.02734,0.1123
		c-0.79785,0.28711-1.91211,0.65137-3.47363,1.09961c-0.03516,0.09082-0.09766,0.14648-0.1748,0.16797l-0.32227-0.72852
		c0.34277-0.04199,0.91699-0.12598,1.625-0.24512v-1.31738h-1.39355l-0.05664-0.20312h1.4502v-1.00781l0.79785,0.07715
		c-0.02051,0.09766-0.07715,0.16113-0.25195,0.18848v0.74219h0.61621l0.35059-0.45508c0,0,0.3916,0.31543,0.62988,0.54688
		c-0.02051,0.07715-0.09082,0.11133-0.18848,0.11133h-1.4082V86.94849z M115.73785,82.52856l-0.05566-0.20312h2.9209
		l0.34961-0.45508c0,0,0.39941,0.31543,0.64453,0.5459c-0.01367,0.07715-0.09082,0.1123-0.18848,0.1123h-2.18555l0.73535,0.25879
		c-0.02832,0.07031-0.10547,0.12695-0.25195,0.11914c-0.32227,0.37109-0.86914,0.86133-1.35938,1.20508
		c0.54688-0.02832,1.4082-0.09082,2.33984-0.16797c-0.16797-0.31543-0.40625-0.62305-0.6377-0.84082l0.07715-0.04883
		c1.76465,0.67969,1.30957,1.93262,0.77051,1.49219c-0.02148-0.14746-0.07031-0.30176-0.13965-0.45605
		c-0.60938,0.14062-1.47168,0.33691-2.4375,0.52539c-0.04199,0.0918-0.09863,0.14746-0.1543,0.17578l-0.32227-0.71484
		c0,0,0.13965-0.02832,0.19629-0.0625c0.41309-0.30176,0.93164-1.06543,1.13477-1.48535H115.73785z M120.42339,86.47192
		c0,0.0625-0.23047,0.16797-0.41992,0.16797h-0.10449v-4.30762l0.78418,0.08398c-0.02148,0.09863-0.07715,0.16797-0.25977,0.19629
		V86.47192z M122.02105,81.88403c-0.01465,0.09863-0.08398,0.16797-0.25293,0.19629v5.32324
		c0,0.42676-0.09082,0.67871-0.8125,0.74902c-0.02051-0.1748-0.0625-0.31543-0.15332-0.39941
		c-0.1123-0.09082-0.28027-0.15332-0.60254-0.20312v-0.10449c0,0,0.71387,0.05566,0.86816,0.05566
		c0.12598,0,0.16113-0.04199,0.16113-0.1543v-5.54688L122.02105,81.88403z"/>
	<path d="M124.14605,86.47876c0.02148,0.02148,0.04199,0.02832,0.06348,0.05566c0.62305,0.67969,1.37891,0.82715,2.73828,0.82715
		c0.77734,0,1.41407,0,2.21973-0.03516v0.08398c-0.24512,0.05566-0.38477,0.25195-0.41992,0.49707h-1.98243
		c-1.36523,0-2.03125-0.28711-2.66113-1.16211c-0.09082-0.11914-0.16113-0.10547-0.23145,0
		c-0.16113,0.23047-0.57422,0.76953-0.8125,1.1416c0.02148,0.05566,0,0.11816-0.04883,0.16113l-0.46875-0.64453
		c0.30762-0.20996,0.75586-0.57422,1.07812-0.79883v-2.36035h-1.02246l-0.03516-0.20996h0.94531l0.31543-0.39941l0.67285,0.55371
		c-0.0498,0.05566-0.1543,0.10449-0.35059,0.13965V86.47876z M123.09527,81.80688c1.67383,0.79883,1.17676,1.9541,0.62402,1.50586
		c-0.0918-0.46191-0.43457-1.06445-0.70801-1.45605L123.09527,81.80688z M126.34527,83.30591v-0.67969h-1.56152l-0.05664-0.20215
		h1.61816v-0.75684l0.74902,0.07715c-0.00684,0.08398-0.0625,0.13965-0.19531,0.16113v0.51855h0.79785l0.32227-0.40625
		c0,0,0.37793,0.28711,0.61621,0.49707c-0.02051,0.07715-0.09082,0.11133-0.18848,0.11133h-1.54786v0.67969h1.23243l0.34277-0.41309
		c0,0,0.38574,0.28711,0.62402,0.50391c-0.02148,0.07715-0.08496,0.1123-0.18262,0.1123h-1.34473l0.56055,0.16797
		c-0.03516,0.08398-0.11914,0.13379-0.25977,0.12598c-0.16113,0.18262-0.39844,0.39258-0.62988,0.57422h0.6582l0.32227-0.38477
		c0,0,0.37793,0.27344,0.5957,0.4834c-0.01465,0.07715-0.07715,0.1123-0.17578,0.1123h-1.74317v0.62305h0.84668l0.31544-0.37793
		c0,0,0.36426,0.26562,0.58105,0.47559c-0.00684,0.07715-0.07715,0.1123-0.1748,0.1123h-1.56837v0.6582h1.16895l0.33691-0.40625
		c0,0,0.37793,0.28027,0.61621,0.49707c-0.02148,0.07715-0.08398,0.1123-0.18945,0.1123h-1.93262v0.81934
		c0,0.02148-0.18262,0.14746-0.46289,0.14746h-0.09082v-0.9668h-1.86328l-0.05566-0.20312h1.91895v-0.6582h-1.53418
		l-0.05566-0.20996h1.58984v-0.62305h-1.7373l-0.05566-0.21094h1.23242c-0.03516-0.01367-0.06934-0.04199-0.10449-0.06934
		c-0.00781-0.2666-0.16797-0.60254-0.3291-0.79883h-0.94629l-0.05566-0.20312H126.34527z M127.01714,84.3772
		c0.11914-0.25195,0.23828-0.60156,0.32227-0.86816h-1.77148c0.74219,0.2666,0.7002,0.74219,0.46191,0.86816H127.01714z"/>
	<path d="M131.86774,85.91138c-0.41309,0.30859-1.00879,0.74902-1.82812,1.28223c-0.01367,0.08398-0.07031,0.16016-0.14062,0.18848
		l-0.35645-0.67188c0.18164-0.05664,0.50391-0.17578,0.88867-0.32227v-2.48633h-0.7627l-0.05664-0.19629h0.81934V81.8147
		l0.79883,0.08398c-0.02051,0.09766-0.07715,0.16797-0.25195,0.19531v1.61133h0.10449l0.30859-0.44824
		c0,0,0.30859,0.28027,0.51172,0.49023v-0.00684l0.51758,0.2168h0.7002l0.23145-0.23145l0.49023,0.37207
		c-0.02832,0.03418-0.1123,0.08398-0.20996,0.10449v1.56152c-0.00684,0.0498-0.23828,0.14746-0.39258,0.14746h-0.06934v-0.35742
		h-0.8125v0.39258c0,0.04199-0.14746,0.16113-0.37891,0.16113h-0.07617v-2.24805c-0.03516,0.02734-0.07715,0.04199-0.13379,0.04199
		h-0.79102v2.26855c0.27344-0.10449,0.56055-0.22363,0.84766-0.34277L131.86774,85.91138z M133.97516,86.20532
		c-0.52441,0.25195-1.26758,0.5957-2.25488,1.00879c-0.02832,0.08398-0.09082,0.1543-0.1543,0.1748l-0.31445-0.60156
		c0.46875-0.0918,1.56836-0.37891,2.69629-0.68652L133.97516,86.20532z M136.02106,87.52271
		c0.13965,0.23047,0.18164,0.44043,0.09766,0.51758c-0.20996,0.18945-0.56055-0.02051-0.83301-0.32227
		c-0.29492-0.31445-0.53223-0.7002-0.72168-1.14844c-0.58105,0.67285-1.31641,1.13477-2.26953,1.49219l-0.05566-0.12598
		c0.91016-0.46289,1.61816-1.01562,2.15723-1.82812c-0.2666-0.83398-0.39941-1.82812-0.45508-2.92773h-2.24121l-0.05664-0.20312
		h2.29004c-0.02051-0.39258-0.02734-0.79102-0.02734-1.2041l0.77734,0.09082c-0.01465,0.08398-0.07715,0.16797-0.23828,0.19629
		c-0.00684,0.30078-0.00684,0.60938,0,0.91699h0.80566l0.16113-0.20996c-0.08398,0.03516-0.18945,0.02832-0.29492-0.04883
		c-0.04199-0.24512-0.2373-0.53223-0.43359-0.69336l0.07031-0.05664c0.65137,0.09863,0.83984,0.39258,0.81152,0.60254v-0.00684
		c0,0,0.36426,0.29395,0.58203,0.50391c-0.02148,0.07715-0.08398,0.1123-0.17578,0.1123h-1.51953
		c0.02832,0.82617,0.1123,1.63184,0.28711,2.3252c0.25195-0.49707,0.45508-1.07812,0.62305-1.77148l0.75,0.24512
		c-0.03516,0.09082-0.09863,0.12598-0.28027,0.11914c-0.24512,0.8125-0.53906,1.4707-0.91016,2.00977
		c0.16797,0.44824,0.38477,0.81934,0.66504,1.07129c0.08398,0.07715,0.13965,0.09863,0.19629-0.02051
		c0.08398-0.17578,0.20312-0.51172,0.28027-0.79199l0.08398,0.01465L136.02106,87.52271z M132.35797,84.16724v1.18359h0.8125
		v-1.18359H132.35797z"/>
	<path d="M97.66558,91.52466c-0.04883,0.05566-0.16113,0.11133-0.30078,0.14648v4.25195
		c-0.00684,0.04883-0.2666,0.18164-0.45508,0.18164h-0.07715v-0.53906H95.4732v0.56055c0,0.0625-0.20215,0.19531-0.42676,0.19531
		h-0.09766v-5.21777l0.55957,0.25977h0.18262c0.07031-0.35742,0.16797-0.88965,0.23145-1.26074l0.84668,0.19629
		c-0.02734,0.09766-0.11914,0.15332-0.26562,0.15332c-0.1543,0.2666-0.37109,0.62402-0.56055,0.91113h0.81934l0.28711-0.3291
		L97.66558,91.52466z M95.4732,91.56665v1.74414h1.35938v-1.74414H95.4732z M96.83257,95.36255v-1.84863H95.4732v1.84863H96.83257z
		 M101.07671,91.52466c-0.05566,0.0625-0.13965,0.09766-0.30078,0.11914c-0.0498,2.6543-0.16895,4.13184-0.50488,4.53809
		c-0.20996,0.24512-0.49707,0.35059-0.875,0.35059c0-0.18262-0.02832-0.33691-0.14062-0.4209
		c-0.11133-0.09766-0.39844-0.18164-0.70703-0.23828l0.00684-0.11914c0.3291,0.03516,0.81934,0.07715,0.99512,0.07715
		c0.13965,0,0.19531-0.02051,0.25879-0.09766c0.26562-0.24512,0.36426-1.78613,0.40625-4.17383h-1.58984
		c-0.30176,0.58105-0.66504,1.0918-1.06445,1.4707l-0.09863-0.06348c0.42773-0.7002,0.85449-1.79297,1.07227-2.86426
		l0.82617,0.23047c-0.02832,0.08496-0.1123,0.14746-0.25879,0.14746c-0.1123,0.30859-0.23828,0.5957-0.37207,0.87598h1.41504
		l0.3291-0.35742L101.07671,91.52466z M98.14214,92.79224c1.7793,0.71387,1.28125,1.96094,0.70703,1.49902
		c-0.06934-0.47656-0.44043-1.0791-0.77734-1.4502L98.14214,92.79224z"/>
	<path d="M106.72515,92.98071l0.4834-0.65137c0,0,0.5459,0.45605,0.88184,0.77051c-0.02051,0.08398-0.10449,0.1123-0.2168,0.1123
		h-6.14258l-0.06934-0.23145H106.72515z"/>
	<path d="M115.06988,90.82446c-0.04883,0.05566-0.1543,0.11133-0.29395,0.13965v5.28125
		c-0.00781,0.05566-0.27344,0.19531-0.4834,0.19531h-0.07031v-0.49023h-2.96973v0.35059c0,0.0625-0.19629,0.20312-0.43359,0.20312
		h-0.0918v-6.05176c-0.04883,0.03516-0.11133,0.05664-0.20996,0.0498c-0.18164,0.49707-0.39941,0.97266-0.6377,1.41406
		l0.32227,0.12598c-0.02051,0.06348-0.07715,0.09863-0.20312,0.12598v4.18848c-0.00684,0.04883-0.23047,0.17578-0.44043,0.17578
		h-0.09863v-3.93652c-0.25195,0.37793-0.53223,0.70703-0.81934,0.9873l-0.09766-0.0625
		c0.53906-0.82715,1.10645-2.14355,1.42871-3.43262l0.81934,0.28027c-0.00684,0.02148-0.01465,0.03516-0.02832,0.0498
		l0.53223,0.24512h2.86426l0.28809-0.33691L115.06988,90.82446z M114.22222,95.74731v-4.88086h-2.96973v4.88086H114.22222z
		 M112.94781,92.302v0.95898h0.36426l0.20996-0.25195l0.42676,0.42773c-0.05566,0.04883-0.14648,0.09082-0.25879,0.11133v1.52051
		c-0.01367,0.03516-0.18164,0.14648-0.36426,0.14648h-0.08398v-0.35742h-1.02246v0.28809c0,0.04883-0.18262,0.14648-0.37109,0.14648
		h-0.06348v-2.24805l0.46973,0.2168h0.22363V92.302h-0.96582l-0.05664-0.19629h1.02246v-1.00195l0.7002,0.07031
		c-0.01367,0.09082-0.06934,0.1543-0.23047,0.18262v0.74902h0.37109l0.27344-0.37793c0,0,0.3291,0.27246,0.51758,0.46191
		c-0.01367,0.07715-0.08398,0.1123-0.1748,0.1123H112.94781z M113.24175,93.46411h-1.02246v1.19141h1.02246V93.46411z"/>
	<path d="M121.31988,92.66626c0,0,0.46973,0.34961,0.75,0.60156c-0.01465,0.07715-0.09082,0.1123-0.18262,0.1123h-2.70996v2.36719
		c0,0.44141-0.1123,0.71484-0.9873,0.79199c-0.03516-0.18262-0.0918-0.31543-0.22461-0.40625
		c-0.14648-0.09863-0.38477-0.16797-0.83301-0.22461v-0.11133c0,0,1.05762,0.07617,1.26074,0.07617
		c0.14648,0,0.19531-0.04883,0.19531-0.16797v-2.3252h-2.86426l-0.0625-0.20312h2.92676v-1.16895l0.47656,0.04883
		c0.46191-0.32227,0.97363-0.79199,1.30273-1.14844h-3.93652l-0.05566-0.20312h4.08984l0.37891-0.35742l0.62988,0.56055
		c-0.0625,0.05566-0.14648,0.07617-0.30078,0.08398c-0.49707,0.34961-1.21191,0.79102-1.89844,1.08496l0.14062,0.01465
		c-0.01465,0.09082-0.08398,0.15332-0.23828,0.1748V93.177h1.73633L121.31988,92.66626z"/>
	<path d="M129.10504,91.37036c-0.0498,0.05566-0.12598,0.07031-0.27344,0.07715c-0.18945,0.25879-0.52539,0.62305-0.80566,0.84766
		c0.9873,0.58105,0.79199,1.28809,0.25977,1.0918c-0.37208-0.53223-1.28223-1.2041-1.94727-1.56836l0.0625-0.07715
		c0.67285,0.12598,1.16992,0.30078,1.52734,0.49707c0.08399-0.24512,0.18165-0.61621,0.24512-0.90332h-4.60157
		c0.04199,0.49707-0.14746,0.83301-0.37109,0.97363c-0.19629,0.13965-0.46289,0.12598-0.54688-0.07031
		c-0.06934-0.1748,0.04199-0.33594,0.21094-0.42676c0.26562-0.16797,0.50391-0.60254,0.44824-1.0791l0.11816-0.00684
		c0.05664,0.14062,0.0918,0.27344,0.1123,0.39941h4.59473l0.35059-0.35059L129.10504,91.37036z M128.31305,95.49536
		c0,0,0.4209,0.3291,0.67969,0.57422c-0.02148,0.07715-0.09082,0.1123-0.19629,0.1123h-6.05079l-0.05664-0.20312h2.87891V93.8772
		h-2.12891l-0.06348-0.20312h4.03418l0.35742-0.44824c0,0,0.39161,0.31543,0.64454,0.54004
		c-0.01465,0.07715-0.0918,0.11133-0.18945,0.11133h-2.08009v2.10156h1.7998L128.31305,95.49536z M125.63824,92.02173
		c-0.04199,0.07715-0.13379,0.12598-0.33691,0.1123c-0.53223,0.46875-1.48438,1.08496-2.36035,1.42188l-0.06934-0.08496
		c0.72852-0.45508,1.66699-1.3584,2.0166-1.8623L125.63824,92.02173z M125.35796,90.02563
		c1.54102,0.22363,0.9873,1.42188,0.40625,0.98047c-0.02148-0.32227-0.24512-0.72168-0.46973-0.93848L125.35796,90.02563z"/>
	<path d="M130.565,92.54028v3.78125c0,0.07715-0.18945,0.21777-0.44824,0.21777h-0.09863v-6.24023l0.58203,0.27246h1.24609
		l0.27344-0.30078l0.58105,0.44824c-0.04199,0.04199-0.13965,0.10547-0.25879,0.12598v1.87695
		c-0.00684,0.04199-0.27344,0.1543-0.44824,0.1543h-0.08398v-0.33594H130.565z M130.565,90.76782v0.67285h1.34473v-0.67285H130.565z
		 M131.90973,92.32935V91.6438H130.565v0.68555H131.90973z M134.40289,93.47876c-0.03516,0.04199-0.14062,0.09766-0.25879,0.11914
		v2.10059c-0.00781,0.04883-0.2666,0.18262-0.44824,0.18262h-0.08398v-0.38574h-1.5625v0.28027
		c0,0.05566-0.22363,0.1748-0.43359,0.1748h-0.08496v-2.87109l0.55371,0.24512h1.46387l0.27344-0.30176L134.40289,93.47876z
		 M132.04938,93.52075v0.75586h1.5625v-0.75586H132.04938z M133.61188,95.2854v-0.80566h-1.5625v0.80566H133.61188z
		 M135.97906,90.73267c-0.04199,0.04883-0.1543,0.1123-0.29492,0.13379v4.91602c0,0.43457-0.08398,0.68652-0.8125,0.75684
		c-0.01367-0.17578-0.05566-0.31543-0.14648-0.40625c-0.10547-0.08398-0.25977-0.1543-0.57422-0.20312v-0.1123
		c0,0,0.67188,0.05566,0.81934,0.05566c0.12598,0,0.16113-0.04883,0.16113-0.15332v-3.17969h-1.40137v0.14648
		c0,0.04883-0.2373,0.16797-0.46191,0.16797h-0.07031v-2.53516l0.56055,0.25195h1.30273l0.2666-0.34277L135.97906,90.73267z
		 M133.73004,90.76782v0.67285h1.40137v-0.67285H133.73004z M135.13141,92.32935V91.6438h-1.40137v0.68555H135.13141z"/>
</g>
<polygon class="st6" points="79.73318,14.97621 79.73328,14.97609 79.73328,14.97611 79.73329,14.97611 79.73325,14.97613 
	79.73329,14.97615 79.73323,14.97613 79.73322,14.97608 79.73323,14.97611 79.73324,14.97614 79.73328,14.97611 79.73325,14.9761 
	79.73322,14.97613 79.73328,14.9761 79.73328,14.97612 79.73325,14.97615 79.73328,14.97611 79.73325,14.97612 79.73328,14.97611 
	79.73325,14.97611 79.73325,14.97616 79.73322,14.97612 79.73328,14.97612 79.73325,14.97614 79.73325,14.97609 79.73326,14.97614 
	79.73322,14.97612 79.73323,14.97616 79.73329,14.97614 79.73322,14.97611 79.73327,14.97611 79.73326,14.9761 79.73325,14.97613 
	79.73325,14.97614 79.73325,14.9761 79.73328,14.97614 79.73329,14.97612 79.73328,14.97612 79.73328,14.97614 79.73328,14.97613 
	79.73328,14.97614 79.73322,14.9761 79.73329,14.97613 79.73327,14.97615 79.73329,14.97615 79.73324,14.97616 79.73325,14.97612 
	79.73329,14.97613 79.73322,14.97609 79.73329,14.97613 79.73326,14.97613 79.73322,14.97615 79.73326,14.97612 79.73322,14.97614 
	79.73325,14.97613 79.73327,14.97613 79.73326,14.97609 79.73325,14.97616 79.73329,14.97613 79.73325,14.97612 79.73325,14.97612 
	79.73328,14.97609 79.73322,14.97609 79.73329,14.97614 79.73326,14.97613 79.73329,14.97613 79.73327,14.97612 79.73325,14.97612 
	79.73328,14.97614 79.73328,14.97613 79.73322,14.97614 79.73324,14.97609 79.73328,14.97612 79.73327,14.97613 79.73328,14.97609 
	79.73328,14.97609 79.73326,14.97609 79.73325,14.97609 79.73326,14.9761 79.73322,14.9761 79.73326,14.97609 79.73326,14.97614 
	79.73328,14.97616 79.73324,14.97613 79.73327,14.97613 79.73325,14.97612 79.73325,14.97611 79.73328,14.97613 79.73326,14.97615 
	79.73322,14.97614 79.73322,14.9761 79.73322,14.97611 79.73326,14.97611 79.73328,14.97612 79.73323,14.97612 79.73329,14.97613 
	79.73328,14.97611 79.73329,14.97614 "/>
<g>
	<path d="M74.03228,24.61255l0.03125-0.51172c0.00879-0.08008-0.00781-0.23145-0.03125-0.2959
		c-0.02441-0.0957-0.3125-0.13574-0.93555-0.13574h-0.58398l-0.75195,4.42188c-0.03125,0.16699-0.03125,0.19922-0.03125,0.2793
		c0,0.16797,0.08008,0.23242,0.28711,0.24023l0.47266,0.02344l-0.02441,0.22461c-0.35156-0.0166-0.7041-0.02441-1.06348-0.02441
		c-0.37598,0-0.75977,0.00781-1.13574,0.02441l0.03223-0.22461l0.4082-0.02344c0.31934-0.0166,0.34375-0.04785,0.46387-0.77539
		l0.6875-4.16602h-0.89551c-0.2959,0-0.59961,0.04785-0.64746,0.10352c-0.04883,0.05664-0.10449,0.18457-0.14453,0.36035
		l-0.12012,0.47949h-0.23145l0.14355-1.31152c0.75195,0.0166,1.50391,0.02441,2.25488,0.02441
		c0.75195,0,1.50293-0.00781,2.25488-0.02441l-0.21582,1.31152H74.03228z"/>
</g>
<g>
	<defs>
		<rect id="SVGID_7_" x="19.80277" y="46.21484" width="5" height="8"/>
	</defs>
	<clipPath id="SVGID_8_">
		<use xlink:href="#SVGID_7_"  style="overflow:visible;"/>
	</clipPath>
	<path class="st12" d="M21.80277,50.21484L21.80277,50.21484z"/>
	<path class="st13" d="M23.16996,47.58671c-0.11094,0.10313-0.37344,0.325-0.37344,0.46875
		c0,0.07969,0.07969,0.15938,0.15938,0.15938c0.07187,0,0.11093-0.05625,0.15156-0.10469
		c0.09531-0.11875,0.27812-0.34062,0.62656-0.51562c0.05625-0.03125,0.13594-0.07188,0.13594-0.16719
		c0-0.07969-0.05625-0.11875-0.11094-0.15938c-0.175-0.11875-0.2625-0.26093-0.32656-0.45312
		c-0.01563-0.07031-0.04688-0.17344-0.15938-0.17344c-0.11093,0-0.15781,0.10313-0.15781,0.16563
		c0,0.04062,0.0625,0.29531,0.19063,0.46093h-2.67813c-0.13594,0-0.27812,0-0.27812,0.15938
		c0,0.15937,0.14218,0.15937,0.27812,0.15937H23.16996"/>
	<path class="st13" d="M21.4809,54.01484c-0.30938,0-0.77813-0.19844-0.92188-0.96094
		c-0.0875-0.47812-0.0875-1.20781-0.0875-1.67812c0-0.50782,0-1.03282,0.06406-1.46094
		c0.15157-0.94688,0.74688-1.01719,0.94532-1.01719c0.2625,0,0.7875,0.14219,0.93906,0.92969
		c0.07812,0.44375,0.07812,1.04844,0.07812,1.54844c0,0.59687,0,1.1375-0.0875,1.64531
		C22.29183,53.77578,21.83871,54.01484,21.4809,54.01484 M23.15902,51.47109c0-0.63438-0.04062-1.27031-0.31875-1.85938
		c-0.36562-0.7625-1.01719-0.88906-1.35-0.88906c-0.47812,0-1.05781,0.20625-1.38281,0.94531
		c-0.25469,0.54844-0.29531,1.16875-0.29531,1.80313c0,0.59687,0.03281,1.3125,0.35781,1.91562
		c0.34219,0.64375,0.92187,0.80313,1.31094,0.80313c0.42968,0,1.03437-0.16719,1.38281-0.92188
		C23.1184,52.71953,23.15902,52.09921,23.15902,51.47109z"/>
</g>
<g>
	<defs>
		<rect id="SVGID_9_" x="130.67943" y="35.9187" width="5" height="8"/>
	</defs>
	<clipPath id="SVGID_10_">
		<use xlink:href="#SVGID_9_"  style="overflow:visible;"/>
	</clipPath>
	<path class="st14" d="M132.67943,39.9187L132.67943,39.9187z"/>
	<path class="st15" d="M134.04662,37.29057c-0.11093,0.10313-0.37344,0.325-0.37344,0.46875
		c0,0.07969,0.0797,0.15938,0.15938,0.15938c0.07188,0,0.11093-0.05625,0.15157-0.10469
		c0.09531-0.11875,0.27812-0.34062,0.62656-0.51562c0.05626-0.03125,0.13594-0.07188,0.13594-0.16719
		c0-0.07969-0.05624-0.11875-0.11093-0.15938c-0.175-0.11875-0.2625-0.26093-0.32657-0.45312
		c-0.01562-0.07031-0.04688-0.17344-0.15938-0.17344c-0.11093,0-0.15781,0.10313-0.15781,0.16563
		c0,0.04062,0.0625,0.29531,0.19063,0.46093h-2.67813c-0.13594,0-0.27812,0-0.27812,0.15938
		c0,0.15937,0.14218,0.15937,0.27812,0.15937H134.04662"/>
	<path class="st15" d="M132.35756,43.7187c-0.30939,0-0.77814-0.19844-0.92188-0.96094
		c-0.08751-0.47812-0.08751-1.20781-0.08751-1.67812c0-0.50782,0-1.03282,0.06406-1.46094
		c0.15158-0.94688,0.74689-1.01719,0.94533-1.01719c0.2625,0,0.78749,0.14219,0.93906,0.92969
		c0.07812,0.44375,0.07812,1.04844,0.07812,1.54844c0,0.59687,0,1.1375-0.08751,1.64531
		C133.16849,43.47964,132.71536,43.7187,132.35756,43.7187 M134.03568,41.17495c0-0.63438-0.04062-1.27031-0.31874-1.85938
		c-0.36563-0.7625-1.0172-0.88906-1.35001-0.88906c-0.47812,0-1.05782,0.20625-1.38281,0.94531
		c-0.25468,0.54844-0.2953,1.16875-0.2953,1.80313c0,0.59687,0.03281,1.3125,0.3578,1.91562
		c0.34219,0.64375,0.92188,0.80313,1.31094,0.80313c0.42967,0,1.03436-0.16719,1.38281-0.92188
		C133.99506,42.42339,134.03568,41.80307,134.03568,41.17495z"/>
</g>
<g>
</g>
<g>
</g>
<g>
</g>
<g>
</g>
<g>
</g>
</svg>
