<?xml version="1.0" encoding="utf-8"?>
<!-- Generator: Adobe Illustrator 25.2.0, SVG Export Plug-In . SVG Version: 6.00 Build 0)  -->
<svg version="1.1" id="Layer_1" xmlns="http://www.w3.org/2000/svg" xmlns:xlink="http://www.w3.org/1999/xlink" x="0px" y="0px"
	 viewBox="0 0 211.1378 86.33602" style="enable-background:new 0 0 211.1378 86.33602;" xml:space="preserve">
<style type="text/css">
	.st0{clip-path:url(#SVGID_2_);fill:none;stroke:#000000;stroke-width:0.5;stroke-miterlimit:3.864;}
	.st1{fill:none;stroke:#000000;stroke-width:0.5;stroke-miterlimit:3.864;}
	.st2{fill:none;stroke:#005B7F;stroke-miterlimit:3.864;}
	.st3{fill:none;stroke:#000000;stroke-width:0.25;stroke-miterlimit:3.864;}
	.st4{fill:none;stroke:#005B7F;stroke-width:0.5;stroke-miterlimit:3.864;}
	.st5{clip-path:url(#SVGID_4_);fill:#005B7F;}
	.st6{clip-path:url(#SVGID_4_);fill:none;stroke:#005B7F;stroke-width:0.5;stroke-miterlimit:3.864;}
	.st7{clip-path:url(#SVGID_4_);fill:none;stroke:#000000;stroke-width:0.25;stroke-miterlimit:3.864;}
	.st8{opacity:0;fill:none;stroke:#000000;stroke-width:1.000000e-06;stroke-miterlimit:10;}
	.st9{opacity:0;clip-path:url(#SVGID_12_);fill:none;stroke:#000000;stroke-width:9.999999e-07;stroke-miterlimit:10;}
	.st10{clip-path:url(#SVGID_12_);}
	.st11{opacity:0;clip-path:url(#SVGID_14_);fill:none;stroke:#000000;stroke-width:9.999999e-07;stroke-miterlimit:10;}
	.st12{clip-path:url(#SVGID_14_);}
	.st13{opacity:0;clip-path:url(#SVGID_16_);fill:none;stroke:#000000;stroke-width:9.999999e-07;stroke-miterlimit:10;}
	.st14{clip-path:url(#SVGID_16_);}
	.st15{opacity:0;clip-path:url(#SVGID_18_);fill:none;stroke:#000000;stroke-width:9.999999e-07;stroke-miterlimit:10;}
	.st16{clip-path:url(#SVGID_18_);}
	.st17{opacity:0;clip-path:url(#SVGID_20_);fill:none;stroke:#000000;stroke-width:9.999999e-07;stroke-miterlimit:10;}
	.st18{clip-path:url(#SVGID_20_);}
	.st19{opacity:0;clip-path:url(#SVGID_22_);fill:none;stroke:#000000;stroke-width:9.999999e-07;stroke-miterlimit:10;}
	.st20{clip-path:url(#SVGID_22_);}
	.st21{opacity:0;clip-path:url(#SVGID_24_);fill:none;stroke:#000000;stroke-width:9.999999e-07;stroke-miterlimit:10;}
	.st22{clip-path:url(#SVGID_24_);}
	.st23{opacity:0;clip-path:url(#SVGID_26_);fill:none;stroke:#000000;stroke-width:9.999999e-07;stroke-miterlimit:10;}
	.st24{clip-path:url(#SVGID_26_);}
</style>
<g>
	<g>
		<g>
			<defs>
				<rect id="SVGID_1_" y="-2.71399" width="208.59802" height="89.05002"/>
			</defs>
			<clipPath id="SVGID_2_">
				<use xlink:href="#SVGID_1_"  style="overflow:visible;"/>
			</clipPath>
			<line class="st0" x1="12.88721" y1="6.79452" x2="12.88721" y2="86.33654"/>
			<line class="st0" x1="0" y1="72.59481" x2="203.616" y2="72.59481"/>
		</g>
		<line class="st1" x1="35.3584" y1="75.59481" x2="35.3584" y2="69.59481"/>
		<line class="st1" x1="72.8511" y1="75.59481" x2="72.8511" y2="69.59481"/>
		<line class="st1" x1="147.92401" y1="75.59481" x2="147.92401" y2="69.59481"/>
		<line class="st2" x1="27.84131" y1="12.71002" x2="156.95929" y2="60.59802"/>
		<line class="st3" x1="59.7749" y1="38.26571" x2="69.6499" y2="31.68273"/>
		<line class="st3" x1="63.7749" y1="9.93273" x2="70.2749" y2="12.93273"/>
		<line class="st4" x1="35.38721" y1="27.59533" x2="35.38721" y2="15.55734"/>
		<g>
			<defs>
				<rect id="SVGID_3_" y="-2.71399" width="208.59802" height="89.05002"/>
			</defs>
			<clipPath id="SVGID_4_">
				<use xlink:href="#SVGID_3_"  style="overflow:visible;"/>
			</clipPath>
			<path class="st5" d="M71.51221,29.47033c0-0.76001,0.616-1.375,1.375-1.375c0.75897,0,1.375,0.61499,1.375,1.375
				c0,0.759-0.61603,1.375-1.375,1.375C72.1282,30.84533,71.51221,30.22933,71.51221,29.47033"/>
			<path class="st5" d="M71.51221,29.47033h0.64999c0.00101-0.39999,0.32498-0.724,0.72501-0.72501
				c0.39999,0.00101,0.724,0.32501,0.72498,0.72501c-0.00098,0.39999-0.32498,0.724-0.72498,0.72501
				c-0.40002-0.00101-0.724-0.32501-0.72501-0.72501H71.51221h-0.65002c0.00101,1.11899,0.90601,2.02399,2.02502,2.02499
				c1.11899-0.00101,2.02399-0.90601,2.02499-2.02499c-0.00101-1.11902-0.90701-2.02499-2.02499-2.02499
				c-1.11801,0-2.02402,0.90598-2.02502,2.02499H71.51221z"/>
			<path class="st5" d="M71.51221,15.09533c0-0.76001,0.616-1.375,1.375-1.375c0.75897,0,1.375,0.61499,1.375,1.375
				c0,0.759-0.61603,1.375-1.375,1.375C72.1282,16.47033,71.51221,15.85433,71.51221,15.09533"/>
			<path class="st5" d="M71.51221,15.09533h0.19998c0.00101-0.64899,0.526-1.17401,1.17502-1.17499
				c0.64899,0.00098,1.17398,0.526,1.17499,1.17499c-0.00101,0.64899-0.526,1.17401-1.17499,1.17499
				c-0.64902-0.00098-1.17401-0.526-1.17502-1.17499H71.51221h-0.20001c0,0.87,0.70502,1.57501,1.57501,1.57501
				s1.57498-0.70502,1.57498-1.57501s-0.70499-1.57501-1.57498-1.57501s-1.57501,0.70502-1.57501,1.57501H71.51221z"/>
			<path class="st5" d="M101.51199,54.96981c0-0.759,0.61502-1.375,1.375-1.375c0.759,0,1.375,0.616,1.375,1.375
				c0,0.76001-0.616,1.375-1.375,1.375C102.12701,56.34481,101.51199,55.72982,101.51199,54.96981"/>
			<path class="st5" d="M101.51199,54.96981h0.20001c0.00101-0.64798,0.526-1.17398,1.17499-1.17499
				c0.64801,0.00101,1.17401,0.52701,1.17502,1.17499c-0.00101,0.64902-0.52701,1.17401-1.17502,1.17502
				c-0.64899-0.00101-1.17398-0.526-1.17499-1.17502H101.51199h-0.19998c0,0.87003,0.70499,1.57501,1.57498,1.57501
				c0.86899,0,1.57501-0.70499,1.57501-1.57501c0-0.86899-0.70602-1.57498-1.57501-1.57498c-0.87,0-1.57498,0.70599-1.57498,1.57498
				H101.51199z"/>
			<path class="st5" d="M124.01199,35.97033c0-0.76001,0.616-1.375,1.375-1.375s1.375,0.61499,1.375,1.375
				c0,0.759-0.616,1.375-1.375,1.375S124.01199,36.72934,124.01199,35.97033"/>
			<path class="st5" d="M124.01199,35.97033h0.20001c0.00101-0.64902,0.52701-1.17401,1.17499-1.17502
				c0.64801,0.00101,1.17401,0.526,1.17502,1.17502c-0.00101,0.64801-0.52701,1.17401-1.17502,1.17499
				c-0.64798-0.00098-1.17398-0.52698-1.17499-1.17499H124.01199h-0.19998c0,0.87,0.70599,1.57498,1.57498,1.57498
				s1.57501-0.70499,1.57501-1.57498c0-0.871-0.70602-1.57501-1.57501-1.57501s-1.57498,0.70401-1.57498,1.57501H124.01199z"/>
			<path class="st5" d="M146.51199,63.46981c0-0.759,0.616-1.375,1.375-1.375s1.375,0.616,1.375,1.375
				c0,0.76001-0.616,1.375-1.375,1.375S146.51199,64.22982,146.51199,63.46981"/>
			<path class="st5" d="M146.51199,63.46981h0.19998c0.00101-0.64798,0.52701-1.17398,1.17502-1.17499
				c0.64798,0.00101,1.17398,0.52701,1.17499,1.17499c-0.00101,0.64901-0.52701,1.17401-1.17499,1.17501
				c-0.64801-0.00101-1.17401-0.526-1.17502-1.17501H146.51199h-0.20001c0,0.87002,0.70602,1.57501,1.57501,1.57501
				s1.57498-0.70499,1.57498-1.57501c0-0.86899-0.70599-1.57498-1.57498-1.57498s-1.57501,0.70599-1.57501,1.57498H146.51199z"/>
			<path class="st5" d="M34.01221,27.59533c0-0.76001,0.616-1.375,1.375-1.375s1.375,0.61499,1.375,1.375
				c0,0.759-0.616,1.375-1.375,1.375S34.01221,28.35433,34.01221,27.59533"/>
			<path class="st5" d="M34.01221,27.59533h0.19998c0.00101-0.64902,0.526-1.17401,1.17502-1.17502
				c0.64899,0.00101,1.17398,0.526,1.17499,1.17502c-0.00101,0.64899-0.526,1.17401-1.17499,1.17499
				c-0.64902-0.00098-1.17401-0.526-1.17502-1.17499H34.01221h-0.20001c0,0.87,0.70502,1.57498,1.57501,1.57498
				s1.57498-0.70499,1.57498-1.57498s-0.70499-1.57501-1.57498-1.57501s-1.57501,0.70502-1.57501,1.57501H34.01221z"/>
			<line class="st6" x1="72.88721" y1="29.47033" x2="72.88721" y2="15.55734"/>
			<line class="st6" x1="102.88699" y1="54.71981" x2="102.88699" y2="40.80783"/>
			<line class="st6" x1="125.38699" y1="48.96981" x2="125.38699" y2="35.96981"/>
			<line class="st6" x1="147.88699" y1="63.71981" x2="147.88699" y2="57.68283"/>
			<line class="st7" x1="133.30402" y1="43.14853" x2="126.45001" y2="43.14853"/>
			<line class="st7" x1="96.53421" y1="47.56164" x2="101.7702" y2="47.56164"/>
		</g>
		<g>
			<path d="M136.99023,42.46198c-0.04199,0.05469-0.10156,0.07227-0.22754,0.08398c-0.19189,1.39746-0.6001,2.83691-2.00293,3.71191
				l-0.07227-0.07715c1.06152-0.89355,1.45117-2.29688,1.59521-3.7002h-0.70752c-0.09619,0.25781-0.20996,0.50391-0.3418,0.7373
				c1.14551,0.2998,0.80957,1.15137,0.36572,0.85156c-0.0542-0.24023-0.24561-0.50391-0.44971-0.70117
				c-0.16211,0.26953-0.3418,0.52148-0.55176,0.75488l-0.08398-0.07129c0.44385-0.74414,0.71387-1.72754,0.85742-2.68652h-0.74365
				l-0.0415-0.16797h1.70264l0.2998-0.37793c0,0,0.34814,0.26367,0.55811,0.45605c-0.01221,0.05957-0.07812,0.08984-0.15625,0.08984
				H135.875c-0.06006,0.3291-0.1377,0.6416-0.23975,0.94141h0.60547l0.26416-0.27637L136.99023,42.46198z M138.04004,44.33894
				c0.0957,0.24023,0.23975,0.47363,0.42529,0.68359c0.28809-0.22168,0.53369-0.44922,0.71387-0.68945l0.53955,0.35449
				c-0.04785,0.05957-0.10205,0.07129-0.23975,0.03516c-0.19189,0.19824-0.43799,0.39062-0.73145,0.57031
				c0.19775,0.16211,0.43164,0.2998,0.70752,0.40723c0.0957,0.04785,0.1499,0.04785,0.19189-0.0293
				c0.06006-0.1084,0.15576-0.33008,0.22168-0.52832l0.06592,0.0127l-0.05957,0.65332
				c0.18555,0.16797,0.19775,0.23926,0.15576,0.31738c-0.10205,0.21582-0.45557,0.13184-0.74951,0
				c-0.37793-0.16113-0.68994-0.36523-0.94775-0.59961c-0.60547,0.30566-1.34326,0.55176-2.1167,0.67188l-0.04199-0.08984
				c0.68945-0.18555,1.36133-0.48633,1.91895-0.83398c-0.22803-0.26953-0.396-0.56934-0.51562-0.89355l-1.07324,0.1084
				l-0.06006-0.16797l1.0791-0.1084c-0.0957-0.29297-0.14355-0.60547-0.16162-0.93555l0.65967,0.06055
				c-0.00635,0.06543-0.0542,0.13184-0.18018,0.15625c0.01807,0.22168,0.06006,0.45508,0.13184,0.67676l1.35547-0.13184
				l0.23975-0.37109c0,0,0.33594,0.21582,0.52783,0.36523c-0.00586,0.06641-0.06592,0.1084-0.1377,0.11426L138.04004,44.33894z
				 M137.69189,41.72468c-0.08398-0.28809-0.13184-0.59961-0.14404-0.92969l0.63574,0.05469
				c-0.01172,0.06543-0.06006,0.125-0.17969,0.14941c0.01172,0.23438,0.05371,0.46191,0.12598,0.67773l1.14502-0.11426
				l0.24023-0.36523c0,0,0.32959,0.20312,0.52734,0.35938c-0.00586,0.06641-0.06592,0.1084-0.1377,0.1084l-1.71484,0.17383
				c0.07178,0.18555,0.17969,0.35938,0.31152,0.51562c0.27588-0.17969,0.50391-0.37793,0.67188-0.57031l0.49756,0.3125
				c-0.04199,0.05957-0.0957,0.07129-0.22168,0.03613c-0.18018,0.16113-0.41992,0.31738-0.6958,0.46094
				c0.17969,0.14453,0.396,0.27051,0.65967,0.36035c0.0957,0.04199,0.14404,0.04199,0.18604-0.03613
				c0.05371-0.10156,0.1377-0.32422,0.19775-0.50391l0.07178,0.0127l-0.05371,0.61133
				c0.17383,0.14941,0.19189,0.20996,0.15576,0.29395c-0.08984,0.20996-0.41992,0.14355-0.6958,0.0293
				c-0.38965-0.14941-0.70117-0.3418-0.94141-0.56934c-0.44971,0.18555-0.95312,0.33594-1.46289,0.41406l-0.04834-0.0957
				c0.4502-0.12598,0.90576-0.3125,1.30762-0.53418c-0.16797-0.20996-0.29395-0.44336-0.38379-0.69531l-1.00146,0.10156
				l-0.06006-0.15625L137.69189,41.72468z M138.27344,43.31355c1.15137,0.03613,0.90576,0.85742,0.49219,0.62402
				c-0.07227-0.21582-0.31787-0.44336-0.54004-0.56934L138.27344,43.31355z M138.37549,40.8194
				c1.09131-0.00586,0.86963,0.7793,0.45605,0.56934c-0.07227-0.19141-0.2998-0.40723-0.50977-0.50977L138.37549,40.8194z"/>
			<path d="M145.45508,45.40046c0,0,0.35986,0.28223,0.56982,0.48633c-0.01221,0.06543-0.07227,0.0957-0.15625,0.0957h-4.37744
				l-0.04785-0.17383h1.99658v-1.25391h-1.09717l-0.00586-0.02344c-0.42578,0.54004-0.9834,1.00098-1.69727,1.37305
				l-0.07178-0.07812c0.82715-0.56348,1.41504-1.31934,1.81104-2.18262h-1.72705l-0.04834-0.17969h1.84717
				c0.0957-0.23438,0.17969-0.48633,0.25195-0.7373h-1.54736l-0.04785-0.1748h1.63721
				c0.05371-0.22168,0.0957-0.44336,0.13184-0.6709h-1.979l-0.04785-0.17969h2.86035
				c0.16797-0.28809,0.33594-0.70801,0.43799-1.00781l0.73145,0.20996c-0.03027,0.07129-0.09619,0.12012-0.22803,0.11328
				c-0.19189,0.20996-0.48584,0.47461-0.77344,0.68457h1.18115l0.31201-0.37207c0,0,0.354,0.25781,0.56982,0.45508
				c-0.01221,0.06641-0.07812,0.09668-0.16211,0.09668h-2.33887v0.01172c-0.03564,0.22754-0.08398,0.44336-0.1377,0.65918h1.41504
				l0.29395-0.35938c0,0,0.3418,0.24609,0.55176,0.4375c-0.01807,0.06641-0.07812,0.09668-0.15576,0.09668h-2.15918
				c-0.07178,0.25098-0.15576,0.50293-0.26367,0.7373h2.16504l0.31152-0.38965c0,0,0.354,0.27539,0.56982,0.47363
				c-0.01807,0.06543-0.07178,0.0957-0.15576,0.0957h-2.97461c-0.13184,0.25781-0.28174,0.50977-0.44971,0.7373h2.14697
				l0.30566-0.38379c0,0,0.34766,0.27051,0.55762,0.46191c-0.01172,0.06641-0.07178,0.0957-0.1499,0.0957h-1.37939v1.25391h1.21143
				L145.45508,45.40046z M141.94678,40.71101c1.34961,0.25195,0.95947,1.23535,0.46777,0.90625
				c-0.05371-0.2998-0.30566-0.6543-0.52148-0.86426L141.94678,40.71101z"/>
		</g>
		<g>
			<path d="M86.021,45.96345c-0.04199,0.05469-0.10156,0.07227-0.22754,0.08398c-0.19189,1.39746-0.6001,2.83691-2.00293,3.71191
				l-0.07227-0.07715c1.06152-0.89355,1.45117-2.29688,1.59521-3.7002h-0.70752c-0.09619,0.25781-0.20996,0.50391-0.3418,0.7373
				c1.14551,0.2998,0.80957,1.15137,0.36572,0.85156c-0.0542-0.24023-0.24561-0.50391-0.44971-0.70117
				c-0.16211,0.26953-0.3418,0.52148-0.55176,0.75488l-0.08398-0.07129c0.44385-0.74414,0.71387-1.72754,0.85742-2.68652H83.6582
				l-0.0415-0.16797h1.70264l0.2998-0.37793c0,0,0.34814,0.26367,0.55811,0.45605c-0.01221,0.05957-0.07812,0.08984-0.15625,0.08984
				h-1.11523c-0.06006,0.3291-0.1377,0.6416-0.23975,0.94141h0.60547l0.26416-0.27637L86.021,45.96345z M87.0708,47.8404
				c0.0957,0.24023,0.23975,0.47363,0.42529,0.68359c0.28809-0.22168,0.53369-0.44922,0.71387-0.68945l0.53955,0.35449
				c-0.04785,0.05957-0.10205,0.07129-0.23975,0.03516c-0.19189,0.19824-0.43799,0.39062-0.73145,0.57031
				c0.19775,0.16211,0.43164,0.2998,0.70752,0.40723c0.0957,0.04785,0.1499,0.04785,0.19189-0.0293
				c0.06006-0.1084,0.15576-0.33008,0.22168-0.52832l0.06592,0.0127l-0.05957,0.65332
				c0.18555,0.16797,0.19775,0.23926,0.15576,0.31738c-0.10205,0.21582-0.45557,0.13184-0.74951,0
				c-0.37793-0.16113-0.68994-0.36523-0.94775-0.59961c-0.60547,0.30566-1.34326,0.55176-2.1167,0.67188l-0.04199-0.08984
				c0.68945-0.18555,1.36133-0.48633,1.91895-0.83398c-0.22803-0.26953-0.396-0.56934-0.51562-0.89355l-1.07324,0.1084
				l-0.06006-0.16797l1.0791-0.1084c-0.0957-0.29297-0.14355-0.60547-0.16162-0.93555l0.65967,0.06055
				c-0.00635,0.06543-0.0542,0.13184-0.18018,0.15625c0.01807,0.22168,0.06006,0.45508,0.13184,0.67676l1.35547-0.13184
				l0.23975-0.37109c0,0,0.33594,0.21582,0.52783,0.36523c-0.00586,0.06641-0.06592,0.1084-0.1377,0.11426L87.0708,47.8404z
				 M86.72266,45.22614c-0.08398-0.28809-0.13184-0.59961-0.14404-0.92969l0.63574,0.05469
				c-0.01172,0.06543-0.06006,0.125-0.17969,0.14941c0.01172,0.23438,0.05371,0.46191,0.12598,0.67773l1.14502-0.11426
				l0.24023-0.36523c0,0,0.32959,0.20312,0.52734,0.35938c-0.00586,0.06641-0.06592,0.1084-0.1377,0.1084L87.2207,45.3404
				c0.07178,0.18555,0.17969,0.35938,0.31152,0.51562c0.27588-0.17969,0.50391-0.37793,0.67188-0.57031l0.49756,0.3125
				c-0.04199,0.05957-0.0957,0.07129-0.22168,0.03613c-0.18018,0.16113-0.41992,0.31738-0.6958,0.46094
				c0.17969,0.14453,0.396,0.27051,0.65967,0.36035c0.0957,0.04199,0.14404,0.04199,0.18604-0.03613
				c0.05371-0.10156,0.1377-0.32422,0.19775-0.50391l0.07178,0.0127l-0.05371,0.61133
				c0.17383,0.14941,0.19189,0.20996,0.15576,0.29395c-0.08984,0.20996-0.41992,0.14355-0.6958,0.0293
				c-0.38965-0.14941-0.70117-0.3418-0.94141-0.56934c-0.44971,0.18555-0.95312,0.33594-1.46289,0.41406l-0.04834-0.0957
				c0.4502-0.12598,0.90576-0.3125,1.30762-0.53418c-0.16797-0.20996-0.29395-0.44336-0.38379-0.69531l-1.00146,0.10156
				l-0.06006-0.15625L86.72266,45.22614z M87.3042,46.81501c1.15137,0.03613,0.90576,0.85742,0.49219,0.62402
				c-0.07227-0.21582-0.31787-0.44336-0.54004-0.56934L87.3042,46.81501z M87.40625,44.32087
				c1.09131-0.00586,0.86963,0.7793,0.45605,0.56934c-0.07227-0.19141-0.2998-0.40723-0.50977-0.50977L87.40625,44.32087z"/>
			<path d="M94.48584,48.90192c0,0,0.35986,0.28223,0.56982,0.48633c-0.01221,0.06543-0.07227,0.0957-0.15625,0.0957h-4.37744
				l-0.04785-0.17383h1.99658v-1.25391h-1.09717l-0.00586-0.02344c-0.42578,0.54004-0.9834,1.00098-1.69727,1.37305
				l-0.07178-0.07812c0.82715-0.56348,1.41504-1.31934,1.81104-2.18262h-1.72705l-0.04834-0.17969h1.84717
				c0.0957-0.23438,0.17969-0.48633,0.25195-0.7373h-1.54736l-0.04785-0.1748h1.63721
				c0.05371-0.22168,0.0957-0.44336,0.13184-0.6709h-1.979l-0.04785-0.17969h2.86035
				c0.16797-0.28809,0.33594-0.70801,0.43799-1.00781l0.73145,0.20996c-0.03027,0.07129-0.09619,0.12012-0.22803,0.11328
				c-0.19189,0.20996-0.48584,0.47461-0.77344,0.68457h1.18115l0.31201-0.37207c0,0,0.354,0.25781,0.56982,0.45508
				c-0.01221,0.06641-0.07812,0.09668-0.16211,0.09668H92.4707v0.01172c-0.03564,0.22754-0.08398,0.44336-0.1377,0.65918h1.41504
				l0.29395-0.35938c0,0,0.3418,0.24609,0.55176,0.4375c-0.01807,0.06641-0.07812,0.09668-0.15576,0.09668h-2.15918
				c-0.07178,0.25098-0.15576,0.50293-0.26367,0.7373h2.16504l0.31152-0.38965c0,0,0.354,0.27539,0.56982,0.47363
				c-0.01807,0.06543-0.07178,0.0957-0.15576,0.0957h-2.97461c-0.13184,0.25781-0.28174,0.50977-0.44971,0.7373h2.14697
				l0.30566-0.38379c0,0,0.34766,0.27051,0.55762,0.46191c-0.01172,0.06641-0.07178,0.0957-0.1499,0.0957H92.9624v1.25391h1.21143
				L94.48584,48.90192z M90.97754,44.21247c1.34961,0.25195,0.95947,1.23535,0.46777,0.90625
				c-0.05371-0.2998-0.30566-0.6543-0.52148-0.86426L90.97754,44.21247z"/>
		</g>
		<g>
			<path d="M40.53613,43.66218c-0.16797,0.12012-0.37793,0.26953-0.62988,0.44434v2.02051
				c0,0.35938-0.06592,0.55762-0.61768,0.61719c-0.01172-0.14355-0.04199-0.25195-0.10791-0.32324
				c-0.07764-0.07812-0.20361-0.12598-0.41943-0.16211v-0.08984c0,0,0.47949,0.03027,0.58154,0.03027
				c0.0957,0,0.12598-0.02441,0.12598-0.1084v-1.68457c-0.12012,0.07715-0.24023,0.15527-0.37207,0.23926
				c-0.01172,0.07812-0.05371,0.13184-0.11963,0.16211l-0.23389-0.5459c0.1499-0.04785,0.40771-0.14355,0.72559-0.26367v-1.30176
				h-0.65381l-0.04199-0.17383h0.6958v-1.30664l0.65332,0.07129c-0.01758,0.08398-0.07178,0.14453-0.21582,0.16211v1.07324h0.11426
				l0.22168-0.34766c0,0,0.17383,0.16797,0.31787,0.32422v-1.24707l0.57568,0.05957
				c-0.00586,0.07812-0.06592,0.13184-0.17383,0.15039v0.59277c0.30566-0.15527,0.66553-0.38965,0.83936-0.51562l0.354,0.38379
				c-0.03613,0.03027-0.08984,0.03027-0.16797-0.00586c-0.2041,0.07227-0.64746,0.19824-1.02539,0.27051v0.44336
				c0,0.07227,0.01807,0.08984,0.1499,0.08984h0.3418c0.1499,0,0.27002,0,0.32373-0.00586
				c0.04785,0,0.07812-0.00586,0.08984-0.03613c0.04199-0.04785,0.09619-0.21582,0.14404-0.37793h0.07178l0.01807,0.37793
				c0.12598,0.04785,0.16211,0.08984,0.16211,0.16797c0,0.16797-0.17383,0.24609-0.83984,0.24609h-0.41357
				c-0.38379,0-0.44971-0.0957-0.44971-0.37207V42.6905c-0.01807,0.00586-0.03613,0.00586-0.06006,0.00586h-0.59375v1.12793
				c0.19189-0.07227,0.396-0.15625,0.59961-0.24023L40.53613,43.66218z M41.3457,44.9698
				c-0.01221,0.0957-0.03027,0.18555-0.04785,0.27539c1.01904,0.37207,0.65918,1.05566,0.29346,0.78027
				c-0.04785-0.19238-0.18555-0.42578-0.33545-0.6123c-0.1499,0.54004-0.4502,0.9834-1.08545,1.33789l-0.08398-0.09668
				c0.5874-0.45508,0.78564-1.0127,0.85742-1.68457h-0.73779l-0.04785-0.17383h0.79785
				c0.02393-0.25781,0.02393-0.53418,0.02979-0.82812h-0.15576c-0.12598,0.24609-0.27588,0.46191-0.4502,0.62402l-0.08984-0.04785
				c0.18018-0.36621,0.32373-0.89355,0.37793-1.40918l0.60547,0.14355c-0.01172,0.07227-0.07764,0.13184-0.20361,0.13184
				c-0.04785,0.13184-0.09619,0.25781-0.15576,0.38379h0.52734l0.23389-0.2998c0,0,0.26416,0.20996,0.42578,0.37793
				c-0.01172,0.06641-0.07178,0.0957-0.1499,0.0957h-0.53955c-0.00586,0.29395-0.01807,0.57031-0.04199,0.82812h0.20361
				l0.22217-0.30566c0,0,0.25195,0.22754,0.40771,0.38379c-0.01807,0.06543-0.07178,0.0957-0.15576,0.0957H41.3457z
				 M44.40381,46.16901v0.07812c-0.12598,0.0293-0.18604,0.18555-0.17969,0.37109h-0.45605
				c-0.65332,0-1.06738-0.26953-1.2832-1.16309c-0.14404,0.5459-0.35986,0.9834-0.69531,1.30762l-0.09033-0.06641
				c0.37793-0.65918,0.5459-1.49902,0.52783-2.51855l0.63574,0.06641c-0.01807,0.08398-0.07178,0.14355-0.2041,0.15527
				c-0.02979,0.30664-0.06592,0.58789-0.12598,0.85156c0.11426,0.3125,0.24609,0.52832,0.41992,0.67188v-2.42871h-0.87549
				l-0.05371-0.17383h1.7207l0.22803-0.24023l0.42578,0.41406c-0.04199,0.04785-0.12012,0.05371-0.22168,0.06055
				c-0.11426,0.20312-0.31201,0.52148-0.47412,0.69531l-0.07764-0.04199c0.04785-0.18555,0.11377-0.48535,0.15576-0.71387h-0.41992
				v1.17578h0.25781l0.23389-0.31836c0,0,0.27002,0.22852,0.42578,0.39648c-0.01172,0.05957-0.06592,0.08984-0.1499,0.08984
				h-0.76758v1.2832c0.13184,0.03613,0.28223,0.04785,0.44385,0.04785H44.40381z M42.1792,41.70124l-0.0542-0.17383h1.43359
				l0.26953-0.26367l0.46777,0.44922c-0.04199,0.04883-0.10791,0.06055-0.23389,0.06641
				c-0.19775,0.20996-0.52783,0.45605-0.82129,0.62988c0.53369,0.37109,0.31152,0.86914-0.04199,0.6709
				c-0.10791-0.31738-0.48584-0.70703-0.79785-0.90527l0.04834-0.05957c0.28174,0.04785,0.49756,0.12598,0.65918,0.21582
				c0.15039-0.17969,0.31787-0.42578,0.43213-0.62988H42.1792z"/>
			<path d="M47.13574,42.75105c0,0,0.33594,0.27539,0.53369,0.47363c-0.01221,0.06543-0.07178,0.0957-0.15576,0.0957h-1.05566
				v0.37793c1.40332,0.52148,1.04932,1.37891,0.62354,1.06152c-0.08984-0.28223-0.37158-0.64746-0.62354-0.91797v2.74707
				c0,0.04199-0.16162,0.14941-0.38965,0.14941h-0.07812v-2.5c-0.2876,0.58105-0.67773,1.09082-1.16309,1.52832l-0.07812-0.07715
				c0.50977-0.6416,0.86963-1.51758,1.06738-2.36914h-0.95947l-0.04785-0.17969h1.18115V42.0069
				c-0.38965,0.07227-0.80322,0.13867-1.18701,0.17383l-0.03027-0.0957c0.77979-0.19824,1.74512-0.58203,2.23682-0.85156
				l0.55176,0.48633c-0.06006,0.05371-0.16797,0.05371-0.33008,0c-0.22168,0.06543-0.47949,0.13184-0.77344,0.19727v1.22363h0.38379
				L47.13574,42.75105z M50.2002,42.31257c-0.04199,0.05469-0.14404,0.10254-0.27002,0.13281v3.72949
				c-0.01221,0.03613-0.24609,0.12598-0.40771,0.12598H49.4502v-0.60547h-1.21094v0.53906
				c0,0.06055-0.18604,0.18066-0.39014,0.18066h-0.08398v-4.47363l0.50391,0.22754h1.11523l0.2583-0.29395L50.2002,42.31257z
				 M49.4502,45.52155v-3.17871h-1.21094v3.17871H49.4502z"/>
			<path d="M51.3125,45.05964c0.18018,0.59961,0.10205,1.05566-0.05371,1.26562c-0.10205,0.1377-0.3418,0.17969-0.43164,0.04199
				c-0.07812-0.12598-0.01221-0.27051,0.10156-0.37207c0.15625-0.16797,0.31201-0.58203,0.27588-0.93555H51.3125z
				 M50.85107,44.33991c0,0,0.11963-0.03027,0.16797-0.06641c0.28174-0.23926,0.60547-0.6709,0.88135-1.09082
				c-0.19189,0.05957-0.41992,0.13184-0.65381,0.19727c-0.04785,0.07227-0.10156,0.12012-0.15576,0.14453l-0.22803-0.56934
				c0,0,0.11426-0.02441,0.15625-0.06055c0.32373-0.3418,0.73145-1.19336,0.86914-1.64941l0.62402,0.30664
				c-0.03027,0.05371-0.10205,0.10156-0.21582,0.08398c-0.24023,0.40723-0.66602,0.95898-1.0498,1.33105
				c0.22217,0,0.50391,0,0.7915-0.00586c0.13818-0.22852,0.25195-0.43848,0.31787-0.6123l0.56396,0.38379
				c-0.02393,0.04785-0.10791,0.08398-0.22217,0.06055c-0.31152,0.45508-0.89941,1.10938-1.43311,1.55273
				c0.2998-0.01172,0.70752-0.04199,1.13965-0.07227c-0.07227-0.22754-0.16797-0.45508-0.26416-0.62305l0.07227-0.03613
				c0.99512,0.6416,0.60547,1.40332,0.26367,1.0791c0-0.08398-0.01221-0.17969-0.03613-0.26953
				c-0.31787,0.0957-0.77344,0.2334-1.24121,0.35938c-0.04199,0.06641-0.0957,0.10254-0.1499,0.12012L50.85107,44.33991z
				 M51.81641,44.9571c0.75586,0.77441,0.26367,1.51758-0.03613,1.13379c0.06592-0.35352,0.03027-0.80957-0.04785-1.10938
				L51.81641,44.9571z M52.35596,44.85554c0.94189,0.53418,0.5459,1.26562,0.21631,0.95312
				c0-0.2998-0.15039-0.67676-0.28809-0.91699L52.35596,44.85554z M56.16992,44.50788
				c-0.02979,0.04785-0.11963,0.08398-0.22754,0.03613c-0.16211,0.12598-0.4502,0.31152-0.72559,0.46191
				c0.32373,0.42578,0.72559,0.70703,1.11523,0.89941l-0.01221,0.05957c-0.16797,0.03027-0.2998,0.17969-0.35986,0.38965
				c-0.56934-0.44922-0.9834-1.01953-1.229-2.00879v1.76953c0,0.33496-0.07812,0.5752-0.6416,0.62891
				c-0.01221-0.1377-0.04199-0.25781-0.10791-0.32324c-0.08398-0.07227-0.21631-0.12598-0.47998-0.16211v-0.08984
				c0,0,0.5459,0.04199,0.65967,0.04199c0.10205,0,0.13184-0.03613,0.13184-0.1084v-1.49316
				c-0.03564,0.0127-0.08984,0.02441-0.16797,0.03027c-0.20996,0.73145-0.67139,1.42773-1.49316,1.86523l-0.05957-0.08398
				c0.59326-0.4502,0.94727-1.12793,1.10938-1.82324h-0.72559l-0.0542-0.17969h0.75537l0.25781-0.24609l0.37793,0.33008v-0.71387
				h-0.66553v0.19238c0,0.0293-0.1377,0.11328-0.354,0.11328h-0.07178v-2.34473l0.49756,0.20996h0.36621
				c0.04785-0.20996,0.10156-0.5459,0.1377-0.76758l0.72559,0.12598c-0.02393,0.08984-0.10205,0.1377-0.22803,0.14453
				c-0.11963,0.14355-0.2998,0.34766-0.4375,0.49707h1.06738l0.22168-0.25195l0.46191,0.35449
				c-0.04199,0.04785-0.10205,0.08398-0.22168,0.10742v1.74512c0,0.03027-0.16211,0.12012-0.36621,0.12012h-0.07178v-0.24609
				h-0.62354v0.22754c0.0957,0.34863,0.23975,0.63574,0.40186,0.87598c0.20361-0.25195,0.42578-0.59375,0.51562-0.79199
				L56.16992,44.50788z M53.62744,42.13288v0.64746h1.72705v-0.64746H53.62744z M55.35449,43.60847v-0.65332h-1.72705v0.65332
				H55.35449z"/>
			<path d="M61.69629,45.82136c0,0,0.396,0.2998,0.62988,0.51562c-0.01807,0.06543-0.07812,0.0957-0.16211,0.0957h-5.31934
				L56.79102,46.253h2.32666v-4.97754l0.73145,0.07812c-0.01758,0.08984-0.06592,0.14941-0.21582,0.17383v1.96094h1.26562
				l0.3418-0.4375c0,0,0.38965,0.2998,0.61768,0.50977c-0.01807,0.06543-0.07227,0.0957-0.16211,0.0957H59.6333V46.253h1.72119
				L61.69629,45.82136z"/>
			<path d="M65.39355,42.44538c-0.04199,0.04785-0.1377,0.0957-0.25781,0.12598v3.63965
				c-0.00586,0.04199-0.22803,0.15625-0.38965,0.15625h-0.06592v-0.46191H63.5166v0.47949
				c0,0.05371-0.17383,0.16797-0.36572,0.16797h-0.08398v-4.46777l0.47949,0.22168h0.15625
				c0.06006-0.30566,0.14355-0.76172,0.19775-1.0791l0.72559,0.16797c-0.02393,0.08398-0.10205,0.13184-0.22803,0.13184
				c-0.13184,0.22754-0.31787,0.53418-0.47949,0.7793h0.70166l0.24561-0.28125L65.39355,42.44538z M63.5166,42.48054v1.49316
				h1.16357v-1.49316H63.5166z M64.68018,45.73151v-1.58398H63.5166v1.58398H64.68018z M68.31396,42.44538
				c-0.04785,0.05371-0.12012,0.08398-0.25781,0.10156c-0.04199,2.27246-0.14404,3.53809-0.43164,3.88574
				c-0.18018,0.20996-0.42578,0.2998-0.74951,0.2998c0-0.15625-0.02441-0.28809-0.12012-0.35938
				c-0.09619-0.08398-0.3418-0.15625-0.60596-0.2041l0.00635-0.10156c0.28174,0.0293,0.70166,0.06543,0.85156,0.06543
				c0.11963,0,0.16797-0.01758,0.22168-0.08398c0.22803-0.20996,0.31201-1.5293,0.34766-3.57422h-1.36084
				c-0.2583,0.49805-0.56982,0.93555-0.91162,1.25977l-0.08398-0.05371c0.36572-0.60059,0.73145-1.53516,0.91748-2.45312
				l0.70752,0.19824c-0.02393,0.07129-0.0957,0.12598-0.22168,0.12598c-0.09619,0.26367-0.2041,0.50977-0.31787,0.74902h1.21143
				l0.28174-0.30566L68.31396,42.44538z M65.80127,43.53034c1.52344,0.61133,1.09766,1.67871,0.60596,1.2832
				c-0.06006-0.40723-0.37793-0.92383-0.66602-1.24121L65.80127,43.53034z"/>
			<path d="M69.34863,45.44929c0.13818,0.5459,0.04199,0.97754-0.12598,1.16309c-0.11377,0.13184-0.34766,0.16211-0.4375,0.0127
				c-0.07227-0.12012-0.00635-0.27051,0.11377-0.37207c0.16211-0.1377,0.3418-0.49805,0.3418-0.80957L69.34863,45.44929z
				 M71.23779,41.32331l0.47363,0.36621c-0.03613,0.04199-0.12598,0.08984-0.22803,0.10156v1.72168
				c-0.00586,0.03516-0.21582,0.11914-0.34766,0.11914h-0.06006v-0.21582h-0.61182v0.59961h0.44385l0.25195-0.31738
				c0,0,0.28174,0.22168,0.46191,0.39551c-0.01221,0.06055-0.07227,0.08984-0.15625,0.08984h-1.00146v0.50977
				c0.354-0.0293,0.73193-0.06543,1.11572-0.10156l0.01172,0.10156c-0.56348,0.13867-1.34912,0.31836-2.44043,0.54004
				c-0.03613,0.07812-0.09619,0.11426-0.15576,0.12598l-0.2041-0.54004c0.25781-0.01172,0.70166-0.04199,1.23535-0.08984v-0.5459
				h-1.02539l-0.04785-0.16797h1.07324v-0.59961h-0.58154v0.19824c0,0.03613-0.17432,0.13184-0.33594,0.13184h-0.06592v-2.375
				l0.43164,0.19238h1.54736L71.23779,41.32331z M69.44482,43.24226h0.62354v-1.50488h-0.62354V43.24226z M69.60059,41.94733
				c0.59375,0.68359,0.2998,1.22363,0.07178,0.97168c0.01807-0.2998-0.07764-0.69629-0.16162-0.94824L69.60059,41.94733z
				 M69.79248,45.38288c0.74951,0.75,0.26367,1.45801-0.03613,1.08008c0.06592-0.3418,0.03027-0.76758-0.04785-1.05566
				L69.79248,45.38288z M70.32617,45.2696c0.95361,0.58105,0.55176,1.31934,0.21582,0.99512
				c0.00586-0.31738-0.14404-0.71387-0.29395-0.95898L70.32617,45.2696z M71.07568,43.24226v-1.09668
				c-0.02979,0.02344-0.07812,0.04199-0.1377,0.04199c-0.07812,0.19727-0.20996,0.54492-0.34814,0.82129l-0.07764-0.03027
				c0.06006-0.31152,0.13184-0.79102,0.1499-1.04297l0.41357,0.11328v-0.31152h-0.65967v1.50488H71.07568z M70.91992,45.12507
				c1.06152,0.43262,0.70166,1.2002,0.3418,0.90039c-0.01807-0.28223-0.22217-0.64844-0.40771-0.8584L70.91992,45.12507z
				 M73.04248,42.90632v1.2002h0.55176l0.22217-0.27051l0.47363,0.36621c-0.04199,0.04785-0.10205,0.08398-0.22803,0.10156v2.24902
				c0,0.03027-0.16162,0.13184-0.37793,0.13184H73.6123v-0.4375h-1.41504v0.3418c0,0.03613-0.14404,0.13184-0.35986,0.13184
				h-0.07227v-2.82422l0.49805,0.20996h0.32373v-2.84277l0.67773,0.06543c-0.01221,0.09082-0.06592,0.15039-0.22217,0.17383v1.22949
				h0.51611l0.27539-0.38379c0,0,0.33008,0.27051,0.51611,0.46191c-0.01221,0.06641-0.07227,0.0957-0.1499,0.0957H73.04248z
				 M72.19727,44.27351v1.7998h1.41504v-1.7998H72.19727z"/>
		</g>
		<g>
			<path d="M47.05029,7.25397c-0.04834,0.05371-0.10791,0.07129-0.24023,0.07715c-0.11963,0.27051-0.28174,0.50977-0.47949,0.71973
				c0.85156,0.33008,0.5874,0.81543,0.22803,0.69629c-0.15625-0.11426-0.37793-0.24023-0.62988-0.36621
				c-0.4375,0.29395-1.00732,0.49805-1.72705,0.61133l-0.03613-0.0957c0.57568-0.14355,1.05566-0.36523,1.41553-0.66504
				c-0.354-0.15039-0.73779-0.27051-1.03174-0.34863c0.08398-0.1377,0.20996-0.37109,0.31787-0.60547h-0.62354l-0.0542-0.17383
				h0.75586c0.07178-0.16211,0.13184-0.30566,0.17383-0.41406h-0.2998v0.07812c0,0.03027-0.1377,0.12598-0.3418,0.12598h-0.06592
				V5.62897l0.47363,0.19727h0.58154V5.43659h-0.55762v0.03027c0,0.0293-0.13184,0.13184-0.33594,0.13184h-0.07178V4.84284h-0.37793
				l-0.04785-0.17383h0.42578V3.87702l0.48584,0.19824h0.47949V3.50593l0.64795,0.06543
				c-0.01807,0.08398-0.07227,0.14453-0.22217,0.16797v0.33594h0.50391l0.21582-0.22168l0.46191,0.34766
				c-0.03613,0.03613-0.11426,0.08398-0.20996,0.10156v0.36621h0.07812l0.22168-0.29395c0,0,0.25781,0.20996,0.41357,0.37207
				c-0.01172,0.06543-0.07178,0.0957-0.1499,0.0957h-0.56348v0.59375c-0.00586,0.04199-0.21582,0.13184-0.34766,0.13184H46.4502
				V5.43659h-0.55762v0.38965h0.59375l0.20996-0.20996l0.44385,0.33008c-0.03027,0.03613-0.10205,0.07812-0.19189,0.0957v0.68359
				c-0.00586,0.04199-0.20996,0.12598-0.3418,0.12598L47.05029,7.25397z M44.81934,6.50983h0.64746V6.00007h-0.64746V6.50983z
				 M44.90918,4.66901h0.55762V4.24909h-0.55762V4.66901z M45.4668,5.2569V4.84284h-0.55762V5.2569H45.4668z M45.33496,7.27741
				c-0.08984,0.17383-0.17969,0.36035-0.27588,0.52148c0.33594,0.03027,0.61182,0.07227,0.83984,0.12598
				c0.16748-0.19727,0.2998-0.41309,0.40137-0.64746H45.33496z M45.41895,7.10358h0.8877l0.25195-0.24609h-0.02441V6.68952h-1.29492
				l0.50977,0.10254c-0.02441,0.07812-0.07227,0.13184-0.24609,0.13184L45.41895,7.10358z M45.89258,4.24909v0.41992h0.55762
				V4.24909H45.89258z M46.4502,4.84284h-0.55762V5.2569h0.55762V4.84284z M45.89258,6.00007v0.50977h0.6416V6.00007H45.89258z
				 M49.2627,4.99909c-0.10791,0.92969-0.31738,1.75098-0.7373,2.45215c0.2998,0.47363,0.67773,0.87598,1.17529,1.17578
				l-0.01807,0.04785c-0.20996,0.03613-0.35986,0.14355-0.42578,0.35352c-0.41357-0.33594-0.73145-0.74902-0.96533-1.22949
				c-0.37207,0.48633-0.86377,0.90039-1.53516,1.24219L46.7085,8.96296c0.63525-0.44434,1.09131-0.97168,1.40918-1.57129
				c-0.21582-0.55176-0.34814-1.17578-0.43799-1.83496c-0.1499,0.28125-0.32373,0.5459-0.50977,0.76172l-0.08984-0.05469
				c0.33594-0.69531,0.61768-1.73828,0.73145-2.74609l0.70166,0.15625c-0.01807,0.08398-0.07764,0.1377-0.20996,0.14355
				c-0.08398,0.34766-0.18555,0.68945-0.2998,1.00781h0.81592l0.29346-0.38965c0,0,0.34814,0.26953,0.55176,0.4668
				c-0.01807,0.06641-0.07178,0.09668-0.15576,0.09668H49.2627z M47.93164,4.99909c-0.04785,0.12012-0.08984,0.2334-0.14404,0.34766
				c0.10205,0.60547,0.27002,1.16895,0.50391,1.66699c0.25781-0.61133,0.38965-1.28906,0.44971-2.01465H47.93164z"/>
			<path d="M52.53418,6.01276c0,0.95312-0.07178,2.15234-1.01904,2.96191l-0.08398-0.05957
				c0.60547-0.83398,0.66553-1.88379,0.66553-2.89648V5.01667c-0.02393,0.01172-0.06006,0.01855-0.09619,0.01855h-0.68945v1.05469
				c0.23389-0.08984,0.46777-0.18555,0.71387-0.27539l0.02979,0.07227c-0.19775,0.13184-0.44385,0.30566-0.74365,0.49707v1.99121
				c0,0.37207-0.07178,0.58789-0.62939,0.6416c-0.01221-0.15039-0.04199-0.26953-0.1084-0.34766
				c-0.07178-0.08398-0.19775-0.1377-0.42578-0.17383V8.40534c0,0,0.48584,0.03516,0.59375,0.03516
				c0.09619,0,0.12012-0.0293,0.12012-0.11328V6.6778c-0.14404,0.07812-0.29395,0.17383-0.44971,0.26953
				c-0.01807,0.07812-0.06592,0.14453-0.12598,0.16797L50.0459,6.55183c0.16797-0.04785,0.46143-0.15527,0.81543-0.28809V5.03522
				h-0.71387l-0.04785-0.18066h0.76172V3.50007l0.67139,0.07129c-0.01758,0.08398-0.07764,0.14453-0.22168,0.16211v1.12109h0.14404
				l0.24561-0.35938c0,0,0.22803,0.2041,0.396,0.37793V4.30964l0.52148,0.20996h0.6958V3.50593l0.64746,0.05957
				c-0.00586,0.08398-0.05957,0.1377-0.19775,0.15625v0.28809h0.85742l0.25781-0.32422c0,0,0.2998,0.22754,0.47998,0.4082
				c-0.01221,0.06543-0.06592,0.0957-0.1499,0.0957h-1.44531V4.5196h1.16357l0.26953-0.26465L55.66455,4.711
				C55.6167,4.753,55.55078,4.76472,55.43701,4.77058c-0.12012,0.09082-0.34814,0.21582-0.49805,0.27637l-0.07764-0.03613
				c0.02393-0.07812,0.05957-0.2041,0.08984-0.31738h-2.41699V6.01276z M55.38281,6.84577
				c-0.02979,0.04785-0.0957,0.05957-0.19189,0.04199c-0.1377,0.08984-0.35986,0.22168-0.60547,0.3418
				c0.19775,0.50977,0.59961,0.87598,1.09717,1.01367l-0.00586,0.06543c-0.16211,0.04199-0.26416,0.16211-0.31201,0.36621
				c-0.47949-0.27637-0.7373-0.72559-0.88721-1.3916c-0.09619,0.04199-0.19189,0.08398-0.29395,0.12598
				C54.46533,7.961,54.4292,8.57331,54.2373,8.81257c-0.0957,0.1377-0.2998,0.19824-0.62939,0.19824
				C53.60156,8.88483,53.57178,8.81257,53.5,8.75886c-0.07227-0.04785-0.25781-0.10156-0.43799-0.13184v-0.0957
				c0.2041,0.01758,0.57568,0.0293,0.6958,0.0293c0.06592,0,0.10791,0,0.13184-0.04199
				c0.06006-0.0957,0.0957-0.31738,0.07812-0.58691c-0.43213,0.30566-1.03174,0.61133-1.61914,0.75488l-0.03027-0.08984
				c0.57568-0.24609,1.17529-0.68359,1.56543-1.12109c-0.01807-0.05371-0.04199-0.11426-0.06592-0.17383
				c-0.33594,0.25195-0.82764,0.49707-1.27148,0.63574l-0.04199-0.08984c0.42578-0.2041,0.86963-0.55859,1.12158-0.91797
				c-0.02441-0.03613-0.04834-0.07227-0.07812-0.10742C53.27783,6.98933,52.9541,7.128,52.6123,7.22956L52.55859,7.128
				c0.37158-0.18066,0.68945-0.4082,0.92334-0.67188h-0.88135l-0.04834-0.17969h2.21289l0.25195-0.3125
				c0,0,0.2876,0.22852,0.46191,0.39648c-0.01807,0.06543-0.06641,0.0957-0.1499,0.0957h-1.31348
				c-0.10791,0.11426-0.23389,0.21582-0.36572,0.2998c0.20361,0.14941,0.35986,0.33594,0.47363,0.52734
				c0.25781-0.25195,0.55176-0.59375,0.67773-0.78516L55.38281,6.84577z M53.85352,5.99421
				c-0.41943,0-0.48535-0.08984-0.48535-0.35938V5.41218l-0.67773,0.06055L52.62451,5.2989l0.74365-0.06641V4.74714l0.57568,0.06543
				c-0.00635,0.07227-0.06006,0.12598-0.16211,0.14453v0.23926l0.47949-0.04199l0.19824-0.27539c0,0,0.25195,0.17383,0.40186,0.2998
				c0,0.06641-0.06006,0.1084-0.13232,0.11426l-0.94727,0.08398v0.19141c0,0.06055,0.01221,0.07227,0.17383,0.07227h0.43164
				c0.18018,0,0.33594,0,0.39014-0.00586c0.05371,0,0.08398-0.00586,0.11377-0.03027
				c0.04199-0.04199,0.0957-0.17383,0.14404-0.32422h0.06592l0.01807,0.31836c0.13184,0.04785,0.17383,0.08398,0.17383,0.16797
				c0,0.16797-0.18018,0.22754-0.94141,0.22754H53.85352z"/>
			<path d="M56.65137,7.73933c0.13818,0.5459,0.04199,0.97754-0.12598,1.16309c-0.11377,0.13184-0.34766,0.16211-0.4375,0.0127
				c-0.07227-0.12012-0.00635-0.27051,0.11377-0.37207c0.16211-0.1377,0.3418-0.49805,0.3418-0.80957L56.65137,7.73933z
				 M58.54053,3.61335l0.47363,0.36621c-0.03613,0.04199-0.12598,0.08984-0.22803,0.10156V5.8028
				c-0.00586,0.03516-0.21582,0.11914-0.34766,0.11914h-0.06006V5.70612H57.7666v0.59961h0.44385l0.25195-0.31738
				c0,0,0.28174,0.22168,0.46191,0.39551C58.91211,6.4444,58.85205,6.4737,58.76807,6.4737H57.7666v0.50977
				c0.354-0.0293,0.73193-0.06543,1.11572-0.10156l0.01172,0.10156c-0.56348,0.13867-1.34912,0.31836-2.44043,0.54004
				c-0.03613,0.07812-0.09619,0.11426-0.15576,0.12598l-0.2041-0.54004c0.25781-0.01172,0.70166-0.04199,1.23535-0.08984V6.4737
				h-1.02539l-0.04785-0.16797h1.07324V5.70612h-0.58154v0.19824c0,0.03613-0.17432,0.13184-0.33594,0.13184H56.3457v-2.375
				l0.43164,0.19238h1.54736L58.54053,3.61335z M56.74756,5.53229h0.62354V4.02741h-0.62354V5.53229z M56.90332,4.23737
				c0.59375,0.68359,0.2998,1.22363,0.07178,0.97168c0.01807-0.2998-0.07764-0.69629-0.16162-0.94824L56.90332,4.23737z
				 M57.09521,7.67292c0.74951,0.75,0.26367,1.45801-0.03613,1.08008c0.06592-0.3418,0.03027-0.76758-0.04785-1.05566
				L57.09521,7.67292z M57.62891,7.55964c0.95361,0.58105,0.55176,1.31934,0.21582,0.99512
				c0.00586-0.31738-0.14404-0.71387-0.29395-0.95898L57.62891,7.55964z M58.37842,5.53229V4.43561
				c-0.02979,0.02344-0.07812,0.04199-0.1377,0.04199c-0.07812,0.19727-0.20996,0.54492-0.34814,0.82129l-0.07764-0.03027
				c0.06006-0.31152,0.13184-0.79102,0.1499-1.04297l0.41357,0.11328V4.02741h-0.65967v1.50488H58.37842z M58.22266,7.41511
				c1.06152,0.43262,0.70166,1.20019,0.3418,0.90039c-0.01807-0.28223-0.22217-0.64844-0.40771-0.8584L58.22266,7.41511z
				 M60.34521,5.19636v1.2002h0.55176l0.22217-0.27051l0.47363,0.36621c-0.04199,0.04785-0.10205,0.08398-0.22803,0.10156v2.24902
				c0,0.03027-0.16162,0.13184-0.37793,0.13184h-0.07178v-0.4375H59.5v0.3418c0,0.03613-0.14404,0.13184-0.35986,0.13184h-0.07227
				V6.18659l0.49805,0.20996h0.32373V3.55378l0.67773,0.06543c-0.01221,0.09082-0.06592,0.15039-0.22217,0.17383v1.22949h0.51611
				l0.27539-0.38379c0,0,0.33008,0.27051,0.51611,0.46191c-0.01221,0.06641-0.07227,0.0957-0.1499,0.0957H60.34521z M59.5,6.56354
				v1.7998h1.41504v-1.7998H59.5z"/>
		</g>
		<g>
			<defs>
				<rect id="SVGID_5_" y="-2.71399" width="208.59802" height="89.05002"/>
			</defs>
			<clipPath id="SVGID_6_">
				<use xlink:href="#SVGID_5_"  style="overflow:visible;"/>
			</clipPath>
		</g>
		<g>
			<defs>
				<rect id="SVGID_7_" y="-2.71399" width="208.59802" height="89.05002"/>
			</defs>
			<clipPath id="SVGID_8_">
				<use xlink:href="#SVGID_7_"  style="overflow:visible;"/>
			</clipPath>
		</g>
		<g>
			<defs>
				<rect id="SVGID_9_" y="-2.71399" width="208.6378" height="89.05002"/>
			</defs>
			<clipPath id="SVGID_10_">
				<use xlink:href="#SVGID_9_"  style="overflow:visible;"/>
			</clipPath>
		</g>
		<polygon class="st8" points="105.27629,-1.76525 105.27639,-1.76537 105.2764,-1.76534 105.27641,-1.76535 105.27636,-1.7653 
			105.27637,-1.76533 105.27641,-1.76535 105.27634,-1.76536 105.27636,-1.76531 105.27635,-1.76531 105.2764,-1.76535 
			105.27637,-1.76535 105.27634,-1.7653 105.27639,-1.76535 105.27637,-1.76532 105.27634,-1.76532 105.27641,-1.76532 
			105.27637,-1.76532 105.27638,-1.76536 105.27636,-1.76533 105.27638,-1.76531 105.27641,-1.76531 105.27639,-1.76535 
			105.27641,-1.76536 105.27639,-1.76531 105.2764,-1.76536 105.27636,-1.76536 105.27637,-1.76529 105.27641,-1.76536 
			105.27634,-1.76533 105.27634,-1.76536 105.27641,-1.76536 105.2764,-1.76533 105.27634,-1.76533 105.2764,-1.76536 
			105.27637,-1.76531 105.27635,-1.7653 105.27634,-1.76535 105.27636,-1.76533 105.27637,-1.76536 105.2764,-1.76533 
			105.27637,-1.76531 105.27637,-1.76536 105.27639,-1.7653 105.27641,-1.7653 105.27637,-1.76537 105.27637,-1.76533 
			105.27639,-1.76536 105.27638,-1.76531 105.27637,-1.76534 105.27636,-1.7653 105.2764,-1.76537 105.27639,-1.76536 
			105.27637,-1.76532 105.27637,-1.76533 105.27637,-1.76535 105.27637,-1.76535 105.2764,-1.76533 105.27639,-1.76536 
			105.27639,-1.76533 105.27641,-1.76532 105.2764,-1.76536 105.27636,-1.76536 105.27641,-1.76536 105.27641,-1.76533 
			105.27638,-1.76533 105.27639,-1.7653 105.27639,-1.7653 105.27634,-1.76532 105.27641,-1.76536 105.27636,-1.76533 
			105.27634,-1.76533 105.27639,-1.76532 105.27641,-1.76536 105.27637,-1.76529 105.27641,-1.76536 105.27636,-1.76531 
			105.27634,-1.76531 105.27637,-1.76537 105.2764,-1.76531 105.27637,-1.76532 105.27634,-1.76531 105.27634,-1.76536 
			105.27634,-1.76536 105.27637,-1.76537 105.27639,-1.76535 105.27634,-1.76529 105.27635,-1.76529 105.27641,-1.76535 		"/>
		<g>
			<defs>
				<rect id="SVGID_11_" x="75.02001" y="4.94438" width="24" height="9"/>
			</defs>
			<clipPath id="SVGID_12_">
				<use xlink:href="#SVGID_11_"  style="overflow:visible;"/>
			</clipPath>
			<path class="st9" d="M87.02001,9.44438L87.02001,9.44438z"/>
			<path class="st10" d="M77.3497,13.25219c0-0.025,0-0.04062-0.13438-0.175c-0.99375-1.00156-1.24687-2.50312-1.24687-3.72031
				c0-1.38125,0.30156-2.76406,1.27812-3.75781c0.10313-0.09532,0.10313-0.11094,0.10313-0.13594
				c0-0.05469-0.03125-0.07969-0.07812-0.07969c-0.07968,0-0.79531,0.54063-1.26406,1.55c-0.40469,0.875-0.5,1.75625-0.5,2.42344
				c0,0.62031,0.08594,1.58281,0.52344,2.47969c0.47656,0.97812,1.16094,1.49531,1.24062,1.49531
				C77.31845,13.33188,77.3497,13.30688,77.3497,13.25219"/>
			<path class="st10" d="M80.4747,8.94438c0.04688-0.20625,0.22969-0.9375,0.78594-0.9375c0.04062,0,0.23125,0,0.39843,0.10312
				c-0.22343,0.03907-0.38281,0.23907-0.38281,0.42969c0,0.12656,0.0875,0.27813,0.30313,0.27813
				c0.175,0,0.42812-0.14375,0.42812-0.46094c0-0.41406-0.46875-0.525-0.73906-0.525c-0.46095,0-0.73906,0.42187-0.83438,0.60469
				c-0.19843-0.525-0.62656-0.60469-0.85781-0.60469c-0.82656,0-1.27969,1.025-1.27969,1.22344
				c0,0.07968,0.0797,0.07968,0.09532,0.07968c0.06406,0,0.0875-0.01562,0.10312-0.0875
				c0.27031-0.84218,0.79531-1.04062,1.06564-1.04062c0.14999,0,0.42812,0.07187,0.42812,0.53281
				c0,0.24531-0.13437,0.77813-0.42812,1.89063c-0.12814,0.49218-0.40625,0.82656-0.75469,0.82656
				c-0.04844,0-0.23125,0-0.39844-0.10313c0.2-0.03906,0.37344-0.20625,0.37344-0.42968c0-0.21407-0.17344-0.27813-0.29375-0.27813
				c-0.2375,0-0.4375,0.20781-0.4375,0.46094c0,0.36562,0.39844,0.525,0.74844,0.525c0.52343,0,0.80937-0.55625,0.83437-0.60469
				c0.09531,0.29531,0.38125,0.60469,0.85781,0.60469c0.81875,0,1.27187-1.025,1.27187-1.22344
				c0-0.07969-0.07188-0.07969-0.09531-0.07969c-0.07188,0-0.0875,0.03125-0.10313,0.0875
				c-0.2625,0.85-0.80312,1.04063-1.05782,1.04063c-0.30938,0-0.4375-0.25469-0.4375-0.525c0-0.175,0.04844-0.34844,0.13594-0.69844
				L80.4747,8.94438"/>
			<path class="st10" d="M83.70282,12.82094c-0.09531,0.39063-0.39531,0.71875-0.72812,0.71875
				c-0.07344,0-0.14219-0.01094-0.20469-0.03438c0.14688-0.06719,0.19219-0.20312,0.19219-0.2875
				c0-0.13594-0.10625-0.20937-0.22031-0.20937c-0.175,0-0.32188,0.15156-0.32188,0.33281
				c0,0.21562,0.22031,0.35625,0.55938,0.35625c0.33906,0,1.00156-0.20312,1.17656-0.89375l0.50937-2.02343
				c0.01719-0.0625,0.02813-0.1125,0.02813-0.19844c0-0.31094-0.26562-0.53125-0.60469-0.53125
				c-0.62812,0-0.99062,0.78594-0.99062,0.86562c0,0.07344,0.07968,0.07344,0.09687,0.07344
				c0.06718,0,0.07344-0.01719,0.1125-0.10156c0.14219-0.32813,0.43594-0.67969,0.76406-0.67969
				c0.14063,0,0.19219,0.09688,0.19219,0.27813c0,0.0625-0.01094,0.14062-0.01719,0.16875L83.70282,12.82094 M84.90282,9.01
				c0-0.09531-0.07343-0.21406-0.22656-0.21406c-0.16406,0-0.31719,0.15781-0.31719,0.31094
				c0,0.09062,0.06876,0.21406,0.22657,0.21406C84.73876,9.32094,84.90282,9.17407,84.90282,9.01z"/>
			<path class="st10" d="M87.33251,11.33657c0-0.525-0.1984-0.83438-0.5078-0.83438c-0.2625,0-0.4219,0.19844-0.4219,0.42031
				c0,0.21563,0.15939,0.42188,0.4219,0.42188c0.0953,0,0.19839-0.03125,0.2781-0.10313
				c0.0235-0.01562,0.0313-0.02343,0.0391-0.02343c0.0078,0,0.0172,0.00781,0.0172,0.11875c0,0.5875-0.2782,1.06406-0.5407,1.32656
				c-0.0875,0.0875-0.0875,0.10312-0.0875,0.12812c0,0.05469,0.0391,0.0875,0.0797,0.0875
				C86.69811,12.87875,87.33251,12.26625,87.33251,11.33657"/>
			<path class="st10" d="M93.18251,8.31625c0.0313-0.11093,0.0313-0.12656,0.0313-0.18281c0-0.14219-0.111-0.21406-0.2297-0.21406
				c-0.0797,0-0.2078,0.04687-0.27821,0.16719c-0.0171,0.03906-0.0796,0.28593-0.1125,0.42812
				c-0.0546,0.20781-0.1109,0.42188-0.1578,0.63594l-0.3578,1.43125c-0.0312,0.11875-0.3734,0.675-0.8984,0.675
				c-0.4047,0-0.4922-0.35-0.4922-0.64375c0-0.36563,0.1344-0.85781,0.4047-1.55781c0.1281-0.325,0.1594-0.4125,0.1594-0.57188
				c0-0.35781-0.2547-0.65156-0.6516-0.65156c-0.7547,0-1.05,1.15156-1.05,1.22344c0,0.07968,0.0797,0.07968,0.0969,0.07968
				c0.0781,0,0.0859-0.01562,0.1265-0.14218c0.2141-0.74844,0.53281-0.98594,0.80321-0.98594c0.0625,0,0.19839,0,0.19839,0.25469
				c0,0.19843-0.0797,0.40468-0.13589,0.55625c-0.31721,0.84218-0.46101,1.29531-0.46101,1.66875
				c0,0.70625,0.5016,0.94531,0.9703,0.94531c0.3094,0,0.5797-0.13594,0.80161-0.35781
				c-0.1031,0.41406-0.1984,0.80312-0.5156,1.22343c-0.2063,0.27032-0.5094,0.50157-0.875,0.50157
				c-0.111,0-0.4688-0.025-0.6032-0.33438c0.1266,0,0.22971,0,0.3422-0.09531c0.0782-0.07188,0.1578-0.175,0.1578-0.325
				c0-0.24688-0.214-0.27813-0.29369-0.27813c-0.1828,0-0.4453,0.12657-0.4453,0.51563c0,0.39687,0.35,0.69219,0.8422,0.69219
				c0.8187,0,1.6375-0.72344,1.8609-1.62188L93.18251,8.31625"/>
			<path class="st10" d="M94.50282,12.82094c-0.09531,0.39063-0.3953,0.71875-0.7281,0.71875
				c-0.0734,0-0.1422-0.01094-0.2047-0.03438c0.1469-0.06719,0.1922-0.20312,0.1922-0.2875c0-0.13594-0.1063-0.20937-0.2203-0.20937
				c-0.175,0-0.32191,0.15156-0.32191,0.33281c0,0.21562,0.22031,0.35625,0.5594,0.35625c0.339,0,1.0015-0.20312,1.1765-0.89375
				l0.5094-2.02343c0.0172-0.0625,0.02811-0.1125,0.02811-0.19844c0-0.31094-0.2656-0.53125-0.60461-0.53125
				c-0.6282,0-0.9907,0.78594-0.9907,0.86562c0,0.07344,0.0797,0.07344,0.0969,0.07344c0.0672,0,0.0734-0.01719,0.1125-0.10156
				c0.1422-0.32813,0.4359-0.67969,0.7641-0.67969c0.1406,0,0.1922,0.09688,0.1922,0.27813c0,0.0625-0.011,0.14062-0.0172,0.16875
				L94.50282,12.82094 M95.70281,9.01c0-0.09531-0.0734-0.21406-0.2265-0.21406c-0.1641,0-0.3172,0.15781-0.3172,0.31094
				c0,0.09062,0.0687,0.21406,0.2265,0.21406C95.53881,9.32094,95.70281,9.17407,95.70281,9.01z"/>
			<path class="st10" d="M98.81691,9.35688c0-0.61875-0.08749-1.58125-0.52499-2.47813
				c-0.4766-0.97812-1.1594-1.49531-1.23911-1.49531c-0.0484,0-0.0797,0.03281-0.0797,0.07969c0,0.025,0,0.04062,0.1516,0.18281
				c0.7781,0.7875,1.2312,2.05,1.2312,3.71094c0,1.35937-0.2937,2.75781-1.2796,3.75937
				c-0.1032,0.09531-0.1032,0.11094-0.1032,0.13594c0,0.04688,0.0313,0.07969,0.0797,0.07969c0.0797,0,0.7938-0.54063,1.2625-1.55
				C98.72161,10.90688,98.81691,10.02563,98.81691,9.35688"/>
		</g>
		<polygon class="st8" points="118.44963,12.69847 118.44973,12.69835 118.44974,12.69837 118.44975,12.69837 118.44974,12.6984 
			118.44968,12.69838 118.44968,12.69837 118.44974,12.69835 118.44974,12.69841 118.4497,12.6984 118.44974,12.69837 
			118.44971,12.69836 118.44971,12.69835 118.44973,12.69837 118.4497,12.69839 118.4497,12.69838 118.44973,12.69835 
			118.44975,12.69839 118.44968,12.69836 118.44974,12.6984 118.44974,12.69841 118.44968,12.69839 118.44975,12.69837 
			118.44971,12.69838 118.44975,12.69841 118.44974,12.69839 118.4497,12.69835 118.44973,12.6984 118.44971,12.69838 
			118.44973,12.69836 118.44975,12.69841 118.44975,12.69841 118.44971,12.69835 118.44973,12.6984 118.44973,12.6984 
			118.4497,12.69835 118.44974,12.6984 118.44968,12.69838 118.44975,12.69836 118.44974,12.69839 118.44971,12.69836 
			118.44971,12.69839 118.44968,12.69841 118.44974,12.69835 118.44971,12.69842 118.44968,12.69835 118.44973,12.69841 
			118.44971,12.69839 118.44975,12.69842 118.44975,12.6984 118.44974,12.69839 118.44968,12.69842 118.4497,12.69836 
			118.44971,12.69839 118.44974,12.69836 118.44971,12.69838 118.4497,12.69841 118.44971,12.69838 118.44973,12.6984 
			118.44973,12.6984 118.44972,12.69835 118.44975,12.69841 118.44971,12.69836 118.4497,12.69842 118.44974,12.69841 
			118.44968,12.69841 118.44968,12.69841 118.44975,12.69836 118.44968,12.69836 118.44968,12.69837 118.4497,12.69838 
			118.4497,12.69842 118.44968,12.6984 118.44971,12.69835 118.4497,12.69837 118.44971,12.69839 118.44974,12.69841 
			118.44971,12.69835 118.44973,12.69838 118.4497,12.69839 118.44968,12.69839 118.44971,12.69835 118.44975,12.69836 
			118.44971,12.69842 118.44973,12.69842 118.44968,12.69836 118.44975,12.69836 118.44973,12.69836 118.44975,12.69835 
			118.44975,12.69837 		"/>
		<g>
			<defs>
				<rect id="SVGID_13_" x="77.98019" y="19.48585" width="49" height="9"/>
			</defs>
			<clipPath id="SVGID_14_">
				<use xlink:href="#SVGID_13_"  style="overflow:visible;"/>
			</clipPath>
			<path class="st11" d="M102.48019,23.98585L102.48019,23.98585z"/>
			<path class="st12" d="M80.30988,27.79366c0-0.025,0-0.04062-0.13438-0.175c-0.99375-1.00156-1.24687-2.50312-1.24687-3.72031
				c0-1.38125,0.30156-2.76406,1.27812-3.75781c0.10313-0.09532,0.10313-0.11094,0.10313-0.13594
				c0-0.05469-0.03125-0.07969-0.07813-0.07969c-0.07967,0-0.7953,0.54063-1.26405,1.55c-0.40469,0.875-0.5,1.75625-0.5,2.42344
				c0,0.62031,0.08594,1.58281,0.52344,2.47969c0.47656,0.97812,1.16094,1.49531,1.24062,1.49531
				C80.27863,27.87335,80.30988,27.84835,80.30988,27.79366"/>
			<path class="st12" d="M83.43488,23.48585c0.04687-0.20625,0.22969-0.9375,0.78594-0.9375c0.04062,0,0.23125,0,0.39843,0.10312
				c-0.22343,0.03907-0.38281,0.23907-0.38281,0.42969c0,0.12656,0.0875,0.27813,0.30313,0.27813
				c0.175,0,0.42812-0.14375,0.42812-0.46094c0-0.41406-0.46875-0.525-0.73906-0.525c-0.46095,0-0.73907,0.42187-0.83438,0.60469
				c-0.19843-0.525-0.62656-0.60469-0.85781-0.60469c-0.82656,0-1.27969,1.025-1.27969,1.22344
				c0,0.07968,0.07969,0.07968,0.09532,0.07968c0.06406,0,0.0875-0.01562,0.10312-0.0875
				c0.27031-0.84218,0.79531-1.04062,1.06563-1.04062c0.15,0,0.42812,0.07187,0.42812,0.53281
				c0,0.24531-0.13437,0.77813-0.42812,1.89063c-0.12813,0.49218-0.40625,0.82656-0.75468,0.82656
				c-0.04844,0-0.23125,0-0.39845-0.10313c0.2-0.03906,0.37344-0.20625,0.37344-0.42968c0-0.21407-0.17344-0.27813-0.29375-0.27813
				c-0.2375,0-0.4375,0.20781-0.4375,0.46094c0,0.36562,0.39844,0.525,0.74844,0.525c0.52343,0,0.80937-0.55625,0.83437-0.60469
				c0.09531,0.29531,0.38125,0.60469,0.8578,0.60469c0.81876,0,1.27188-1.025,1.27188-1.22344
				c0-0.07969-0.07188-0.07969-0.09531-0.07969c-0.07188,0-0.0875,0.03125-0.10313,0.0875
				c-0.2625,0.85-0.80312,1.04063-1.05781,1.04063c-0.30938,0-0.4375-0.25469-0.4375-0.525c0-0.175,0.04844-0.34844,0.13594-0.69844
				L83.43488,23.48585"/>
			<path class="st12" d="M86.66299,27.36241c-0.09531,0.39063-0.39531,0.71875-0.72812,0.71875
				c-0.07344,0-0.14219-0.01094-0.20469-0.03438c0.14688-0.06719,0.19219-0.20312,0.19219-0.2875
				c0-0.13594-0.10625-0.20938-0.22031-0.20938c-0.175,0-0.32188,0.15156-0.32188,0.33281
				c0,0.21562,0.22031,0.35625,0.55938,0.35625c0.33906,0,1.00156-0.20312,1.17656-0.89375l0.50937-2.02343
				c0.01719-0.0625,0.02813-0.1125,0.02813-0.19844c0-0.31094-0.26562-0.53125-0.60469-0.53125
				c-0.62812,0-0.99062,0.78594-0.99062,0.86562c0,0.07344,0.07968,0.07344,0.09687,0.07344
				c0.06718,0,0.07344-0.01719,0.1125-0.10156c0.14219-0.32813,0.43594-0.67969,0.76406-0.67969
				c0.14063,0,0.19219,0.09688,0.19219,0.27813c0,0.0625-0.01094,0.14062-0.01719,0.16875L86.66299,27.36241 M87.863,23.55147
				c0-0.09531-0.07343-0.21406-0.22656-0.21406c-0.16406,0-0.31719,0.15781-0.31719,0.31094
				c0,0.09062,0.06876,0.21406,0.22657,0.21406C87.69894,23.86241,87.863,23.71554,87.863,23.55147z"/>
			<path class="st12" d="M90.29269,25.87804c0-0.525-0.1984-0.83438-0.5078-0.83438c-0.2625,0-0.42191,0.19844-0.42191,0.42031
				c0,0.21563,0.1594,0.42188,0.42191,0.42188c0.0953,0,0.19839-0.03125,0.2781-0.10313
				c0.0235-0.01562,0.0313-0.02343,0.0391-0.02343c0.0078,0,0.0172,0.00781,0.0172,0.11875c0,0.5875-0.2782,1.06406-0.5407,1.32656
				c-0.0875,0.0875-0.0875,0.10312-0.0875,0.12812c0,0.05469,0.0391,0.0875,0.0797,0.0875
				C89.65829,27.42022,90.29269,26.80772,90.29269,25.87804"/>
			<path class="st12" d="M93.43179,23.46241c0.0484-0.175,0.0484-0.19062,0.1203-0.27812
				c0.389-0.51719,0.7469-0.63594,0.9531-0.63594c0.2859,0,0.5016,0.2375,0.5016,0.74687c0,0.46875-0.2625,1.38282-0.4063,1.68438
				c-0.2625,0.53281-0.6281,0.81875-0.9375,0.81875c-0.2703,0-0.5328-0.21406-0.5328-0.80313c0-0.15,0-0.30156,0.1281-0.80156
				L93.43179,23.46241 M94.18018,20.45772c0-0.00781,0-0.0875-0.1047-0.0875c-0.1828,0-0.7625,0.06407-0.9687,0.07969
				c-0.0641,0.00781-0.1516,0.01563-0.1516,0.15938c0,0.09531,0.0719,0.09531,0.19061,0.09531
				c0.3828,0,0.3985,0.05469,0.3985,0.13437c0,0.05625-0.0719,0.32657-0.1125,0.49375l-0.6516,2.59063
				c-0.09531,0.39687-0.1266,0.52344-0.1266,0.80156c0,0.75625,0.4219,1.24844,1.0094,1.24844
				c0.9375,0,1.9156-1.18438,1.9156-2.32813c0-0.72343-0.42181-1.27187-1.0578-1.27187c-0.3656,0-0.69061,0.22969-0.9297,0.47656
				L94.18018,20.45772z"/>
			<path class="st12" d="M97.28648,27.04054c-0.26099,0-0.6047-0.15313-0.7188-0.61563
				c-0.0781-0.33437-0.0781-0.79844-0.0781-1.21562c0-0.41407,0-0.84375,0.0844-1.15469
				c0.1187-0.44688,0.4796-0.56563,0.71249-0.56563c0.3046,0,0.5984,0.1875,0.7015,0.51563
				c0.0891,0.30469,0.09531,0.7125,0.09531,1.20469c0,0.41718,0,0.83593-0.0734,1.19218
				C97.89738,26.91554,97.51299,27.04054,97.28648,27.04054 M98.59739,25.28272c0-0.62343-0.0734-1.06875-0.3328-1.46562
				c-0.175-0.25938-0.5266-0.48594-0.9781-0.48594c-1.3125,0-1.3125,1.54375-1.3125,1.95156c0,0.40625,0,1.91563,1.3125,1.91563
				C98.59739,27.19835,98.59739,25.68897,98.59739,25.28272z"/>
			<path class="st12" d="M104.23019,24.05772h2.2172c0.1109,0,0.2625,0,0.2625-0.15937c0-0.15781-0.1516-0.15781-0.2625-0.15781
				h-2.2172v-2.225c0-0.1125,0-0.2625-0.1594-0.2625c-0.1578,0-0.1578,0.15-0.1578,0.2625v2.225h-2.225
				c-0.1125,0-0.2625,0-0.2625,0.15781c0,0.15937,0.15,0.15937,0.2625,0.15937h2.225v2.225c0,0.1125,0,0.2625,0.1578,0.2625
				c0.1594,0,0.1594-0.15,0.1594-0.2625V24.05772"/>
			<path class="st12" d="M110.13178,23.46241c0.0484-0.175,0.0484-0.19062,0.1203-0.27812
				c0.389-0.51719,0.7469-0.63594,0.9531-0.63594c0.2859,0,0.5016,0.2375,0.5016,0.74687c0,0.46875-0.2625,1.38282-0.4063,1.68438
				c-0.2625,0.53281-0.6281,0.81875-0.9375,0.81875c-0.27029,0-0.5328-0.21406-0.5328-0.80313c0-0.15,0-0.30156,0.1281-0.80156
				L110.13178,23.46241 M110.88019,20.45772c0-0.00781,0-0.0875-0.1047-0.0875c-0.1828,0-0.7625,0.06407-0.9687,0.07969
				c-0.0641,0.00781-0.1516,0.01563-0.1516,0.15938c0,0.09531,0.0719,0.09531,0.1906,0.09531
				c0.3828,0,0.3985,0.05469,0.3985,0.13437c0,0.05625-0.0719,0.32657-0.1125,0.49375l-0.6516,2.59063
				c-0.0953,0.39687-0.1266,0.52344-0.1266,0.80156c0,0.75625,0.42191,1.24844,1.0094,1.24844
				c0.9375,0,1.9156-1.18438,1.9156-2.32813c0-0.72343-0.4218-1.27187-1.0578-1.27187c-0.3656,0-0.6906,0.22969-0.9297,0.47656
				L110.88019,20.45772z"/>
			<path class="st12" d="M114.27399,23.48897c0-0.15156-0.011-0.15781-0.1688-0.15781c-0.3625,0.35625-0.8766,0.3625-1.1094,0.3625
				v0.20313c0.13599,0,0.5094,0,0.8203-0.15782v2.88282c0,0.1875,0,0.26093-0.5656,0.26093h-0.214v0.20313
				c0.1015-0.00625,0.7968-0.02188,1.0062-0.02188c0.175,0,0.8875,0.01563,1.0125,0.02188v-0.20313h-0.2156
				c-0.5656,0-0.5656-0.07343-0.5656-0.26093V23.48897"/>
			<path class="st12" d="M118.63489,23.48585c0.0469-0.20625,0.2297-0.9375,0.7859-0.9375c0.0407,0,0.2313,0,0.3985,0.10312
				c-0.2235,0.03907-0.3828,0.23907-0.3828,0.42969c0,0.12656,0.0875,0.27813,0.3031,0.27813c0.175,0,0.4281-0.14375,0.4281-0.46094
				c0-0.41406-0.4687-0.525-0.7391-0.525c-0.4609,0-0.73901,0.42187-0.8343,0.60469c-0.1985-0.525-0.62659-0.60469-0.8578-0.60469
				c-0.8266,0-1.2797,1.025-1.2797,1.22344c0,0.07968,0.0797,0.07968,0.0953,0.07968c0.064,0,0.0875-0.01562,0.1031-0.0875
				c0.27029-0.84218,0.7953-1.04062,1.0656-1.04062c0.15,0,0.4282,0.07187,0.4282,0.53281c0,0.24531-0.1344,0.77813-0.4282,1.89063
				c-0.1281,0.49218-0.4062,0.82656-0.7547,0.82656c-0.0484,0-0.2312,0-0.3984-0.10313c0.2-0.03906,0.3734-0.20625,0.3734-0.42968
				c0-0.21407-0.1734-0.27813-0.2937-0.27813c-0.2375,0-0.4375,0.20781-0.4375,0.46094c0,0.36562,0.3984,0.525,0.7484,0.525
				c0.52351,0,0.8094-0.55625,0.8344-0.60469c0.0953,0.29531,0.3813,0.60469,0.8578,0.60469c0.81879,0,1.2719-1.025,1.2719-1.22344
				c0-0.07969-0.0719-0.07969-0.0953-0.07969c-0.0719,0-0.0875,0.03125-0.1031,0.0875c-0.2625,0.85-0.8032,1.04063-1.0579,1.04063
				c-0.3093,0-0.4375-0.25469-0.4375-0.525c0-0.175,0.0485-0.34844,0.136-0.69844L118.63489,23.48585"/>
			<path class="st12" d="M121.86298,27.36241c-0.0953,0.39063-0.39529,0.71875-0.7281,0.71875
				c-0.0734,0-0.1422-0.01094-0.2047-0.03438c0.1469-0.06719,0.1922-0.20312,0.1922-0.2875c0-0.13594-0.1063-0.20938-0.2203-0.20938
				c-0.175,0-0.3219,0.15156-0.3219,0.33281c0,0.21562,0.2203,0.35625,0.5594,0.35625c0.339,0,1.0015-0.20312,1.1765-0.89375
				l0.5094-2.02343c0.0172-0.0625,0.0281-0.1125,0.0281-0.19844c0-0.31094-0.26559-0.53125-0.6046-0.53125
				c-0.6282,0-0.9907,0.78594-0.9907,0.86562c0,0.07344,0.0797,0.07344,0.0969,0.07344c0.0672,0,0.0734-0.01719,0.1125-0.10156
				c0.1422-0.32813,0.4359-0.67969,0.7641-0.67969c0.14059,0,0.1922,0.09688,0.1922,0.27813c0,0.0625-0.011,0.14062-0.0172,0.16875
				L121.86298,27.36241 M123.06299,23.55147c0-0.09531-0.0734-0.21406-0.2265-0.21406c-0.1641,0-0.3172,0.15781-0.3172,0.31094
				c0,0.09062,0.0687,0.21406,0.2265,0.21406C122.89899,23.86241,123.06299,23.71554,123.06299,23.55147z"/>
			<path class="st12" d="M126.17709,23.89835c0-0.61875-0.0875-1.58125-0.525-2.47813
				c-0.4766-0.97812-1.1594-1.49531-1.2391-1.49531c-0.0484,0-0.0797,0.03281-0.0797,0.07969c0,0.025,0,0.04062,0.1516,0.18281
				c0.7781,0.7875,1.2312,2.05,1.2312,3.71094c0,1.35937-0.2937,2.75781-1.2796,3.75937
				c-0.1032,0.09531-0.1032,0.11094-0.1032,0.13594c0,0.04688,0.0313,0.07969,0.0797,0.07969c0.0797,0,0.7938-0.54063,1.2625-1.55
				C126.08179,25.44835,126.17709,24.5671,126.17709,23.89835"/>
		</g>
		<polygon class="st8" points="180.39847,61.74594 180.39857,61.74582 180.39857,61.74585 180.39859,61.74584 180.39853,61.7459 
			180.39859,61.74584 180.39854,61.74585 180.39859,61.74583 180.39857,61.74587 180.39854,61.74588 180.39857,61.74584 
			180.39856,61.74584 180.39853,61.74586 180.39859,61.74583 180.39854,61.74587 180.39856,61.74586 180.39853,61.74586 
			180.39853,61.74586 180.39859,61.74583 180.39854,61.74588 180.39859,61.74589 180.39854,61.74589 180.39853,61.74587 
			180.39857,61.74586 180.39851,61.74587 180.39857,61.74583 180.39853,61.74582 180.39857,61.7459 180.39856,61.74586 
			180.39857,61.74583 180.39859,61.74589 180.39851,61.7459 180.39857,61.7459 180.39853,61.74584 180.39853,61.74587 
			180.39854,61.74586 180.39854,61.74589 180.39853,61.74587 180.39853,61.74588 180.39854,61.74589 180.39857,61.74583 
			180.39854,61.74586 180.39851,61.74582 180.39853,61.74586 180.39859,61.74585 180.39854,61.74586 180.39853,61.74583 
			180.39854,61.7459 180.39854,61.74586 180.39857,61.74583 180.39854,61.74584 180.39857,61.74583 180.39859,61.74584 
			180.39853,61.74587 180.39854,61.74583 180.39854,61.74589 180.39854,61.74587 180.39854,61.74587 180.39851,61.74583 
			180.39854,61.74583 180.39856,61.74589 180.39859,61.74584 180.39854,61.74586 180.39853,61.74589 180.39853,61.74583 
			180.39857,61.74582 180.39859,61.74587 180.39854,61.74588 180.39853,61.74589 180.39857,61.74586 180.39854,61.74583 
			180.39856,61.74588 180.39859,61.74586 180.39857,61.74588 180.39854,61.74583 180.39853,61.7459 180.39853,61.74583 
			180.39854,61.74584 180.39857,61.74585 180.39851,61.74584 180.39854,61.74587 180.39854,61.7459 180.39859,61.74583 
			180.39859,61.74588 180.39859,61.74586 180.39854,61.74589 180.39854,61.74589 180.39853,61.7459 180.39859,61.74584 		"/>
		<g>
			<defs>
				<rect id="SVGID_15_" x="159.06447" y="57.56594" width="44" height="8"/>
			</defs>
			<clipPath id="SVGID_16_">
				<use xlink:href="#SVGID_15_"  style="overflow:visible;"/>
			</clipPath>
			<path class="st13" d="M181.06447,61.56594L181.06447,61.56594z"/>
			<path class="st14" d="M163.42697,60.73781c0.03125-0.11093,0.03125-0.12656,0.03125-0.18281
				c0-0.14219-0.11093-0.21406-0.22969-0.21406c-0.07968,0-0.20781,0.04687-0.27812,0.16719
				c-0.01718,0.03906-0.07968,0.28593-0.1125,0.42812c-0.05469,0.20781-0.11093,0.42188-0.15781,0.63594l-0.35782,1.43125
				c-0.03125,0.11875-0.37343,0.675-0.89842,0.675c-0.40469,0-0.4922-0.35-0.4922-0.64375
				c0-0.36563,0.13438-0.85781,0.40469-1.55781c0.12813-0.325,0.15938-0.4125,0.15938-0.57188
				c0-0.35781-0.2547-0.65156-0.65157-0.65156c-0.75468,0-1.05,1.15156-1.05,1.22344c0,0.07968,0.0797,0.07968,0.09688,0.07968
				c0.07812,0,0.08594-0.01562,0.12656-0.14218c0.21407-0.74844,0.53282-0.98594,0.80313-0.98594
				c0.0625,0,0.19844,0,0.19844,0.25469c0,0.19843-0.0797,0.40468-0.13594,0.55625
				c-0.31718,0.84218-0.46094,1.29531-0.46094,1.66875c0,0.70625,0.50157,0.94531,0.97032,0.94531
				c0.30937,0,0.57968-0.13594,0.80156-0.35781c-0.10313,0.41406-0.19844,0.80312-0.51564,1.22344
				c-0.20624,0.27031-0.50937,0.50156-0.875,0.50156c-0.11093,0-0.46875-0.02499-0.60312-0.33437
				c0.12657,0,0.22969,0,0.34219-0.09531c0.07812-0.07187,0.15781-0.175,0.15781-0.325c0-0.24688-0.21405-0.27813-0.29375-0.27813
				c-0.18282,0-0.44531,0.12657-0.44531,0.51563c0,0.39687,0.35001,0.69218,0.84218,0.69218
				c0.81876,0,1.63751-0.72343,1.86095-1.62188L163.42697,60.73781"/>
			<path class="st14" d="M171.43167,62.70969c0.1109,0,0.2625,0,0.2625-0.15938c0-0.15937-0.1516-0.15937-0.27029-0.15937h-4.74377
				c-0.12032,0-0.27031,0-0.27031,0.15937c0,0.15938,0.14999,0.15938,0.2625,0.15938H171.43167 M171.42387,61.1675
				c0.1187,0,0.27029,0,0.27029-0.15937c0-0.15938-0.1516-0.15938-0.2625-0.15938h-4.75938c-0.1125,0-0.2625,0-0.2625,0.15938
				c0,0.15937,0.14999,0.15937,0.27031,0.15937H171.42387z"/>
			<path class="st14" d="M175.51607,61.3425c0.0484-0.175,0.0484-0.19062,0.1203-0.27812
				c0.38901-0.51719,0.7469-0.63594,0.95311-0.63594c0.28589,0,0.5016,0.2375,0.5016,0.74687
				c0,0.46875-0.26251,1.38282-0.40631,1.68438c-0.2625,0.53281-0.6281,0.81875-0.9375,0.81875
				c-0.27029,0-0.53279-0.21406-0.53279-0.80313c0-0.15,0-0.30156,0.1281-0.80156L175.51607,61.3425 M176.26447,58.33781
				c0-0.00781,0-0.0875-0.10469-0.0875c-0.1828,0-0.7625,0.06407-0.9687,0.07969c-0.0641,0.00781-0.1516,0.01563-0.1516,0.15938
				c0,0.09531,0.0719,0.09531,0.1906,0.09531c0.3828,0,0.3985,0.05469,0.3985,0.13437c0,0.05625-0.0719,0.32657-0.1125,0.49375
				l-0.6516,2.59063c-0.09529,0.39687-0.1266,0.52344-0.1266,0.80156c0,0.75625,0.42191,1.24844,1.0094,1.24844
				c0.9375,0,1.9156-1.18438,1.9156-2.32813c0-0.72343-0.4218-1.27187-1.0578-1.27187c-0.3656,0-0.6906,0.22969-0.9297,0.47656
				L176.26447,58.33781z"/>
			<path class="st14" d="M179.47078,64.92063c-0.261,0-0.60471-0.15313-0.71881-0.61563
				c-0.07809-0.33437-0.07809-0.79844-0.07809-1.21562c0-0.41407,0-0.84375,0.0844-1.15469
				c0.1187-0.44688,0.4796-0.56563,0.71251-0.56563c0.3046,0,0.59839,0.1875,0.70149,0.51563
				c0.0891,0.30469,0.09531,0.7125,0.09531,1.20469c0,0.41718,0,0.83593-0.07341,1.19218
				C180.08168,64.79563,179.69727,64.92063,179.47078,64.92063 M180.78168,63.16281c0-0.62343-0.07341-1.06875-0.33281-1.46562
				c-0.17499-0.25938-0.5266-0.48594-0.97809-0.48594c-1.3125,0-1.3125,1.54375-1.3125,1.95156c0,0.40625,0,1.91563,1.3125,1.91563
				C180.78168,65.07845,180.78168,63.56906,180.78168,63.16281z"/>
			<path class="st14" d="M186.41447,61.93781h2.21719c0.1109,0,0.26251,0,0.26251-0.15937
				c0-0.15781-0.15161-0.15781-0.26251-0.15781h-2.21719v-2.225c0-0.1125,0-0.2625-0.15941-0.2625
				c-0.15779,0-0.15779,0.15-0.15779,0.2625v2.225h-2.22501c-0.1125,0-0.2625,0-0.2625,0.15781
				c0,0.15937,0.14999,0.15937,0.2625,0.15937h2.22501v2.225c0,0.1125,0,0.2625,0.15779,0.2625
				c0.15941,0,0.15941-0.15,0.15941-0.2625V61.93781"/>
			<path class="st14" d="M192.31607,61.3425c0.0484-0.175,0.0484-0.19062,0.1203-0.27812
				c0.38901-0.51719,0.7469-0.63594,0.95311-0.63594c0.28589,0,0.50159,0.2375,0.50159,0.74687
				c0,0.46875-0.2625,1.38282-0.4063,1.68438c-0.2625,0.53281-0.6281,0.81875-0.9375,0.81875
				c-0.27029,0-0.53279-0.21406-0.53279-0.80313c0-0.15,0-0.30156,0.1281-0.80156L192.31607,61.3425 M193.06447,58.33781
				c0-0.00781,0-0.0875-0.10469-0.0875c-0.1828,0-0.7625,0.06407-0.9687,0.07969c-0.0641,0.00781-0.1516,0.01563-0.1516,0.15938
				c0,0.09531,0.0719,0.09531,0.1906,0.09531c0.3828,0,0.3985,0.05469,0.3985,0.13437c0,0.05625-0.0719,0.32657-0.1125,0.49375
				l-0.6516,2.59063c-0.09531,0.39687-0.1266,0.52344-0.1266,0.80156c0,0.75625,0.42191,1.24844,1.0094,1.24844
				c0.9375,0,1.9156-1.18438,1.9156-2.32813c0-0.72343-0.4218-1.27187-1.0578-1.27187c-0.3656,0-0.6906,0.22969-0.9297,0.47656
				L193.06447,58.33781z"/>
			<path class="st14" d="M196.45827,61.36906c0-0.15156-0.01099-0.15781-0.16879-0.15781
				c-0.3625,0.35625-0.8766,0.3625-1.10941,0.3625v0.20313c0.136,0,0.5094,0,0.8203-0.15782v2.88282
				c0,0.18749,0,0.26093-0.5656,0.26093h-0.21399v0.20312c0.1015-0.00625,0.7968-0.02187,1.0062-0.02187
				c0.175,0,0.8875,0.01562,1.0125,0.02187v-0.20312h-0.21559c-0.56561,0-0.56561-0.07344-0.56561-0.26093V61.36906"/>
			<path class="st14" d="M200.81917,61.36594c0.04691-0.20625,0.22971-0.9375,0.7859-0.9375c0.0407,0,0.23131,0,0.3985,0.10312
				c-0.2235,0.03907-0.3828,0.23907-0.3828,0.42969c0,0.12656,0.08749,0.27813,0.3031,0.27813
				c0.175,0,0.4281-0.14375,0.4281-0.46094c0-0.41406-0.4687-0.525-0.73911-0.525c-0.46089,0-0.739,0.42187-0.83429,0.60469
				c-0.1985-0.525-0.6266-0.60469-0.8578-0.60469c-0.8266,0-1.27971,1.025-1.27971,1.22344
				c0,0.07968,0.07971,0.07968,0.09531,0.07968c0.064,0,0.08749-0.01562,0.1031-0.0875
				c0.27029-0.84218,0.7953-1.04062,1.0656-1.04062c0.14999,0,0.42819,0.07187,0.42819,0.53281
				c0,0.24531-0.1344,0.77813-0.42819,1.89063c-0.1281,0.49218-0.4062,0.82656-0.7547,0.82656c-0.0484,0-0.2312,0-0.39841-0.10313
				c0.20001-0.03906,0.3734-0.20625,0.3734-0.42968c0-0.21407-0.17339-0.27813-0.29369-0.27813
				c-0.2375,0-0.4375,0.20781-0.4375,0.46094c0,0.36562,0.39839,0.525,0.7484,0.525c0.5235,0,0.8094-0.55625,0.8344-0.60469
				c0.09531,0.29531,0.3813,0.60469,0.8578,0.60469c0.8188,0,1.2719-1.025,1.2719-1.22344c0-0.07969-0.0719-0.07969-0.09531-0.07969
				c-0.0719,0-0.08749,0.03125-0.10309,0.0875c-0.26251,0.85-0.80321,1.04063-1.05791,1.04063
				c-0.3093,0-0.4375-0.25469-0.4375-0.525c0-0.175,0.04851-0.34844,0.136-0.69844L200.81917,61.36594"/>
		</g>
	</g>
	<polygon class="st8" points="28.76545,4.17513 28.76555,4.17501 28.76555,4.17503 28.76556,4.17502 28.76554,4.175 
		28.76551,4.17502 28.7655,4.17505 28.76553,4.17504 28.76552,4.17505 28.76551,4.17506 28.76555,4.17503 28.76553,4.17502 
		28.7655,4.17502 28.7655,4.17503 28.76552,4.17503 28.76555,4.17504 28.76552,4.17506 28.76552,4.17505 28.7655,4.17505 
		28.76552,4.17507 28.76553,4.17503 28.76551,4.17507 28.76549,4.17502 28.76556,4.17507 28.76552,4.17505 28.76555,4.17508 
		28.7655,4.17505 28.76554,4.17508 28.76556,4.17503 28.7655,4.17501 28.76552,4.17501 28.76556,4.17508 28.76551,4.17505 
		28.76553,4.17505 28.76557,4.17504 28.76554,4.17507 28.76553,4.17508 28.7655,4.17506 28.76552,4.17507 28.76555,4.17503 
		28.76551,4.175 28.76553,4.17505 28.76556,4.17502 28.76553,4.17506 28.76552,4.175 28.76553,4.17502 28.76553,4.17504 
		28.76555,4.17502 28.76557,4.17504 28.76555,4.17502 28.76552,4.17508 28.76552,4.17501 28.76555,4.17501 28.76557,4.17508 
		28.76555,4.17507 28.76551,4.17506 28.76551,4.175 28.76553,4.175 28.76556,4.17507 28.7655,4.17502 28.76555,4.17505 
		28.76555,4.17508 28.76549,4.17504 28.76556,4.17508 28.76554,4.17502 28.76553,4.17506 28.76555,4.17504 28.76552,4.17504 
		28.76553,4.175 28.76555,4.17505 28.76557,4.17504 28.76552,4.17504 28.76553,4.17504 28.7655,4.17507 28.76556,4.17501 
		28.76551,4.17501 28.76557,4.17506 28.76555,4.17504 28.76552,4.17504 28.76552,4.17507 28.7655,4.17507 28.76557,4.17501 
		28.76556,4.17502 28.76555,4.17505 28.76553,4.17504 28.76551,4.17508 28.76557,4.17502 	"/>
	<g>
		<defs>
			<rect id="SVGID_17_" x="5.22239" y="0.89735" width="5" height="6"/>
		</defs>
		<clipPath id="SVGID_18_">
			<use xlink:href="#SVGID_17_"  style="overflow:visible;"/>
		</clipPath>
		<path class="st15" d="M7.72239,3.89735L7.72239,3.89735z"/>
		<path class="st16" d="M9.58489,2.06922c0.03125-0.11093,0.03125-0.12656,0.03125-0.18281
			c0-0.14219-0.11094-0.21406-0.22969-0.21406c-0.07968,0-0.20781,0.04687-0.27812,0.16719
			C9.09114,1.8786,9.02864,2.12547,8.99583,2.26766C8.94114,2.47547,8.88489,2.68954,8.83802,2.9036L8.4802,4.33485
			c-0.03125,0.11875-0.37343,0.675-0.89843,0.675c-0.40469,0-0.49219-0.35-0.49219-0.64375
			c0-0.36563,0.13437-0.85781,0.40469-1.55781c0.12812-0.325,0.15937-0.4125,0.15937-0.57188
			c0-0.35781-0.25469-0.65156-0.65156-0.65156c-0.75469,0-1.05,1.15156-1.05,1.22344c0,0.07968,0.07969,0.07968,0.09687,0.07968
			c0.07812,0,0.08594-0.01562,0.12656-0.14218c0.21407-0.74844,0.53281-0.98594,0.80312-0.98594c0.0625,0,0.19844,0,0.19844,0.25469
			c0,0.19843-0.07969,0.40468-0.13594,0.55625C6.72395,3.41297,6.5802,3.8661,6.5802,4.23954
			c0,0.70625,0.50157,0.94531,0.97032,0.94531c0.30937,0,0.57968-0.13594,0.80156-0.35781
			C8.24895,5.2411,8.15364,5.63016,7.83645,6.05048c-0.20625,0.27031-0.50937,0.50156-0.875,0.50156
			c-0.11093,0-0.46875-0.025-0.60312-0.33437c0.12656,0,0.22969,0,0.34219-0.09531c0.07812-0.07188,0.15781-0.175,0.15781-0.325
			c0-0.24688-0.21406-0.27813-0.29375-0.27813c-0.18281,0-0.44531,0.12657-0.44531,0.51563
			c0,0.39688,0.35001,0.69219,0.84219,0.69219c0.81875,0,1.6375-0.72344,1.86094-1.62188L9.58489,2.06922"/>
	</g>
	<polygon class="st8" points="207.9718,73.30751 207.97191,73.3074 207.97191,73.30742 207.97191,73.30741 207.97188,73.30746 
		207.97191,73.30741 207.97185,73.3074 207.97188,73.30746 207.97189,73.3074 207.97186,73.30745 207.97191,73.30741 
		207.97188,73.30741 207.97185,73.30744 207.97185,73.3074 207.97188,73.3074 207.97189,73.30743 207.97192,73.30745 
		207.97186,73.30743 207.97186,73.30743 207.97191,73.30741 207.97186,73.3074 207.97192,73.3074 207.97192,73.30745 
		207.97191,73.3074 207.97185,73.30743 207.97186,73.30739 207.97191,73.30746 207.97185,73.30743 207.97189,73.30746 
		207.97191,73.30741 207.97188,73.30741 207.97188,73.30746 207.97191,73.30743 207.97191,73.3074 207.97191,73.30746 
		207.97192,73.30743 207.97192,73.3074 207.97191,73.30741 207.97189,73.30746 207.97188,73.30743 207.97191,73.30743 
		207.97189,73.30746 207.97186,73.30743 207.97186,73.30744 207.97191,73.3074 207.97191,73.30746 207.97189,73.3074 
		207.97188,73.3074 207.97185,73.30743 207.97192,73.3074 207.97188,73.3074 207.97192,73.3074 207.97185,73.30743 
		207.97189,73.30746 207.97188,73.30739 207.97186,73.30743 207.97188,73.3074 207.97191,73.30745 207.97185,73.30743 
		207.97185,73.30744 207.97189,73.30741 207.97192,73.30746 207.97186,73.3074 207.97185,73.30742 207.97191,73.30745 
		207.97186,73.30746 207.97188,73.30743 207.97188,73.30746 207.97185,73.30741 207.97186,73.30744 207.97191,73.30739 
		207.97189,73.30741 207.97188,73.30743 207.97185,73.3074 207.97189,73.30743 207.97188,73.30745 207.97191,73.3074 
		207.97189,73.30743 207.97186,73.30744 207.97186,73.30745 207.97188,73.30739 207.97191,73.30746 207.97191,73.30743 
		207.97191,73.30744 207.97192,73.30743 207.97186,73.30746 207.97192,73.30741 	"/>
	<g>
		<defs>
			<rect id="SVGID_19_" x="206.1378" y="71.16351" width="5" height="4"/>
		</defs>
		<clipPath id="SVGID_20_">
			<use xlink:href="#SVGID_19_"  style="overflow:visible;"/>
		</clipPath>
		<path class="st17" d="M208.6378,73.16351L208.6378,73.16351z"/>
		<path class="st18" d="M209.2925,72.56351c0.04686-0.20625,0.22969-0.9375,0.78593-0.9375c0.04062,0,0.23125,0,0.39844,0.10312
			c-0.22343,0.03907-0.38281,0.23907-0.38281,0.42969c0,0.12656,0.08749,0.27813,0.30313,0.27813
			c0.17499,0,0.42812-0.14375,0.42812-0.46094c0-0.41406-0.46875-0.525-0.73906-0.525c-0.46094,0-0.73906,0.42188-0.83438,0.60469
			c-0.19843-0.525-0.62656-0.60469-0.8578-0.60469c-0.82657,0-1.27969,1.025-1.27969,1.22344
			c0,0.07968,0.07968,0.07968,0.09532,0.07968c0.06406,0,0.08749-0.01562,0.10312-0.0875
			c0.27031-0.84218,0.7953-1.04062,1.06563-1.04062c0.14999,0,0.42812,0.07187,0.42812,0.53281
			c0,0.24532-0.13437,0.77813-0.42812,1.89063c-0.12813,0.49219-0.40625,0.82656-0.7547,0.82656
			c-0.04843,0-0.23125,0-0.39844-0.10313c0.20001-0.03906,0.37344-0.20625,0.37344-0.42969
			c0-0.21407-0.17343-0.27813-0.29375-0.27813c-0.2375,0-0.4375,0.20782-0.4375,0.46095c0,0.36562,0.39844,0.52499,0.74844,0.52499
			c0.52342,0,0.80937-0.55624,0.83437-0.60468c0.09531,0.29531,0.38126,0.60468,0.8578,0.60468
			c0.81876,0,1.27188-1.02499,1.27188-1.22343c0-0.07969-0.07187-0.07969-0.09531-0.07969
			c-0.07188,0-0.08749,0.03125-0.10313,0.08749c-0.2625,0.85001-0.80312,1.04063-1.0578,1.04063
			c-0.30939,0-0.4375-0.25469-0.4375-0.525c0-0.175,0.04843-0.34844,0.13594-0.69844L209.2925,72.56351"/>
	</g>
	<polygon class="st8" points="33.87403,92.88287 33.87413,92.88275 33.87414,92.88277 33.87415,92.88277 33.87408,92.88283 
		33.87412,92.88276 33.87408,92.8828 33.87408,92.88276 33.87413,92.88283 33.8741,92.88281 33.87414,92.88277 33.87411,92.88277 
		33.87408,92.8828 33.87408,92.88276 33.8741,92.88275 33.87412,92.88278 33.87415,92.88277 33.8741,92.88282 33.87414,92.88277 
		33.87415,92.88282 33.87408,92.88281 33.87413,92.88282 33.8741,92.88279 33.87414,92.8828 33.87414,92.88275 33.87413,92.88284 
		33.8741,92.88283 33.87411,92.88282 33.87413,92.88284 33.87413,92.8828 33.87408,92.88279 33.87411,92.88277 33.87415,92.8828 
		33.8741,92.88277 33.87411,92.88277 33.87411,92.88283 33.8741,92.88277 33.87411,92.88283 33.87415,92.8828 33.87411,92.88277 
		33.87408,92.8828 33.8741,92.88277 33.87413,92.88282 33.87414,92.88276 33.87411,92.88275 33.8741,92.8828 33.87413,92.88277 
		33.87414,92.88277 33.87408,92.88277 33.87411,92.88282 33.87412,92.88276 33.8741,92.88277 33.87411,92.8828 33.8741,92.88279 
		33.87411,92.88279 33.87411,92.88277 33.87412,92.8828 33.87408,92.88277 33.87412,92.88277 33.87415,92.8828 33.87411,92.8828 
		33.87411,92.88282 33.87411,92.88282 33.87415,92.88277 33.87415,92.8828 33.87412,92.88276 33.8741,92.8828 33.87414,92.8828 
		33.87415,92.88279 33.87408,92.88277 33.87412,92.88279 33.87412,92.8828 33.87413,92.88279 33.87414,92.88282 33.87411,92.88282 
		33.87414,92.8828 33.87415,92.88281 33.8741,92.88282 33.87415,92.88277 33.87409,92.8828 33.8741,92.8828 33.87414,92.8828 
		33.87412,92.88283 33.87411,92.88282 33.87412,92.8828 33.87413,92.88277 33.87414,92.88277 33.87415,92.88281 	"/>
	<g>
		<defs>
			<rect id="SVGID_21_" x="32.08984" y="77.47762" width="8" height="6"/>
		</defs>
		<clipPath id="SVGID_22_">
			<use xlink:href="#SVGID_21_"  style="overflow:visible;"/>
		</clipPath>
		<path class="st19" d="M36.08984,80.47762L36.08984,80.47762z"/>
		<path class="st20" d="M35.24453,79.27762c0.04687-0.20625,0.22969-0.9375,0.78594-0.9375c0.04062,0,0.23125,0,0.39843,0.10312
			c-0.22343,0.03907-0.38281,0.23907-0.38281,0.42969c0,0.12656,0.0875,0.27813,0.30313,0.27813
			c0.175,0,0.42812-0.14375,0.42812-0.46094c0-0.41406-0.46875-0.525-0.73906-0.525c-0.46094,0-0.73906,0.42187-0.83438,0.60469
			c-0.19843-0.525-0.62656-0.60469-0.85781-0.60469c-0.82656,0-1.27969,1.025-1.27969,1.22344
			c0,0.07968,0.07969,0.07968,0.09532,0.07968c0.06406,0,0.0875-0.01562,0.10312-0.0875
			c0.27031-0.84218,0.79531-1.04062,1.06563-1.04062c0.15,0,0.42812,0.07187,0.42812,0.53281
			c0,0.24531-0.13437,0.77813-0.42812,1.89063c-0.12813,0.49218-0.40625,0.82656-0.75469,0.82656
			c-0.04844,0-0.23125,0-0.39844-0.10313c0.2-0.03905,0.37344-0.20625,0.37344-0.42968c0-0.21407-0.17344-0.27813-0.29375-0.27813
			c-0.2375,0-0.4375,0.20781-0.4375,0.46095c0,0.36562,0.39844,0.52499,0.74844,0.52499c0.52343,0,0.80937-0.55624,0.83437-0.60469
			c0.09531,0.29531,0.38125,0.60469,0.85781,0.60469c0.81875,0,1.27188-1.02499,1.27188-1.22343
			c0-0.0797-0.07188-0.0797-0.09531-0.0797c-0.07188,0-0.0875,0.03125-0.10313,0.0875c-0.2625,0.85-0.80312,1.04063-1.05781,1.04063
			c-0.30938,0-0.4375-0.25469-0.4375-0.525c0-0.175,0.04844-0.34844,0.13594-0.69844L35.24453,79.27762"/>
		<path class="st20" d="M39.08359,79.28074c0-0.15157-0.01094-0.15781-0.16875-0.15781
			c-0.3625,0.35625-0.87656,0.3625-1.10937,0.3625v0.20312c0.13593,0,0.50937,0,0.82031-0.15781v2.88282
			c0,0.18749,0,0.26093-0.56563,0.26093h-0.21406v0.20312c0.10156-0.00625,0.79688-0.02187,1.00625-0.02187
			c0.175,0,0.8875,0.01562,1.0125,0.02187v-0.20312h-0.21562c-0.56563,0-0.56563-0.07344-0.56563-0.26093V79.28074"/>
	</g>
	<polygon class="st8" points="70.91065,90.88373 70.91075,90.88361 70.91076,90.88364 70.91077,90.88363 70.91073,90.88361 
		70.91074,90.88366 70.91074,90.88367 70.91076,90.88366 70.91071,90.88366 70.91072,90.88367 70.91076,90.88363 70.91074,90.88363 
		70.91071,90.88363 70.91077,90.88362 70.91077,90.88363 70.91071,90.88367 70.91075,90.88364 70.91073,90.88364 70.91077,90.88363 
		70.91072,90.88366 70.91071,90.88361 70.91077,90.88361 70.91077,90.88367 70.91077,90.88361 70.91071,90.88365 70.91071,90.88361 
		70.91076,90.88368 70.91073,90.88367 70.91071,90.88361 70.91076,90.88368 70.91077,90.88366 70.91076,90.88363 70.91077,90.88363 
		70.91074,90.88361 70.91072,90.88362 70.91076,90.88367 70.91075,90.88364 70.91074,90.88367 70.91077,90.88361 70.91074,90.88364 
		70.91074,90.88362 70.91077,90.88362 70.91071,90.88367 70.91076,90.88361 70.91073,90.88361 70.91072,90.88366 70.91075,90.88364 
		70.91077,90.88363 70.91071,90.88364 70.91075,90.88362 70.91077,90.88363 70.91073,90.88365 70.91076,90.88365 70.91072,90.88362 
		70.91073,90.88365 70.91073,90.88362 70.91077,90.88363 70.9107,90.88364 70.91077,90.88365 70.91074,90.88364 70.91072,90.88368 
		70.91077,90.88362 70.91073,90.88368 70.91074,90.88366 70.91076,90.88365 70.91074,90.88364 70.91072,90.88365 70.91076,90.88367 
		70.91077,90.88364 70.91071,90.88362 70.91077,90.88364 70.91074,90.88364 70.91075,90.88363 70.91077,90.88364 70.91073,90.88364 
		70.91076,90.88367 70.91077,90.88367 70.91072,90.88361 70.91077,90.88362 70.91071,90.88365 70.91073,90.88365 70.91077,90.88365 
		70.91077,90.88368 70.91072,90.88361 70.91077,90.88364 70.91077,90.88361 70.91076,90.88364 70.91077,90.88367 	"/>
	<g>
		<defs>
			<rect id="SVGID_23_" x="69.16728" y="76.97762" width="8" height="7"/>
		</defs>
		<clipPath id="SVGID_24_">
			<use xlink:href="#SVGID_23_"  style="overflow:visible;"/>
		</clipPath>
		<path class="st21" d="M73.16728,80.47762L73.16728,80.47762z"/>
		<path class="st22" d="M72.32198,78.97762c0.04687-0.20625,0.22969-0.9375,0.78593-0.9375c0.04063,0,0.23125,0,0.39844,0.10312
			c-0.22343,0.03907-0.38281,0.23907-0.38281,0.4297c0,0.12656,0.0875,0.27813,0.30313,0.27813
			c0.175,0,0.42812-0.14375,0.42812-0.46095c0-0.41405-0.46875-0.52499-0.73906-0.52499c-0.46094,0-0.73906,0.42187-0.83438,0.60468
			c-0.19843-0.52499-0.62656-0.60468-0.85781-0.60468c-0.82655,0-1.27969,1.02499-1.27969,1.22343
			c0,0.07968,0.07969,0.07968,0.09532,0.07968c0.06406,0,0.08749-0.01562,0.10312-0.0875
			c0.27031-0.84218,0.79531-1.04062,1.06563-1.04062c0.15,0,0.42812,0.07187,0.42812,0.53281
			c0,0.24531-0.13438,0.77813-0.42812,1.89062c-0.12813,0.49218-0.40625,0.82656-0.75469,0.82656
			c-0.04844,0-0.23125,0-0.39844-0.10313c0.2-0.03906,0.37344-0.20625,0.37344-0.42968c0-0.21407-0.17345-0.27813-0.29375-0.27813
			c-0.2375,0-0.4375,0.20781-0.4375,0.46094c0,0.36562,0.39844,0.525,0.74844,0.525c0.52343,0,0.80936-0.55625,0.83437-0.60469
			c0.09531,0.29531,0.38125,0.60469,0.85781,0.60469c0.81875,0,1.27188-1.025,1.27188-1.22344
			c0-0.07969-0.07188-0.07969-0.09531-0.07969c-0.07188,0-0.08749,0.03125-0.10313,0.0875
			c-0.2625,0.85-0.80312,1.04063-1.05781,1.04063c-0.30938,0-0.4375-0.25469-0.4375-0.525c0-0.175,0.04844-0.34843,0.13594-0.69844
			L72.32198,78.97762"/>
		<path class="st22" d="M75.55009,82.85418c-0.09531,0.39062-0.39531,0.71875-0.72812,0.71875
			c-0.07344,0-0.14219-0.01094-0.20469-0.03438c0.14687-0.06718,0.19218-0.20312,0.19218-0.2875
			c0-0.13593-0.10625-0.20937-0.22031-0.20937c-0.175,0-0.32188,0.15157-0.32188,0.33281c0,0.21563,0.22031,0.35625,0.55938,0.35625
			s1.00156-0.20312,1.17657-0.89376l0.50937-2.02343c0.01719-0.0625,0.02813-0.1125,0.02813-0.19843
			c0-0.31094-0.26563-0.53125-0.60469-0.53125c-0.62812,0-0.99062,0.78593-0.99062,0.86562
			c0,0.07344,0.07968,0.07344,0.09687,0.07344c0.06719,0,0.07344-0.01719,0.1125-0.10156
			c0.14219-0.32812,0.43594-0.67969,0.76406-0.67969c0.14062,0,0.19218,0.09688,0.19218,0.27813
			c0,0.0625-0.01093,0.14062-0.01719,0.16875L75.55009,82.85418 M76.75009,79.04324c0-0.09531-0.07343-0.21406-0.22655-0.21406
			c-0.16406,0-0.31719,0.15781-0.31719,0.31094c0,0.09062,0.06875,0.21407,0.22657,0.21407
			C76.58604,79.35418,76.75009,79.20731,76.75009,79.04324z"/>
	</g>
	<polygon class="st8" points="152.39162,95.82887 152.39171,95.82876 152.39171,95.82878 152.39172,95.82877 152.39169,95.82878 
		152.39172,95.82882 152.39172,95.82875 152.39168,95.82877 152.39166,95.82877 152.39168,95.82881 152.39171,95.82877 
		152.39169,95.82877 152.39166,95.8288 152.39166,95.82876 152.39168,95.82876 152.39169,95.82879 152.39172,95.82877 
		152.39168,95.82882 152.39172,95.82877 152.39172,95.82882 152.39166,95.82881 152.39171,95.82882 152.39168,95.82879 
		152.39172,95.8288 152.39172,95.82875 152.39171,95.82883 152.39168,95.82883 152.39168,95.82882 152.39171,95.82883 
		152.39171,95.8288 152.39166,95.82879 152.39169,95.82877 152.39172,95.8288 152.39168,95.82877 152.39169,95.82878 
		152.39169,95.82883 152.39168,95.82877 152.39169,95.82883 152.39172,95.8288 152.39169,95.82877 152.39166,95.8288 
		152.39168,95.82877 152.39169,95.82877 152.39172,95.82883 152.39172,95.82882 152.39171,95.82877 152.39169,95.82876 
		152.39169,95.8288 152.39169,95.82876 152.39172,95.82883 152.39169,95.82882 152.39172,95.82879 152.39172,95.8288 
		152.39171,95.82877 152.39172,95.82877 152.39172,95.82879 152.39168,95.8288 152.39166,95.82875 152.39169,95.82875 
		152.39169,95.82877 152.39172,95.8288 152.39168,95.82877 152.39169,95.82883 152.39166,95.82882 152.39166,95.82877 
		152.39172,95.82882 152.39168,95.82877 152.39169,95.8288 152.39171,95.8288 152.39171,95.82877 152.39169,95.82877 
		152.39172,95.82877 152.39172,95.82876 152.39174,95.82882 152.39172,95.82882 152.39169,95.8288 152.39166,95.82877 
		152.39171,95.82883 152.39166,95.82879 152.39165,95.82876 152.39168,95.82877 152.39174,95.82877 152.39172,95.82878 
		152.39168,95.82877 152.39172,95.8288 152.39172,95.82876 152.39172,95.82878 152.39172,95.82881 	"/>
	<g>
		<defs>
			<rect id="SVGID_25_" x="143.01855" y="77.47762" width="9" height="6"/>
		</defs>
		<clipPath id="SVGID_26_">
			<use xlink:href="#SVGID_25_"  style="overflow:visible;"/>
		</clipPath>
		<path class="st23" d="M147.51855,80.47762L147.51855,80.47762z"/>
		<path class="st24" d="M146.17323,79.27762c0.04688-0.20625,0.22969-0.9375,0.78595-0.9375c0.04062,0,0.23125,0,0.39842,0.10312
			c-0.22342,0.03907-0.3828,0.23907-0.3828,0.42969c0,0.12656,0.08749,0.27813,0.30312,0.27813
			c0.175,0,0.42813-0.14375,0.42813-0.46094c0-0.41406-0.46875-0.525-0.73906-0.525c-0.46094,0-0.73906,0.42187-0.83438,0.60469
			c-0.19844-0.525-0.62656-0.60469-0.85782-0.60469c-0.82655,0-1.27968,1.025-1.27968,1.22344
			c0,0.07968,0.07968,0.07968,0.09531,0.07968c0.06407,0,0.08751-0.01562,0.10313-0.0875
			c0.27031-0.84218,0.7953-1.04062,1.06563-1.04062c0.14999,0,0.42812,0.07187,0.42812,0.53281
			c0,0.24531-0.13437,0.77813-0.42812,1.89063c-0.12813,0.49218-0.40625,0.82656-0.7547,0.82656
			c-0.04843,0-0.23125,0-0.39844-0.10313c0.2-0.03905,0.37344-0.20625,0.37344-0.42968c0-0.21407-0.17345-0.27813-0.29375-0.27813
			c-0.2375,0-0.4375,0.20781-0.4375,0.46095c0,0.36562,0.39844,0.52499,0.74843,0.52499c0.52344,0,0.80937-0.55624,0.83438-0.60469
			c0.09531,0.29531,0.38124,0.60469,0.8578,0.60469c0.81876,0,1.27188-1.02499,1.27188-1.22343
			c0-0.0797-0.07188-0.0797-0.09531-0.0797c-0.07188,0-0.08751,0.03125-0.10313,0.0875
			c-0.2625,0.85-0.80312,1.04063-1.05782,1.04063c-0.30937,0-0.4375-0.25469-0.4375-0.525c0-0.175,0.04845-0.34844,0.13594-0.69844
			L146.17323,79.27762"/>
		<path class="st24" d="M148.80917,82.52137c-0.02344,0.07343-0.05782,0.21562-0.05782,0.23125
			c0,0.125,0.10158,0.18125,0.1922,0.18125c0.10312,0,0.19218-0.07344,0.22188-0.12344
			c0.02812-0.05156,0.07343-0.23281,0.10155-0.35155c0.02812-0.10781,0.09062-0.3672,0.12344-0.50938
			c0.03438-0.12343,0.06876-0.24843,0.09688-0.37812c0.0625-0.23125,0.07344-0.27656,0.2375-0.50938
			c0.15781-0.22501,0.42343-0.52031,0.84843-0.52031c0.32812,0,0.33281,0.28905,0.33281,0.39687
			c0,0.33907-0.24219,0.96719-0.33281,1.20468c-0.0625,0.15782-0.08594,0.20782-0.08594,0.3047c0,0.3,0.25,0.48594,0.53749,0.48594
			c0.56563,0,0.81407-0.77969,0.81407-0.86563c0-0.07343-0.07344-0.07343-0.09062-0.07343
			c-0.07814,0-0.08438,0.03437-0.10626,0.09687c-0.13124,0.45157-0.37343,0.68438-0.59999,0.68438
			c-0.11876,0-0.14062-0.07969-0.14062-0.19844c0-0.12968,0.02812-0.20312,0.12968-0.45781c0.06718-0.175,0.3-0.775,0.3-1.09063
			c0-0.54844-0.43594-0.64531-0.73595-0.64531c-0.46875,0-0.78593,0.28906-0.95625,0.51406
			c-0.03905-0.38906-0.37187-0.51406-0.60468-0.51406c-0.24219,0-0.37344,0.175-0.44688,0.30469
			c-0.12343,0.20937-0.20311,0.53281-0.20311,0.56094c0,0.07344,0.07968,0.07344,0.09686,0.07344
			c0.07812,0,0.08438-0.0172,0.12344-0.17031c0.08594-0.33281,0.19218-0.61094,0.41249-0.61094
			c0.14845,0,0.1875,0.125,0.1875,0.27813c0,0.10625-0.05156,0.31562-0.09062,0.46875
			c-0.03906,0.15311-0.09688,0.38437-0.125,0.50937L148.80917,82.52137"/>
	</g>
</g>
<g>
</g>
<g>
</g>
<g>
</g>
<g>
</g>
<g>
</g>
<g>
</g>
</svg>
