<?xml version="1.0" encoding="utf-8"?>
<!-- Generator: Adobe Illustrator 25.2.0, SVG Export Plug-In . SVG Version: 6.00 Build 0)  -->
<svg version="1.1" id="Layer_1" xmlns="http://www.w3.org/2000/svg" xmlns:xlink="http://www.w3.org/1999/xlink" x="0px" y="0px"
	 viewBox="0 0 127 56" style="enable-background:new 0 0 127 56;" xml:space="preserve">
<style type="text/css">
	.st0{opacity:0;fill:none;stroke:#000000;stroke-width:1.000000e-06;stroke-miterlimit:10;}
	.st1{opacity:0;clip-path:url(#SVGID_2_);fill:none;stroke:#000000;stroke-width:9.999999e-07;stroke-miterlimit:10;}
	.st2{clip-path:url(#SVGID_2_);}
</style>
<polygon class="st0" points="63.5,28 63.5001,27.99988 63.5001,27.9999 63.50011,27.9999 63.50008,27.99989 63.50005,27.99993 
	63.50007,27.99988 63.50008,27.99993 63.50006,27.99995 63.50006,27.99994 63.5001,27.9999 63.5001,27.99989 63.50008,27.99992 
	63.50008,27.99992 63.5001,27.99992 63.50008,27.99992 63.50008,27.99995 63.50008,27.99992 63.50008,27.99989 63.50011,27.99996 
	63.50005,27.99992 63.5001,27.99989 63.5001,27.99992 63.50005,27.99988 63.50005,27.99995 63.50004,27.99994 63.5001,27.99992 
	63.50005,27.99993 63.50005,27.99995 63.50005,27.99992 63.5001,27.99993 63.50011,27.99988 63.50009,27.99988 63.50007,27.99993 
	63.50008,27.9999 63.5001,27.99993 63.50006,27.9999 63.50005,27.99995 63.50011,27.99989 63.50005,27.99993 63.50007,27.99993 
	63.50008,27.9999 63.50011,27.99995 63.50009,27.99995 63.50008,27.99993 63.50008,27.9999 63.50007,27.99989 63.50007,27.9999 
	63.50006,27.99992 63.50007,27.99992 63.50007,27.99991 63.5001,27.99993 63.50011,27.9999 63.5001,27.99992 63.50011,27.99989 
	63.50007,27.9999 63.50009,27.99995 63.50006,27.99995 63.50005,27.99989 63.50011,27.99993 63.50008,27.99993 63.50011,27.99992 
	63.50007,27.99988 63.50008,27.99995 63.50008,27.99991 63.5001,27.99988 63.50005,27.99989 63.50011,27.99992 63.50011,27.99989 
	63.50011,27.9999 63.50006,27.99995 63.50005,27.9999 63.5001,27.99992 63.50008,27.99988 63.50008,27.9999 63.50008,27.99993 
	63.50007,27.99989 63.50011,27.99993 63.5001,27.9999 63.50011,27.99995 63.50007,27.99992 63.50007,27.99988 63.50005,27.99994 
	63.50011,27.99993 63.50008,27.99988 63.50009,27.99988 63.50011,27.99992 63.50005,27.99993 63.5001,27.99993 63.50005,27.99993 
	63.5001,27.99991 63.50012,27.99989 63.50011,27.99988 63.50011,27.9999 63.50011,27.99988 63.50005,27.99995 63.50007,27.9999 
	63.50011,27.99993 63.50007,27.99993 63.50007,27.99993 63.50008,27.99991 63.50012,27.99993 63.50008,27.99994 63.5001,27.99994 
	63.50004,27.99988 63.50005,27.99992 63.50005,27.99994 63.5001,27.99994 63.50007,27.9999 63.50006,27.99989 63.50005,27.99995 
	63.50005,27.99994 63.50011,27.9999 63.50005,27.99989 63.50011,27.99995 63.50006,27.99995 63.50005,27.99994 63.50011,27.9999 "/>
<g>
	<defs>
		<rect id="SVGID_1_" x="0.27" y="-0.378" width="127" height="56"/>
	</defs>
	<clipPath id="SVGID_2_">
		<use xlink:href="#SVGID_1_"  style="overflow:visible;"/>
	</clipPath>
	<path class="st1" d="M63.77,27.622L63.77,27.622z"/>
	<polyline class="st2" points="0.56063,14.8079 1.10906,14.8079 1.10906,1.0611 3.2075,1.0611 3.2075,0.5126 0.56063,0.5126 
		0.56063,14.8079 	"/>
	<rect x="0.56063" y="14.81422" class="st2" width="0.54844" height="4.78438"/>
	<rect x="0.56063" y="19.61422" class="st2" width="0.54844" height="4.78438"/>
	<rect x="0.56063" y="24.41422" class="st2" width="0.54844" height="4.78438"/>
	<polyline class="st2" points="0.56063,43.5001 3.2075,43.5001 3.2075,42.9517 1.10906,42.9517 1.10906,29.2048 0.56063,29.2048 
		0.56063,43.5001 	"/>
	<path class="st2" d="M7.5325,3.8939c0.03125-0.111,0.03125-0.1266,0.03125-0.1828c0-0.1422-0.11094-0.2141-0.22969-0.2141
		c-0.07968,0-0.20781,0.0469-0.27812,0.1672c-0.01719,0.039-0.07969,0.2859-0.1125,0.4281
		C6.88875,4.3001,6.8325,4.5142,6.78563,4.7282L6.42781,6.1595c-0.03125,0.1187-0.37343,0.675-0.89843,0.675
		c-0.40469,0-0.49219-0.35-0.49219-0.6438c0-0.3656,0.13437-0.8578,0.40469-1.5578C5.57,4.3079,5.60125,4.2204,5.60125,4.0611
		c0-0.3579-0.25469-0.6516-0.65156-0.6516c-0.75469,0-1.05,1.1516-1.05,1.2234c0,0.0797,0.07969,0.0797,0.09687,0.0797
		c0.07813,0,0.08594-0.0156,0.12657-0.1422C4.33719,3.822,4.65594,3.5845,4.92625,3.5845c0.0625,0,0.19844,0,0.19844,0.2547
		c0,0.1984-0.07969,0.4047-0.13594,0.5562C4.67156,5.2376,4.52781,5.6907,4.52781,6.0642c0,0.7062,0.50157,0.9453,0.97032,0.9453
		c0.30937,0,0.57968-0.1359,0.80156-0.3578c-0.10313,0.414-0.19844,0.8031-0.51563,1.2234
		c-0.20625,0.2703-0.50937,0.5016-0.875,0.5016c-0.11093,0-0.46875-0.025-0.60312-0.3344c0.12656,0,0.22969,0,0.34219-0.0953
		c0.07812-0.0719,0.15781-0.175,0.15781-0.325c0-0.2469-0.21406-0.2781-0.29375-0.2781c-0.18281,0-0.44531,0.1265-0.44531,0.5156
		c0,0.3969,0.35,0.6922,0.84218,0.6922c0.81875,0,1.6375-0.7235,1.86094-1.6219L7.5325,3.8939"/>
	<path class="st2" d="M9.46375,4.5251c0-0.1515-0.01094-0.1578-0.16875-0.1578C8.9325,4.7236,8.41844,4.7298,8.18563,4.7298v0.2031
		c0.13593,0,0.50937,0,0.82031-0.1578v2.8828c0,0.1875,0,0.261-0.56563,0.261H8.22625V8.122
		C8.32781,8.1157,9.02313,8.1001,9.2325,8.1001c0.175,0,0.8875,0.0156,1.0125,0.0219V7.9189h-0.21562
		c-0.56563,0-0.56563-0.0735-0.56563-0.261V4.5251"/>
	<path class="st2" d="M7.5325,13.3939c0.03125-0.111,0.03125-0.1266,0.03125-0.1828c0-0.1422-0.11094-0.2141-0.22969-0.2141
		c-0.07968,0-0.20781,0.0469-0.27812,0.1672c-0.01719,0.039-0.07969,0.2859-0.1125,0.4281
		c-0.05469,0.2078-0.11094,0.4219-0.15781,0.6359l-0.35782,1.4313c-0.03125,0.1187-0.37343,0.675-0.89843,0.675
		c-0.40469,0-0.49219-0.35-0.49219-0.6438c0-0.3656,0.13437-0.8578,0.40469-1.5578c0.12812-0.325,0.15937-0.4125,0.15937-0.5718
		c0-0.3579-0.25469-0.6516-0.65156-0.6516c-0.75469,0-1.05,1.1516-1.05,1.2234c0,0.0797,0.07969,0.0797,0.09687,0.0797
		c0.07813,0,0.08594-0.0156,0.12657-0.1422c0.21406-0.7484,0.53281-0.9859,0.80312-0.9859c0.0625,0,0.19844,0,0.19844,0.2547
		c0,0.1984-0.07969,0.4047-0.13594,0.5562c-0.31719,0.8422-0.46094,1.2953-0.46094,1.6688c0,0.7062,0.50157,0.9453,0.97032,0.9453
		c0.30937,0,0.57968-0.1359,0.80156-0.3578c-0.10313,0.414-0.19844,0.8031-0.51563,1.2234
		c-0.20625,0.2703-0.50937,0.5016-0.875,0.5016c-0.11093,0-0.46875-0.025-0.60312-0.3344c0.12656,0,0.22969,0,0.34219-0.0953
		c0.07812-0.0719,0.15781-0.175,0.15781-0.325c0-0.2469-0.21406-0.2781-0.29375-0.2781c-0.18281,0-0.44531,0.1265-0.44531,0.5156
		c0,0.3969,0.35,0.6922,0.84218,0.6922c0.81875,0,1.6375-0.7235,1.86094-1.6219L7.5325,13.3939"/>
	<path class="st2" d="M10.4263,16.5923h-0.19224c-0.01718,0.125-0.075,0.4578-0.14843,0.5156
		c-0.04532,0.0328-0.47969,0.0328-0.55938,0.0328H8.48563c0.59375-0.525,0.79218-0.6828,1.13125-0.95
		c0.41875-0.3328,0.80942-0.6828,0.80942-1.2203c0-0.6843-0.60005-1.1031-1.32349-1.1031c-0.70156,0-1.17656,0.4922-1.17656,1.0125
		c0,0.2875,0.24375,0.3156,0.3,0.3156c0.13594,0,0.3-0.0953,0.3-0.2984c0-0.1016-0.04062-0.3-0.33437-0.3
		c0.175-0.4016,0.55937-0.5266,0.825-0.5266c0.56562,0,0.86093,0.4422,0.86093,0.9c0,0.4922-0.35156,0.8813-0.53281,1.086
		l-1.3625,1.3453c-0.05625,0.05-0.05625,0.0625-0.05625,0.2203h2.32969L10.4263,16.5923"/>
	<path class="st2" d="M7.79656,24.5001c0-0.2297-0.19218-0.4203-0.42187-0.4203c-0.23125,0-0.42188,0.1906-0.42188,0.4203
		c0,0.2313,0.19063,0.4219,0.42188,0.4219C7.60438,24.922,7.79656,24.7314,7.79656,24.5001"/>
	<path class="st2" d="M7.79656,27.7001c0-0.2297-0.19218-0.4203-0.42187-0.4203c-0.23125,0-0.42188,0.1906-0.42188,0.4203
		c0,0.2313,0.19063,0.4219,0.42188,0.4219C7.60438,28.122,7.79656,27.9314,7.79656,27.7001"/>
	<path class="st2" d="M7.79656,30.9001c0-0.2297-0.19218-0.4203-0.42187-0.4203c-0.23125,0-0.42188,0.1906-0.42188,0.4203
		c0,0.2313,0.19063,0.4219,0.42188,0.4219C7.60438,31.322,7.79656,31.1314,7.79656,30.9001"/>
	<path class="st2" d="M7.1325,37.8939c0.03125-0.111,0.03125-0.1266,0.03125-0.1828c0-0.1422-0.11094-0.2141-0.22969-0.2141
		c-0.07968,0-0.20781,0.0469-0.27812,0.1672c-0.01719,0.039-0.07969,0.2859-0.1125,0.4281
		c-0.05469,0.2078-0.11094,0.4219-0.15781,0.6359l-0.35782,1.4313c-0.03125,0.1187-0.37343,0.675-0.89843,0.675
		c-0.40469,0-0.49219-0.35-0.49219-0.6438c0-0.3656,0.13437-0.8578,0.40469-1.5578c0.12812-0.325,0.15937-0.4125,0.15937-0.5718
		c0-0.3579-0.25469-0.6516-0.65156-0.6516c-0.75469,0-1.05,1.1516-1.05,1.2234c0,0.0797,0.07969,0.0797,0.09687,0.0797
		c0.07813,0,0.08594-0.0156,0.12657-0.1422c0.21406-0.7484,0.53281-0.9859,0.80312-0.9859c0.0625,0,0.19844,0,0.19844,0.2547
		c0,0.1984-0.07969,0.4047-0.13594,0.5562c-0.31719,0.8422-0.46094,1.2953-0.46094,1.6688c0,0.7062,0.50157,0.9453,0.97032,0.9453
		c0.30937,0,0.57968-0.1359,0.80156-0.3578c-0.10313,0.414-0.19844,0.8031-0.51563,1.2234
		c-0.20625,0.2703-0.50937,0.5016-0.875,0.5016c-0.11093,0-0.46875-0.025-0.60312-0.3344c0.12656,0,0.22969,0,0.34219-0.0953
		c0.07812-0.0719,0.15781-0.175,0.15781-0.325c0-0.2469-0.21406-0.2781-0.29375-0.2781c-0.18281,0-0.44531,0.1265-0.44531,0.5156
		c0,0.3969,0.35,0.6922,0.84218,0.6922c0.81875,0,1.6375-0.7235,1.86094-1.6219L7.1325,37.8939"/>
	<path class="st2" d="M7.86063,41.7657c-0.02344,0.0735-0.05782,0.2157-0.05782,0.2313c0,0.125,0.10157,0.1812,0.19219,0.1812
		c0.10313,0,0.19219-0.0734,0.22188-0.1234c0.02812-0.0516,0.07343-0.2328,0.10156-0.3516
		c0.02812-0.1078,0.09062-0.3671,0.12344-0.5093c0.03437-0.1235,0.06875-0.2485,0.09687-0.3782
		c0.0625-0.2312,0.07344-0.2765,0.2375-0.5093c0.15781-0.225,0.42344-0.5203,0.84844-0.5203c0.32812,0,0.33281,0.289,0.33281,0.3968
		c0,0.3391-0.24219,0.9672-0.33281,1.2047c-0.0625,0.1578-0.08594,0.2078-0.08594,0.3047c0,0.3,0.25,0.4859,0.5375,0.4859
		c0.56565,0,0.81405-0.7796,0.81405-0.8656c0-0.0734-0.0734-0.0734-0.0906-0.0734c-0.0781,0-0.0844,0.0344-0.1063,0.0969
		c-0.1312,0.4515-0.3734,0.6843-0.59996,0.6843c-0.11875,0-0.14063-0.0797-0.14063-0.1984c0-0.1297,0.02813-0.2031,0.12969-0.4578
		c0.06719-0.175,0.3-0.775,0.3-1.0906c0-0.5485-0.43594-0.6454-0.73594-0.6454c-0.46875,0-0.78593,0.2891-0.95625,0.5141
		c-0.03906-0.3891-0.37187-0.5141-0.60468-0.5141c-0.24219,0-0.37344,0.175-0.44688,0.3047
		c-0.12344,0.2094-0.20312,0.5328-0.20312,0.561c0,0.0734,0.07968,0.0734,0.09687,0.0734c0.07813,0,0.08438-0.0172,0.12344-0.1703
		c0.08594-0.3328,0.19219-0.6109,0.4125-0.6109c0.14844,0,0.1875,0.125,0.1875,0.2781c0,0.1062-0.05156,0.3156-0.09063,0.4687
		c-0.03906,0.1532-0.09687,0.3844-0.125,0.5094L7.86063,41.7657"/>
	<polyline class="st2" points="13.6231,14.8079 14.1716,14.8079 14.1716,0.5126 11.5263,0.5126 11.5263,1.0611 13.6231,1.0611 
		13.6231,14.8079 	"/>
	<rect x="13.6231" y="14.81422" class="st2" width="0.54844" height="4.78438"/>
	<rect x="13.6231" y="19.61422" class="st2" width="0.54844" height="4.78438"/>
	<rect x="13.6231" y="24.41422" class="st2" width="0.54844" height="4.78438"/>
	<polyline class="st2" points="13.6231,42.9517 11.5263,42.9517 11.5263,43.5001 14.1716,43.5001 14.1716,29.2048 13.6231,29.2048 
		13.6231,42.9517 	"/>
	<path class="st2" d="M24.5372,22.9657c0.1109,0,0.2625,0,0.2625-0.1593c0-0.1594-0.1516-0.1594-0.2703-0.1594h-4.7438
		c-0.1203,0-0.2703,0-0.2703,0.1594c0,0.1593,0.15,0.1593,0.2625,0.1593H24.5372 M24.5294,21.4236c0.1187,0,0.2703,0,0.2703-0.1594
		c0-0.1594-0.1516-0.1594-0.2625-0.1594h-4.7594c-0.1125,0-0.2625,0-0.2625,0.1594c0,0.1594,0.15,0.1594,0.2703,0.1594H24.5294z"/>
	<polyline class="st2" points="30.0606,14.8079 30.6091,14.8079 30.6091,1.0611 32.7075,1.0611 32.7075,0.5126 30.0606,0.5126 
		30.0606,14.8079 	"/>
	<rect x="30.0606" y="14.81422" class="st2" width="0.54844" height="4.78438"/>
	<rect x="30.0606" y="19.61422" class="st2" width="0.54844" height="4.78438"/>
	<rect x="30.0606" y="24.41422" class="st2" width="0.54844" height="4.78438"/>
	<polyline class="st2" points="30.0606,43.5001 32.7075,43.5001 32.7075,42.9517 30.6091,42.9517 30.6091,29.2048 30.0606,29.2048 
		30.0606,43.5001 	"/>
	<path class="st2" d="M35.1059,1.8361c0-0.1907,0-0.2063-0.1828-0.2063c-0.4922,0.5078-1.1922,0.5078-1.4453,0.5078v0.2469
		c0.1578,0,0.6266,0,1.0406-0.2063v4.1157c0,0.2859-0.0234,0.3812-0.739,0.3812h-0.2547V6.922
		c0.2781-0.0234,0.9703-0.0234,1.2875-0.0234c0.3187,0,1.0094,0,1.2875,0.0234V6.6751H35.845c-0.7141,0-0.7391-0.0875-0.7391-0.3812
		V1.8361"/>
	<path class="st2" d="M48.9247,4.522c0.0469-0.2063,0.2297-0.9375,0.7859-0.9375c0.0407,0,0.2313,0,0.3985,0.1031
		c-0.2235,0.0391-0.3828,0.2391-0.3828,0.4297c0,0.1266,0.0875,0.2781,0.3031,0.2781c0.175,0,0.4281-0.1437,0.4281-0.4609
		c0-0.4141-0.4687-0.525-0.7391-0.525c-0.4609,0-0.739,0.4219-0.8343,0.6047c-0.1985-0.525-0.6266-0.6047-0.8578-0.6047
		c-0.8266,0-1.2797,1.025-1.2797,1.2234c0,0.0797,0.0797,0.0797,0.0953,0.0797c0.064,0,0.0875-0.0156,0.1031-0.0875
		c0.2703-0.8422,0.7953-1.0406,1.0656-1.0406c0.15,0,0.4282,0.0719,0.4282,0.5328c0,0.2453-0.1344,0.7781-0.4282,1.8906
		c-0.1281,0.4922-0.4062,0.8266-0.7547,0.8266c-0.0484,0-0.2312,0-0.3984-0.1031c0.2-0.0391,0.3734-0.2063,0.3734-0.4297
		c0-0.2141-0.1734-0.2781-0.2937-0.2781c-0.2375,0-0.4375,0.2078-0.4375,0.4609c0,0.3656,0.3984,0.525,0.7484,0.525
		c0.5235,0,0.8094-0.5563,0.8344-0.6047c0.0953,0.2953,0.3813,0.6047,0.8578,0.6047c0.8188,0,1.2719-1.025,1.2719-1.2234
		c0-0.0797-0.0719-0.0797-0.0953-0.0797c-0.0719,0-0.0875,0.0312-0.1031,0.0875c-0.2625,0.85-0.8032,1.0406-1.0579,1.0406
		c-0.3093,0-0.4375-0.2547-0.4375-0.525c0-0.175,0.0485-0.3484,0.136-0.6984L48.9247,4.522"/>
	<path class="st2" d="M52.7638,4.5251c0-0.1515-0.011-0.1578-0.1688-0.1578c-0.3625,0.3563-0.8766,0.3625-1.1094,0.3625v0.2031
		c0.136,0,0.5094,0,0.8203-0.1578v2.8828c0,0.1875,0,0.261-0.5656,0.261h-0.214V8.122c0.1015-0.0063,0.7968-0.0219,1.0062-0.0219
		c0.175,0,0.8875,0.0156,1.0125,0.0219V7.9189h-0.2156c-0.5656,0-0.5656-0.0735-0.5656-0.261V4.5251"/>
	<path class="st2" d="M67.0247,4.522c0.04691-0.2063,0.22971-0.9375,0.7859-0.9375c0.0407,0,0.2313,0,0.3985,0.1031
		c-0.2235,0.0391-0.3828,0.2391-0.3828,0.4297c0,0.1266,0.0875,0.2781,0.3031,0.2781c0.175,0,0.4281-0.1437,0.4281-0.4609
		c0-0.4141-0.4687-0.525-0.73911-0.525c-0.4609,0-0.739,0.4219-0.8343,0.6047c-0.1985-0.525-0.6266-0.6047-0.8578-0.6047
		c-0.8266,0-1.27969,1.025-1.27969,1.2234c0,0.0797,0.0797,0.0797,0.0953,0.0797c0.064,0,0.0875-0.0156,0.1031-0.0875
		c0.2703-0.8422,0.7953-1.0406,1.06561-1.0406c0.14999,0,0.4282,0.0719,0.4282,0.5328c0,0.2453-0.1344,0.7781-0.4282,1.8906
		c-0.12811,0.4922-0.4062,0.8266-0.7547,0.8266c-0.0484,0-0.2312,0-0.39841-0.1031c0.2-0.0391,0.37341-0.2063,0.37341-0.4297
		c0-0.2141-0.1734-0.2781-0.2937-0.2781c-0.2375,0-0.4375,0.2078-0.4375,0.4609c0,0.3656,0.3984,0.525,0.7484,0.525
		c0.5235,0,0.8094-0.5563,0.8344-0.6047c0.0953,0.2953,0.38129,0.6047,0.8578,0.6047c0.8188,0,1.2719-1.025,1.2719-1.2234
		c0-0.0797-0.0719-0.0797-0.0953-0.0797c-0.07191,0-0.0875,0.0312-0.1031,0.0875c-0.2625,0.85-0.8032,1.0406-1.0579,1.0406
		c-0.3093,0-0.4375-0.2547-0.4375-0.525c0-0.175,0.0485-0.3484,0.136-0.6984L67.0247,4.522"/>
	<path class="st2" d="M71.8263,2.9923h-0.1922c-0.0172,0.125-0.075,0.4578-0.1485,0.5156
		c-0.0453,0.0328-0.47971,0.0328-0.5593,0.0328h-1.0407c0.5938-0.525,0.79221-0.6828,1.1313-0.95
		c0.4187-0.3328,0.8094-0.6828,0.8094-1.2203c0-0.6843-0.6-1.1031-1.3235-1.1031c-0.7015,0-1.1765,0.4922-1.1765,1.0125
		c0,0.2875,0.2437,0.3156,0.3,0.3156c0.1359,0,0.3-0.0953,0.3-0.2984c0-0.1016-0.0407-0.3-0.3344-0.3
		c0.175-0.4016,0.55939-0.5266,0.825-0.5266c0.5656,0,0.8609,0.4422,0.8609,0.9c0,0.4922-0.3515,0.8813-0.5328,1.086l-1.3625,1.3453
		c-0.0562,0.05-0.0562,0.0625-0.0562,0.2203h2.3296L71.8263,2.9923"/>
	<path class="st2" d="M70.8638,5.3251c0-0.1515-0.011-0.1578-0.1688-0.1578c-0.3625,0.3563-0.8766,0.3625-1.1094,0.3625v0.2031
		c0.136,0,0.5094,0,0.8203-0.1578v2.8828c0,0.1875,0,0.261-0.5656,0.261h-0.214V8.922c0.1015-0.0063,0.79681-0.0219,1.0062-0.0219
		c0.175,0,0.8875,0.0156,1.0125,0.0219V8.7189h-0.2156c-0.5656,0-0.5656-0.0735-0.5656-0.261V5.3251"/>
	<path class="st2" d="M35.1059,11.3361c0-0.1907,0-0.2063-0.1828-0.2063c-0.4922,0.5078-1.1922,0.5078-1.4453,0.5078v0.2469
		c0.1578,0,0.6266,0,1.0406-0.2063v4.1157c0,0.2859-0.0234,0.3812-0.739,0.3812h-0.2547v0.2469
		c0.2781-0.0234,0.9703-0.0234,1.2875-0.0234c0.3187,0,1.0094,0,1.2875,0.0234v-0.2469H35.845
		c-0.7141,0-0.7391-0.0875-0.7391-0.3812V11.3361"/>
	<path class="st2" d="M47.4247,14.022c0.0469-0.2063,0.2297-0.9375,0.7859-0.9375c0.0407,0,0.2313,0,0.3985,0.1031
		c-0.2235,0.0391-0.3828,0.2391-0.3828,0.4297c0,0.1266,0.0875,0.2781,0.3031,0.2781c0.175,0,0.4281-0.1437,0.4281-0.4609
		c0-0.4141-0.4687-0.525-0.7391-0.525c-0.4609,0-0.739,0.4219-0.8343,0.6047c-0.1985-0.525-0.6266-0.6047-0.8578-0.6047
		c-0.8266,0-1.2797,1.025-1.2797,1.2234c0,0.0797,0.0797,0.0797,0.0953,0.0797c0.064,0,0.0875-0.0156,0.1031-0.0875
		c0.2703-0.8422,0.7953-1.0406,1.0656-1.0406c0.15,0,0.4282,0.0719,0.4282,0.5328c0,0.2453-0.1344,0.7781-0.4282,1.8906
		c-0.1281,0.4922-0.4062,0.8266-0.7547,0.8266c-0.0484,0-0.2312,0-0.3984-0.1031c0.2-0.0391,0.3734-0.2063,0.3734-0.4297
		c0-0.2141-0.1734-0.2781-0.2937-0.2781c-0.2375,0-0.4375,0.2078-0.4375,0.4609c0,0.3656,0.3984,0.525,0.7484,0.525
		c0.5235,0,0.8094-0.5563,0.8344-0.6047c0.0953,0.2953,0.3813,0.6047,0.8578,0.6047c0.8188,0,1.2719-1.025,1.2719-1.2234
		c0-0.0797-0.0719-0.0797-0.0953-0.0797c-0.0719,0-0.0875,0.0312-0.1031,0.0875c-0.2625,0.85-0.8032,1.0406-1.0579,1.0406
		c-0.3093,0-0.4375-0.2547-0.4375-0.525c0-0.175,0.0485-0.3484,0.136-0.6984L47.4247,14.022"/>
	<path class="st2" d="M52.1263,16.5923h-0.1922c-0.0172,0.125-0.075,0.4578-0.1485,0.5156
		c-0.0453,0.0328-0.4797,0.0328-0.5593,0.0328h-1.0407c0.5938-0.525,0.7922-0.6828,1.1313-0.95
		c0.4187-0.3328,0.8094-0.6828,0.8094-1.2203c0-0.6843-0.6-1.1031-1.3235-1.1031c-0.7015,0-1.1765,0.4922-1.1765,1.0125
		c0,0.2875,0.2437,0.3156,0.3,0.3156c0.1359,0,0.3-0.0953,0.3-0.2984c0-0.1016-0.0407-0.3-0.3344-0.3
		c0.175-0.4016,0.5594-0.5266,0.825-0.5266c0.5656,0,0.8609,0.4422,0.8609,0.9c0,0.4922-0.3515,0.8813-0.5328,1.086l-1.3625,1.3453
		c-0.0562,0.05-0.0562,0.0625-0.0562,0.2203h2.3296L52.1263,16.5923"/>
	<path class="st2" d="M54.3638,14.0251c0-0.1515-0.011-0.1578-0.1688-0.1578c-0.3625,0.3563-0.8766,0.3625-1.1094,0.3625v0.2031
		c0.136,0,0.5094,0,0.8203-0.1578v2.8828c0,0.1875,0,0.261-0.5656,0.261h-0.214v0.2031c0.1015-0.0063,0.7968-0.0219,1.0062-0.0219
		c0.175,0,0.8875,0.0156,1.0125,0.0219v-0.2031h-0.2156c-0.5656,0-0.5656-0.0735-0.5656-0.261V14.0251"/>
	<path class="st2" d="M67.0247,14.022c0.04691-0.2063,0.22971-0.9375,0.7859-0.9375c0.0407,0,0.2313,0,0.3985,0.1031
		c-0.2235,0.0391-0.3828,0.2391-0.3828,0.4297c0,0.1266,0.0875,0.2781,0.3031,0.2781c0.175,0,0.4281-0.1437,0.4281-0.4609
		c0-0.4141-0.4687-0.525-0.73911-0.525c-0.4609,0-0.739,0.4219-0.8343,0.6047c-0.1985-0.525-0.6266-0.6047-0.8578-0.6047
		c-0.8266,0-1.27969,1.025-1.27969,1.2234c0,0.0797,0.0797,0.0797,0.0953,0.0797c0.064,0,0.0875-0.0156,0.1031-0.0875
		c0.2703-0.8422,0.7953-1.0406,1.06561-1.0406c0.14999,0,0.4282,0.0719,0.4282,0.5328c0,0.2453-0.1344,0.7781-0.4282,1.8906
		c-0.12811,0.4922-0.4062,0.8266-0.7547,0.8266c-0.0484,0-0.2312,0-0.39841-0.1031c0.2-0.0391,0.37341-0.2063,0.37341-0.4297
		c0-0.2141-0.1734-0.2781-0.2937-0.2781c-0.2375,0-0.4375,0.2078-0.4375,0.4609c0,0.3656,0.3984,0.525,0.7484,0.525
		c0.5235,0,0.8094-0.5563,0.8344-0.6047c0.0953,0.2953,0.38129,0.6047,0.8578,0.6047c0.8188,0,1.2719-1.025,1.2719-1.2234
		c0-0.0797-0.0719-0.0797-0.0953-0.0797c-0.07191,0-0.0875,0.0312-0.1031,0.0875c-0.2625,0.85-0.8032,1.0406-1.0579,1.0406
		c-0.3093,0-0.4375-0.2547-0.4375-0.525c0-0.175,0.0485-0.3484,0.136-0.6984L67.0247,14.022"/>
	<path class="st2" d="M71.8263,12.4923h-0.1922c-0.0172,0.125-0.075,0.4578-0.1485,0.5156
		c-0.0453,0.0328-0.47971,0.0328-0.5593,0.0328h-1.0407c0.5938-0.525,0.79221-0.6828,1.1313-0.95
		c0.4187-0.3328,0.8094-0.6828,0.8094-1.2203c0-0.6843-0.6-1.1031-1.3235-1.1031c-0.7015,0-1.1765,0.4922-1.1765,1.0125
		c0,0.2875,0.2437,0.3156,0.3,0.3156c0.1359,0,0.3-0.0953,0.3-0.2984c0-0.1016-0.0407-0.3-0.3344-0.3
		c0.175-0.4016,0.55939-0.5266,0.825-0.5266c0.5656,0,0.8609,0.4422,0.8609,0.9c0,0.4922-0.3515,0.8813-0.5328,1.086l-1.3625,1.3453
		c-0.0562,0.05-0.0562,0.0625-0.0562,0.2203h2.3296L71.8263,12.4923"/>
	<path class="st2" d="M71.8263,17.3923h-0.1922c-0.0172,0.125-0.075,0.4578-0.1485,0.5156
		c-0.0453,0.0328-0.47971,0.0328-0.5593,0.0328h-1.0407c0.5938-0.525,0.79221-0.6828,1.1313-0.95
		c0.4187-0.3328,0.8094-0.6828,0.8094-1.2203c0-0.6843-0.6-1.1031-1.3235-1.1031c-0.7015,0-1.1765,0.4922-1.1765,1.0125
		c0,0.2875,0.2437,0.3156,0.3,0.3156c0.1359,0,0.3-0.0953,0.3-0.2984c0-0.1016-0.0407-0.3-0.3344-0.3
		c0.175-0.4016,0.55939-0.5266,0.825-0.5266c0.5656,0,0.8609,0.4422,0.8609,0.9c0,0.4922-0.3515,0.8813-0.5328,1.086l-1.3625,1.3453
		c-0.0562,0.05-0.0562,0.0625-0.0562,0.2203h2.3296L71.8263,17.3923"/>
	<path class="st2" d="M35.1966,24.5001c0-0.2297-0.1922-0.4203-0.4219-0.4203c-0.2313,0-0.4219,0.1906-0.4219,0.4203
		c0,0.2313,0.1906,0.4219,0.4219,0.4219C35.0044,24.922,35.1966,24.7314,35.1966,24.5001"/>
	<path class="st2" d="M35.1966,27.7001c0-0.2297-0.1922-0.4203-0.4219-0.4203c-0.2313,0-0.4219,0.1906-0.4219,0.4203
		c0,0.2313,0.1906,0.4219,0.4219,0.4219C35.0044,28.122,35.1966,27.9314,35.1966,27.7001"/>
	<path class="st2" d="M35.1966,30.9001c0-0.2297-0.1922-0.4203-0.4219-0.4203c-0.2313,0-0.4219,0.1906-0.4219,0.4203
		c0,0.2313,0.1906,0.4219,0.4219,0.4219C35.0044,31.322,35.1966,31.1314,35.1966,30.9001"/>
	<path class="st2" d="M50.7966,24.5001c0-0.2297-0.1922-0.4203-0.4219-0.4203c-0.2313,0-0.4219,0.1906-0.4219,0.4203
		c0,0.2313,0.1906,0.4219,0.4219,0.4219C50.6044,24.922,50.7966,24.7314,50.7966,24.5001"/>
	<path class="st2" d="M50.7966,27.7001c0-0.2297-0.1922-0.4203-0.4219-0.4203c-0.2313,0-0.4219,0.1906-0.4219,0.4203
		c0,0.2313,0.1906,0.4219,0.4219,0.4219C50.6044,28.122,50.7966,27.9314,50.7966,27.7001"/>
	<path class="st2" d="M50.7966,30.9001c0-0.2297-0.1922-0.4203-0.4219-0.4203c-0.2313,0-0.4219,0.1906-0.4219,0.4203
		c0,0.2313,0.1906,0.4219,0.4219,0.4219C50.6044,31.322,50.7966,31.1314,50.7966,30.9001"/>
	<path class="st2" d="M68.8966,24.5001c0-0.2297-0.1922-0.4203-0.4219-0.4203c-0.2313,0-0.4219,0.1906-0.4219,0.4203
		c0,0.2313,0.1906,0.4219,0.4219,0.4219C68.7044,24.922,68.8966,24.7314,68.8966,24.5001"/>
	<path class="st2" d="M68.8966,27.7001c0-0.2297-0.1922-0.4203-0.4219-0.4203c-0.2313,0-0.4219,0.1906-0.4219,0.4203
		c0,0.2313,0.1906,0.4219,0.4219,0.4219C68.7044,28.122,68.8966,27.9314,68.8966,27.7001"/>
	<path class="st2" d="M68.8966,30.9001c0-0.2297-0.1922-0.4203-0.4219-0.4203c-0.2313,0-0.4219,0.1906-0.4219,0.4203
		c0,0.2313,0.1906,0.4219,0.4219,0.4219C68.7044,31.322,68.8966,31.1314,68.8966,30.9001"/>
	<path class="st2" d="M35.1059,35.8361c0-0.1907,0-0.2063-0.1828-0.2063c-0.4922,0.5078-1.1922,0.5078-1.4453,0.5078v0.2469
		c0.1578,0,0.6266,0,1.0406-0.2063v4.1157c0,0.2859-0.0234,0.3812-0.739,0.3812h-0.2547v0.2469
		c0.2781-0.0234,0.9703-0.0234,1.2875-0.0234c0.3187,0,1.0094,0,1.2875,0.0234v-0.2469H35.845
		c-0.7141,0-0.7391-0.0875-0.7391-0.3812V35.8361"/>
	<path class="st2" d="M48.6247,38.522c0.0469-0.2063,0.2297-0.9375,0.7859-0.9375c0.0407,0,0.2313,0,0.3985,0.1031
		c-0.2235,0.0391-0.3828,0.2391-0.3828,0.4297c0,0.1266,0.0875,0.2781,0.3031,0.2781c0.175,0,0.4281-0.1437,0.4281-0.4609
		c0-0.4141-0.4687-0.525-0.7391-0.525c-0.4609,0-0.739,0.4219-0.8343,0.6047c-0.1985-0.525-0.6266-0.6047-0.8578-0.6047
		c-0.8266,0-1.2797,1.025-1.2797,1.2234c0,0.0797,0.0797,0.0797,0.0953,0.0797c0.064,0,0.0875-0.0156,0.1031-0.0875
		c0.2703-0.8422,0.7953-1.0406,1.0656-1.0406c0.15,0,0.4282,0.0719,0.4282,0.5328c0,0.2453-0.1344,0.7781-0.4282,1.8906
		c-0.1281,0.4922-0.4062,0.8266-0.7547,0.8266c-0.0484,0-0.2312,0-0.3984-0.1031c0.2-0.0391,0.3734-0.2063,0.3734-0.4297
		c0-0.2141-0.1734-0.2781-0.2937-0.2781c-0.2375,0-0.4375,0.2078-0.4375,0.4609c0,0.3656,0.3984,0.525,0.7484,0.525
		c0.5235,0,0.8094-0.5563,0.8344-0.6047c0.0953,0.2953,0.3813,0.6047,0.8578,0.6047c0.8188,0,1.2719-1.025,1.2719-1.2234
		c0-0.0797-0.0719-0.0797-0.0953-0.0797c-0.0719,0-0.0875,0.0312-0.1031,0.0875c-0.2625,0.85-0.8032,1.0406-1.0579,1.0406
		c-0.3093,0-0.4375-0.2547-0.4375-0.525c0-0.175,0.0485-0.3484,0.136-0.6984L48.6247,38.522"/>
	<path class="st2" d="M51.1606,41.7657c-0.0234,0.0735-0.0578,0.2157-0.0578,0.2313c0,0.125,0.1016,0.1812,0.1922,0.1812
		c0.1031,0,0.1922-0.0734,0.2219-0.1234c0.0281-0.0516,0.0734-0.2328,0.1015-0.3516c0.0282-0.1078,0.0907-0.3671,0.1235-0.5093
		c0.0344-0.1235,0.0687-0.2485,0.0969-0.3782c0.0625-0.2312,0.0734-0.2765,0.2375-0.5093c0.1578-0.225,0.4234-0.5203,0.8484-0.5203
		c0.3281,0,0.3328,0.289,0.3328,0.3968c0,0.3391-0.2422,0.9672-0.3328,1.2047c-0.0625,0.1578-0.0859,0.2078-0.0859,0.3047
		c0,0.3,0.25,0.4859,0.5375,0.4859c0.5656,0,0.814-0.7796,0.814-0.8656c0-0.0734-0.0734-0.0734-0.0906-0.0734
		c-0.0781,0-0.0844,0.0344-0.1063,0.0969c-0.1312,0.4515-0.3734,0.6843-0.6,0.6843c-0.1187,0-0.1406-0.0797-0.1406-0.1984
		c0-0.1297,0.0281-0.2031,0.1297-0.4578c0.0672-0.175,0.3-0.775,0.3-1.0906c0-0.5485-0.4359-0.6454-0.7359-0.6454
		c-0.4688,0-0.786,0.2891-0.9563,0.5141c-0.039-0.3891-0.3719-0.5141-0.6047-0.5141c-0.2422,0-0.3734,0.175-0.4468,0.3047
		c-0.1235,0.2094-0.2032,0.5328-0.2032,0.561c0,0.0734,0.0797,0.0734,0.0969,0.0734c0.0781,0,0.0844-0.0172,0.1234-0.1703
		c0.086-0.3328,0.1922-0.6109,0.4125-0.6109c0.1485,0,0.1875,0.125,0.1875,0.2781c0,0.1062-0.0515,0.3156-0.0906,0.4687
		c-0.039,0.1532-0.0969,0.3844-0.125,0.5094L51.1606,41.7657"/>
	<path class="st2" d="M66.6247,38.522c0.0469-0.2063,0.2297-0.9375,0.7859-0.9375c0.0407,0,0.2313,0,0.3985,0.1031
		c-0.2235,0.0391-0.3828,0.2391-0.3828,0.4297c0,0.1266,0.0875,0.2781,0.3031,0.2781c0.175,0,0.4281-0.1437,0.4281-0.4609
		c0-0.4141-0.4687-0.525-0.7391-0.525c-0.46091,0-0.73901,0.4219-0.8343,0.6047c-0.1985-0.525-0.6266-0.6047-0.8578-0.6047
		c-0.82661,0-1.2797,1.025-1.2797,1.2234c0,0.0797,0.0797,0.0797,0.0953,0.0797c0.064,0,0.0875-0.0156,0.1031-0.0875
		c0.2703-0.8422,0.7953-1.0406,1.06561-1.0406c0.15,0,0.4282,0.0719,0.4282,0.5328c0,0.2453-0.1344,0.7781-0.4282,1.8906
		c-0.12811,0.4922-0.4062,0.8266-0.7547,0.8266c-0.0484,0-0.2312,0-0.3984-0.1031c0.2-0.0391,0.3734-0.2063,0.3734-0.4297
		c0-0.2141-0.1734-0.2781-0.2937-0.2781c-0.2375,0-0.4375,0.2078-0.4375,0.4609c0,0.3656,0.3984,0.525,0.7484,0.525
		c0.52351,0,0.8094-0.5563,0.8344-0.6047c0.0953,0.2953,0.3813,0.6047,0.8578,0.6047c0.8188,0,1.2719-1.025,1.2719-1.2234
		c0-0.0797-0.0719-0.0797-0.0953-0.0797c-0.0719,0-0.0875,0.0312-0.1031,0.0875c-0.2625,0.85-0.8032,1.0406-1.0579,1.0406
		c-0.3093,0-0.4375-0.2547-0.4375-0.525c0-0.175,0.0485-0.3484,0.136-0.6984L66.6247,38.522"/>
	<path class="st2" d="M71.4263,36.9923h-0.1922c-0.0172,0.125-0.075,0.4578-0.1485,0.5156
		c-0.0453,0.0328-0.4797,0.0328-0.5593,0.0328h-1.0407c0.5938-0.525,0.7922-0.6828,1.13129-0.95
		c0.4187-0.3328,0.8094-0.6828,0.8094-1.2203c0-0.6843-0.6-1.1031-1.3235-1.1031c-0.7015,0-1.1765,0.4922-1.1765,1.0125
		c0,0.2875,0.2437,0.3156,0.3,0.3156c0.13589,0,0.3-0.0953,0.3-0.2984c0-0.1016-0.0407-0.3-0.3344-0.3
		c0.175-0.4016,0.55939-0.5266,0.825-0.5266c0.5656,0,0.8609,0.4422,0.8609,0.9c0,0.4922-0.3515,0.8813-0.5328,1.086l-1.3625,1.3453
		c-0.0562,0.05-0.0562,0.0625-0.0562,0.2203h2.3296L71.4263,36.9923"/>
	<path class="st2" d="M69.2606,42.4657c-0.0234,0.0735-0.0578,0.2157-0.0578,0.2313c0,0.125,0.1016,0.1812,0.1922,0.1812
		c0.1031,0,0.1922-0.0734,0.2219-0.1234c0.0281-0.0516,0.0734-0.2328,0.1015-0.3516c0.0282-0.1078,0.0907-0.3671,0.1235-0.5093
		c0.03439-0.1235,0.0687-0.2485,0.09689-0.3782c0.0625-0.2312,0.0734-0.2765,0.2375-0.5093
		c0.1578-0.225,0.4234-0.5203,0.8484-0.5203c0.3281,0,0.3328,0.289,0.3328,0.3968c0,0.3391-0.2422,0.9672-0.3328,1.2047
		c-0.0625,0.1578-0.0859,0.2078-0.0859,0.3047c0,0.3,0.25,0.4859,0.53751,0.4859c0.5656,0,0.814-0.7796,0.814-0.8656
		c0-0.0734-0.07339-0.0734-0.0906-0.0734c-0.0781,0-0.0844,0.0344-0.1063,0.0969c-0.1312,0.4515-0.3734,0.6843-0.6,0.6843
		c-0.1187,0-0.1406-0.0797-0.1406-0.1984c0-0.1297,0.0281-0.2031,0.1297-0.4578c0.0672-0.175,0.3-0.775,0.3-1.0906
		c0-0.5485-0.4359-0.6454-0.7359-0.6454c-0.4688,0-0.786,0.2891-0.9563,0.5141c-0.039-0.3891-0.3719-0.5141-0.6047-0.5141
		c-0.2422,0-0.37341,0.175-0.4468,0.3047c-0.1235,0.2094-0.2032,0.5328-0.2032,0.561c0,0.0734,0.0797,0.0734,0.0969,0.0734
		c0.07809,0,0.0844-0.0172,0.1234-0.1703c0.086-0.3328,0.1922-0.6109,0.4125-0.6109c0.1485,0,0.1875,0.125,0.1875,0.2781
		c0,0.1062-0.0515,0.3156-0.0906,0.4687c-0.039,0.1532-0.0969,0.3844-0.125,0.5094L69.2606,42.4657"/>
	<polyline class="st2" points="75.0231,14.8079 75.5716,14.8079 75.5716,0.5126 72.9263,0.5126 72.9263,1.0611 75.0231,1.0611 
		75.0231,14.8079 	"/>
	<rect x="75.0231" y="14.81422" class="st2" width="0.54844" height="4.78438"/>
	<rect x="75.0231" y="19.61422" class="st2" width="0.54844" height="4.78438"/>
	<rect x="75.0231" y="24.41422" class="st2" width="0.54844" height="4.78438"/>
	<polyline class="st2" points="75.0231,42.9517 72.9263,42.9517 72.9263,43.5001 75.5716,43.5001 75.5716,29.2048 75.0231,29.2048 
		75.0231,42.9517 	"/>
	<polyline class="st2" points="82.1606,21.9079 82.7091,21.9079 82.7091,8.1611 84.8075,8.1611 84.8075,7.6126 82.1606,7.6126 
		82.1606,21.9079 	"/>
	<polyline class="st2" points="82.1606,36.3001 84.8075,36.3001 84.8075,35.7517 82.7091,35.7517 82.7091,22.0048 82.1606,22.0048 
		82.1606,36.3001 	"/>
	<path class="st2" d="M88.995,9.6173c0,0.5563-0.3031,1.1281-0.7156,1.375c-0.2141-0.0797-0.3735-0.0953-0.6125-0.0953
		c-0.1672,0-0.611-0.0078-0.611,0.2547c-0.0078,0.2219,0.4047,0.1984,0.5485,0.1984c0.2937,0,0.4125-0.0078,0.6515-0.1031
		c0.30161,0.2859,0.34071,0.5312,0.3485,0.8969c0.0172,0.4609-0.1735,1.0578-0.3969,1.3672
		c-0.30939,0.4296-0.84219,0.7156-1.2953,0.7156c-0.6031,0-0.9063-0.461-0.9063-1.025c0-0.0797,0-0.1985,0.0407-0.35l0.5078-2.011
		c0.175-0.6828,0.7469-1.9468,1.7015-1.9468C88.7169,8.8939,88.995,9.1407,88.995,9.6173 M88.0091,11.1189
		c-0.1032,0.0406-0.1907,0.0562-0.3813,0.0562c-0.1109,0-0.2703,0.0078-0.35-0.0312c0.0156-0.0797,0.3016-0.0641,0.3891-0.0641
		C87.8341,11.0798,87.9059,11.0798,88.0091,11.1189z M89.4388,9.8001c0-0.5953-0.436-1.089-1.0797-1.089
		c-0.461,0-0.6844,0.1281-0.9625,0.3343c-0.436,0.3172-0.8735,1.0891-1.025,1.6922l-1.2625,5.0469
		c-0.0094,0.0312,0.0312,0.0797,0.0953,0.0797c0.0625,0,0.0875-0.0156,0.0953-0.0406l0.55621-2.1922
		c0.14999,0.4765,0.5,0.7703,1.0797,0.7703c0.5813,0,1.1766-0.2781,1.5344-0.6281c0.3813-0.3657,0.6359-0.8735,0.6359-1.4625
		c0-0.5719-0.2937-0.9844-0.57961-1.1844C88.9872,10.8657,89.4388,10.372,89.4388,9.8001z"/>
	<path class="st2" d="M90.9763,15.4767c-0.261,0-0.60471-0.1531-0.7188-0.6156c-0.0781-0.3344-0.0781-0.7985-0.0781-1.2157
		c0-0.414,0-0.8437,0.0844-1.1547c0.1187-0.4468,0.4796-0.5656,0.7125-0.5656c0.3046,0,0.5984,0.1875,0.7015,0.5156
		c0.0891,0.3047,0.0953,0.7125,0.0953,1.2047c0,0.4172,0,0.836-0.0734,1.1922C91.5872,15.3517,91.2028,15.4767,90.9763,15.4767
		 M92.2872,13.7189c0-0.6235-0.0734-1.0688-0.3328-1.4657c-0.175-0.2593-0.5266-0.4859-0.9781-0.4859
		c-1.3125,0-1.3125,1.5438-1.3125,1.9516c0,0.4062,0,1.9156,1.3125,1.9156C92.2872,15.6345,92.2872,14.1251,92.2872,13.7189z"/>
	<path class="st2" d="M88.995,19.2173c0,0.5563-0.3031,1.1281-0.7156,1.375c-0.2141-0.0797-0.3735-0.0953-0.6125-0.0953
		c-0.1672,0-0.611-0.0078-0.611,0.2547c-0.0078,0.2219,0.4047,0.1984,0.5485,0.1984c0.2937,0,0.4125-0.0078,0.6515-0.1031
		c0.30161,0.2859,0.34071,0.5312,0.3485,0.8969c0.0172,0.4609-0.1735,1.0578-0.3969,1.3672
		c-0.30939,0.4296-0.84219,0.7156-1.2953,0.7156c-0.6031,0-0.9063-0.461-0.9063-1.025c0-0.0797,0-0.1985,0.0407-0.35l0.5078-2.011
		c0.175-0.6828,0.7469-1.9468,1.7015-1.9468C88.7169,18.4939,88.995,18.7407,88.995,19.2173 M88.0091,20.7189
		c-0.1032,0.0406-0.1907,0.0562-0.3813,0.0562c-0.1109,0-0.2703,0.0078-0.35-0.0312c0.0156-0.0797,0.3016-0.0641,0.3891-0.0641
		C87.8341,20.6798,87.9059,20.6798,88.0091,20.7189z M89.4388,19.4001c0-0.5953-0.436-1.089-1.0797-1.089
		c-0.461,0-0.6844,0.1281-0.9625,0.3343c-0.436,0.3172-0.8735,1.0891-1.025,1.6922l-1.2625,5.0469
		c-0.0094,0.0312,0.0312,0.0797,0.0953,0.0797c0.0625,0,0.0875-0.0156,0.0953-0.0406l0.55621-2.1922
		c0.14999,0.4765,0.5,0.7703,1.0797,0.7703c0.5813,0,1.1766-0.2781,1.5344-0.6281c0.3813-0.3657,0.6359-0.8735,0.6359-1.4625
		c0-0.5719-0.2937-0.9844-0.57961-1.1844C88.9872,20.4657,89.4388,19.972,89.4388,19.4001z"/>
	<path class="st2" d="M91.2638,21.5251c0-0.1515-0.011-0.1578-0.1688-0.1578c-0.3625,0.3563-0.8766,0.3625-1.1094,0.3625v0.2031
		c0.13599,0,0.5094,0,0.8203-0.1578v2.8828c0,0.1875,0,0.261-0.5656,0.261h-0.214v0.2031c0.1015-0.0063,0.7968-0.0219,1.0062-0.0219
		c0.175,0,0.8875,0.0156,1.0125,0.0219v-0.2031h-0.2156c-0.5656,0-0.5656-0.0735-0.5656-0.261V21.5251"/>
	<g class="st2">
		<path d="M88.995,28.7173c0,0.5563-0.3031,1.1281-0.7156,1.375c-0.2141-0.0797-0.3735-0.0953-0.6125-0.0953
			c-0.1672,0-0.611-0.0078-0.611,0.2547c-0.0078,0.2219,0.4047,0.1984,0.5485,0.1984c0.2937,0,0.4125-0.0078,0.6515-0.1031
			c0.30161,0.2859,0.34071,0.5312,0.3485,0.8969c0.0172,0.4609-0.1735,1.0578-0.3969,1.3672
			c-0.30939,0.4296-0.84219,0.7156-1.2953,0.7156c-0.6031,0-0.9063-0.461-0.9063-1.025c0-0.0797,0-0.1985,0.0407-0.35l0.5078-2.011
			c0.175-0.6828,0.7469-1.9468,1.7015-1.9468C88.7169,27.9939,88.995,28.2407,88.995,28.7173 M88.0091,30.2189
			c-0.1032,0.0406-0.1907,0.0562-0.3813,0.0562c-0.1109,0-0.2703,0.0078-0.35-0.0312c0.0156-0.0797,0.3016-0.0641,0.3891-0.0641
			C87.8341,30.1798,87.9059,30.1798,88.0091,30.2189z M89.4388,28.9001c0-0.5953-0.436-1.089-1.0797-1.089
			c-0.461,0-0.6844,0.1281-0.9625,0.3343c-0.436,0.3172-0.8735,1.0891-1.025,1.6922l-1.2625,5.0469
			c-0.0094,0.0312,0.0312,0.0797,0.0953,0.0797c0.0625,0,0.0875-0.0156,0.0953-0.0406l0.55621-2.1922
			c0.14999,0.4765,0.5,0.7703,1.0797,0.7703c0.5813,0,1.1766-0.2781,1.5344-0.6281c0.3813-0.3657,0.6359-0.8735,0.6359-1.4625
			c0-0.5719-0.2937-0.9844-0.57961-1.1844C88.9872,29.9657,89.4388,29.472,89.4388,28.9001z"/>
		<path d="M90.9138,32.7329c0.4406,0,0.7578,0.3063,0.7578,0.911c0,0.7015-0.4078,0.9109-0.736,0.9109
			c-0.225,0-0.7234-0.0625-0.9609-0.3969c0.2656-0.0109,0.3281-0.1968,0.3281-0.3156c0-0.1812-0.1359-0.3109-0.31091-0.3109
			c-0.1578,0-0.3172,0.0953-0.3172,0.3265c0,0.5328,0.5891,0.8766,1.2734,0.8766c0.786,0,1.3282-0.525,1.3282-1.0906
			c0-0.4407-0.361-0.8828-0.9844-1.0125c0.5937-0.2141,0.8094-0.6391,0.8094-0.9844c0-0.4453-0.51411-0.7797-1.1422-0.7797
			c-0.6282,0-1.1078,0.3047-1.1078,0.7578c0,0.1922,0.1234,0.3,0.29369,0.3c0.175,0,0.28751-0.1297,0.28751-0.289
			c0-0.1641-0.1125-0.2829-0.28751-0.2938c0.19691-0.2484,0.5875-0.3109,0.79691-0.3109c0.2547,0,0.6109,0.125,0.6109,0.6156
			c0,0.2375-0.0797,0.4984-0.2265,0.6734c-0.186,0.2157-0.3454,0.2266-0.6282,0.2438c-0.14059,0.0109-0.1515,0.0109-0.1797,0.0172
			c-0.0125,0-0.0578,0.0109-0.0578,0.0734c0,0.0781,0.0516,0.0781,0.1485,0.0781H90.9138"/>
	</g>
	<polyline class="st2" points="95.1231,21.9079 95.6716,21.9079 95.6716,7.6126 93.0263,7.6126 93.0263,8.1611 95.1231,8.1611 
		95.1231,21.9079 	"/>
	<polyline class="st2" points="95.1231,35.7517 93.0263,35.7517 93.0263,36.3001 95.6716,36.3001 95.6716,22.0048 95.1231,22.0048 
		95.1231,35.7517 	"/>
	<path class="st2" d="M103.22,22.1939h2.217c0.111,0,0.263,0,0.263-0.1594c0-0.1578-0.152-0.1578-0.263-0.1578h-2.217v-2.225
		c0-0.1125,0-0.2625-0.159-0.2625c-0.158,0-0.158,0.15-0.158,0.2625v2.225h-2.225c-0.113,0-0.263,0-0.263,0.1578
		c0,0.1594,0.15,0.1594,0.263,0.1594h2.225v2.225c0,0.1125,0,0.2625,0.158,0.2625c0.159,0,0.159-0.15,0.159-0.2625V22.1939"/>
	<polyline class="st2" points="110.561,14.8079 111.109,14.8079 111.109,1.0611 113.208,1.0611 113.208,0.5126 110.561,0.5126 
		110.561,14.8079 	"/>
	<rect x="110.561" y="14.81422" class="st2" width="0.54805" height="4.78438"/>
	<rect x="110.561" y="19.61422" class="st2" width="0.54805" height="4.78438"/>
	<rect x="110.561" y="24.41422" class="st2" width="0.54805" height="4.78438"/>
	<polyline class="st2" points="110.561,43.5001 113.208,43.5001 113.208,42.9517 111.109,42.9517 111.109,29.2048 110.561,29.2048 
		110.561,43.5001 	"/>
	<path class="st2" d="M115.053,5.0142c0.183-0.0625,0.35-0.0703,0.484-0.0703c0.199,0,0.231,0.0078,0.374,0.0468
		c-0.119,0.0563-0.135,0.0641-0.436,0.0641C115.3,5.0548,115.204,5.0548,115.053,5.0142 M114.79,5.1173
		c0.263,0.1125,0.493,0.1125,0.685,0.1125c0.206,0,0.643,0,0.643-0.2469c0-0.1906-0.279-0.214-0.58099-0.214
		c-0.167,0-0.445,0.0156-0.73901,0.15c-0.183-0.0953-0.31699-0.2453-0.31699-0.461c0-0.4843,0.778-0.7703,1.494-0.7703
		c0.126,0,0.412,0,0.731,0.2219c0.087,0.0641,0.103,0.0797,0.159,0.0797c0.103,0,0.214-0.1031,0.214-0.2141
		c0-0.1515-0.484-0.4531-1.025-0.4531c-0.914,0-1.771,0.5328-1.771,1.1359c0,0.3422,0.285,0.5407,0.317,0.5641
		c-0.469,0.2625-0.724,0.7078-0.724,1.0734c0,0.5172,0.453,1.0016,1.296,1.0016c1.05,0,1.493-0.7,1.493-0.8188
		c0-0.0468-0.039-0.0796-0.087-0.0796c-0.039,0-0.063,0.0328-0.078,0.0562c-0.113,0.1828-0.303,0.4766-1.257,0.4766
		c-0.48399,0-1.16-0.1188-1.16-0.6828C114.083,5.7782,114.306,5.3564,114.79,5.1173z"/>
	<path class="st2" d="M119.264,4.5251c0-0.1515-0.011-0.1578-0.169-0.1578c-0.362,0.3563-0.877,0.3625-1.109,0.3625v0.2031
		c0.136,0,0.509,0,0.82-0.1578v2.8828c0,0.1875,0,0.261-0.566,0.261h-0.214V8.122c0.102-0.0063,0.797-0.0219,1.007-0.0219
		c0.175,0,0.887,0.0156,1.012,0.0219V7.9189h-0.216c-0.565,0-0.565-0.0735-0.565-0.261V4.5251"/>
	<path class="st2" d="M115.053,14.5142c0.183-0.0625,0.35-0.0703,0.484-0.0703c0.199,0,0.231,0.0078,0.374,0.0468
		c-0.119,0.0563-0.135,0.0641-0.436,0.0641C115.3,14.5548,115.204,14.5548,115.053,14.5142 M114.79,14.6173
		c0.263,0.1125,0.493,0.1125,0.685,0.1125c0.206,0,0.643,0,0.643-0.2469c0-0.1906-0.279-0.214-0.58099-0.214
		c-0.167,0-0.445,0.0156-0.73901,0.15c-0.183-0.0953-0.31699-0.2453-0.31699-0.461c0-0.4843,0.778-0.7703,1.494-0.7703
		c0.126,0,0.412,0,0.731,0.2219c0.087,0.0641,0.103,0.0797,0.159,0.0797c0.103,0,0.214-0.1031,0.214-0.2141
		c0-0.1515-0.484-0.4531-1.025-0.4531c-0.914,0-1.771,0.5328-1.771,1.1359c0,0.3422,0.285,0.5407,0.317,0.5641
		c-0.469,0.2625-0.724,0.7078-0.724,1.0734c0,0.5172,0.453,1.0016,1.296,1.0016c1.05,0,1.493-0.7,1.493-0.8188
		c0-0.0468-0.039-0.0796-0.087-0.0796c-0.039,0-0.063,0.0328-0.078,0.0562c-0.113,0.1828-0.303,0.4766-1.257,0.4766
		c-0.48399,0-1.16-0.1188-1.16-0.6828C114.083,15.2782,114.306,14.8564,114.79,14.6173z"/>
	<path class="st2" d="M120.226,16.5923h-0.192c-0.017,0.125-0.075,0.4578-0.14799,0.5156
		c-0.04601,0.0328-0.48,0.0328-0.56001,0.0328H118.286c0.59299-0.525,0.792-0.6828,1.131-0.95
		c0.419-0.3328,0.809-0.6828,0.809-1.2203c0-0.6843-0.6-1.1031-1.323-1.1031c-0.702,0-1.177,0.4922-1.177,1.0125
		c0,0.2875,0.244,0.3156,0.3,0.3156c0.136,0,0.3-0.0953,0.3-0.2984c0-0.1016-0.03999-0.3-0.334-0.3
		c0.175-0.4016,0.55901-0.5266,0.825-0.5266c0.566,0,0.861,0.4422,0.861,0.9c0,0.4922-0.35201,0.8813-0.533,1.086l-1.362,1.3453
		c-0.057,0.05-0.057,0.0625-0.057,0.2203h2.33L120.226,16.5923"/>
	<path class="st2" d="M117.797,24.5001c0-0.2297-0.193-0.4203-0.422-0.4203c-0.232,0-0.422,0.1906-0.422,0.4203
		c0,0.2313,0.18999,0.4219,0.422,0.4219C117.604,24.922,117.797,24.7314,117.797,24.5001"/>
	<path class="st2" d="M117.797,27.7001c0-0.2297-0.193-0.4203-0.422-0.4203c-0.232,0-0.422,0.1906-0.422,0.4203
		c0,0.2313,0.18999,0.4219,0.422,0.4219C117.604,28.122,117.797,27.9314,117.797,27.7001"/>
	<path class="st2" d="M117.797,30.9001c0-0.2297-0.193-0.4203-0.422-0.4203c-0.232,0-0.422,0.1906-0.422,0.4203
		c0,0.2313,0.18999,0.4219,0.422,0.4219C117.604,31.322,117.797,31.1314,117.797,30.9001"/>
	<g class="st2">
		<path d="M114.653,39.0142c0.183-0.0625,0.35-0.0703,0.484-0.0703c0.199,0,0.231,0.0078,0.374,0.0468
			c-0.119,0.0563-0.135,0.0641-0.436,0.0641C114.9,39.0548,114.804,39.0548,114.653,39.0142 M114.39,39.1173
			c0.263,0.1125,0.493,0.1125,0.685,0.1125c0.206,0,0.64301,0,0.64301-0.24689c0-0.19061-0.279-0.214-0.581-0.214
			c-0.167,0-0.445,0.0156-0.739,0.15c-0.18301-0.0953-0.317-0.2453-0.317-0.461c0-0.4843,0.778-0.7703,1.494-0.7703
			c0.126,0,0.412,0,0.731,0.2219c0.087,0.0641,0.103,0.0797,0.159,0.0797c0.103,0,0.214-0.1031,0.214-0.2141
			c0-0.1515-0.484-0.4531-1.025-0.4531c-0.914,0-1.771,0.5328-1.771,1.1359c0,0.3422,0.285,0.5407,0.31699,0.5641
			c-0.46899,0.2625-0.724,0.7078-0.724,1.0734c0,0.5172,0.453,1.0016,1.29601,1.0016c1.05,0,1.493-0.7,1.493-0.8188
			c0-0.0468-0.039-0.0796-0.087-0.0796c-0.039,0-0.063,0.0328-0.078,0.0562c-0.113,0.1828-0.303,0.4766-1.257,0.4766
			c-0.484,0-1.16-0.1188-1.16-0.6828C113.683,39.7782,113.906,39.3564,114.39,39.1173z"/>
		<path d="M117.661,41.7657c-0.024,0.0735-0.05801,0.2157-0.05801,0.2313c0,0.125,0.10101,0.1812,0.192,0.1812
			c0.103,0,0.192-0.0734,0.222-0.1234c0.028-0.0516,0.073-0.2328,0.101-0.3516c0.02901-0.1078,0.091-0.3671,0.124-0.5093
			c0.034-0.1235,0.069-0.2485,0.097-0.3782c0.062-0.2312,0.07301-0.2765,0.237-0.5093c0.158-0.225,0.424-0.5203,0.84901-0.5203
			c0.328,0,0.333,0.289,0.333,0.3968c0,0.3391-0.243,0.9672-0.333,1.2047c-0.063,0.1578-0.08601,0.2078-0.08601,0.3047
			c0,0.3,0.25,0.4859,0.537,0.4859c0.566,0,0.814-0.7796,0.814-0.8656c0-0.0734-0.07301-0.0734-0.09-0.0734
			c-0.078,0-0.085,0.0344-0.107,0.0969c-0.131,0.4515-0.37299,0.6843-0.6,0.6843c-0.118,0-0.14-0.0797-0.14-0.1984
			c0-0.1297,0.028-0.2031,0.13-0.4578c0.06699-0.175,0.3-0.775,0.3-1.0906c0-0.5485-0.436-0.6454-0.736-0.6454
			c-0.469,0-0.786,0.2891-0.957,0.5141c-0.039-0.3891-0.372-0.5141-0.604-0.5141c-0.243,0-0.374,0.175-0.447,0.3047
			c-0.124,0.2094-0.203,0.5328-0.203,0.561c0,0.0734,0.079,0.0734,0.097,0.0734c0.078,0,0.084-0.0172,0.123-0.1703
			c0.086-0.3328,0.192-0.6109,0.41199-0.6109c0.149,0,0.188,0.125,0.188,0.2781c0,0.1062-0.052,0.3156-0.091,0.4687
			c-0.03899,0.1532-0.097,0.3844-0.125,0.5094L117.661,41.7657"/>
	</g>
	<polyline class="st2" points="123.523,14.8079 124.072,14.8079 124.072,0.5126 121.426,0.5126 121.426,1.0611 123.523,1.0611 
		123.523,14.8079 	"/>
	<rect x="123.523" y="14.81422" class="st2" width="0.54883" height="4.78438"/>
	<rect x="123.523" y="19.61422" class="st2" width="0.54883" height="4.78438"/>
	<rect x="123.523" y="24.41422" class="st2" width="0.54883" height="4.78438"/>
	<polyline class="st2" points="123.523,42.9517 121.426,42.9517 121.426,43.5001 124.072,43.5001 124.072,29.2048 123.523,29.2048 
		123.523,42.9517 	"/>
	<path class="st2" d="M9.52073,50.62669c0.0391-0.14375,0.0391-0.15938,0.0391-0.18282c0-0.175-0.1266-0.35-0.37341-0.35
		c-0.4125,0-0.5078,0.37344-0.56409,0.5875l-0.2062,0.82657c-0.09541,0.38125-0.2469,0.99375-0.3344,1.31875
		c-0.0391,0.175-0.286,0.36562-0.3094,0.38281c-0.08749,0.05469-0.2781,0.19062-0.5406,0.19062
		c-0.4688,0-0.4766-0.39843-0.4766-0.58125c0-0.48437,0.2453-1.10468,0.4688-1.67656c0.0797-0.20625,0.1031-0.2625,0.1031-0.39687
		c0-0.46094-0.4609-0.71563-0.8984-0.71563c-0.8422,0-1.2391,1.08125-1.2391,1.24063c0,0.11093,0.1187,0.11093,0.1906,0.11093
		c0.0953,0,0.15,0,0.1828-0.10312c0.2625-0.88281,0.6985-0.9625,0.8188-0.9625c0.0547,0,0.1344,0,0.1344,0.16719
		c0,0.18281-0.0875,0.38906-0.1344,0.51718c-0.311,0.79375-0.4781,1.24688-0.4781,1.65313c0,0.90469,0.7953,1.03281,1.264,1.03281
		c0.1985,0,0.4688-0.03281,0.7625-0.23906c-0.2219,0.97812-0.8172,1.49375-1.3656,1.49375c-0.1031,0-0.3266-0.01562-0.4859-0.11094
		c0.2546-0.10312,0.3828-0.31719,0.3828-0.53281c0-0.28594-0.2313-0.36563-0.3907-0.36563c-0.2937,0-0.5718,0.25469-0.5718,0.60469
		c0,0.40469,0.42181,0.69063,1.06561,0.69063c0.9141,0,1.96249-0.61094,2.2094-1.59688L9.52073,50.62669"/>
	<path class="st2" d="M24.5372,52.56575c0.1109,0,0.2625,0,0.2625-0.15938c0-0.15937-0.1516-0.15937-0.27029-0.15937h-4.7438
		c-0.1203,0-0.2703,0-0.2703,0.15937c0,0.15938,0.15,0.15938,0.2625,0.15938H24.5372 M24.52941,51.02356
		c0.1187,0,0.27029,0,0.27029-0.15937c0-0.15938-0.1516-0.15938-0.2625-0.15938h-4.7594c-0.1125,0-0.2625,0-0.2625,0.15938
		c0,0.15937,0.15,0.15937,0.2703,0.15937H24.52941z"/>
	<path class="st2" d="M50.74115,50.35637l-0.667-1.58125c-0.02499-0.06406-0.041-0.09687-0.041-0.10468
		c0-0.04688,0.136-0.19844,0.469-0.22969c0.079-0.00781,0.159-0.01563,0.159-0.15156c0-0.09532-0.095-0.09532-0.119-0.09532
		c-0.326,0-0.668,0.02344-1.001,0.02344c-0.199,0-0.692-0.02344-0.891-0.02344c-0.047,0-0.142,0-0.142,0.15938
		c0,0.0875,0.078,0.0875,0.183,0.0875c0.476,0,0.52299,0.07969,0.595,0.25469l0.938,2.21718l-1.677,1.80313l-0.103,0.0875
		c-0.389,0.42187-0.763,0.54844-1.169,0.57187c-0.1031,0.00782-0.1749,0.00782-0.1749,0.15938c0,0.00781,0,0.0875,0.10291,0.0875
		c0.239,0,0.502-0.02344,0.749-0.02344c0.293,0,0.603,0.02344,0.889,0.02344c0.048,0,0.143,0,0.143-0.15938
		c0-0.07968-0.079-0.0875-0.095-0.0875c-0.072-0.00781-0.319-0.02343-0.319-0.24531c0-0.12812,0.121-0.25469,0.216-0.35781
		l0.809-0.85938l0.716-0.77812l0.803,1.9c0.031,0.0875,0.039,0.09531,0.039,0.11094c0,0.06406-0.15,0.19843-0.461,0.22968
		c-0.087,0.00782-0.158,0.01719-0.158,0.15157c0,0.09531,0.08601,0.09531,0.119,0.09531c0.222,0,0.778-0.02344,1.002-0.02344
		c0.198,0,0.683,0.02344,0.881,0.02344c0.056,0,0.152,0,0.152-0.15156c0-0.09532-0.08-0.09532-0.144-0.09532
		c-0.531-0.00781-0.549-0.03125-0.683-0.34843c-0.309-0.73907-0.842-1.97969-1.025-2.45625c0.541-0.55625,1.375-1.50157,1.628-1.725
		c0.231-0.19063,0.533-0.38125,1.01-0.40469c0.103-0.00781,0.175-0.00781,0.175-0.15938c0-0.00781,0-0.0875-0.104-0.0875
		c-0.237,0-0.5,0.02344-0.74599,0.02344c-0.29401,0-0.596-0.02344-0.883-0.02344c-0.047,0-0.15,0-0.15,0.15938
		c0,0.05625,0.039,0.07969,0.095,0.0875c0.072,0.00781,0.317,0.02344,0.317,0.24687c0,0.11094-0.087,0.21407-0.15,0.28594
		L50.74115,50.35637"/>
	<path class="st2" d="M90.05602,50.15637c-0.263-0.0625-0.486-0.0625-0.63599-0.0625c-0.255,0-0.899,0-0.899,0.42813
		c0,0.33437,0.477,0.33437,0.755,0.33437c0.136,0,0.494,0,0.85-0.15156c0.064,0.12031,0.08801,0.27813,0.08801,0.41406
		c0,0.28594-0.207,1.24688-0.454,1.66094c-0.245,0.38906-0.634,0.65156-1.136,0.65156c-0.739,0-1.359-0.44531-1.359-1.16093
		c0-0.15782,0.041-0.325,0.056-0.40469c0.119-0.46875,0.374-1.50938,0.469-1.85938c0.255-0.86718,1.216-1.67656,2.163-1.67656
		c0.293,0,0.468,0.14219,0.468,0.45313C90.42103,49.02825,90.23103,49.847,90.05602,50.15637 M89.78503,50.4345
		c-0.19,0.13594-0.39,0.13594-0.501,0.13594c-0.031,0-0.381,0-0.381-0.06407c0-0.12656,0.389-0.12656,0.492-0.12656
		C89.53902,50.37981,89.63403,50.37981,89.78503,50.4345z M86.18503,54.92513c-0.007,0.01562-0.03201,0.11875-0.03201,0.12656
		c0,0.1125,0.12,0.1125,0.19,0.1125c0.16,0,0.16-0.01562,0.208-0.18281c0.023-0.12813,0.5-2.03438,0.508-2.05001
		c0.334,0.55625,0.945,0.78594,1.58099,0.78594c1.59901,0,2.48801-1.21562,2.48801-2.25625c0-0.55625-0.246-0.85937-0.508-1.05781
		c0.286-0.2375,0.611-0.75469,0.611-1.30313c0-0.675-0.492-1.05625-1.239-1.05625c-1.136,0-2.313,0.88125-2.599,2.03438
		L86.18503,54.92513z"/>
	<path class="st2" d="M103.22,51.79387h2.217c0.111,0,0.263,0,0.263-0.15937c0-0.15781-0.152-0.15781-0.263-0.15781h-2.217v-2.225
		c0-0.1125,0-0.2625-0.159-0.2625c-0.158,0-0.158,0.15-0.158,0.2625v2.225h-2.225c-0.113,0-0.263,0-0.263,0.15781
		c0,0.15937,0.15,0.15937,0.263,0.15937h2.225v2.225c0,0.1125,0,0.2625,0.158,0.2625c0.159,0,0.159-0.15,0.159-0.2625V51.79387"/>
	<path class="st2" d="M116.4305,51.75481c0.28601-0.10312,0.589-0.10312,0.66701-0.10312c0.216,0,0.23999,0.00781,0.33499,0.03906
		c-0.03099,0.09531-0.056,0.15156-0.43799,0.15156C116.8605,51.84231,116.6545,51.84231,116.4305,51.75481 M118.2975,52.76419
		c-0.18201,0.35781-0.675,0.38906-1.35699,0.38906c-0.502,0-1.24901,0-1.24901-0.53281c0-0.15938,0.11101-0.46094,0.399-0.66719
		c0.325,0.175,0.754,0.175,0.897,0.175c0.215,0,0.81799,0,0.81799-0.4375c0-0.325-0.429-0.325-0.675-0.325
		c-0.159,0-0.58899,0-1.00899,0.19844c-0.06401-0.07969-0.095-0.19063-0.095-0.27813c0-0.4375,0.54799-0.72344,1.493-0.72344
		c0.214,0,0.46899,0,0.811,0.2375c0.06299,0.04063,0.11899,0.06407,0.17499,0.06407c0.16701,0,0.358-0.175,0.358-0.35782
		c0-0.14218-0.12799-0.24531-0.422-0.38906c-0.34999-0.15937-0.651-0.15937-0.77-0.15937c-1.36699,0-2.019,0.76406-2.019,1.32812
		c0,0.2375,0.119,0.40469,0.16701,0.46094c-0.326,0.27031-0.517,0.59531-0.517,0.97656c0,0.54844,0.43799,1.03281,1.502,1.03281
		c1.295,0,1.709-0.75468,1.709-0.88125c0-0.07187-0.056-0.13593-0.136-0.13593
		C118.3385,52.73919,118.3075,52.76419,118.2975,52.76419z"/>
</g>
</svg>
