<?xml version="1.0" encoding="UTF-8" standalone="no"?>
<!-- Created with Inkscape (http://www.inkscape.org/) -->

<svg
   version="1.1"
   id="svg2"
   xml:space="preserve"
   width="281.33334"
   height="260"
   viewBox="0 0 281.33334 260"
   sodipodi:docname="D_1.pdf"
   xmlns:inkscape="http://www.inkscape.org/namespaces/inkscape"
   xmlns:sodipodi="http://sodipodi.sourceforge.net/DTD/sodipodi-0.dtd"
   xmlns="http://www.w3.org/2000/svg"
   xmlns:svg="http://www.w3.org/2000/svg"><defs
     id="defs6"><clipPath
       clipPathUnits="userSpaceOnUse"
       id="clipPath24"><path
         d="m 0.378,0.342 h 211 v 195 h -211 z"
         id="path22" /></clipPath></defs><sodipodi:namedview
     id="namedview4"
     pagecolor="#ffffff"
     bordercolor="#666666"
     borderopacity="1.0"
     inkscape:pageshadow="2"
     inkscape:pageopacity="0.0"
     inkscape:pagecheckerboard="0" /><g
     id="g8"
     inkscape:groupmode="layer"
     inkscape:label="D_1"
     transform="matrix(1.3333333,0,0,-1.3333333,0,260)"><g
       id="g10" /><g
       id="g12"><g
         id="g14"
         transform="matrix(1e-6,0,0,1e-6,105.5,97.5)"><path
           d="m 0,0 c 60,108 97,116 101,120 4,-4 -69,-5 3,-23 -55,-2 -6,0 11,4 C 54,52 61,34 66,80 51,88 114,53 81,66 51,79 98,65 79,116 100,106 43,78 77,51 117,114 79,48 66,118 111,61 34,62 65,65 65,69 77,51 105,99 98,86 80,76 98,116 78,65 70,72 85,84 c -13,21 2,-28 2,24 18,13 -16,-18 -17,-23 35,20 18,-13 46,17 -38,9 -3,3 -42,-21 0,5 31,38 7,2 32,-13 -1,30 3,6 29,26 13,-5 15,-5 -23,29 -56,-9 -28,6 28,7 47,-3 -4,18 51,-56 6,-24 -15,-37 63,14 26,44 35,31 -22,-30 1,-29 -31,-2 57,-30 60,-29 27,10 37,-61 39,4 27,-59 12,15 11,29 -7,2 -22,69 10,29 19,57 -72,-62 -9,-4 -21,-9 17,-51 9,-3 16,13 C 57,49 114,51 72,122 120,56 57,72 104,116 47,99 109,104 84,68 74,66 54,65 70,74 c 31,-7 5,5 -5,47 54,-9 25,1 4,-64 16,12 51,63 32,55 18,-37 4,1 -22,-47 -31,-11 1,38 -22,7 31,-6 15,-19 -8,10 24,4 58,1 53,-33 -21,39 -27,53 -17,57 -5,-33 31,-16 36,-41 -17,22 -56,9 -71,50 64,-68 72,-65 15,-9 47,0 34,-9 -10,-17 -1,-2 33,-14 50,-12 6,-8 -17,21 -23,20 -31,11 2,6 -26,-49 54,70 52,41 -13,6 37,45 59,63 44,-2 -33,22 14,62 -36,65 62,-45 55,-46 70,-27 -39,-11 -55,-16 -3,-12 -10,11 -71,43 -34,38 6,-26 34,-40 21,-3 -5,0 15,-46 9,-56 C 87,79 78,97 114,85 79,69 106,79 97,75 70,87 78,57 84,108 52,67 70,89 68,77 c 53,-2 7,40 -1,27 46,-22 48,-51 1,-14 19,12 -13,31 -25,-42 23,67 25,73 74,52 3,-31 -36,-28 -9,21 6,-12 2,-10 -32,-55 -9,3 -6,35 35,13 3,-4 -42,-22 -34,1 3,-1 -6,-37 -26,-31 19,2 47,67 56,48 C 88,104 69,55 100,79 68,67 121,103 78,78 72,88 82,77 103,52 82,43 68,83 116,55 100,72 89,51 102,89 76,47 53,78 82,74 103,103 110,77 75,89 86,74 108,86 57,122 75,69 89,107 103,104 72,56 77,81 56,88 74,47 48,121 79,74 c -22,4 4,25 -4,34 44,-57 0,-5 -22,-10 2,6 56,-12 57,0 -3,-30 -63,-18 -34,-21 3,40 14,31 24,26 5,2 -28,9 8,-27 7,35 13,36 -54,-19 49,-3 48,64 65,16 -70,-5 -2,-5 -5,9 -66,-17 8,-8 -1,-16 -33,32 -24,33 -63,-9 0,10 52,45 72,65 -24,-71 -15,-74 -12,-6 -12,-15 -55,-1 -2,-19 -58,-42 -39,3 10,3 -50,-22 1,13 -68,-25 66,33 21,41 30,23 23,9 32,8 20,-20 C 83,66 98,82 87,66 71,79 112,90 121,52 84,103 114,98 120,48 73,120 67,71 88,82 56,106 74,74 85,48 c 35,31 -29,41 35,31 -9,-6 0,41 -38,-4 5,27 -28,-19 35,-22 -36,13 0,12 -33,17 -13,19 -17,10 22,0 -39,39 4,-22 -9,37 2,10 -22,-33 5,8 13,-9 -50,-6 18,-62 -49,32 -50,-4 -51,12 -14,17 1,22 30,-14 10,49 -24,5 -31,-4 31,43 10,30 36,53 12,-57 18,17 -31,-52 12,74 8,61 39,40 5,1 -13,9 -31,-5 5,-13 39,-36 -3,-12 9,-4 -9,44 7,47 26,-41 -19,-49 -8,-50 26,-3 -4,42 0,47 0,-45 -5,4 30,-15 -25,-1 -56,15 -22,2 4,-37 -8,-28 3,-47 -7,-5 26,49 25,26 8,-4 -56,27 0,-1 -64,34 -57,25 -39,24 -31,-32 -9,-1 14,-24 12,-26 20,-12 13,-4 18,46 -47,-20 -27,34 44,-62 44,6 -27,-9 8,-15 42,19 67,19 0,-40 -8,-41 -14,-49 -51,-20 -33,7 15,27 -45,16 3,-30 -27,-48 18,15 -9,18 -10,23 -26,25 32,47 35,29 C 71,49 43,97 88,53 c 30,49 21,69 -45,44 37,-49 73,15 46,-43 -1,59 12,33 25,31 -28,33 -34,3 -42,-30 -18,23 8,29 -16,6 4,-14 52,36 60,40 4,4 0,-39 -116,-101 z"
           style="fill:none;stroke:#000000;stroke-width:1;stroke-linecap:butt;stroke-linejoin:miter;stroke-miterlimit:10;stroke-dasharray:none;stroke-opacity:0"
           id="path16" /></g></g><g
       id="g18"><g
         id="g20"
         clip-path="url(#clipPath24)"><g
           id="g26"
           transform="matrix(0.1,0,0,0.1,0.378,0.342)"><path
             d="m 1055,975 v 0 0 0 0 0 0 0 0 0 0 0 0 0 0 0 0 0 0 0 0 0 0 0 0 0 0 0 0 0 0 0 0 0 0 0 0 0 0 0 0 0 0 0 0 0 0 0 0 0 0 0 0 0 0 0 0 0 0 0 0 0 0 0 0 0 0 0 0 0 0 0 0 0 0 0 0 0 0 0 0 0 0 0 0 0 0 0 0 0 0 0 0 0 0 0 0 0 0 0 0 0 0 0 0 0 0 0 0 0 0 0 0 0 0 0 0 0 0 0 0 0 0 0 0 0 0 0 0 0 0 0 0 0 0 0 0 0 0 0 0 0 0 0 0 0 0 0 z"
             style="fill:none;stroke:#000000;stroke-width:1e-05;stroke-linecap:butt;stroke-linejoin:miter;stroke-miterlimit:10;stroke-dasharray:none;stroke-opacity:0"
             id="path28" /></g><g
           id="g30"
           transform="matrix(0.1,0,0,0.1,0.378,0.342)"><path
             d="M 62.0273,129.996 H 1825.37"
             style="fill:none;stroke:#000000;stroke-width:4.782;stroke-linecap:butt;stroke-linejoin:miter;stroke-miterlimit:10;stroke-dasharray:none;stroke-opacity:1"
             id="path32" /></g><g
           id="g34"
           transform="matrix(0.1,0,0,0.1,0.378,0.342)"><path
             d="m 1811.02,149.125 c 1.2,-7.172 14.35,-17.934 17.94,-19.129 -3.59,-1.195 -16.74,-11.953 -17.94,-19.125"
             style="fill:none;stroke:#000000;stroke-width:3.82548;stroke-linecap:round;stroke-linejoin:round;stroke-miterlimit:10;stroke-dasharray:none;stroke-opacity:1"
             id="path36" /></g><path
           d="m 191.85,11.4092 c 0.131,-0.4891 0.548,-0.7984 1.061,-0.7984 0.417,0 0.692,0.275 0.883,0.6562 0.201,0.4281 0.357,1.1563 0.357,1.1797 0,0.1187 -0.107,0.1187 -0.143,0.1187 -0.119,0 -0.132,-0.0468 -0.167,-0.214 -0.168,-0.6672 -0.394,-1.4781 -0.894,-1.4781 -0.25,0 -0.369,0.1546 -0.369,0.5484 0,0.2625 0.142,0.8219 0.238,1.2391 l 0.334,1.2875 c 0.036,0.1796 0.155,0.6328 0.201,0.8109 0.061,0.2734 0.18,0.7266 0.18,0.7984 0,0.2141 -0.167,0.3219 -0.345,0.3219 -0.061,0 -0.37,-0.0109 -0.466,-0.4172 -0.226,-0.8703 -0.751,-2.9562 -0.894,-3.5875 -0.012,-0.0484 -0.489,-1.0015 -1.359,-1.0015 -0.62,0 -0.739,0.5359 -0.739,0.9781 0,0.6672 0.334,1.6078 0.644,2.4312 0.144,0.3578 0.203,0.525 0.203,0.75 0,0.5375 -0.381,0.9782 -0.978,0.9782 -1.131,0 -1.574,-1.7282 -1.574,-1.836 0,-0.1187 0.121,-0.1187 0.144,-0.1187 0.119,0 0.131,0.0234 0.191,0.214 0.298,1.0375 0.75,1.4782 1.203,1.4782 0.108,0 0.298,-0.011 0.298,-0.3938 0,-0.2859 -0.131,-0.6312 -0.203,-0.8094 -0.44,-1.1812 -0.69,-1.9203 -0.69,-2.5031 0,-1.1328 0.821,-1.4312 1.465,-1.4312 0.788,0 1.216,0.5359 1.419,0.7984"
           style="fill:#000000;fill-opacity:1;fill-rule:nonzero;stroke:none"
           id="path38" /><g
           id="g40"
           transform="matrix(0.1,0,0,0.1,0.378,0.342)"><path
             d="M 130.059,61.9648 V 1825.31"
             style="fill:none;stroke:#000000;stroke-width:4.782;stroke-linecap:butt;stroke-linejoin:miter;stroke-miterlimit:10;stroke-dasharray:none;stroke-opacity:1"
             id="path42" /></g><g
           id="g44"
           transform="matrix(0.1,0,0,0.1,0.378,0.342)"><path
             d="m 110.934,1810.96 c 7.171,1.2 17.929,14.35 19.125,17.93 1.195,-3.58 11.957,-16.73 19.129,-17.93"
             style="fill:none;stroke:#000000;stroke-width:3.82548;stroke-linecap:round;stroke-linejoin:round;stroke-miterlimit:10;stroke-dasharray:none;stroke-opacity:1"
             id="path46" /></g><path
           d="m 13.6343,192.411 h 1.1203 c 0.2375,0 0.3578,0 0.3578,0.237 0,0.132 -0.1203,0.132 -0.3344,0.132 h -1.0484 c 0.4281,1.692 0.4875,1.931 0.4875,2.003 0,0.203 -0.1422,0.322 -0.3453,0.322 -0.036,0 -0.3688,-0.013 -0.4766,-0.43 l -0.4656,-1.895 h -1.1203 c -0.2375,0 -0.3579,0 -0.3579,-0.227 0,-0.142 0.0969,-0.142 0.3344,-0.142 h 1.0485 c -0.8579,-3.386 -0.9047,-3.589 -0.9047,-3.803 0,-0.644 0.4531,-1.097 1.0968,-1.097 1.2157,0 1.8954,1.74 1.8954,1.836 0,0.118 -0.0954,0.118 -0.1438,0.118 -0.1078,0 -0.1187,-0.035 -0.1781,-0.167 -0.5141,-1.239 -1.1453,-1.525 -1.55,-1.525 -0.25,0 -0.3703,0.155 -0.3703,0.549 0,0.286 0.025,0.368 0.0718,0.572 l 0.8829,3.517"
           style="fill:#000000;fill-opacity:1;fill-rule:nonzero;stroke:none"
           id="path48" /><g
           id="g50"
           transform="matrix(0.1,0,0,0.1,0.378,0.342)"><path
             d="M 130.059,129.996 1554.26,1147.29"
             style="fill:none;stroke:#000000;stroke-width:4.782;stroke-linecap:butt;stroke-linejoin:miter;stroke-miterlimit:10;stroke-dasharray:none;stroke-opacity:1"
             id="path52" /></g><g
           id="g54"
           transform="matrix(0.1,0,0,0.1,0.378,0.342)"><path
             d="m 1531.47,1154.51 c 5.14,-5.14 22.1,-6.25 25.71,-5.14 -2.22,-3.06 -6.67,-19.45 -3.47,-25.98"
             style="fill:none;stroke:#000000;stroke-width:3.82524;stroke-linecap:round;stroke-linejoin:round;stroke-miterlimit:10;stroke-dasharray:none;stroke-opacity:1"
             id="path56" /></g><g
           id="g58"
           transform="matrix(0.1,0,0,0.1,0.378,0.342)"><path
             d="M 130.059,1490.64 H 1490.71 V 129.996"
             style="fill:none;stroke:#000000;stroke-width:4.782;stroke-linecap:butt;stroke-linejoin:miter;stroke-miterlimit:10;stroke-dasharray:none;stroke-opacity:1"
             id="path60" /></g><path
           d="m 9.103,146.49 c 0,0.072 0,0.204 -0.15469,0.204 -0.13125,0 -0.13125,-0.108 -0.14218,-0.191 -0.07188,-0.847 -0.48907,-1.061 -0.7875,-1.061 -0.58438,0 -0.67969,0.608 -0.84532,1.717 l -0.15625,0.953 c -0.21406,0.763 -0.79843,1.157 -1.45312,1.383 1.15625,0.286 2.08594,1.013 2.08594,1.942 0,1.146 -1.35938,2.147 -3.11094,2.147 H 0.795188 v -0.37 h 0.285937 c 0.918755,0 0.942185,-0.131 0.942185,-0.559 v -6.283 c 0,-0.43 -0.02343,-0.56 -0.942185,-0.56 H 0.795188 v -0.37 c 0.429687,0.036 1.275002,0.036 1.740622,0.036 0.46407,0 1.31094,0 1.74063,-0.036 v 0.37 H 3.9905 c -0.91875,0 -0.94219,0.13 -0.94219,0.56 v 3.015 h 1.37032 c 0.19062,0 0.69218,0 1.10937,-0.404 0.45313,-0.43 0.45313,-0.799 0.45313,-1.597 0,-0.775 0,-1.253 0.4875,-1.705 0.48906,-0.43 1.14531,-0.501 1.50312,-0.501 0.92969,0 1.13125,0.978 1.13125,1.31 z m -2.68125,4.947 c 0,-0.822 -0.28594,-1.787 -2.05,-1.787 H 3.04831 v 3.087 c 0,0.274 0,0.418 0.2625,0.453 0.11875,0.024 0.46407,0.024 0.70313,0.024 1.07187,0 2.40781,-0.047 2.40781,-1.777"
           style="fill:#000000;fill-opacity:1;fill-rule:nonzero;stroke:none"
           id="path62" /><path
           d="m 153.803,1.99044 c 0,0.07187 0,0.20312 -0.155,0.20312 -0.131,0 -0.131,-0.10781 -0.142,-0.19062 -0.072,-0.846877 -0.489,-1.06094 -0.787,-1.06094 -0.585,0 -0.68,0.60781 -0.846,1.71719 l -0.156,0.95312 c -0.214,0.7625 -0.798,1.15625 -1.453,1.38282 1.156,0.28593 2.086,1.0125 2.086,1.94218 0,1.14532 -1.359,2.14688 -3.111,2.14688 h -3.744 V 8.71388 h 0.286 c 0.919,0 0.942,-0.13125 0.942,-0.55938 V 1.87169 c 0,-0.42969 -0.023,-0.559377 -0.942,-0.559377 h -0.286 V 0.942 c 0.43,0.035938 1.275,0.035938 1.741,0.035938 0.464,0 1.311,0 1.74,-0.035938 v 0.370313 h -0.285 c -0.919,0 -0.943,0.129687 -0.943,0.559377 v 3.01562 h 1.371 c 0.19,0 0.692,0 1.109,-0.40468 0.453,-0.42969 0.453,-0.79844 0.453,-1.59688 0,-0.775 0,-1.25312 0.488,-1.704687 0.489,-0.429688 1.145,-0.501563 1.503,-0.501563 0.929,0 1.131,0.97813 1.131,1.31094 z m -2.681,4.94687 c 0,-0.82187 -0.286,-1.7875 -2.05,-1.7875 h -1.324 v 3.0875 c 0,0.27344 0,0.41719 0.263,0.45313 0.119,0.02344 0.464,0.02344 0.703,0.02344 1.072,0 2.408,-0.04688 2.408,-1.77657"
           style="fill:#000000;fill-opacity:1;fill-rule:nonzero;stroke:none"
           id="path64" /><path
           d="m 112.173,156.472 c -0.118,-0.464 -0.143,-0.56 -1.084,-0.56 -0.203,0 -0.334,0 -0.334,-0.226 0,-0.144 0.107,-0.144 0.334,-0.144 h 3.945 c 2.48,0 4.828,2.516 4.828,5.127 0,1.679 -1.014,3.015 -2.801,3.015 h -4.005 c -0.226,0 -0.358,0 -0.358,-0.226 0,-0.144 0.107,-0.144 0.346,-0.144 0.154,0 0.368,-0.011 0.512,-0.024 0.191,-0.023 0.263,-0.059 0.263,-0.19 0,-0.049 -0.013,-0.085 -0.049,-0.227 z m 2.575,6.389 c 0.108,0.417 0.132,0.453 0.644,0.453 h 1.275 c 1.169,0 2.158,-0.631 2.158,-2.205 0,-0.584 -0.239,-2.539 -1.252,-3.85 -0.345,-0.442 -1.287,-1.347 -2.753,-1.347 h -1.347 c -0.167,0 -0.19,0 -0.262,0.011 -0.12,0.013 -0.155,0.024 -0.155,0.119 0,0.036 0,0.061 0.06,0.275 l 1.632,6.544"
           style="fill:#000000;fill-opacity:1;fill-rule:nonzero;stroke:none"
           id="path66" /><path
           d="m 58.6733,113.172 c -0.1187,-0.464 -0.1437,-0.56 -1.0844,-0.56 -0.2031,0 -0.3343,0 -0.3343,-0.226 0,-0.144 0.1078,-0.144 0.3343,-0.144 h 3.9454 c 2.4796,0 4.8281,2.516 4.8281,5.127 0,1.679 -1.0141,3.015 -2.8016,3.015 h -4.0047 c -0.2265,0 -0.3578,0 -0.3578,-0.226 0,-0.144 0.1063,-0.144 0.3453,-0.144 0.1547,0 0.3688,-0.011 0.5125,-0.024 0.1907,-0.023 0.2625,-0.059 0.2625,-0.19 0,-0.049 -0.0125,-0.085 -0.0484,-0.227 z m 2.575,6.389 c 0.1078,0.417 0.1313,0.453 0.6438,0.453 h 1.275 c 1.1687,0 2.1578,-0.631 2.1578,-2.205 0,-0.584 -0.2391,-2.539 -1.2516,-3.85 -0.3453,-0.442 -1.2875,-1.347 -2.7531,-1.347 h -1.3469 c -0.1672,0 -0.1906,0 -0.2625,0.011 -0.1203,0.013 -0.1547,0.024 -0.1547,0.119 0,0.036 0,0.061 0.0594,0.275 l 1.6328,6.544"
           style="fill:#000000;fill-opacity:1;fill-rule:nonzero;stroke:none"
           id="path68" /><path
           d="m 69.4936,115.787 c 0,0.228 -0.0172,0.236 -0.2515,0.236 -0.5391,-0.529 -1.3032,-0.537 -1.6485,-0.537 v -0.303 c 0.2016,0 0.7578,0 1.2188,0.236 v -4.288 c 0,-0.276 0,-0.386 -0.8406,-0.386 H 67.653 v -0.303 c 0.1516,0.008 1.1859,0.034 1.4969,0.034 0.2594,0 1.3187,-0.026 1.5031,-0.034 v 0.303 h -0.3187 c -0.8407,0 -0.8407,0.11 -0.8407,0.386 v 4.656"
           style="fill:#000000;fill-opacity:1;fill-rule:nonzero;stroke:none"
           id="path70" /><path
           d="m 109.673,62.0717 c -0.118,-0.4641 -0.143,-0.5594 -1.084,-0.5594 -0.203,0 -0.334,0 -0.334,-0.2265 0,-0.1438 0.107,-0.1438 0.334,-0.1438 h 3.945 c 2.48,0 4.828,2.5156 4.828,5.1266 0,1.6797 -1.014,3.0156 -2.801,3.0156 h -4.005 c -0.226,0 -0.358,0 -0.358,-0.2266 0,-0.1437 0.107,-0.1437 0.346,-0.1437 0.154,0 0.368,-0.011 0.512,-0.0235 0.191,-0.0234 0.263,-0.0593 0.263,-0.1906 0,-0.0484 -0.013,-0.0844 -0.049,-0.2265 z m 2.575,6.3891 c 0.108,0.4171 0.132,0.4531 0.644,0.4531 h 1.275 c 1.169,0 2.158,-0.6313 2.158,-2.2047 0,-0.5844 -0.239,-2.5391 -1.252,-3.85 -0.345,-0.4422 -1.287,-1.3469 -2.753,-1.3469 h -1.347 c -0.167,0 -0.19,0 -0.262,0.011 -0.12,0.0125 -0.155,0.0234 -0.155,0.1187 0,0.0359 0,0.0609 0.06,0.275 l 1.632,6.5438"
           style="fill:#000000;fill-opacity:1;fill-rule:nonzero;stroke:none"
           id="path72" /><path
           d="m 121.923,60.8717 h -0.286 c -0.025,-0.1844 -0.109,-0.6813 -0.218,-0.7641 -0.068,-0.0515 -0.714,-0.0515 -0.833,-0.0515 h -1.547 c 0.883,0.7828 1.178,1.0172 1.681,1.4125 0.622,0.4953 1.203,1.0172 1.203,1.8156 0,1.0172 -0.892,1.6391 -1.967,1.6391 -1.042,0 -1.748,-0.7313 -1.748,-1.5047 0,-0.4282 0.361,-0.4703 0.445,-0.4703 0.202,0 0.445,0.1421 0.445,0.4453 0,0.1515 -0.059,0.4453 -0.495,0.4453 0.261,0.5969 0.831,0.7812 1.227,0.7812 0.84,0 1.278,-0.6547 1.278,-1.3359 0,-0.7313 -0.522,-1.3109 -0.791,-1.6141 l -2.025,-2 c -0.084,-0.0765 -0.084,-0.0922 -0.084,-0.3281 h 3.462 l 0.253,1.5297"
           style="fill:#000000;fill-opacity:1;fill-rule:nonzero;stroke:none"
           id="path74" /><path
           d="m 150.644,110.531 c 0,0.66 -0.535,1.195 -1.195,1.195 -0.66,0 -1.196,-0.535 -1.196,-1.195 0,-0.66 0.536,-1.196 1.196,-1.196 0.66,0 1.195,0.536 1.195,1.196 z"
           style="fill:#000000;fill-opacity:1;fill-rule:nonzero;stroke:none"
           id="path76" /><path
           d="m 154.726,102.845 c -0.035,-0.178 -0.106,-0.453 -0.106,-0.512 0,-0.214 0.167,-0.322 0.346,-0.322 0.142,0 0.357,0.095 0.44,0.334 0.024,0.047 0.43,1.669 0.477,1.883 0.095,0.394 0.311,1.228 0.383,1.55 0.046,0.155 0.381,0.716 0.667,0.977 0.095,0.084 0.44,0.393 0.953,0.393 0.309,0 0.489,-0.142 0.5,-0.142 -0.356,-0.059 -0.619,-0.347 -0.619,-0.656 0,-0.191 0.131,-0.417 0.453,-0.417 0.322,0 0.655,0.275 0.655,0.703 0,0.417 -0.381,0.775 -0.989,0.775 -0.775,0 -1.3,-0.585 -1.525,-0.917 -0.095,0.536 -0.525,0.917 -1.086,0.917 -0.549,0 -0.775,-0.464 -0.881,-0.68 -0.216,-0.405 -0.371,-1.12 -0.371,-1.156 0,-0.119 0.121,-0.119 0.144,-0.119 0.119,0 0.131,0.013 0.202,0.274 0.203,0.846 0.442,1.418 0.87,1.418 0.203,0 0.37,-0.095 0.37,-0.548 0,-0.25 -0.036,-0.381 -0.19,-1.002 l -0.693,-2.753"
           style="fill:#000000;fill-opacity:1;fill-rule:nonzero;stroke:none"
           id="path78" /><path
           d="m 167.933,106.53 h -4.613 c -0.154,0 -0.275,-0.121 -0.275,-0.275 0,-0.155 0.121,-0.274 0.275,-0.274 h 4.613 c 0.154,0 0.275,0.119 0.275,0.274 0,0.154 -0.121,0.275 -0.275,0.275 z m 0,-2.135 h -4.613 c -0.154,0 -0.275,-0.119 -0.275,-0.275 0,-0.155 0.121,-0.273 0.275,-0.273 h 4.613 c 0.154,0 0.275,0.118 0.275,0.273 0,0.156 -0.121,0.275 -0.275,0.275"
           style="fill:#000000;fill-opacity:1;fill-rule:nonzero;stroke:none"
           id="path80" /><path
           d="m 176.248,109.461 c 0.072,0.286 0.108,0.406 0.335,0.442 0.106,0.011 0.487,0.011 0.726,0.011 0.847,0 2.169,0 2.169,-1.18 0,-0.406 -0.191,-1.228 -0.655,-1.692 -0.311,-0.311 -0.942,-0.692 -2.015,-0.692 h -1.335 z m 1.716,-3.266 c 1.205,0.263 2.623,1.097 2.623,2.3 0,1.025 -1.073,1.789 -2.634,1.789 h -3.397 c -0.239,0 -0.347,0 -0.347,-0.239 0,-0.131 0.108,-0.131 0.335,-0.131 0.023,0 0.25,0 0.453,-0.024 0.214,-0.023 0.322,-0.035 0.322,-0.19 0,-0.049 -0.013,-0.085 -0.049,-0.227 l -1.597,-6.401 c -0.118,-0.464 -0.143,-0.56 -1.084,-0.56 -0.216,0 -0.322,0 -0.322,-0.239 0,-0.131 0.142,-0.131 0.167,-0.131 0.333,0 1.167,0.036 1.502,0.036 0.333,0 1.18,-0.036 1.514,-0.036 0.095,0 0.237,0 0.237,0.239 0,0.131 -0.106,0.131 -0.332,0.131 -0.443,0 -0.775,0 -0.775,0.214 0,0.072 0.023,0.132 0.036,0.204 l 0.785,3.157 h 1.419 c 1.085,0 1.3,-0.667 1.3,-1.084 0,-0.178 -0.095,-0.548 -0.167,-0.822 -0.084,-0.334 -0.191,-0.775 -0.191,-1.014 0,-1.287 1.43,-1.287 1.585,-1.287 1.014,0 1.431,1.204 1.431,1.371 0,0.143 -0.131,0.143 -0.144,0.143 -0.106,0 -0.131,-0.083 -0.154,-0.168 -0.297,-0.881 -0.811,-1.084 -1.085,-1.084 -0.394,0 -0.476,0.263 -0.476,0.727 0,0.37 0.072,0.978 0.118,1.359 0.024,0.167 0.049,0.394 0.049,0.561 0,0.917 -0.8,1.287 -1.122,1.406"
           style="fill:#000000;fill-opacity:1;fill-rule:nonzero;stroke:none"
           id="path82" /><path
           d="m 185.103,111.142 c -0.156,0 -0.286,-0.095 -0.334,-0.25 l -3.266,-11.2297 c -0.012,-0.0234 -0.012,-0.0594 -0.012,-0.0953 0,-0.1672 0.131,-0.3328 0.334,-0.3328 0.142,0 0.286,0.0953 0.322,0.25 l 3.278,11.2278 c 0.011,0.025 0.011,0.06 0.011,0.096 0,0.167 -0.131,0.334 -0.333,0.334"
           style="fill:#000000;fill-opacity:1;fill-rule:nonzero;stroke:none"
           id="path84" /><path
           d="m 189.173,104.74 c 0,1.944 0.977,2.444 1.61,2.444 0.106,0 0.858,-0.012 1.275,-0.44 -0.489,-0.036 -0.561,-0.394 -0.561,-0.549 0,-0.309 0.215,-0.548 0.548,-0.548 0.311,0 0.549,0.203 0.549,0.561 0,0.809 -0.907,1.275 -1.824,1.275 -1.49,0 -2.587,-1.288 -2.587,-2.766 0,-1.527 1.181,-2.706 2.564,-2.706 1.597,0 1.978,1.431 1.978,1.55 0,0.119 -0.119,0.119 -0.155,0.119 -0.108,0 -0.131,-0.047 -0.154,-0.119 -0.347,-1.11 -1.121,-1.252 -1.563,-1.252 -0.631,0 -1.68,0.513 -1.68,2.431"
           style="fill:#000000;fill-opacity:1;fill-rule:nonzero;stroke:none"
           id="path86" /><path
           d="m 198.692,104.694 c 0,1.525 -1.192,2.789 -2.634,2.789 -1.489,0 -2.646,-1.3 -2.646,-2.789 0,-1.539 1.239,-2.683 2.635,-2.683 1.442,0 2.645,1.169 2.645,2.683 z m -2.634,-2.385 c -0.513,0 -1.036,0.25 -1.358,0.799 -0.299,0.525 -0.299,1.251 -0.299,1.681 0,0.464 0,1.108 0.286,1.633 0.322,0.548 0.882,0.798 1.36,0.798 0.523,0 1.036,-0.262 1.347,-0.775 0.309,-0.512 0.309,-1.203 0.309,-1.656 0,-0.43 0,-1.074 -0.262,-1.599 -0.263,-0.535 -0.786,-0.881 -1.383,-0.881"
           style="fill:#000000;fill-opacity:1;fill-rule:nonzero;stroke:none"
           id="path88" /><path
           d="m 201.458,104.455 c 0.262,-0.047 1.239,-0.24 1.239,-1.097 0,-0.608 -0.417,-1.085 -1.347,-1.085 -1.002,0 -1.43,0.68 -1.656,1.692 -0.036,0.155 -0.049,0.204 -0.168,0.204 -0.154,0 -0.154,-0.083 -0.154,-0.299 v -1.573 c 0,-0.203 0,-0.286 0.131,-0.286 0.059,0 0.07,0.012 0.297,0.239 0.025,0.023 0.025,0.047 0.239,0.273 0.525,-0.5 1.061,-0.512 1.311,-0.512 1.372,0 1.919,0.798 1.919,1.658 0,0.631 -0.357,0.989 -0.5,1.131 -0.394,0.381 -0.858,0.476 -1.36,0.572 -0.667,0.131 -1.465,0.287 -1.465,0.978 0,0.417 0.309,0.906 1.334,0.906 1.313,0 1.372,-1.073 1.395,-1.442 0.013,-0.108 0.119,-0.108 0.144,-0.108 0.155,0 0.155,0.059 0.155,0.286 v 1.205 c 0,0.201 0,0.286 -0.131,0.286 -0.06,0 -0.085,0 -0.24,-0.144 -0.035,-0.047 -0.154,-0.155 -0.201,-0.191 -0.453,0.335 -0.942,0.335 -1.122,0.335 -1.453,0 -1.906,-0.799 -1.906,-1.468 0,-0.417 0.19,-0.75 0.512,-1.012 0.382,-0.309 0.716,-0.381 1.574,-0.548"
           style="fill:#000000;fill-opacity:1;fill-rule:nonzero;stroke:none"
           id="path90" /><path
           d="m 210.901,108.103 c 0,0.786 -0.214,2.444 -1.429,2.444 -1.658,0 -3.494,-3.363 -3.494,-6.092 0,-1.121 0.347,-2.444 1.431,-2.444 1.682,0 3.492,3.422 3.492,6.092 z m -3.659,-1.634 c 0.203,0.764 0.441,1.717 0.919,2.564 0.322,0.582 0.762,1.251 1.298,1.251 0.585,0 0.657,-0.764 0.657,-1.442 0,-0.584 -0.096,-1.192 -0.382,-2.373 z m 2.384,-0.382 c -0.131,-0.548 -0.381,-1.561 -0.834,-2.418 -0.417,-0.811 -0.87,-1.396 -1.383,-1.396 -0.393,0 -0.643,0.346 -0.643,1.455 0,0.5 0.071,1.192 0.381,2.359 h 2.479"
           style="fill:#000000;fill-opacity:1;fill-rule:nonzero;stroke:none"
           id="path92" /><path
           d="m 23.0608,4.95606 c 0,0.95469 -0.0594,1.90782 -0.4765,2.79063 -0.5485,1.14375 -1.525,1.33437 -2.0266,1.33437 -0.7141,0 -1.5844,-0.30937 -2.0734,-1.41875 -0.3813,-0.82187 -0.4407,-1.75156 -0.4407,-2.70625 0,-0.89375 0.0469,-1.96562 0.536,-2.87187 0.5125,-0.965627 1.3828,-1.20469 1.9672,-1.20469 0.6437,0 1.5484,0.25 2.0734,1.38281 0.3812,0.82344 0.4406,1.75313 0.4406,2.69375 z m -0.989,0.14375 c 0,-0.89375 0,-1.70468 -0.1313,-2.46718 C 21.7624,1.49981 21.0827,1.142 20.5468,1.142 c -0.4657,0 -1.1688,0.29844 -1.3829,1.44219 -0.1312,0.71562 -0.1312,1.8125 -0.1312,2.51562 0,0.7625 0,1.55 0.0953,2.19375 0.2266,1.41719 1.1203,1.525 1.4188,1.525 0.3921,0 1.1796,-0.21406 1.4062,-1.39375 0.1188,-0.66875 0.1188,-1.575 0.1188,-2.325"
           style="fill:#000000;fill-opacity:1;fill-rule:nonzero;stroke:none"
           id="path94" /><g
           id="g96"
           transform="matrix(0.1,0,0,0.1,0.378,0.342)"><path
             d="M 62.0273,61.9648 1830.87,1830.8"
             style="fill:none;stroke:#000000;stroke-width:4.782;stroke-linecap:butt;stroke-linejoin:miter;stroke-miterlimit:10;stroke-dasharray:none;stroke-opacity:1"
             id="path98" /></g><g
           id="g100"
           transform="matrix(0.1,0,0,0.1,0.378,0.342)"><path
             d="m 300.141,129.996 c 0,35.914 -11.375,70.918 -32.481,99.973"
             style="fill:none;stroke:#000000;stroke-width:4.782;stroke-linecap:butt;stroke-linejoin:miter;stroke-miterlimit:10;stroke-dasharray:none;stroke-opacity:1"
             id="path102" /></g><path
           d="m 39.6014,20.6029 c 0,0.786 -0.214,2.4438 -1.4296,2.4438 -1.6579,0 -3.4938,-3.3625 -3.4938,-6.0922 0,-1.1203 0.3469,-2.4437 1.4313,-2.4437 1.6812,0 3.4921,3.4218 3.4921,6.0921 z m -3.6593,-1.6343 c 0.2031,0.764 0.4406,1.7172 0.9187,2.564 0.3219,0.5828 0.7625,1.2516 1.2985,1.2516 0.5843,0 0.6562,-0.7641 0.6562,-1.4422 0,-0.5844 -0.0953,-1.1922 -0.3812,-2.3734 z m 2.3843,-0.3813 c -0.1312,-0.5484 -0.3812,-1.5609 -0.8343,-2.4187 -0.4172,-0.811 -0.8703,-1.3953 -1.3828,-1.3953 -0.3938,0 -0.6438,0.3453 -0.6438,1.4546 0,0.5 0.0719,1.1922 0.3813,2.3594 h 2.4796"
           style="fill:#000000;fill-opacity:1;fill-rule:nonzero;stroke:none"
           id="path104" /></g></g></g></svg>
