<?xml version="1.0" encoding="UTF-8" standalone="no"?>
<!-- Created with Inkscape (http://www.inkscape.org/) -->

<svg
   version="1.1"
   id="svg2"
   xml:space="preserve"
   width="326.66666"
   height="310.66666"
   viewBox="0 0 326.66666 310.66666"
   sodipodi:docname="D_2.pdf"
   xmlns:inkscape="http://www.inkscape.org/namespaces/inkscape"
   xmlns:sodipodi="http://sodipodi.sourceforge.net/DTD/sodipodi-0.dtd"
   xmlns="http://www.w3.org/2000/svg"
   xmlns:svg="http://www.w3.org/2000/svg"><defs
     id="defs6"><clipPath
       clipPathUnits="userSpaceOnUse"
       id="clipPath24"><path
         d="m 0.738,0.252 h 245 v 233 h -245 z"
         id="path22" /></clipPath></defs><sodipodi:namedview
     id="namedview4"
     pagecolor="#ffffff"
     bordercolor="#666666"
     borderopacity="1.0"
     inkscape:pageshadow="2"
     inkscape:pageopacity="0.0"
     inkscape:pagecheckerboard="0" /><g
     id="g8"
     inkscape:groupmode="layer"
     inkscape:label="D_2"
     transform="matrix(1.3333333,0,0,-1.3333333,0,310.66667)"><g
       id="g10" /><g
       id="g12"><g
         id="g14"
         transform="matrix(1e-6,0,0,1e-6,122.5,116.5)"><path
           d="m 0,0 c 60,108 97,116 101,120 4,-4 -69,-5 3,-23 -55,-2 -6,0 11,4 C 54,52 61,34 90,71 88,69 80,76 113,43 102,66 101,116 117,98 54,114 65,97 67,65 49,78 106,111 115,48 65,61 34,62 65,65 c 0,4 33,23 40,34 -7,-13 -25,-1 -7,17 -21,3 -27,-39 -44,5 11,-8 25,-22 24,-17 -12,-16 -5,-33 5,16 1,-14 1,-39 -1,-11 -27,-22 18,-3 -17,-2 13,-42 42,10 52,-38 -48,28 -14,51 -67,38 28,6 61,-8 -1,-57 1,66 30,31 51,65 C 90,57 77,87 53,83 c 33,-31 18,26 2,21 21,-16 48,-29 33,-1 -16,-5 -5,-6 13,6 8,-55 -13,-36 1,-54 -47,63 -59,-3 -59,-5 60,2 39,32 30,33 -1,-27 44,-33 2,35 -26,-9 -20,-18 43,-4 -40,-64 -2,-63 -63,4 -8,-7 24,-46 51,-61 -17,-6 -34,47 -63,17 36,5 44,15 29,5 3,10 48,23 47,28 -38,-34 -46,12 -48,5 -1,-44 12,-29 14,-6 -11,13 22,4 -10,-41 44,24 4,16 -22,14 27,-29 61,-36 -10,-6 77,46 38,28 37,38 37,-56 40,-38 25,-45 -62,39 -8,19 -24,44 -11,-43 -2,2 30,-32 -40,-7 -64,9 -22,11 18,-22 20,-11 -12,18 31,-27 -1,13 2,-32 11,24 33,-1 9,29 -45,-25 -9,-20 23,-2 5,-34 -64,-50 0,-24 -2,-7 3,38 -10,-11 -33,42 4,-16 8,-16 -59,6 -27,-4 -38,38 -3,-21 34,11 51,24 C 81,80 115,107 98,97 121,78 56,118 113,109 70,76 54,52 48,97 c 68,21 65,11 23,6 17,17 0,-3 -1,10 31,-16 18,-26 51,0 -68,-7 -34,-44 -32,-4 -41,6 -33,-30 10,8 -48,-33 -13,-30 -32,3 55,2 10,-50 37,-43 -16,33 0,31 -7,24 -26,2 -27,-28 6,16 -13,-67 -6,-60 15,-1 -39,-67 -8,-10 -11,3 1,-67 -41,-34 -27,-11 6,2 25,-43 31,7 C 73,77 122,104 77,97 68,104 83,66 69,99 100,75 117,47 115,79 55,110 97,100 75,112 49,49 88,52 115,102 88,68 89,57 74,54 56,75 70,119 105,110 122,70 105,87 90,104 74,88 47,98 76,71 c 9,9 -19,37 12,39 -35,9 -2,-24 -41,-28 43,26 60,26 40,-17 33,-14 20,-8 27,46 4,-37 -17,-1 -27,9 33,-71 21,-3 -16,-3 -21,5 8,-48 29,-67 -49,2 -44,1 -20,47 8,20 31,-21 37,17 -67,-44 -15,0 5,-71 -8,60 -47,56 -1,74 C 84,99 110,82 90,48 c -11,3 23,61 -9,74 26,-16 -12,-10 29,-41 -36,-15 2,7 -55,34 31,-4 47,-33 24,-61 -31,13 41,65 -28,47 54,-16 69,12 39,-15 24,32 -39,-4 30,25 -9,11 -48,-34 -21,-59 -31,33 8,55 -22,33 1,-18 -9,-17 34,34 -26,-20 -10,-52 6,-44 -34,14 -63,14 0,12 -50,25 -44,16 -15,-14 11,36 -12,2 -34,4 -1,-4 18,-8 -25,-3 66,-21 6,32 67,15 -25,26 -7,0 -26,-18 -9,46 34,36 19,-4 0,54 -50,-13 -13,7 29,45 -9,9 -47,40 46,-30 30,-29 24,-4 2,-28 -1,5 44,-53 -29,15 -38,52 -3,49 -1,-28 -57,9 -27,-28 4,28 27,-25 -27,-28 45,-2 29,58 20,24 -1,34 46,33 36,-20 -29,23 11,12 -4,57 -2,8 -26,-40 2,-45 C 77,115 50,89 85,121 69,79 90,85 78,81 68,119 68,72 71,69 c 41,19 41,32 37,14 12,19 3,26 -65,30 60,-39 63,-5 14,-16 -6,-27 9,-29 49,-49 -29,74 -37,72 -63,35 73,38 37,18 28,-27 17,52 31,12 -16,27 66,-3 1,31 57,37 -59,-45 -4,-36 -13,-10 17,-8 19,-11 -49,-53 40,49 60,52 28,44 39,-11 -21,-1 -4,12 13,-9 -25,1 46,-56 -7,65 -40,51 -2,-2 C 49,113 71,70 55,90 47,50 76,47 117,51 47,87 102,49 88,43 49,112 55,88 110,116 82,83 71,49 86,48 113,102 74,49 90,108 49,86 55,57 66,47 c -1,70 18,10 33,14 -39,-14 9,36 17,40 4,4 0,-39 -116,-101 z"
           style="fill:none;stroke:#000000;stroke-width:1;stroke-linecap:butt;stroke-linejoin:miter;stroke-miterlimit:10;stroke-dasharray:none;stroke-opacity:0"
           id="path16" /></g></g><g
       id="g18"><g
         id="g20"
         clip-path="url(#clipPath24)"><g
           id="g26"
           transform="matrix(0.1,0,0,0.1,0.738,0.252)"><path
             d="m 1225,1165 v 0 0 0 0 0 0 0 0 0 0 0 0 0 0 0 0 0 0 0 0 0 0 0 0 0 0 0 0 0 0 0 0 0 0 0 0 0 0 0 0 0 0 0 0 0 0 0 0 0 0 0 0 0 0 0 0 0 0 0 0 0 0 0 0 0 0 0 0 0 0 0 0 0 0 0 0 0 0 0 0 0 0 0 0 0 0 0 0 0 0 0 0 0 0 0 0 0 0 0 0 0 0 0 0 0 0 0 0 0 0 0 0 0 0 0 0 0 0 0 0 0 0 0 0 0 0 0 0 0 0 0 0 0 0 0 0 0 0 0 0 0 0 0 0 0 z"
             style="fill:none;stroke:#000000;stroke-width:1e-05;stroke-linecap:butt;stroke-linejoin:miter;stroke-miterlimit:10;stroke-dasharray:none;stroke-opacity:0"
             id="path28" /></g><g
           id="g30"
           transform="matrix(0.1,0,0,0.1,0.738,0.252)"><path
             d="M 228.434,169.836 H 2331.93"
             style="fill:none;stroke:#000000;stroke-width:4.782;stroke-linecap:butt;stroke-linejoin:miter;stroke-miterlimit:10;stroke-dasharray:none;stroke-opacity:1"
             id="path32" /></g><g
           id="g34"
           transform="matrix(0.1,0,0,0.1,0.738,0.252)"><path
             d="m 2317.59,188.961 c 1.2,-7.172 14.34,-17.93 17.93,-19.125 -3.59,-1.195 -16.73,-11.957 -17.93,-19.129"
             style="fill:none;stroke:#000000;stroke-width:3.82548;stroke-linecap:round;stroke-linejoin:round;stroke-miterlimit:10;stroke-dasharray:none;stroke-opacity:1"
             id="path36" /></g><path
           d="m 242.91,15.3192 c 0.131,-0.4891 0.548,-0.7984 1.061,-0.7984 0.417,0 0.692,0.275 0.883,0.6562 0.201,0.4281 0.357,1.1563 0.357,1.1797 0,0.1187 -0.107,0.1187 -0.143,0.1187 -0.119,0 -0.132,-0.0468 -0.167,-0.214 -0.168,-0.6672 -0.394,-1.4781 -0.894,-1.4781 -0.25,0 -0.369,0.1546 -0.369,0.5484 0,0.2625 0.142,0.8219 0.238,1.2391 l 0.334,1.2875 c 0.036,0.1796 0.155,0.6328 0.201,0.8109 0.061,0.2734 0.18,0.7266 0.18,0.7984 0,0.2141 -0.167,0.3219 -0.345,0.3219 -0.061,0 -0.37,-0.0109 -0.466,-0.4172 -0.226,-0.8703 -0.751,-2.9562 -0.894,-3.5875 -0.012,-0.0484 -0.489,-1.0015 -1.359,-1.0015 -0.62,0 -0.739,0.5359 -0.739,0.9781 0,0.6672 0.334,1.6078 0.644,2.4312 0.144,0.3578 0.203,0.525 0.203,0.75 0,0.5375 -0.381,0.9782 -0.978,0.9782 -1.131,0 -1.574,-1.7282 -1.574,-1.836 0,-0.1187 0.121,-0.1187 0.144,-0.1187 0.119,0 0.131,0.0234 0.191,0.214 0.298,1.0375 0.75,1.4782 1.203,1.4782 0.108,0 0.298,-0.011 0.298,-0.3938 0,-0.2859 -0.131,-0.6312 -0.203,-0.8094 -0.44,-1.1812 -0.69,-1.9203 -0.69,-2.5031 0,-1.1328 0.821,-1.4312 1.465,-1.4312 0.788,0 1.216,0.5359 1.419,0.7984"
           style="fill:#000000;fill-opacity:1;fill-rule:nonzero;stroke:none"
           id="path38" /><g
           id="g40"
           transform="matrix(0.1,0,0,0.1,0.738,0.252)"><path
             d="M 296.465,101.805 V 2205.3"
             style="fill:none;stroke:#000000;stroke-width:4.782;stroke-linecap:butt;stroke-linejoin:miter;stroke-miterlimit:10;stroke-dasharray:none;stroke-opacity:1"
             id="path42" /></g><g
           id="g44"
           transform="matrix(0.1,0,0,0.1,0.738,0.252)"><path
             d="m 277.336,2190.96 c 7.172,1.2 17.934,14.34 19.129,17.93 1.195,-3.59 11.953,-16.73 19.129,-17.93"
             style="fill:none;stroke:#000000;stroke-width:3.82548;stroke-linecap:round;stroke-linejoin:round;stroke-miterlimit:10;stroke-dasharray:none;stroke-opacity:1"
             id="path46" /></g><path
           d="m 30.6943,230.321 h 1.1203 c 0.2375,0 0.3578,0 0.3578,0.237 0,0.132 -0.1203,0.132 -0.3344,0.132 h -1.0484 c 0.4281,1.692 0.4875,1.931 0.4875,2.003 0,0.203 -0.1422,0.322 -0.3453,0.322 -0.036,0 -0.3688,-0.013 -0.4766,-0.43 l -0.4656,-1.895 h -1.1203 c -0.2375,0 -0.3579,0 -0.3579,-0.227 0,-0.142 0.0969,-0.142 0.3344,-0.142 h 1.0485 c -0.8579,-3.386 -0.9047,-3.589 -0.9047,-3.803 0,-0.644 0.4531,-1.097 1.0968,-1.097 1.2157,0 1.8954,1.74 1.8954,1.836 0,0.118 -0.0954,0.118 -0.1438,0.118 -0.1078,0 -0.1187,-0.035 -0.1781,-0.167 -0.5141,-1.239 -1.1453,-1.525 -1.55,-1.525 -0.25,0 -0.3703,0.155 -0.3703,0.549 0,0.286 0.025,0.368 0.0718,0.572 l 0.8829,3.517"
           style="fill:#000000;fill-opacity:1;fill-rule:nonzero;stroke:none"
           id="path48" /><g
           id="g50"
           transform="matrix(0.1,0,0,0.1,0.738,0.252)"><path
             d="M 296.465,1530.48 H 1657.11 V 169.836"
             style="fill:none;stroke:#000000;stroke-width:4.782;stroke-linecap:butt;stroke-linejoin:miter;stroke-miterlimit:10;stroke-dasharray:none;stroke-opacity:1"
             id="path52" /></g><path
           d="m 26.063,150.4 c 0,0.072 0,0.204 -0.1547,0.204 -0.1312,0 -0.1312,-0.108 -0.1422,-0.191 -0.0718,-0.847 -0.489,-1.061 -0.7875,-1.061 -0.5843,0 -0.6797,0.608 -0.8453,1.717 l -0.1562,0.953 c -0.2141,0.763 -0.7985,1.157 -1.4532,1.383 1.1563,0.286 2.086,1.013 2.086,1.942 0,1.146 -1.3594,2.147 -3.111,2.147 h -3.7437 v -0.37 h 0.2859 c 0.9188,0 0.9422,-0.131 0.9422,-0.559 v -6.283 c 0,-0.43 -0.0234,-0.56 -0.9422,-0.56 h -0.2859 v -0.37 c 0.4297,0.036 1.275,0.036 1.7406,0.036 0.4641,0 1.311,0 1.7406,-0.036 v 0.37 h -0.2859 c -0.9187,0 -0.9422,0.13 -0.9422,0.56 v 3.015 h 1.3703 c 0.1907,0 0.6922,0 1.1094,-0.404 0.4531,-0.43 0.4531,-0.799 0.4531,-1.597 0,-0.775 0,-1.253 0.4875,-1.705 0.4891,-0.43 1.1453,-0.501 1.5032,-0.501 0.9296,0 1.1312,0.978 1.1312,1.31 z m -2.6812,4.947 c 0,-0.822 -0.286,-1.787 -2.05,-1.787 h -1.3235 v 3.087 c 0,0.274 0,0.418 0.2625,0.453 0.1188,0.024 0.4641,0.024 0.7031,0.024 1.0719,0 2.4079,-0.047 2.4079,-1.777"
           style="fill:#000000;fill-opacity:1;fill-rule:nonzero;stroke:none"
           id="path54" /><path
           d="m 170.763,5.90044 c 0,0.07187 0,0.20312 -0.155,0.20312 -0.131,0 -0.131,-0.10781 -0.142,-0.19062 -0.072,-0.84688 -0.489,-1.06094 -0.787,-1.06094 -0.585,0 -0.68,0.60781 -0.846,1.71719 l -0.156,0.95312 c -0.214,0.7625 -0.798,1.15625 -1.453,1.38282 1.156,0.28593 2.086,1.0125 2.086,1.94217 0,1.1453 -1.359,2.1469 -3.111,2.1469 h -3.744 v -0.3703 h 0.286 c 0.919,0 0.942,-0.1313 0.942,-0.5594 V 5.78169 c 0,-0.42969 -0.023,-0.55938 -0.942,-0.55938 h -0.286 V 4.852 c 0.43,0.03594 1.275,0.03594 1.741,0.03594 0.464,0 1.311,0 1.74,-0.03594 v 0.37031 h -0.285 c -0.919,0 -0.943,0.12969 -0.943,0.55938 v 3.01562 h 1.371 c 0.19,0 0.692,0 1.109,-0.40468 0.453,-0.42969 0.453,-0.79844 0.453,-1.59688 0,-0.775 0,-1.25312 0.488,-1.70469 0.489,-0.42968 1.145,-0.50156 1.503,-0.50156 0.929,0 1.131,0.97813 1.131,1.31094 z m -2.681,4.94686 c 0,-0.82186 -0.286,-1.78749 -2.05,-1.78749 h -1.324 v 3.08749 c 0,0.2735 0,0.4172 0.263,0.4531 0.119,0.0235 0.464,0.0235 0.703,0.0235 1.072,0 2.408,-0.0469 2.408,-1.7766"
           style="fill:#000000;fill-opacity:1;fill-rule:nonzero;stroke:none"
           id="path56" /><path
           d="m 129.233,136.582 c -0.118,-0.464 -0.143,-0.56 -1.084,-0.56 -0.203,0 -0.334,0 -0.334,-0.226 0,-0.144 0.107,-0.144 0.334,-0.144 h 3.945 c 2.48,0 4.828,2.516 4.828,5.127 0,1.679 -1.014,3.015 -2.801,3.015 h -4.005 c -0.226,0 -0.358,0 -0.358,-0.226 0,-0.144 0.107,-0.144 0.346,-0.144 0.154,0 0.368,-0.011 0.512,-0.024 0.191,-0.023 0.263,-0.059 0.263,-0.19 0,-0.049 -0.013,-0.085 -0.049,-0.227 z m 2.575,6.389 c 0.108,0.417 0.132,0.453 0.644,0.453 h 1.275 c 1.169,0 2.158,-0.631 2.158,-2.205 0,-0.584 -0.239,-2.539 -1.252,-3.85 -0.345,-0.442 -1.287,-1.347 -2.753,-1.347 h -1.347 c -0.167,0 -0.19,0 -0.262,0.011 -0.12,0.013 -0.155,0.024 -0.155,0.119 0,0.036 0,0.061 0.06,0.275 l 1.632,6.544"
           style="fill:#000000;fill-opacity:1;fill-rule:nonzero;stroke:none"
           id="path58" /><path
           d="m 40.1208,8.86606 c 0,0.95469 -0.0594,1.90784 -0.4765,2.79064 -0.5485,1.1437 -1.525,1.3344 -2.0266,1.3344 -0.7141,0 -1.5844,-0.3094 -2.0734,-1.4188 -0.3813,-0.8219 -0.4407,-1.75155 -0.4407,-2.70624 0,-0.89375 0.0469,-1.96562 0.536,-2.87187 0.5125,-0.96563 1.3828,-1.20469 1.9672,-1.20469 0.6437,0 1.5484,0.25 2.0734,1.38281 0.3812,0.82344 0.4406,1.75313 0.4406,2.69375 z m -0.989,0.14375 c 0,-0.89375 0,-1.70468 -0.1313,-2.46718 C 38.8224,5.40981 38.1427,5.052 37.6068,5.052 c -0.4657,0 -1.1688,0.29844 -1.3829,1.44219 -0.1312,0.71562 -0.1312,1.8125 -0.1312,2.51562 0,0.7625 0,1.54999 0.0953,2.19379 0.2266,1.4172 1.1203,1.525 1.4188,1.525 0.3921,0 1.1796,-0.2141 1.4062,-1.3938 0.1188,-0.6687 0.1188,-1.57499 0.1188,-2.32499"
           style="fill:#000000;fill-opacity:1;fill-rule:nonzero;stroke:none"
           id="path60" /><g
           id="g62"
           transform="matrix(0.1,0,0,0.1,0.738,0.252)"><path
             d="m 1657.11,169.836 c 0,751.473 -609.17,1360.644 -1360.645,1360.644"
             style="fill:none;stroke:#000000;stroke-width:4.782;stroke-linecap:butt;stroke-linejoin:miter;stroke-miterlimit:10;stroke-dasharray:none;stroke-opacity:1"
             id="path64" /></g><g
           id="g66"
           transform="matrix(0.1,0,0,0.1,0.738,0.252)"><path
             d="m 2220.71,169.836 c 0,1062.744 -861.5,1924.244 -1924.245,1924.244"
             style="fill:none;stroke:#000000;stroke-width:4.782;stroke-linecap:butt;stroke-linejoin:miter;stroke-miterlimit:10;stroke-dasharray:none;stroke-opacity:1"
             id="path68" /></g><path
           d="m 220.402,12.3879 c -0.108,0 -0.203,-0.0593 -0.251,-0.1546 l -5.352,-10.6813 -2.694,4.87656 -1.204,-0.66718 0.131,-0.23907 0.572,0.32188 2.825,-5.101565 c 0,-0.13125 0.107,-0.275 0.275,-0.275 0.095,0 0.19,0.059375 0.239,0.154688 L 220.64,11.9958 c 0.023,0.0343 0.036,0.0703 0.036,0.1187 0,0.1313 -0.119,0.2734 -0.274,0.2734"
           style="fill:#000000;fill-opacity:1;fill-rule:nonzero;stroke:none"
           id="path70" /><g
           id="g72"
           transform="matrix(0.1,0,0,0.1,0.738,0.252)"><path
             d="m 2196.44,119.063 h 59.77"
             style="fill:none;stroke:#000000;stroke-width:5.694;stroke-linecap:butt;stroke-linejoin:miter;stroke-miterlimit:10;stroke-dasharray:none;stroke-opacity:1"
             id="path74" /></g><path
           d="m 221.852,2.86919 1.264,1.22812 c 1.86,1.64532 2.574,2.28907 2.574,3.48125 0,1.35938 -1.072,2.3125 -2.527,2.3125 -1.347,0 -2.23,-1.09687 -2.23,-2.15781 0,-0.66719 0.597,-0.66719 0.633,-0.66719 0.202,0 0.62,0.14219 0.62,0.63125 0,0.31094 -0.215,0.62032 -0.632,0.62032 -0.096,0 -0.119,0 -0.155,-0.0125 0.273,0.775 0.917,1.21562 1.609,1.21562 1.085,0 1.597,-0.96406 1.597,-1.94219 0,-0.95312 -0.595,-1.89531 -1.251,-2.63437 L 221.065,2.39263 C 220.933,2.26138 220.933,2.23794 220.933,1.952 h 4.424 l 0.333,2.07344 h -0.297 C 225.333,3.66919 225.249,3.14419 225.13,2.9645 225.046,2.86919 224.26,2.86919 223.997,2.86919 h -2.145"
           style="fill:#000000;fill-opacity:1;fill-rule:nonzero;stroke:none"
           id="path76" /><path
           d="m 230.808,9.27075 c 0.072,0.28594 0.108,0.40625 0.335,0.44219 0.106,0.01094 0.487,0.01094 0.726,0.01094 0.847,0 2.169,0 2.169,-1.17969 0,-0.40625 -0.191,-1.22813 -0.655,-1.69219 -0.311,-0.31094 -0.942,-0.69219 -2.015,-0.69219 h -1.335 z m 1.716,-3.26562 c 1.205,0.2625 2.623,1.09687 2.623,2.3 0,1.025 -1.073,1.78906 -2.634,1.78906 h -3.397 c -0.239,0 -0.347,0 -0.347,-0.23906 0,-0.13125 0.108,-0.13125 0.335,-0.13125 0.023,0 0.25,0 0.453,-0.02344 0.214,-0.02344 0.322,-0.03594 0.322,-0.19063 0,-0.04843 -0.013,-0.08437 -0.049,-0.22656 l -1.597,-6.40156 c -0.118,-0.46406 -0.143,-0.55938 -1.084,-0.55938 -0.216,0 -0.322,0 -0.322,-0.23906 0,-0.13125 0.142,-0.13125 0.167,-0.13125 0.333,0 1.167,0.03594 1.502,0.03594 0.333,0 1.18,-0.03594 1.514,-0.03594 0.095,0 0.237,0 0.237,0.23906 0,0.13125 -0.106,0.13125 -0.332,0.13125 -0.443,0 -0.775,0 -0.775,0.21407 0,0.07187 0.023,0.13125 0.036,0.20312 l 0.785,3.15781 h 1.419 c 1.085,0 1.3,-0.66718 1.3,-1.08437 0,-0.17813 -0.095,-0.54844 -0.167,-0.82188 -0.084,-0.33437 -0.191,-0.775 -0.191,-1.01406 0,-1.2875 1.43,-1.2875 1.585,-1.2875 1.014,0 1.431,1.20469 1.431,1.37188 0,0.14218 -0.131,0.14218 -0.144,0.14218 -0.106,0 -0.131,-0.08281 -0.154,-0.16718 -0.297,-0.88125 -0.811,-1.08438 -1.085,-1.08438 -0.394,0 -0.476,0.2625 -0.476,0.72656 0,0.37032 0.072,0.97813 0.118,1.35938 0.024,0.16719 0.049,0.39375 0.049,0.56094 0,0.91718 -0.8,1.2875 -1.122,1.40625"
           style="fill:#000000;fill-opacity:1;fill-rule:nonzero;stroke:none"
           id="path78" /><path
           d="m 11.0021,215.288 c -0.1078,0 -0.2032,-0.059 -0.2516,-0.155 l -5.35156,-10.681 -2.69375,4.877 -1.20469,-0.668 0.13125,-0.239 0.57188,0.322 2.825,-5.101 c 0,-0.132 0.10781,-0.275 0.275,-0.275 0.09531,0 0.19062,0.059 0.23906,0.154 l 5.69691,11.374 c 0.0234,0.034 0.0359,0.07 0.0359,0.119 0,0.131 -0.1187,0.273 -0.2734,0.273"
           style="fill:#000000;fill-opacity:1;fill-rule:nonzero;stroke:none"
           id="path80" /><g
           id="g82"
           transform="matrix(0.1,0,0,0.1,0.738,0.252)"><path
             d="m 102.75,2148.31 h 59.77"
             style="fill:none;stroke:#000000;stroke-width:5.694;stroke-linecap:butt;stroke-linejoin:miter;stroke-miterlimit:10;stroke-dasharray:none;stroke-opacity:1"
             id="path84" /></g><path
           d="m 12.5521,205.869 1.264,1.228 c 1.8594,1.646 2.5735,2.289 2.5735,3.482 0,1.359 -1.0719,2.312 -2.5266,2.312 -1.3469,0 -2.2297,-1.097 -2.2297,-2.158 0,-0.667 0.5969,-0.667 0.6328,-0.667 0.2016,0 0.6203,0.142 0.6203,0.631 0,0.311 -0.2156,0.621 -0.6328,0.621 -0.0953,0 -0.1187,0 -0.1547,-0.013 0.2735,0.775 0.9172,1.216 1.6094,1.216 1.0844,0 1.5969,-0.964 1.5969,-1.942 0,-0.954 -0.5953,-1.896 -1.2516,-2.635 l -2.289,-2.551 c -0.1313,-0.132 -0.1313,-0.155 -0.1313,-0.441 h 4.4235 l 0.3328,2.073 h -0.2969 c -0.0594,-0.356 -0.1438,-0.881 -0.2625,-1.06 -0.0844,-0.096 -0.8703,-0.096 -1.1328,-0.096 h -2.1453"
           style="fill:#000000;fill-opacity:1;fill-rule:nonzero;stroke:none"
           id="path86" /><path
           d="m 21.5083,212.271 c 0.0719,0.286 0.1078,0.406 0.3344,0.442 0.1062,0.011 0.4875,0.011 0.7266,0.011 0.8468,0 2.1687,0 2.1687,-1.18 0,-0.406 -0.1906,-1.228 -0.6547,-1.692 -0.3109,-0.311 -0.9422,-0.692 -2.0156,-0.692 h -1.3344 z m 1.7156,-3.266 c 1.2047,0.263 2.6235,1.097 2.6235,2.3 0,1.025 -1.0735,1.789 -2.6344,1.789 h -3.3969 c -0.239,0 -0.3468,0 -0.3468,-0.239 0,-0.131 0.1078,-0.131 0.3343,-0.131 0.0235,0 0.25,0 0.4532,-0.024 0.214,-0.023 0.3218,-0.035 0.3218,-0.19 0,-0.049 -0.0125,-0.085 -0.0484,-0.227 l -1.5969,-6.401 c -0.1187,-0.464 -0.1437,-0.56 -1.0844,-0.56 -0.2156,0 -0.3218,0 -0.3218,-0.239 0,-0.131 0.1422,-0.131 0.1672,-0.131 0.3328,0 1.1671,0.036 1.5015,0.036 0.3328,0 1.1797,-0.036 1.5141,-0.036 0.0953,0 0.2375,0 0.2375,0.239 0,0.131 -0.1063,0.131 -0.3328,0.131 -0.4422,0 -0.775,0 -0.775,0.214 0,0.072 0.0234,0.132 0.0359,0.204 l 0.7859,3.157 h 1.4188 c 1.0844,0 1.3,-0.667 1.3,-1.084 0,-0.178 -0.0953,-0.548 -0.1672,-0.822 -0.0844,-0.334 -0.1906,-0.775 -0.1906,-1.014 0,-1.287 1.4297,-1.287 1.5844,-1.287 1.014,0 1.4312,1.204 1.4312,1.371 0,0.143 -0.1312,0.143 -0.1437,0.143 -0.1063,0 -0.1313,-0.083 -0.1547,-0.168 -0.2969,-0.881 -0.811,-1.084 -1.0844,-1.084 -0.3938,0 -0.4766,0.263 -0.4766,0.727 0,0.37 0.0719,0.978 0.1188,1.359 0.0234,0.167 0.0484,0.394 0.0484,0.561 0,0.917 -0.8,1.287 -1.1219,1.406"
           style="fill:#000000;fill-opacity:1;fill-rule:nonzero;stroke:none"
           id="path88" /><path
           d="m 92.6333,82.9817 c -0.1187,-0.4641 -0.1437,-0.5594 -1.0844,-0.5594 -0.2031,0 -0.3343,0 -0.3343,-0.2265 0,-0.1438 0.1078,-0.1438 0.3343,-0.1438 h 3.9454 c 2.4796,0 4.8281,2.5156 4.8281,5.1266 0,1.6797 -1.0141,3.0156 -2.8016,3.0156 h -4.0047 c -0.2265,0 -0.3578,0 -0.3578,-0.2266 0,-0.1437 0.1063,-0.1437 0.3453,-0.1437 0.1547,0 0.3688,-0.011 0.5125,-0.0235 0.1907,-0.0234 0.2625,-0.0593 0.2625,-0.1906 0,-0.0484 -0.0125,-0.0844 -0.0484,-0.2265 z m 2.575,6.3891 c 0.1078,0.4171 0.1313,0.4531 0.6438,0.4531 h 1.275 c 1.1687,0 2.1578,-0.6313 2.1578,-2.2047 0,-0.5844 -0.2391,-2.5391 -1.2516,-3.85 -0.3453,-0.4422 -1.2875,-1.3469 -2.7531,-1.3469 h -1.3469 c -0.1672,0 -0.1906,0 -0.2625,0.011 -0.1203,0.0125 -0.1547,0.0234 -0.1547,0.1187 0,0.0359 0,0.0609 0.0594,0.275 l 1.6328,6.5438"
           style="fill:#000000;fill-opacity:1;fill-rule:nonzero;stroke:none"
           id="path90" /><path
           d="m 103.454,85.5973 c 0,0.2281 -0.018,0.236 -0.252,0.236 -0.539,-0.5297 -1.303,-0.5375 -1.648,-0.5375 v -0.3032 c 0.201,0 0.757,0 1.218,0.236 v -4.2875 c 0,-0.2766 0,-0.386 -0.84,-0.386 h -0.319 V 80.252 c 0.152,0.0078 1.186,0.0344 1.497,0.0344 0.259,0 1.319,-0.0266 1.503,-0.0344 v 0.3031 h -0.319 c -0.84,0 -0.84,0.1094 -0.84,0.386 v 4.6562"
           style="fill:#000000;fill-opacity:1;fill-rule:nonzero;stroke:none"
           id="path92" /><path
           d="m 92.6333,168.082 c -0.1187,-0.464 -0.1437,-0.56 -1.0844,-0.56 -0.2031,0 -0.3343,0 -0.3343,-0.226 0,-0.144 0.1078,-0.144 0.3343,-0.144 h 3.9454 c 2.4796,0 4.8281,2.516 4.8281,5.127 0,1.679 -1.0141,3.015 -2.8016,3.015 h -4.0047 c -0.2265,0 -0.3578,0 -0.3578,-0.226 0,-0.144 0.1063,-0.144 0.3453,-0.144 0.1547,0 0.3688,-0.011 0.5125,-0.024 0.1907,-0.023 0.2625,-0.059 0.2625,-0.19 0,-0.049 -0.0125,-0.085 -0.0484,-0.227 z m 2.575,6.389 c 0.1078,0.417 0.1313,0.453 0.6438,0.453 h 1.275 c 1.1687,0 2.1578,-0.631 2.1578,-2.205 0,-0.584 -0.2391,-2.539 -1.2516,-3.85 -0.3453,-0.442 -1.2875,-1.347 -2.7531,-1.347 h -1.3469 c -0.1672,0 -0.1906,0 -0.2625,0.011 -0.1203,0.013 -0.1547,0.024 -0.1547,0.119 0,0.036 0,0.061 0.0594,0.275 l 1.6328,6.544"
           style="fill:#000000;fill-opacity:1;fill-rule:nonzero;stroke:none"
           id="path94" /><path
           d="m 104.883,166.882 h -0.286 c -0.025,-0.185 -0.109,-0.682 -0.218,-0.764 -0.068,-0.052 -0.714,-0.052 -0.833,-0.052 h -1.547 c 0.883,0.783 1.178,1.017 1.681,1.413 0.622,0.495 1.203,1.017 1.203,1.815 0,1.017 -0.892,1.639 -1.967,1.639 -1.042,0 -1.748,-0.731 -1.748,-1.504 0,-0.429 0.361,-0.471 0.445,-0.471 0.202,0 0.445,0.142 0.445,0.446 0,0.151 -0.059,0.445 -0.495,0.445 0.261,0.597 0.831,0.781 1.227,0.781 0.84,0 1.278,-0.655 1.278,-1.336 0,-0.731 -0.522,-1.311 -0.791,-1.614 l -2.025,-2 c -0.084,-0.076 -0.084,-0.092 -0.084,-0.328 h 3.462 l 0.253,1.53"
           style="fill:#000000;fill-opacity:1;fill-rule:nonzero;stroke:none"
           id="path96" /><g
           id="g98"
           transform="matrix(0.1,0,0,0.1,0.738,0.252)"><path
             d="M 296.465,169.836 2332.52,1187.86"
             style="fill:none;stroke:#000000;stroke-width:4.782;stroke-linecap:butt;stroke-linejoin:miter;stroke-miterlimit:10;stroke-dasharray:none;stroke-opacity:1"
             id="path100" /></g><g
           id="g102"
           transform="matrix(0.1,0,0,0.1,0.738,0.252)"><path
             d="m 2311.13,1198.55 c 4.28,-5.88 20.85,-9.62 24.59,-9.09 -2.67,-2.67 -9.62,-18.17 -7.48,-25.12"
             style="fill:none;stroke:#000000;stroke-width:3.82518;stroke-linecap:round;stroke-linejoin:round;stroke-miterlimit:10;stroke-dasharray:none;stroke-opacity:1"
             id="path104" /></g><g
           id="g106"
           transform="matrix(0.1,0,0,0.1,0.738,0.252)"><path
             d="m 466.543,169.836 c 0,25.832 -5.891,51.34 -17.211,74.555"
             style="fill:none;stroke:#000000;stroke-width:4.782;stroke-linecap:butt;stroke-linejoin:miter;stroke-miterlimit:10;stroke-dasharray:none;stroke-opacity:1"
             id="path108" /></g><path
           d="m 56.6614,24.5129 c 0,0.786 -0.214,2.4438 -1.4296,2.4438 -1.6579,0 -3.4938,-3.3625 -3.4938,-6.0922 0,-1.1203 0.3469,-2.4437 1.4313,-2.4437 1.6812,0 3.4921,3.4218 3.4921,6.0921 z m -3.6593,-1.6343 c 0.2031,0.764 0.4406,1.7172 0.9187,2.564 0.3219,0.5828 0.7625,1.2516 1.2985,1.2516 0.5843,0 0.6562,-0.7641 0.6562,-1.4422 0,-0.5844 -0.0953,-1.1922 -0.3812,-2.3734 z m 2.3843,-0.3813 c -0.1312,-0.5484 -0.3812,-1.5609 -0.8343,-2.4187 -0.4172,-0.811 -0.8703,-1.3953 -1.3828,-1.3953 -0.3938,0 -0.6438,0.3453 -0.6438,1.4546 0,0.5 0.0719,1.1922 0.3813,2.3594 h 2.4796"
           style="fill:#000000;fill-opacity:1;fill-rule:nonzero;stroke:none"
           id="path110" /></g></g></g></svg>
