<?xml version="1.0" encoding="utf-8"?>
<!-- Generator: Adobe Illustrator 25.2.0, SVG Export Plug-In . SVG Version: 6.00 Build 0)  -->
<svg version="1.1" id="Layer_1" xmlns="http://www.w3.org/2000/svg" xmlns:xlink="http://www.w3.org/1999/xlink" x="0px" y="0px"
	 viewBox="0 0 274.15182 153.95863" style="enable-background:new 0 0 274.15182 153.95863;" xml:space="preserve">
<style type="text/css">
	.st0{clip-path:url(#SVGID_2_);}
	.st1{opacity:0.8;clip-path:url(#SVGID_4_);}
	.st2{clip-path:url(#SVGID_6_);fill:#C0D5C7;}
	.st3{clip-path:url(#SVGID_4_);fill:none;stroke:#FFFFFF;}
	.st4{clip-path:url(#SVGID_8_);fill:none;stroke:#006639;stroke-width:0.36;stroke-linejoin:round;}
	.st5{clip-path:url(#SVGID_2_);fill:none;stroke:#000000;stroke-width:0.5;stroke-miterlimit:3.864;}
	.st6{clip-path:url(#SVGID_2_);fill:none;stroke:#000000;stroke-linejoin:round;}
	.st7{clip-path:url(#SVGID_2_);fill:none;stroke:#005B7F;stroke-miterlimit:3.864;}
	.st8{clip-path:url(#SVGID_10_);fill:#005B7F;}
	.st9{opacity:0;fill:none;stroke:#000000;stroke-width:1.000000e-06;stroke-miterlimit:10;}
	.st10{opacity:0;clip-path:url(#SVGID_12_);fill:none;stroke:#000000;stroke-width:9.999999e-07;stroke-miterlimit:10;}
	.st11{clip-path:url(#SVGID_12_);}
	.st12{opacity:0;clip-path:url(#SVGID_14_);fill:none;stroke:#000000;stroke-width:9.999999e-07;stroke-miterlimit:10;}
	.st13{clip-path:url(#SVGID_14_);}
	.st14{opacity:0;clip-path:url(#SVGID_16_);fill:none;stroke:#000000;stroke-width:9.999999e-07;stroke-miterlimit:10;}
	.st15{clip-path:url(#SVGID_16_);}
	.st16{opacity:0;clip-path:url(#SVGID_18_);fill:none;stroke:#000000;stroke-width:9.999999e-07;stroke-miterlimit:10;}
	.st17{clip-path:url(#SVGID_18_);}
	.st18{fill:#005B7F;}
	.st19{opacity:0;clip-path:url(#SVGID_20_);fill:none;stroke:#000000;stroke-width:9.999999e-07;stroke-miterlimit:10;}
	.st20{clip-path:url(#SVGID_20_);}
	.st21{opacity:0;clip-path:url(#SVGID_22_);fill:none;stroke:#000000;stroke-width:9.999999e-07;stroke-miterlimit:10;}
	.st22{clip-path:url(#SVGID_22_);}
	.st23{opacity:0;clip-path:url(#SVGID_24_);fill:none;stroke:#000000;stroke-width:9.999999e-07;stroke-miterlimit:10;}
	.st24{clip-path:url(#SVGID_24_);}
	.st25{opacity:0;clip-path:url(#SVGID_26_);fill:none;stroke:#000000;stroke-width:9.999999e-07;stroke-miterlimit:10;}
	.st26{clip-path:url(#SVGID_26_);}
</style>
<g>
	<g>
		<defs>
			<rect id="SVGID_1_" width="274.15176" height="153.95863"/>
		</defs>
		<clipPath id="SVGID_2_">
			<use xlink:href="#SVGID_1_"  style="overflow:visible;"/>
		</clipPath>
		<g class="st0">
			<defs>
				<rect id="SVGID_3_" width="274.15182" height="153.95863"/>
			</defs>
			<clipPath id="SVGID_4_">
				<use xlink:href="#SVGID_3_"  style="overflow:visible;"/>
			</clipPath>
			<g class="st1">
				<g>
					<defs>
						<rect id="SVGID_5_" x="0.34412" y="29.63811" width="273.46387" height="123.97733"/>
					</defs>
					<clipPath id="SVGID_6_">
						<use xlink:href="#SVGID_5_"  style="overflow:visible;"/>
					</clipPath>
					<polygon class="st2" points="75.95101,29.63852 273.80914,87.77648 198.19928,153.61523 0.34494,95.47917 					"/>
				</g>
			</g>
			<polyline class="st3" points="272.66016,87.52914 197.90779,152.63066 1.35031,94.87661 			"/>
			<g class="st1">
				<g>
					<defs>
						<rect id="SVGID_7_" y="29.30772" width="274.15182" height="124.65091"/>
					</defs>
					<clipPath id="SVGID_8_">
						<use xlink:href="#SVGID_7_"  style="overflow:visible;"/>
					</clipPath>
					<polyline class="st4" points="75.95101,29.63852 273.80914,87.77648 198.19928,153.61523 0.34494,95.47917 75.95101,29.63852 
											"/>
				</g>
			</g>
		</g>
		<polyline class="st5" points="154.89928,99.4755 154.89928,88.54694 145.12236,81.4726 		"/>
		<polyline class="st6" points="145.12219,22.00916 55.28719,65.79979 145.12219,92.39925 		"/>
		<polygon class="st7" points="199.42807,131.59174 145.12143,92.39828 145.12143,22.01009 		"/>
		<g class="st0">
			<defs>
				<rect id="SVGID_9_" width="274.15182" height="153.95863"/>
			</defs>
			<clipPath id="SVGID_10_">
				<use xlink:href="#SVGID_9_"  style="overflow:visible;"/>
			</clipPath>
			<path class="st8" d="M196.83061,131.59346c0-1.44008,1.1631-2.5994,2.59938-2.5994c1.43623,0,2.6013,1.15932,2.6013,2.5994
				c0,1.43628-1.16507,2.5956-2.6013,2.5956C197.99371,134.18906,196.83061,133.02974,196.83061,131.59346"/>
			<path class="st8" d="M196.83061,131.59346h0.38194c0-1.22998,0.99313-2.21741,2.21744-2.21741
				c1.22617,0,2.21738,0.98743,2.21738,2.21741c-0.00186,1.2262-0.99121,2.21361-2.21738,2.21361
				c-1.2243,0-2.21552-0.98741-2.21744-2.21361H196.83061h-0.38202c0,1.64638,1.33505,2.97568,2.9814,2.97949
				c1.64827-0.00381,2.98326-1.33311,2.98326-2.97949c-0.00378-1.65018-1.33499-2.97948-2.98326-2.98329
				c-1.64635,0.00381-2.97754,1.33311-2.9814,2.98329H196.83061z"/>
			<path class="st8" d="M142.52391,22.01184c0-1.44008,1.16316-2.60131,2.59944-2.60131c1.43623,0,2.60132,1.16123,2.60132,2.60131
				c0,1.43436-1.16508,2.59557-2.60132,2.59557C143.68707,24.60741,142.52391,23.44621,142.52391,22.01184"/>
			<path class="st8" d="M142.52391,22.01184h0.382c0-1.23001,0.99313-2.21933,2.21744-2.21933
				c1.22617,0,2.21738,0.98932,2.21738,2.21933c-0.00192,1.22235-0.99121,2.21167-2.21738,2.21359
				c-1.2243-0.00192-2.21552-0.99124-2.21744-2.21359H142.52391h-0.38194c0,1.64635,1.33504,2.97755,2.98138,2.97947
				c1.64822-0.00192,2.98326-1.33312,2.98326-2.97947c-0.00378-1.6502-1.33504-2.98139-2.98326-2.98332
				c-1.64635,0.00192-2.9776,1.33312-2.98138,2.98332H142.52391z"/>
			<path class="st8" d="M142.52391,92.40096c0-1.44008,1.16316-2.60131,2.59944-2.60131c1.43623,0,2.60132,1.16123,2.60132,2.60131
				c0,1.43436-1.16508,2.5956-2.60132,2.5956C143.68707,94.99656,142.52391,93.83533,142.52391,92.40096"/>
			<path class="st8" d="M142.52391,92.40096h0.382c0-1.22998,0.99313-2.21933,2.21744-2.21933
				c1.22617,0,2.21738,0.98935,2.21738,2.21933c-0.00192,1.22427-0.99121,2.21169-2.21738,2.21359
				c-1.2243-0.0019-2.21552-0.98932-2.21744-2.21359H142.52391h-0.38194c0,1.64442,1.33504,2.97947,2.98138,2.97947
				c1.64822,0,2.98326-1.33504,2.98326-2.97947c-0.00378-1.65017-1.33504-2.98139-2.98326-2.98329
				c-1.64635,0.0019-2.9776,1.33312-2.98138,2.98329H142.52391z"/>
		</g>
	</g>
	<polygon class="st9" points="217.82198,23.67002 217.82207,23.6699 217.82208,23.66993 217.82208,23.66992 217.82205,23.66994 
		217.82207,23.66995 217.82208,23.66992 217.82202,23.66997 217.82208,23.66991 217.82204,23.66996 217.82208,23.66992 
		217.82205,23.66991 217.82202,23.6699 217.82202,23.66991 217.82208,23.6699 217.82205,23.66992 217.82207,23.6699 
		217.82208,23.66994 217.82204,23.66994 217.82204,23.66995 217.82202,23.6699 217.82205,23.66991 217.82202,23.66996 
		217.8221,23.66992 217.82207,23.66997 217.82202,23.66991 217.8221,23.66991 217.82202,23.66991 217.82207,23.66994 
		217.82208,23.66995 217.82204,23.66993 217.82208,23.66992 217.82208,23.66997 217.82204,23.66997 217.82205,23.66992 
		217.82202,23.66994 217.82205,23.66994 217.82205,23.66998 217.82205,23.66995 217.82207,23.6699 217.82208,23.66995 
		217.82208,23.66995 217.82204,23.66994 217.82205,23.66991 217.82207,23.6699 217.82208,23.66995 217.82207,23.66991 
		217.82205,23.66994 217.82207,23.66992 217.82202,23.66995 217.82204,23.66993 217.82207,23.66992 217.82204,23.66997 
		217.82204,23.66995 217.82208,23.66994 217.82202,23.66995 217.82202,23.6699 217.82207,23.66992 217.82208,23.66992 
		217.82207,23.66992 217.82205,23.66995 217.82202,23.66992 217.82205,23.66991 217.82208,23.66995 217.82208,23.66998 
		217.82205,23.66994 217.82202,23.66994 217.82207,23.66997 217.82207,23.66994 217.82205,23.66993 217.82207,23.6699 
		217.82205,23.66991 217.8221,23.66993 217.82205,23.66995 217.82207,23.66997 217.82202,23.66995 217.82208,23.66991 
		217.8221,23.66994 217.82205,23.66997 217.82205,23.66995 217.82202,23.66992 217.82207,23.66998 217.82204,23.66998 
		217.82208,23.66995 217.82208,23.6699 217.82202,23.6699 217.82204,23.66996 217.82208,23.66992 	"/>
	<g>
		<defs>
			<rect id="SVGID_11_" x="143.01198" y="2.18002" width="10" height="14"/>
		</defs>
		<clipPath id="SVGID_12_">
			<use xlink:href="#SVGID_11_"  style="overflow:visible;"/>
		</clipPath>
		<path class="st10" d="M148.01198,9.68002L148.01198,9.68002z"/>
		<path class="st11" d="M150.95416,4.16912c-0.20938,0.1937-0.70312,0.614-0.70312,0.8828c0,0.15,0.14999,0.3,0.29843,0.3
			c0.13594,0,0.21094-0.1047,0.28595-0.1953c0.17969-0.2235,0.52344-0.6438,1.1828-0.9735
			c0.10469-0.0594,0.2547-0.1344,0.2547-0.314c0-0.15-0.10469-0.225-0.20938-0.3c-0.32968-0.2235-0.49532-0.4938-0.61406-0.8532
			c-0.03125-0.1343-0.09062-0.3297-0.3-0.3297c-0.20937,0-0.3,0.1954-0.3,0.3141c0,0.075,0.12032,0.5547,0.35938,0.8688h-5.04688
			c-0.25468,0-0.52344,0-0.52344,0.3c0,0.3,0.26875,0.3,0.52344,0.3H150.95416"/>
		<path class="st11" d="M150.2901,7.37377c0.06093-0.20935,0.06093-0.23905,0.06093-0.34375c0-0.2703-0.20937-0.4047-0.43437-0.4047
			c-0.14999,0-0.38905,0.0891-0.52499,0.3141c-0.02969,0.075-0.14999,0.53904-0.20938,0.80935
			c-0.10468,0.38906-0.20937,0.79375-0.3,1.19687l-0.67343,2.69688c-0.05937,0.225-0.70312,1.27344-1.69218,1.27344
			c-0.76407,0-0.92813-0.65938-0.92813-1.21407c0-0.68906,0.25468-1.61718,0.76407-2.93593
			c0.23906-0.61407,0.29843-0.77813,0.29843-1.07813c0-0.67341-0.47968-1.22811-1.22812-1.22811
			c-1.42188,0-1.97656,2.17186-1.97656,2.30624c0,0.15,0.14999,0.15,0.17969,0.15c0.14999,0,0.16406-0.02969,0.23906-0.26875
			c0.40468-1.40782,1.00468-1.85779,1.5125-1.85779c0.12032,0,0.375,0,0.375,0.47966c0,0.375-0.14999,0.76406-0.25468,1.04844
			c-0.59843,1.5875-0.86874,2.44062-0.86874,3.14531c0,1.33281,0.94374,1.78125,1.82811,1.78125
			c0.58282,0,1.09219-0.25469,1.51251-0.67344c-0.19531,0.77969-0.375,1.5125-0.97343,2.30625
			c-0.39062,0.50938-0.95938,0.94375-1.64844,0.94375c-0.20938,0-0.88281-0.04531-1.1375-0.62812
			c0.23906,0,0.43436,0,0.64374-0.18125c0.15001-0.13438,0.3-0.32813,0.3-0.6125c0-0.46563-0.40469-0.525-0.55469-0.525
			c-0.34375,0-0.83907,0.23906-0.83907,0.97344c0,0.74843,0.65938,1.30312,1.58751,1.30312
			c1.54375,0,3.08594-1.3625,3.50468-3.05469L150.2901,7.37377"/>
	</g>
	<polygon class="st9" points="47.84229,65.57549 47.8424,65.57536 47.8424,65.57539 47.84241,65.57539 47.84238,65.57538 
		47.84237,65.5754 47.8424,65.57538 47.84234,65.57541 47.84241,65.5754 47.84236,65.57542 47.8424,65.57539 47.84238,65.57538 
		47.84235,65.57538 47.84234,65.57539 47.84237,65.57539 47.84239,65.5754 47.84237,65.57542 47.8424,65.57542 47.84235,65.57541 
		47.84238,65.57543 47.84235,65.57542 47.84239,65.57544 47.84236,65.57541 47.84239,65.57538 47.84236,65.57538 47.84239,65.57536 
		47.84237,65.57543 47.84238,65.57543 47.84237,65.57537 47.84235,65.57541 47.8424,65.57537 47.84239,65.57541 47.84238,65.57539 
		47.84236,65.57537 47.8424,65.57543 47.84238,65.57537 47.84237,65.57542 47.8424,65.57544 47.84241,65.57541 47.84241,65.57538 
		47.84234,65.57541 47.8424,65.57539 47.84237,65.57536 47.84238,65.57543 47.84235,65.57542 47.8424,65.57536 47.84238,65.57541 
		47.84241,65.57541 47.84237,65.57542 47.84235,65.57541 47.84238,65.57542 47.84238,65.57538 47.84236,65.57543 47.84238,65.57536 
		47.84241,65.5754 47.84241,65.57541 47.84238,65.57541 47.8424,65.57541 47.84236,65.57537 47.84237,65.5754 47.8424,65.57537 
		47.8424,65.57542 47.84235,65.57543 47.84241,65.57543 47.84239,65.5754 47.8424,65.57543 47.84235,65.5754 47.84241,65.57537 
		47.8424,65.57541 47.84237,65.57537 47.84237,65.57542 47.84238,65.57538 47.84241,65.57541 47.84237,65.57538 47.84241,65.57537 
		47.84238,65.57543 47.84235,65.57541 47.84239,65.57542 47.84236,65.5754 47.84239,65.57539 47.84239,65.57543 47.84234,65.57539 
		47.84241,65.5754 47.84237,65.57542 47.84237,65.57539 47.84236,65.57543 47.8424,65.57539 47.84241,65.57542 	"/>
	<g>
		<defs>
			<rect id="SVGID_13_" x="43.8783" y="58.07549" width="8" height="15"/>
		</defs>
		<clipPath id="SVGID_14_">
			<use xlink:href="#SVGID_13_"  style="overflow:visible;"/>
		</clipPath>
		<path class="st12" d="M47.87829,65.57549L47.87829,65.57549z"/>
		<path class="st13" d="M50.32048,60.66459c-0.20938,0.1937-0.70313,0.614-0.70313,0.8828c0,0.15,0.15,0.3,0.29844,0.3
			c0.13594,0,0.21094-0.1047,0.28594-0.1953c0.17969-0.2235,0.52344-0.6438,1.18281-0.9735
			c0.10469-0.0594,0.25469-0.1344,0.25469-0.314c0-0.15-0.10469-0.225-0.20938-0.3c-0.32968-0.2235-0.49531-0.4938-0.61406-0.8532
			c-0.03125-0.1343-0.09062-0.3297-0.3-0.3297c-0.20937,0-0.3,0.1954-0.3,0.3141c0,0.075,0.12031,0.5547,0.35938,0.8688h-5.04688
			c-0.25469,0-0.52344,0-0.52344,0.3c0,0.3,0.26875,0.3,0.52344,0.3H50.32048"/>
		<path class="st13" d="M47.10798,72.77548c-0.58438,0-1.46875-0.375-1.7375-1.8125
			c-0.16563-0.89844-0.16563-2.27656-0.16563-3.15938c0-0.95937,0-1.94687,0.12032-2.75625
			c0.28437-1.78281,1.40781-1.91718,1.78281-1.91718c0.49375,0,1.48281,0.27031,1.76719,1.75312
			c0.15,0.8375,0.15,1.97656,0.15,2.92031c0,1.12344,0,2.14063-0.16563,3.1C48.63454,72.32549,47.78143,72.77548,47.10798,72.77548
			 M50.26735,67.98329c0-1.19844-0.075-2.39687-0.59843-3.50468c-0.68907-1.43752-1.91719-1.67812-2.54688-1.67812
			c-0.89844,0-1.99219,0.38906-2.60625,1.78281c-0.47812,1.03281-0.55312,2.20156-0.55312,3.4
			c0,1.12344,0.05938,2.47031,0.67344,3.60938c0.64375,1.21249,1.7375,1.5125,2.47187,1.5125
			c0.80781,0,1.94687-0.31406,2.60625-1.7375C50.19235,70.33485,50.26735,69.16611,50.26735,67.98329z"/>
	</g>
	<polygon class="st9" points="139.61702,105.2394 139.61713,105.23929 139.61713,105.23931 139.61714,105.2393 139.61711,105.23929 
		139.61708,105.2393 139.6171,105.23931 139.61713,105.2393 139.61711,105.2393 139.6171,105.23934 139.61713,105.23931 
		139.61711,105.23929 139.61711,105.23933 139.61713,105.23933 139.61714,105.23933 139.6171,105.23934 139.6171,105.23932 
		139.61708,105.2393 139.61713,105.23932 139.61708,105.23935 139.61714,105.23934 139.6171,105.23935 139.61713,105.23933 
		139.61714,105.23933 139.61711,105.2393 139.61713,105.23936 139.6171,105.2393 139.61714,105.23936 139.61707,105.23932 
		139.61711,105.23936 139.61711,105.23933 139.6171,105.23933 139.6171,105.23932 139.6171,105.23932 139.61714,105.23934 
		139.61714,105.23933 139.6171,105.23933 139.61713,105.23935 139.6171,105.23933 139.61708,105.23934 139.61711,105.23934 
		139.61713,105.23932 139.61714,105.23933 139.61711,105.23933 139.61714,105.23932 139.6171,105.23936 139.61713,105.2393 
		139.61707,105.23929 139.6171,105.2393 139.61711,105.23936 139.61714,105.23933 139.61711,105.23933 139.61714,105.23933 
		139.61713,105.23933 139.61714,105.23933 139.61708,105.2393 139.61713,105.23936 139.6171,105.23936 139.61713,105.23935 
		139.6171,105.2393 139.61713,105.23933 139.6171,105.2393 139.61714,105.23933 139.61714,105.2393 139.61711,105.23935 
		139.61714,105.23933 139.6171,105.2393 139.6171,105.23933 139.61713,105.23931 139.6171,105.23932 139.6171,105.23934 
		139.61711,105.23934 139.6171,105.23929 139.61711,105.23929 139.61711,105.23933 139.61714,105.23936 139.61713,105.23932 
		139.61714,105.23929 139.6171,105.23929 139.61711,105.23933 139.6171,105.23931 139.61708,105.23933 139.61714,105.23936 
		139.6171,105.23935 139.61714,105.23933 139.61713,105.23934 139.61708,105.23933 139.61708,105.23936 139.61714,105.2393 	"/>
	<g>
		<defs>
			<rect id="SVGID_15_" x="134.99503" y="95.7494" width="10" height="18"/>
		</defs>
		<clipPath id="SVGID_16_">
			<use xlink:href="#SVGID_15_"  style="overflow:visible;"/>
		</clipPath>
		<path class="st14" d="M139.99503,105.2494L139.99503,105.2494z"/>
		<polyline class="st15" points="139.73877,96.0556 137.73253,98.09161 138.00128,98.36191 139.73877,96.83381 141.46222,98.36191 
			141.73097,98.09161 139.73877,96.0556 		"/>
		<path class="st15" d="M142.93721,101.7385c-0.20938,0.1937-0.70312,0.61401-0.70312,0.8828c0,0.15,0.14999,0.3,0.29845,0.3
			c0.13594,0,0.21094-0.1047,0.28593-0.1953c0.17969-0.2235,0.52344-0.6438,1.18282-0.9735
			c0.10469-0.05939,0.25468-0.1344,0.25468-0.314c0-0.15-0.10469-0.225-0.20938-0.3c-0.32968-0.2235-0.49532-0.4938-0.61406-0.8532
			c-0.03125-0.1343-0.09062-0.3297-0.3-0.3297c-0.20937,0-0.3,0.1954-0.3,0.3141c0,0.075,0.12032,0.5547,0.35939,0.8688h-5.04689
			c-0.25468,0-0.52344,0-0.52344,0.3c0,0.3,0.26875,0.3,0.52344,0.3H142.93721"/>
		<path class="st15" d="M142.27316,104.94315c0.06093-0.20935,0.06093-0.23904,0.06093-0.34375
			c0-0.27029-0.20938-0.40469-0.43437-0.40469c-0.15001,0-0.38907,0.0891-0.52501,0.31409
			c-0.02968,0.075-0.14999,0.53904-0.20938,0.80935c-0.10468,0.38906-0.20937,0.79375-0.29999,1.19688l-0.67343,2.69688
			c-0.05939,0.225-0.70314,1.27344-1.6922,1.27344c-0.76405,0-0.92813-0.65938-0.92813-1.21407
			c0-0.68906,0.2547-1.61718,0.76408-2.93594c0.23906-0.61407,0.29842-0.77813,0.29842-1.07812
			c0-0.67341-0.47968-1.22811-1.22812-1.22811c-1.42188,0-1.97656,2.17186-1.97656,2.30624c0,0.15,0.15001,0.15,0.17969,0.15
			c0.15001,0,0.16406-0.02969,0.23906-0.26875c0.40469-1.40782,1.00468-1.8578,1.51251-1.8578c0.12032,0,0.375,0,0.375,0.47966
			c0,0.375-0.14999,0.76406-0.25468,1.04845c-0.59845,1.58749-0.86876,2.44062-0.86876,3.14531
			c0,1.33281,0.94376,1.78125,1.82812,1.78125c0.58282,0,1.09219-0.25469,1.5125-0.67344
			c-0.19531,0.77969-0.375,1.5125-0.97343,2.30624c-0.39062,0.50938-0.95938,0.94376-1.64844,0.94376
			c-0.20938,0-0.88281-0.04531-1.1375-0.62812c0.23906,0,0.43437,0,0.64375-0.18125c0.14999-0.13438,0.3-0.32813,0.3-0.6125
			c0-0.46563-0.40469-0.525-0.5547-0.525c-0.34375,0-0.83905,0.23906-0.83905,0.97344c0,0.74843,0.65936,1.30312,1.58749,1.30312
			c1.54375,0,3.08594-1.3625,3.5047-3.0547L142.27316,104.94315"/>
	</g>
	<polygon class="st9" points="139.61702,127.37984 139.61713,127.37972 139.61713,127.37975 139.61714,127.37974 
		139.6171,127.37979 139.61714,127.37973 139.6171,127.37975 139.61714,127.37974 139.6171,127.37977 139.6171,127.37978 
		139.61713,127.37974 139.61711,127.37974 139.61708,127.37973 139.61708,127.37975 139.6171,127.37974 139.61713,127.37975 
		139.6171,127.37978 139.61713,127.37977 139.61708,127.37976 139.61711,127.37978 139.61708,127.37978 139.61713,127.3798 
		139.6171,127.37976 139.61713,127.37974 139.6171,127.37974 139.61713,127.37972 139.6171,127.37979 139.61711,127.37979 
		139.6171,127.37972 139.61708,127.37976 139.61713,127.37972 139.61713,127.37977 139.61711,127.37975 139.6171,127.37973 
		139.61713,127.37979 139.61711,127.37973 139.6171,127.37978 139.61714,127.37979 139.61714,127.37976 139.61714,127.37974 
		139.61708,127.37976 139.61713,127.37975 139.6171,127.37972 139.61713,127.37972 139.61708,127.37978 139.6171,127.37979 
		139.61714,127.37975 139.61714,127.37977 139.6171,127.37977 139.61714,127.37975 139.61714,127.37976 139.61714,127.37975 
		139.6171,127.37972 139.61714,127.37973 139.61711,127.37974 139.61713,127.37977 139.61713,127.37975 139.6171,127.37975 
		139.6171,127.37975 139.61711,127.37973 139.6171,127.37975 139.61708,127.37975 139.61708,127.37979 139.61711,127.37973 
		139.61708,127.37974 139.6171,127.37974 139.61708,127.37973 139.61711,127.37978 139.61708,127.37976 139.61713,127.37977 
		139.6171,127.37977 139.61714,127.37976 139.61711,127.37975 139.61711,127.37974 139.61713,127.37975 139.61714,127.37979 
		139.61708,127.37975 139.61708,127.37978 139.6171,127.37973 139.61708,127.37972 139.61707,127.37972 139.61714,127.37979 
		139.61713,127.37974 139.61711,127.37973 139.61711,127.37979 139.6171,127.37978 139.61713,127.37975 139.61714,127.37978 	"/>
	<g>
		<defs>
			<rect id="SVGID_17_" x="193.44006" y="137.8604" width="9" height="11"/>
		</defs>
		<clipPath id="SVGID_18_">
			<use xlink:href="#SVGID_17_"  style="overflow:visible;"/>
		</clipPath>
		<path class="st16" d="M197.94006,143.3604L197.94006,143.3604z"/>
		<path class="st17" d="M200.88225,139.74945c-0.20938,0.19376-0.70312,0.61406-0.70312,0.88281c0,0.15001,0.14999,0.3,0.29845,0.3
			c0.13594,0,0.21094-0.10468,0.28593-0.19531c0.17969-0.22343,0.52344-0.64375,1.18282-0.97343
			c0.10469-0.05937,0.25468-0.13437,0.25468-0.31406c0-0.15001-0.10469-0.22501-0.20938-0.3
			c-0.32968-0.22345-0.49532-0.49376-0.61406-0.85316c-0.03125-0.13429-0.09062-0.3297-0.3-0.3297c-0.20937,0-0.3,0.1954-0.3,0.3141
			c0,0.075,0.12032,0.5547,0.35939,0.86876h-5.04689c-0.25468,0-0.52344,0-0.52344,0.3c0,0.29999,0.26875,0.29999,0.52344,0.29999
			H200.88225"/>
		<path class="st17" d="M200.44945,143.08852c0-0.80782-0.38907-1.04843-0.65938-1.04843
			c-0.37344,0-0.73438,0.39062-0.73438,0.71875c0,0.19531,0.075,0.28593,0.24062,0.45c0.31406,0.3,0.50938,0.68907,0.50938,1.22812
			c0,0.6297-0.91408,4.05939-2.66563,4.05939c-0.76405,0-1.10936-0.52501-1.10936-1.30313c0-0.83907,0.40468-1.93282,0.86874-3.175
			c0.10468-0.25468,0.17967-0.46562,0.17967-0.75c0-0.67343-0.47968-1.22812-1.22812-1.22812
			c-1.40781,0-1.97656,2.17188-1.97656,2.30624c0,0.15001,0.15001,0.15001,0.17969,0.15001
			c0.15001,0,0.16406-0.02969,0.23906-0.26875c0.43439-1.5125,1.07812-1.85782,1.51251-1.85782c0.12032,0,0.375,0,0.375,0.47969
			c0,0.375-0.14999,0.77812-0.25468,1.04845c-0.65939,1.73749-0.85313,2.42656-0.85313,3.0703
			c0,1.6172,1.31718,1.85626,2.00624,1.85626C199.59631,148.82446,200.44945,143.86821,200.44945,143.08852"/>
	</g>
	<polygon class="st18" points="143.07648,29.57832 147.24533,29.57832 145.15395,24.23155 	"/>
	<polygon class="st18" points="148.19737,32.42414 151.8652,30.44266 147.48383,26.73251 	"/>
	<polygon class="st18" points="149.79497,99.0387 152.66022,96.01054 147.33905,93.85484 	"/>
	<polygon class="st9" points="137.56853,65.95002 137.56841,65.94992 137.56844,65.94992 137.56842,65.94991 137.56841,65.94996 
		137.56841,65.94997 137.56842,65.94996 137.56847,65.94995 137.56845,65.94994 137.56847,65.94996 137.56844,65.94991 
		137.56842,65.94994 137.56848,65.94994 137.56845,65.94995 137.56842,65.94991 137.56842,65.94994 137.56844,65.94991 
		137.56844,65.94991 137.56842,65.94997 137.56847,65.94993 137.56842,65.94994 137.56847,65.94992 137.56845,65.94997 
		137.56847,65.94996 137.56845,65.94993 137.56848,65.94997 137.56844,65.94992 137.56842,65.94991 137.56848,65.94994 
		137.56842,65.94994 137.56841,65.94992 137.56845,65.94992 137.56844,65.94994 137.56847,65.94997 137.56844,65.94994 
		137.56842,65.94996 137.56847,65.94997 137.56847,65.94992 137.56845,65.94994 137.56844,65.94994 137.56842,65.94995 
		137.56842,65.94992 137.56841,65.94993 137.56847,65.94993 137.56842,65.94994 137.56848,65.9499 137.56845,65.94994 
		137.56841,65.94991 137.56845,65.94992 137.56844,65.94994 137.56841,65.94991 137.56845,65.94992 137.56842,65.94992 
		137.56845,65.94994 137.56841,65.94996 137.56842,65.94993 137.56845,65.94994 137.56847,65.94991 137.56841,65.94997 
		137.56844,65.94993 137.56844,65.94991 137.56844,65.94993 137.56842,65.94994 137.56845,65.94997 137.56848,65.9499 
		137.56842,65.94994 137.56842,65.94997 137.56842,65.94995 137.56842,65.94997 137.56845,65.94994 137.56847,65.94994 
		137.56848,65.94995 137.56841,65.94998 137.56845,65.94994 137.56844,65.94991 137.56847,65.94994 137.56847,65.94991 
		137.56845,65.94991 137.56842,65.94991 137.56842,65.94991 137.56845,65.94997 137.56842,65.94996 137.56848,65.94994 
		137.56848,65.94991 137.56842,65.94991 137.56845,65.94997 137.56845,65.94997 137.56841,65.94994 137.56847,65.94994 
		137.56842,65.94991 	"/>
	<g>
		<defs>
			
				<rect id="SVGID_19_" x="128.03659" y="43.64616" transform="matrix(0.99998 -0.00705 0.00705 0.99998 -0.39911 0.95113)" width="13.4641" height="26.9282"/>
		</defs>
		<clipPath id="SVGID_20_">
			<use xlink:href="#SVGID_19_"  style="overflow:visible;"/>
		</clipPath>
		<path class="st19" d="M135.14264,57.10762L135.14264,57.10762z"/>
		<path class="st20" d="M132.56955,64.64924c0.14598,0.15559,0.46297,0.5227,0.66402,0.52128
			c0.1122-0.00079,0.22362-0.11378,0.22282-0.22481c-0.00072-0.10168-0.07942-0.15723-0.14758-0.21285
			c-0.16812-0.13322-0.48431-0.38813-0.73441-0.87959c-0.04498-0.078-0.10187-0.1898-0.23621-0.18885
			c-0.1122,0.00079-0.16774,0.07949-0.2233,0.1582c-0.16544,0.24777-0.36674,0.37309-0.63493,0.46381
			c-0.1003,0.02408-0.24614,0.06952-0.24504,0.22614c0.00111,0.1566,0.14774,0.22337,0.23653,0.22274
			c0.05611-0.0004,0.41428-0.09292,0.64796-0.27339l0.0266,3.775c0.00134,0.19051,0.00276,0.39153,0.22716,0.38995
			c0.2244-0.00159,0.22298-0.20261,0.22163-0.39311L132.56955,64.64924"/>
		<path class="st20" d="M134.97008,65.12906c-0.15691-0.04447-0.17912-0.04432-0.25745-0.04376
			c-0.20218,0.00142-0.30161,0.15874-0.30042,0.32703c0.00079,0.1122,0.0687,0.29054,0.23772,0.39104
			c0.05624,0.02181,0.40398,0.10936,0.60648,0.15234c0.29156,0.07625,0.59482,0.15243,0.89684,0.21809l2.02078,0.4895
			c0.16861,0.04324,0.95622,0.51923,0.96143,1.25903c0.00403,0.57151-0.48831,0.69771-0.90321,0.70063
			c-0.51541,0.00363-1.21097-0.18198-2.20006-0.55604c-0.46059-0.17558-0.5836-0.21912-0.808-0.21754
			c-0.50371,0.00355-0.91609,0.36526-0.91214,0.92509c0.00749,1.06355,1.63493,1.467,1.73546,1.46629
			c0.1122-0.00079,0.1114-0.11299,0.11125-0.1352c-0.00079-0.1122-0.02309-0.12256-0.20229-0.1774
			c-1.05516-0.29527-1.3949-0.7417-1.39758-1.12154c-0.00063-0.09-0.00197-0.28049,0.35681-0.28303
			c0.28049-0.00198,0.5723,0.10817,0.78555,0.18498c1.19058,0.43925,1.83014,0.63695,2.35724,0.63323
			c0.99692-0.00703,1.32738-0.7153,1.32271-1.3768c-0.00307-0.43594-0.19626-0.81561-0.51169-1.12778
			c0.58423,0.14198,1.1333,0.27252,1.73018,0.71595c0.38306,0.28951,0.71097,0.71263,0.7146,1.22804
			c0.0011,0.15661-0.02924,0.66057-0.46384,0.85414c-0.00125-0.17881-0.00229-0.3249-0.13896-0.48056
			c-0.1013-0.11149-0.24702-0.22266-0.45973-0.22117c-0.34828,0.00246-0.39055,0.30547-0.38977,0.41767
			c0.00182,0.25712,0.18324,0.62635,0.73254,0.62247c0.55983-0.00394,0.97125-0.50007,0.96635-1.1943
			c-0.00813-1.15471-1.0354-2.30106-2.30334-2.60536L134.97008,65.12906"/>
		<path class="st20" d="M136.58853,54.80077c-0.00134-0.19051-0.00276-0.39157-0.22598-0.39
			c-0.2244,0.00158-0.22299,0.20264-0.22165,0.39315l0.04272,6.06101c0.00134,0.19051,0.00276,0.3915,0.22716,0.38992
			c0.22322-0.00157,0.2218-0.20256,0.22046-0.39307L136.58853,54.80077"/>
		<polyline class="st20" points="128.19756,47.47429 129.73103,48.96424 129.93181,48.76176 128.77965,47.47019 129.91356,46.17305 
			129.70996,45.97349 128.19756,47.47429 		"/>
		<path class="st20" d="M132.43196,45.12677c0.146,0.15561,0.46297,0.52267,0.66403,0.52126
			c0.1122-0.00079,0.2236-0.11378,0.22282-0.22478c-0.00072-0.10165-0.07942-0.1572-0.14758-0.21282
			c-0.16812-0.13323-0.48431-0.38818-0.73441-0.87966c-0.04498-0.07793-0.10187-0.18973-0.23621-0.18878
			c-0.1122,0.00079-0.16776,0.07943-0.2233,0.15813c-0.16544,0.24779-0.36674,0.37308-0.63495,0.46384
			c-0.10028,0.02404-0.24612,0.0695-0.24503,0.22613c0.0011,0.15663,0.14774,0.22337,0.23653,0.22274
			c0.05609-0.0004,0.41428-0.09291,0.64795-0.27341l0.02661,3.77502c0.00134,0.19051,0.00275,0.39149,0.22714,0.38991
			c0.22441-0.00158,0.22299-0.20256,0.22165-0.39308L132.43196,45.12677"/>
		<path class="st20" d="M134.83197,45.53182c-0.15691-0.04453-0.17912-0.04437-0.25743-0.04382
			c-0.20219,0.00143-0.30162,0.15876-0.30043,0.32706c0.00079,0.1122,0.0687,0.29057,0.23772,0.39104
			c0.05626,0.02182,0.40398,0.10936,0.60648,0.15236c0.29156,0.07626,0.59483,0.15244,0.89684,0.21809l2.02078,0.48948
			c0.16861,0.04324,0.95622,0.5192,0.96143,1.25903c0.00403,0.57154-0.48831,0.69769-0.90321,0.70061
			c-0.51541,0.00363-1.21097-0.18199-2.20006-0.55598c-0.46059-0.17561-0.5836-0.21917-0.808-0.21759
			c-0.50371,0.00355-0.91609,0.36528-0.91214,0.92515c0.00749,1.06349,1.63493,1.46695,1.73546,1.46624
			c0.1122-0.00079,0.1114-0.11299,0.11125-0.1352c-0.00079-0.1122-0.02307-0.12251-0.20229-0.17735
			c-1.05516-0.29529-1.3949-0.74171-1.39758-1.12154c-0.00063-0.08998-0.00197-0.28049,0.35681-0.28302
			c0.28049-0.00198,0.5723,0.10817,0.78555,0.18499c1.1906,0.43923,1.83014,0.63691,2.35724,0.6332
			c0.99692-0.00703,1.32738-0.71527,1.32271-1.37679c-0.00307-0.43593-0.19626-0.81561-0.51169-1.12778
			c0.58423,0.14197,1.1333,0.27252,1.73018,0.71593c0.38306,0.28948,0.71097,0.71264,0.7146,1.22808
			c0.0011,0.15656-0.02924,0.66056-0.46384,0.85415c-0.00125-0.17884-0.00229-0.32493-0.13896-0.4806
			c-0.1013-0.11149-0.24702-0.22266-0.45972-0.22116c-0.3483,0.00245-0.39056,0.30548-0.38977,0.41768
			c0.0018,0.25708,0.18323,0.62637,0.73254,0.62251c0.55981-0.00395,0.97124-0.50009,0.96634-1.1943
			c-0.00813-1.15474-1.0354-2.30111-2.30334-2.60537L134.83197,45.53182"/>
	</g>
	<polygon class="st9" points="164.64587,115.99239 164.64597,115.99236 164.64597,115.99238 164.64597,115.99238 
		164.64597,115.99237 164.64595,115.99236 164.64594,115.99236 164.64598,115.99237 164.64597,115.99239 164.64594,115.99238 
		164.64597,115.99238 164.64595,115.99236 164.64594,115.99238 164.64595,115.99235 164.64594,115.99238 164.64595,115.99239 
		164.64597,115.99236 164.64595,115.99239 164.64597,115.99237 164.64597,115.99237 164.64594,115.99237 164.64597,115.99238 
		164.64597,115.99237 164.64594,115.99236 164.64598,115.99236 164.64595,115.99239 164.64594,115.99235 164.64592,115.99236 
		164.64597,115.99238 164.64594,115.99236 164.64592,115.99239 164.64592,115.99237 164.64595,115.99237 164.64595,115.99239 
		164.64594,115.99239 164.64594,115.99238 164.64595,115.9924 164.64597,115.99238 164.64592,115.99237 164.64592,115.99239 
		164.64594,115.99239 164.64594,115.99237 164.64595,115.9924 164.64597,115.99236 164.64592,115.99236 164.64597,115.99239 
		164.64598,115.99236 164.64594,115.99237 164.64594,115.9924 164.64595,115.99236 164.64595,115.9924 164.64594,115.99239 
		164.64595,115.99236 164.64594,115.99237 164.64597,115.9924 164.64597,115.99236 164.64595,115.9924 164.64595,115.99238 
		164.64594,115.99237 164.64594,115.99234 164.64597,115.99239 164.64594,115.99237 164.64595,115.99236 164.64598,115.99237 
		164.64595,115.9924 164.64594,115.99237 164.64597,115.99238 164.64597,115.99237 164.64595,115.99239 164.64594,115.9924 
		164.64595,115.99238 164.64594,115.99239 164.64595,115.99236 164.64597,115.99239 164.64594,115.99234 164.64595,115.99236 
		164.64592,115.99238 164.64595,115.99241 164.64594,115.99236 164.64595,115.99236 164.64594,115.99238 164.64594,115.99238 
		164.64595,115.99239 164.64594,115.99236 164.64594,115.99234 164.64597,115.9924 164.64597,115.99237 164.64595,115.99239 
		164.64597,115.99238 164.64595,115.9924 	"/>
	<polygon class="st9" points="183.01784,74.4205 183.01799,74.42053 183.01796,74.42055 183.01797,74.42056 183.01796,74.42054 
		183.01796,74.42051 183.01796,74.42052 183.01799,74.42056 183.01794,74.42057 183.01791,74.42053 183.01797,74.42055 
		183.01797,74.42052 183.01794,74.42054 183.01797,74.4205 183.01793,74.42054 183.01794,74.42056 183.01797,74.42052 
		183.01794,74.42057 183.01797,74.42054 183.01797,74.42055 183.01793,74.42052 183.01797,74.42056 183.01796,74.42054 
		183.01796,74.42052 183.01799,74.42054 183.01794,74.42056 183.01796,74.4205 183.01793,74.4205 183.01797,74.42056 
		183.01794,74.4205 183.0179,74.42052 183.01793,74.42052 183.01796,74.42053 183.01794,74.42056 183.01791,74.42056 
		183.01793,74.42053 183.01793,74.42057 183.01797,74.42056 183.01791,74.42052 183.01791,74.42053 183.01791,74.42056 
		183.01794,74.42052 183.01793,74.42057 183.01799,74.42054 183.01793,74.42051 183.01796,74.42056 183.01799,74.42055 
		183.01794,74.42052 183.01791,74.42056 183.01796,74.42051 183.01793,74.42057 183.01791,74.42054 183.01796,74.42052 
		183.01794,74.42052 183.01794,74.42058 183.01799,74.42054 183.01793,74.42057 183.01794,74.42054 183.01793,74.42052 
		183.01796,74.42049 183.01796,74.42057 183.01794,74.42052 183.01796,74.42052 183.01799,74.42056 183.01793,74.42058 
		183.01794,74.42052 183.01797,74.42056 183.01797,74.42054 183.01794,74.42057 183.01791,74.42056 183.01794,74.42054 
		183.01793,74.42055 183.01797,74.42052 183.01796,74.42057 183.01796,74.42049 183.01796,74.42052 183.01791,74.42052 
		183.01793,74.42059 183.01793,74.42051 183.01797,74.42052 183.01793,74.42054 183.01793,74.42053 183.01794,74.42057 
		183.01793,74.42051 183.01796,74.42049 183.01794,74.42058 183.01797,74.42055 183.01794,74.42056 183.01797,74.42055 
		183.01794,74.42057 	"/>
	<g>
		<defs>
			
				<rect id="SVGID_21_" x="178.39894" y="68.2745" transform="matrix(0.88486 -0.46587 0.46587 0.88486 -16.1127 94.45274)" width="9.23778" height="23.09445"/>
		</defs>
		<clipPath id="SVGID_22_">
			<use xlink:href="#SVGID_21_"  style="overflow:visible;"/>
		</clipPath>
		<path class="st21" d="M182.72591,79.97543L182.72591,79.97543z"/>
		<path class="st22" d="M183.00548,72.70092c-0.17746-0.06271-0.57463-0.22179-0.73158-0.13916
			c-0.08757,0.04611-0.12904,0.1798-0.08342,0.26647c0.04179,0.07937,0.12598,0.09097,0.20193,0.10691
			c0.18573,0.03622,0.53679,0.10772,0.93198,0.39135c0.06686,0.04287,0.15677,0.10739,0.26163,0.05219
			c0.08759-0.04611,0.09918-0.13029,0.11079-0.21447c0.02916-0.26119,0.13606-0.44099,0.30939-0.6208
			c0.06882-0.05953,0.16466-0.15426,0.10028-0.27651c-0.06435-0.12225-0.2063-0.1151-0.2756-0.07861
			c-0.04379,0.02306-0.28688,0.24076-0.39679,0.4769l-1.55139-2.94669c-0.07829-0.1487-0.1609-0.30562-0.33607-0.2134
			c-0.17516,0.09222-0.09254,0.24914-0.01425,0.39784L183.00548,72.70092"/>
		<path class="st22" d="M180.93027,73.2983c0.14096-0.02878,0.15829-0.0379,0.21942-0.07009
			c0.15782-0.08309,0.17194-0.24665,0.10277-0.37801c-0.04611-0.08759-0.17162-0.19978-0.34477-0.20998
			c-0.05292,0.00571-0.36084,0.07812-0.53691,0.12654c-0.25934,0.05848-0.5278,0.12175-0.79103,0.19276l-1.78162,0.43582
			c-0.14963,0.03449-0.95966-0.01908-1.2637-0.59656c-0.23486-0.44611,0.09969-0.74459,0.42355-0.91511
			c0.40231-0.21181,1.02251-0.34841,1.94905-0.45638c0.43202-0.04919,0.54607-0.06495,0.72122-0.15717
			c0.39319-0.207,0.5696-0.65759,0.33954-1.09457c-0.43709-0.83018-1.87567-0.48643-1.95413-0.44511
			c-0.08757,0.0461-0.04147,0.13369-0.03233,0.15102c0.0461,0.08758,0.06776,0.08666,0.23039,0.05696
			c0.94638-0.19648,1.39354,0.01552,1.54964,0.31202c0.03699,0.07024,0.11528,0.21895-0.16478,0.36639
			c-0.21895,0.11527-0.49222,0.14729-0.69044,0.17358c-1.11084,0.13859-1.69203,0.24301-2.10349,0.45963
			c-0.77817,0.40971-0.74989,1.09858-0.47804,1.61493c0.17915,0.34029,0.48444,0.5594,0.85814,0.67608
			c-0.51527,0.12564-0.99837,0.24599-1.64577,0.14059c-0.4175-0.0715-0.84593-0.27004-1.05775-0.67236
			c-0.06436-0.12225-0.24492-0.52937,0.01707-0.85723c0.07349,0.13958,0.13353,0.25361,0.30371,0.32014
			c0.12457,0.04627,0.2838,0.0743,0.44984-0.01312c0.27187-0.14313,0.18213-0.39767,0.13602-0.48524
			c-0.10567-0.20071-0.39751-0.41641-0.82629-0.19067c-0.43698,0.23006-0.55815,0.78556-0.27284,1.32746
			c0.47455,0.90134,1.74413,1.38294,2.86086,1.10726L180.93027,73.2983"/>
		<path class="st22" d="M183.84985,82.04607c0.07829,0.14871,0.16092,0.30565,0.33517,0.21391
			c0.17516-0.09222,0.09253-0.24916,0.01424-0.39787l-2.49088-4.73111c-0.07829-0.14871-0.16089-0.3056-0.33604-0.21338
			c-0.17426,0.09174-0.09166,0.24863-0.01337,0.39734L183.84985,82.04607"/>
		<path class="st22" d="M190.90559,87.70624c-0.17747-0.06271-0.57463-0.22177-0.73157-0.13914
			c-0.08759,0.04611-0.12906,0.1798-0.08344,0.26645c0.04178,0.07935,0.12596,0.09095,0.20192,0.10689
			c0.18573,0.03622,0.5368,0.10775,0.93201,0.3914c0.06683,0.04282,0.15674,0.10734,0.2616,0.05213
			c0.08759-0.04611,0.09921-0.13024,0.11082-0.21442c0.02914-0.2612,0.13605-0.44098,0.30937-0.62082
			c0.06883-0.0595,0.16466-0.15425,0.10028-0.27651c-0.06436-0.12226-0.2063-0.11509-0.2756-0.07861
			c-0.04379,0.02306-0.2869,0.24075-0.39679,0.47691l-1.55141-2.9467c-0.07829-0.14871-0.16089-0.3056-0.33604-0.21338
			c-0.17516,0.09222-0.09256,0.24911-0.01427,0.39782L190.90559,87.70624"/>
		<path class="st22" d="M188.79227,88.42156c0.47166-0.24832,0.49254-0.54946,0.40944-0.70728
			c-0.11478-0.21801-0.45381-0.30872-0.64537-0.20786c-0.11406,0.06005-0.14392,0.1317-0.18877,0.27888
			c-0.07864,0.27556-0.24577,0.50918-0.5605,0.67489c-0.36766,0.19357-2.65109,0.71419-3.18953-0.30851
			c-0.23488-0.44613-0.0345-0.80912,0.41983-1.04832c0.4899-0.25793,1.2529-0.35785,2.12083-0.46873
			c0.18089-0.01716,0.32709-0.03821,0.49313-0.12563c0.39317-0.20701,0.5696-0.6576,0.33951-1.09462
			c-0.43275-0.82197-1.87564-0.48638-1.9541-0.44508c-0.08759,0.04611-0.04147,0.13369-0.03235,0.15103
			c0.04611,0.08758,0.06775,0.08662,0.23039,0.05693c1.01662-0.2113,1.41612,0.05844,1.54962,0.31201
			c0.03699,0.07024,0.11528,0.21895-0.16478,0.36639c-0.21895,0.11528-0.50043,0.15162-0.69043,0.17358
			c-1.21713,0.14916-1.67903,0.24783-2.05489,0.44572c-0.94423,0.49712-0.67889,1.33967-0.46707,1.74201
			C185.18102,89.68668,188.33704,88.66124,188.79227,88.42156"/>
	</g>
	<polygon class="st9" points="164.05664,117.57711 164.05673,117.57709 164.05672,117.5771 164.05673,117.5771 164.05672,117.57711 
		164.05669,117.5771 164.0567,117.5771 164.05672,117.57713 164.05672,117.5771 164.05669,117.5771 164.05672,117.5771 
		164.05672,117.57709 164.05672,117.57709 164.05672,117.5771 164.0567,117.57709 164.05672,117.57708 164.05672,117.57709 
		164.05672,117.57708 164.05669,117.5771 164.05672,117.57709 164.0567,117.57708 164.05669,117.57712 164.05669,117.5771 
		164.05672,117.57711 164.05672,117.57713 164.0567,117.57712 164.05673,117.57709 164.05672,117.57711 164.05673,117.5771 
		164.05673,117.5771 164.0567,117.57708 164.05669,117.5771 164.0567,117.57713 164.0567,117.57708 164.05669,117.5771 
		164.0567,117.5771 164.05672,117.57708 164.0567,117.57708 164.05672,117.57712 164.05673,117.57709 164.05669,117.5771 
		164.0567,117.57713 164.0567,117.57708 164.05672,117.57709 164.05673,117.5771 164.05672,117.5771 164.05672,117.5771 
		164.0567,117.57713 164.0567,117.5771 164.05673,117.5771 164.0567,117.57709 164.0567,117.57708 164.05672,117.5771 
		164.0567,117.57708 164.0567,117.57711 164.0567,117.5771 164.0567,117.5771 164.05669,117.57709 164.05672,117.57712 
		164.05669,117.57712 164.0567,117.57708 164.05673,117.5771 164.0567,117.5771 164.05673,117.5771 164.0567,117.57708 
		164.05667,117.5771 164.05672,117.57708 164.05672,117.5771 164.0567,117.5771 164.0567,117.57709 164.05672,117.57712 
		164.05672,117.57708 164.0567,117.57712 164.05669,117.5771 164.05672,117.57708 164.0567,117.57713 164.05672,117.5771 
		164.0567,117.5771 164.0567,117.57707 164.05669,117.5771 164.0567,117.57712 164.0567,117.57713 164.05672,117.57711 
		164.0567,117.5771 164.05672,117.57708 164.05672,117.57713 164.0567,117.57713 164.05672,117.57711 164.05669,117.57708 
		164.05669,117.57711 164.05673,117.5771 	"/>
	<g>
		<defs>
			
				<rect id="SVGID_23_" x="158.99231" y="106.92507" transform="matrix(0.56016 -0.82838 0.82838 0.56016 -24.98829 187.8578)" width="10.83615" height="21.0703"/>
		</defs>
		<clipPath id="SVGID_24_">
			<use xlink:href="#SVGID_23_"  style="overflow:visible;"/>
		</clipPath>
		<path class="st23" d="M164.24178,117.70957L164.24178,117.70957z"/>
		<polyline class="st24" points="160.98068,108.82298 159.29359,109.16177 159.33647,109.38719 160.71826,109.21107 
			161.06241,110.5543 161.28758,110.51013 160.98068,108.82298 		"/>
		<path class="st24" d="M160.65932,112.73559c-0.16974,0.02599-0.55771,0.06909-0.64835,0.20314
			c-0.05058,0.0748-0.02637,0.20019,0.04767,0.25024c0.06778,0.04585,0.14049,0.01892,0.20845-0.00097
			c0.16498-0.05086,0.47813-0.14454,0.91814-0.0866c0.07225,0.00568,0.17235,0.01886,0.23291-0.0707
			c0.05058-0.07481,0.02367-0.14751-0.00325-0.22022c-0.08904-0.22263-0.08049-0.41328-0.01851-0.63255
			c0.02971-0.07751,0.06599-0.19498-0.03842-0.26559c-0.10442-0.07061-0.2155-0.00372-0.25554,0.05547
			c-0.02528,0.03741-0.12706,0.3172-0.11375,0.55446l-2.51685-1.70193c-0.12701-0.08588-0.26103-0.17651-0.3622-0.02691
			c-0.10117,0.14961,0.03285,0.24024,0.15987,0.32613L160.65932,112.73559"/>
		<path class="st24" d="M159.24747,114.10979c0.10098-0.08385,0.11101-0.09867,0.14632-0.15088
			c0.09114-0.1348,0.03206-0.27243-0.08015-0.3483c-0.0748-0.05058-0.22406-0.08677-0.36774-0.0204
			c-0.04008,0.02739-0.25658,0.21823-0.37735,0.33301c-0.1834,0.15872-0.37207,0.32523-0.55321,0.4957l-1.24529,1.11782
			c-0.1055,0.09218-0.78009,0.39794-1.27333,0.06441c-0.38103-0.25766-0.24049-0.64182-0.05344-0.91843
			c0.23238-0.34363,0.67236-0.72059,1.37111-1.20647c0.32629-0.22562,0.41122-0.28741,0.51239-0.43702
			c0.2271-0.33582,0.17494-0.77421-0.1983-1.0266c-0.70908-0.47948-1.71811,0.41655-1.76341,0.48357
			c-0.0506,0.07481,0.02422,0.12539,0.03902,0.1354c0.0748,0.05058,0.09183,0.04052,0.20985-0.05341
			c0.67656-0.56561,1.12752-0.58766,1.38077-0.41642c0.06,0.04057,0.187,0.12646,0.02525,0.36567
			c-0.12646,0.187-0.33246,0.33044-0.48058,0.43696c-0.83379,0.58987-1.25627,0.92416-1.49391,1.27558
			c-0.44945,0.66467-0.13004,1.20655,0.31099,1.50478c0.29065,0.19654,0.63055,0.24129,0.98137,0.17421
			c-0.36032,0.32296-0.69705,0.62782-1.26315,0.82185c-0.36658,0.12229-0.79669,0.14712-1.14032-0.08525
			c-0.10442-0.07061-0.42497-0.3203-0.35545-0.69683c0.11922,0.08062,0.21661,0.14648,0.38216,0.1267
			c0.12012-0.01643,0.26027-0.06247,0.35616-0.20428c0.15703-0.23221-0.02477-0.39828-0.09958-0.44887
			c-0.17142-0.11592-0.49904-0.16373-0.74669,0.2025c-0.2524,0.37323-0.11063,0.87221,0.35222,1.1852
			c0.76987,0.52059,1.99841,0.36118,2.77788-0.34149L159.24747,114.10979"/>
		<path class="st24" d="M165.36308,119.88835c0.12701,0.08589,0.26106,0.17654,0.36171,0.0277
			c0.10117-0.1496-0.03288-0.24025-0.1599-0.32614l-4.04095-2.73256c-0.12703-0.08588-0.26102-0.1765-0.36218-0.02689
			c-0.10065,0.14883,0.03336,0.23944,0.16037,0.32533L165.36308,119.88835"/>
		<path class="st24" d="M173.47572,121.40224c-0.16974,0.02599-0.55768,0.0691-0.64833,0.20315
			c-0.05058,0.07481-0.02635,0.20019,0.04765,0.25024c0.06776,0.04583,0.14047,0.01891,0.20844-0.00098
			c0.16498-0.05086,0.47816-0.14452,0.91818-0.08658c0.0722,0.00565,0.1723,0.01884,0.23286-0.07073
			c0.05058-0.0748,0.02371-0.14748-0.00322-0.22018c-0.08905-0.22264-0.08047-0.41328-0.01852-0.63258
			c0.02972-0.0775,0.06601-0.19497-0.03842-0.26559s-0.2155-0.00372-0.25554,0.05547
			c-0.02528,0.0374-0.12706,0.31719-0.11374,0.55446l-2.51686-1.70193c-0.12701-0.08589-0.26102-0.17651-0.36218-0.0269
			c-0.10117,0.14961,0.03284,0.24023,0.15985,0.32611L173.47572,121.40224"/>
		<path class="st24" d="M172.08403,122.88771c0.27242-0.40285,0.15952-0.65405,0.02472-0.7452
			c-0.18622-0.12592-0.49797-0.05287-0.60861,0.11075c-0.06587,0.09742-0.05904,0.16791-0.03172,0.3056
			c0.05542,0.2555,0.02162,0.51538-0.16017,0.7842c-0.21234,0.31403-1.82472,1.71616-2.69823,1.12548
			c-0.38106-0.25767-0.37621-0.63593-0.11382-1.02397c0.28296-0.41843,0.85362-0.82741,1.50395-1.29037
			c0.13811-0.09171,0.24664-0.1716,0.34253-0.31342c0.2271-0.33582,0.17493-0.77422-0.19833-1.02663
			c-0.70207-0.47474-1.71808,0.41657-1.7634,0.48358c-0.05058,0.07481,0.02423,0.12539,0.03903,0.13541
			c0.07481,0.05058,0.0918,0.0405,0.20982-0.05343c0.72668-0.60777,1.16418-0.56287,1.38077-0.41641
			c0.05998,0.04057,0.187,0.12646,0.02525,0.36566c-0.12646,0.18701-0.3372,0.33746-0.48058,0.43696
			c-0.91472,0.64415-1.24373,0.92242-1.46082,1.24345c-0.54535,0.80648,0.0309,1.36989,0.37456,1.60227
			C169.7243,125.4605,171.82111,123.27654,172.08403,122.88771"/>
	</g>
</g>
<polygon class="st9" points="18.20527,90.98714 18.20543,90.98711 18.20541,90.98713 18.20543,90.98713 18.20537,90.98715 
	18.20538,90.98711 18.20539,90.98711 18.20539,90.98717 18.20539,90.98716 18.20536,90.98713 18.20542,90.98713 18.2054,90.98711 
	18.20536,90.98711 18.20543,90.98713 18.20543,90.98713 18.20539,90.98712 18.20534,90.98714 18.20539,90.9871 18.2054,90.98715 
	18.2054,90.98715 18.20538,90.98716 18.20536,90.98715 18.20535,90.98712 18.20537,90.98716 18.20538,90.98713 18.20539,90.98708 
	18.20543,90.98713 18.20539,90.9871 18.2054,90.98717 18.20538,90.98708 18.20536,90.98714 18.20538,90.98709 18.20539,90.98711 
	18.20537,90.98715 18.20541,90.98714 18.20537,90.98714 18.20543,90.98712 18.20542,90.98713 18.20539,90.98717 18.20539,90.98712 
	18.2054,90.98714 18.20538,90.98709 18.20538,90.9871 18.20539,90.98709 18.20542,90.98714 18.20537,90.98716 18.20539,90.98712 
	18.2054,90.9871 18.2054,90.98714 18.20541,90.98714 18.20534,90.98714 18.2054,90.98713 18.20538,90.98709 18.20541,90.98712 
	18.20539,90.98717 18.20537,90.98712 18.20539,90.98711 18.20538,90.98714 18.20535,90.98711 18.20538,90.98714 18.2054,90.98711 
	18.2054,90.98717 18.20538,90.98708 18.20539,90.98708 18.2054,90.98715 18.20535,90.98714 18.20543,90.98713 18.20539,90.98717 
	18.20539,90.98715 18.20538,90.98711 18.2054,90.9871 18.20534,90.98713 18.20537,90.98714 18.20538,90.98709 18.20539,90.98709 
	18.2054,90.98716 18.20537,90.98711 18.20539,90.98714 18.20539,90.98715 18.2054,90.98714 18.20539,90.98717 18.2054,90.98717 
	18.20541,90.98711 18.20538,90.98708 18.20538,90.98712 18.20535,90.98714 18.20543,90.98713 "/>
<g>
	<defs>
		
			<rect id="SVGID_25_" x="13.02406" y="84.09635" transform="matrix(0.42395 -0.90569 0.90569 0.42395 -71.3811 68.96526)" width="11" height="13"/>
	</defs>
	<clipPath id="SVGID_26_">
		<use xlink:href="#SVGID_25_"  style="overflow:visible;"/>
	</clipPath>
	<path class="st25" d="M18.52406,90.59635L18.52406,90.59635z"/>
	<path class="st26" d="M24.26278,88.78155c0.35025-0.43122,0.44074-0.55448,1.43129-0.09081
		c0.3524,0.16496,0.46136,0.21596,0.5879-0.05439c0.07021-0.14998-0.07978-0.22018-0.1208-0.23939
		c-0.3793-0.17755-1.37493-0.59358-1.75414-0.77109c-0.39343-0.18417-1.33796-0.67631-1.73136-0.86046
		c-0.10896-0.05101-0.25756-0.12057-0.38474,0.15114c-0.06957,0.14863,0.05214,0.2056,0.30969,0.32616
		c0.02689,0.01259,0.28586,0.13381,0.50331,0.27004c0.23081,0.14083,0.34653,0.21057,0.26374,0.38744
		c-0.02517,0.05376-0.05049,0.0747-0.17433,0.23238l-2.3631,2.92912l-4.13786-1.93691l2.29339-2.81337
		c0.35023-0.43123,0.45486-0.54787,1.43131-0.09081c0.35237,0.16494,0.46133,0.21595,0.58788-0.0544
		c0.07021-0.14999-0.07838-0.21954-0.11942-0.23875c-0.38068-0.17819-1.37632-0.59423-1.75558-0.77176
		c-0.39341-0.18416-1.33791-0.67628-1.73132-0.86044c-0.10755-0.05035-0.25756-0.12057-0.38474,0.15114
		c-0.06957,0.14863,0.05214,0.2056,0.3111,0.32681c0.02689,0.01259,0.28445,0.13315,0.50188,0.26938
		c0.23081,0.14084,0.34795,0.21124,0.26516,0.38811c-0.02517,0.05377-0.05853,0.08819-0.17575,0.23172l-5.2265,6.43316
		c-0.38359,0.46566-0.46148,0.56205-1.53275,0.0606c-0.24482-0.1146-0.36652-0.17157-0.4937,0.10014
		c-0.06955,0.14859,0.09319,0.22477,0.12007,0.23736c0.37926,0.17753,1.36217,0.58759,1.74143,0.76512
		c0.28586,0.1338,0.57783,0.28773,0.86227,0.42088c0.2986,0.13977,0.5846,0.30643,0.86905,0.43958
		c0.10896,0.051,0.27171,0.12718,0.39889-0.14452c0.06955-0.14859-0.05357-0.20622-0.31112-0.32678
		c-0.50095-0.23449-0.88162-0.41268-0.76702-0.6575c0.03776-0.08067,0.09643-0.13601,0.14901-0.21146l2.66218-3.28426
		l4.13644,1.93625c-1.6228,1.98519-2.539,3.12799-2.68817,3.30659c-0.33855,0.36944-0.60273,0.26303-1.44332-0.13045
		c-0.20378-0.09539-0.32689-0.15302-0.45407,0.11869c-0.06955,0.14859,0.0946,0.22543,0.12148,0.23801
		c0.37926,0.17753,1.36218,0.58759,1.74144,0.76512c0.28444,0.13315,0.57641,0.28707,0.86085,0.42021
		c0.2986,0.13977,0.5846,0.30643,0.87046,0.44024c0.10752,0.05033,0.27027,0.12651,0.39745-0.1452
		c0.06955-0.14859-0.05208-0.20553-0.30968-0.3261c-0.50237-0.23516-0.88163-0.41269-0.76703-0.65751
		c0.03776-0.08067,0.09644-0.136,0.14901-0.21146L24.26278,88.78155"/>
</g>
<g>
</g>
<g>
</g>
<g>
</g>
<g>
</g>
<g>
</g>
<g>
</g>
</svg>
