<?xml version="1.0" encoding="utf-8"?>
<!-- Generator: Adobe Illustrator 25.2.0, SVG Export Plug-In . SVG Version: 6.00 Build 0)  -->
<svg version="1.1" xmlns="http://www.w3.org/2000/svg" xmlns:xlink="http://www.w3.org/1999/xlink" x="0px" y="0px"
	 viewBox="0 0 440.62445 184.19534" style="enable-background:new 0 0 440.62445 184.19534;" xml:space="preserve">
<style type="text/css">
	.st0{opacity:0;fill:none;stroke:#000000;stroke-width:1.000000e-06;stroke-miterlimit:10;}
	.st1{clip-path:url(#SVGID_2_);}
	.st2{clip-path:url(#SVGID_4_);fill:#C0D5C7;}
	.st3{clip-path:url(#SVGID_2_);fill:none;stroke:#FFFFFF;stroke-width:0.861;}
	.st4{clip-path:url(#SVGID_6_);fill:none;stroke:#006639;stroke-width:0.31;stroke-linejoin:round;}
	.st5{fill:none;stroke:#000000;stroke-width:0.43;stroke-miterlimit:3.864;}
	.st6{fill:none;stroke:#005B7F;stroke-width:0.861;stroke-linecap:round;stroke-miterlimit:3.864;}
	.st7{fill:none;stroke:#000000;stroke-width:0.31;stroke-miterlimit:3.864;stroke-dasharray:1.721,0.861;}
	.st8{fill:#005B7F;}
	.st9{fill:none;stroke:#000000;stroke-width:0.344;stroke-miterlimit:3.864;}
	.st10{fill:none;stroke:#000000;stroke-width:0.861;stroke-linecap:round;stroke-linejoin:round;stroke-miterlimit:3.864;}
	.st11{opacity:0;clip-path:url(#SVGID_8_);fill:none;stroke:#000000;stroke-width:9.999999e-07;stroke-miterlimit:10;}
	.st12{clip-path:url(#SVGID_8_);}
	.st13{opacity:0;clip-path:url(#SVGID_10_);fill:none;stroke:#000000;stroke-width:9.999999e-07;stroke-miterlimit:10;}
	.st14{clip-path:url(#SVGID_10_);}
	.st15{opacity:0;clip-path:url(#SVGID_12_);fill:none;stroke:#000000;stroke-width:9.999999e-07;stroke-miterlimit:10;}
	.st16{clip-path:url(#SVGID_12_);}
	.st17{opacity:0;clip-path:url(#SVGID_14_);fill:none;stroke:#000000;stroke-width:9.999999e-07;stroke-miterlimit:10;}
	.st18{clip-path:url(#SVGID_14_);}
	.st19{opacity:0;clip-path:url(#SVGID_16_);fill:none;stroke:#000000;stroke-width:9.999999e-07;stroke-miterlimit:10;}
	.st20{clip-path:url(#SVGID_16_);}
	.st21{opacity:0;clip-path:url(#SVGID_18_);fill:none;stroke:#000000;stroke-width:9.999999e-07;stroke-miterlimit:10;}
	.st22{clip-path:url(#SVGID_18_);}
	.st23{opacity:0;clip-path:url(#SVGID_20_);fill:none;stroke:#000000;stroke-width:9.999999e-07;stroke-miterlimit:10;}
	.st24{clip-path:url(#SVGID_20_);}
	.st25{opacity:0.8;}
	.st26{clip-path:url(#SVGID_22_);fill:#C0D5C7;}
	.st27{opacity:0;clip-path:url(#SVGID_24_);fill:none;stroke:#000000;stroke-width:9.999999e-07;stroke-miterlimit:10;}
	.st28{clip-path:url(#SVGID_24_);}
	.st29{opacity:0;clip-path:url(#SVGID_26_);fill:none;stroke:#000000;stroke-width:9.999999e-07;stroke-miterlimit:10;}
	.st30{clip-path:url(#SVGID_26_);}
	.st31{fill:none;}
	.st32{fill:none;stroke:#005B7F;stroke-width:0.771;stroke-miterlimit:3.864;}
</style>
<g id="Layer_1">
	<polygon class="st0" points="127.69283,220.06299 127.69292,220.06287 127.69292,220.0629 127.69294,220.0629 127.69287,220.06288 
		127.69289,220.06291 127.69293,220.06287 127.69292,220.06291 127.69293,220.06294 127.69289,220.06293 127.69292,220.0629 
		127.69291,220.0629 127.69287,220.06293 127.69288,220.06288 127.69289,220.06287 127.69291,220.0629 127.69294,220.06288 
		127.69289,220.06288 127.69289,220.06291 127.69289,220.0629 127.69293,220.06293 127.69287,220.06293 127.69292,220.0629 
		127.69291,220.06293 127.69291,220.06291 127.69288,220.0629 127.69291,220.06291 127.69293,220.0629 127.69292,220.06294 
		127.69294,220.06291 127.69292,220.06291 127.69288,220.06293 127.69294,220.06288 127.69289,220.06291 127.6929,220.06288 
		127.69294,220.06291 127.6929,220.06293 127.6929,220.06294 127.6929,220.0629 127.69291,220.06293 127.69293,220.06291 
		127.6929,220.06291 127.69292,220.06293 127.6929,220.0629 127.69294,220.06293 127.6929,220.06288 127.69291,220.06288 
		127.69289,220.06291 127.69291,220.06291 127.69292,220.06294 127.6929,220.0629 127.69289,220.06294 127.69295,220.0629 
		127.69292,220.0629 127.69293,220.06294 127.69289,220.06291 127.69289,220.06294 127.69292,220.06288 127.69293,220.06291 
		127.69292,220.0629 127.69291,220.0629 127.69294,220.06288 127.69294,220.06291 127.69292,220.0629 127.69287,220.06294 
		127.6929,220.06291 127.69292,220.06294 127.69294,220.06291 127.6929,220.06291 127.6929,220.06287 127.69288,220.06293 
		127.69294,220.06288 127.69289,220.0629 127.69291,220.06293 127.69289,220.06294 127.69294,220.06291 127.69294,220.06288 
		127.69289,220.06288 127.69287,220.06291 127.69291,220.06293 127.69292,220.06293 127.69293,220.06288 127.6929,220.06294 
		127.6929,220.06291 127.69292,220.0629 127.69292,220.06294 127.69289,220.06293 127.69294,220.0629 	"/>
	<polygon class="st0" points="127.80082,233.35815 127.80093,233.35803 127.80093,233.35806 127.80093,233.35806 
		127.8009,233.35805 127.8009,233.35808 127.80093,233.35805 127.80087,233.35808 127.80093,233.35808 127.80089,233.35809 
		127.80093,233.35806 127.8009,233.35805 127.80087,233.35805 127.80087,233.35806 127.8009,233.35806 127.80092,233.35808 
		127.8009,233.35809 127.80093,233.35809 127.80087,233.35808 127.80091,233.35811 127.80087,233.35809 127.80092,233.35811 
		127.80089,233.35808 127.80092,233.35805 127.80089,233.35805 127.80092,233.35805 127.8009,233.35811 127.80091,233.35811 
		127.8009,233.35805 127.80087,233.35808 127.80093,233.35805 127.80092,233.35808 127.80091,233.35808 127.80089,233.35805 
		127.80093,233.35811 127.80091,233.35805 127.8009,233.35809 127.80093,233.35811 127.80093,233.35808 127.80094,233.35805 
		127.80087,233.35808 127.80093,233.35806 127.8009,233.35803 127.8009,233.35811 127.80087,233.35809 127.80093,233.35803 
		127.80091,233.35808 127.80094,233.35808 127.8009,233.35809 127.80087,233.35808 127.80091,233.35809 127.80091,233.35805 
		127.80089,233.35811 127.80091,233.35803 127.80093,233.35808 127.80094,233.35808 127.8009,233.35808 127.80093,233.35808 
		127.80089,233.35805 127.8009,233.35808 127.80093,233.35805 127.80093,233.35809 127.80088,233.35811 127.80093,233.35811 
		127.80092,233.35808 127.80093,233.35811 127.80088,233.35808 127.80093,233.35805 127.80093,233.35808 127.8009,233.35805 
		127.8009,233.35809 127.80091,233.35805 127.80094,233.35808 127.8009,233.35805 127.80094,233.35805 127.80091,233.35811 
		127.80087,233.35808 127.80092,233.35809 127.80089,233.35808 127.80092,233.35808 127.80092,233.35811 127.80087,233.35806 
		127.80094,233.35808 127.8009,233.35811 127.8009,233.35806 127.80089,233.35811 127.80093,233.35806 127.80094,233.35809 	"/>
	<g>
		<g>
			<defs>
				<rect id="SVGID_1_" x="127.53082" y="10.57047" width="299.20978" height="166.91707"/>
			</defs>
			<clipPath id="SVGID_2_">
				<use xlink:href="#SVGID_1_"  style="overflow:visible;"/>
			</clipPath>
			<g class="st1">
				<defs>
					<rect id="SVGID_3_" x="127.88086" y="33.65941" width="298.50696" height="143.47699"/>
				</defs>
				<clipPath id="SVGID_4_">
					<use xlink:href="#SVGID_3_"  style="overflow:visible;"/>
				</clipPath>
				<polygon class="st2" points="224.75735,33.65927 426.3894,92.90596 329.51047,177.13681 127.88065,117.89233 				"/>
			</g>
			<polyline class="st3" points="425.21637,92.65365 329.2149,176.13365 128.90804,117.27812 			"/>
			<g class="st1">
				<defs>
					<rect id="SVGID_5_" x="127.53082" y="33.32249" width="299.20978" height="144.16505"/>
				</defs>
				<clipPath id="SVGID_6_">
					<use xlink:href="#SVGID_5_"  style="overflow:visible;"/>
				</clipPath>
				<polyline class="st4" points="224.75735,33.65927 426.3894,92.90596 329.51047,177.13681 127.88065,117.89233 
					224.75735,33.65927 				"/>
			</g>
		</g>
		<polyline class="st5" points="275.00635,104.80433 274.98599,94.00161 284.04745,96.58186 		"/>
		<line class="st6" x1="190.88336" y1="80.23576" x2="283.85236" y2="107.39079"/>
		<path class="st7" d="M284.18341,26.78062l79.76904,95.60348 M284.1676,103.53973l0.01581-76.75911 M240.51097,126.49313
			l43.67244-99.7125"/>
		<g>
			<path class="st8" d="M361.30206,122.38783c0-1.46777,1.18503-2.65492,2.65039-2.65492c1.46313,0,2.65036,1.18716,2.65036,2.65492
				c0,1.46086-1.18723,2.64581-2.65036,2.64581C362.48709,125.03365,361.30206,123.84869,361.30206,122.38783"/>
			<path class="st8" d="M361.30206,122.38783h0.39124c0-1.25521,1.01083-2.26376,2.25916-2.26597
				c1.25058,0.0022,2.25912,1.01076,2.25912,2.26597c0,1.24374-1.00854,2.2523-2.25912,2.25451
				c-1.24832-0.0022-2.25687-1.01077-2.25916-2.25451H361.30206h-0.38895c0,1.67342,1.36136,3.03477,3.03934,3.03477
				s3.03937-1.36134,3.03937-3.03477c0-1.68253-1.36139-3.04388-3.03937-3.04388s-3.03485,1.36135-3.03934,3.04388H361.30206z"/>
			<path d="M281.53433,26.78449c0-1.46763,1.18503-2.65258,2.64816-2.65258c1.46307,0,2.65039,1.18495,2.65039,2.65258
				c0,1.46087-1.18732,2.64595-2.65039,2.64595C282.71936,29.43044,281.53433,28.24535,281.53433,26.78449"/>
			<path class="st9" d="M281.53433,26.78449c0-1.46763,1.18503-2.65258,2.64816-2.65258c1.46307,0,2.65039,1.18495,2.65039,2.65258
				c0,1.46087-1.18732,2.64595-2.65039,2.64595C282.71936,29.43044,281.53433,28.24535,281.53433,26.78449z"/>
			<path class="st8" d="M237.86198,126.49534c0-1.46528,1.18495-2.65258,2.6481-2.65258c1.46541,0,2.65036,1.1873,2.65036,2.65258
				c0,1.461-1.18495,2.64596-2.65036,2.64596C239.04694,129.1413,237.86198,127.95634,237.86198,126.49534"/>
			<path class="st8" d="M237.86197,126.49533h0.38898c0-1.25272,1.01083-2.26141,2.25912-2.26361
				c1.25058,0.0022,2.26141,1.01089,2.26141,2.26361c-0.00229,1.24611-1.01083,2.25465-2.26141,2.257
				c-1.24829-0.00235-2.25687-1.01089-2.25912-2.257H237.86197h-0.38895c0,1.67578,1.35907,3.03712,3.03705,3.03712
				c1.68027,0,3.03934-1.36134,3.03934-3.03712c0-1.68018-1.35907-3.04373-3.03934-3.04373
				c-1.67798,0-3.03476,1.36356-3.03705,3.04373H237.86197z"/>
			<path class="st8" d="M281.20309,107.39479c0-1.46763,1.18494-2.65479,2.65036-2.65479c1.46088,0,2.6481,1.18716,2.6481,2.65479
				c0,1.46087-1.18723,2.64595-2.6481,2.64595C282.38803,110.04074,281.20309,108.85566,281.20309,107.39479"/>
			<path class="st8" d="M281.20309,107.39479h0.38895c0-1.25507,1.01083-2.26362,2.26141-2.26583
				c1.24829,0.00221,2.25912,1.01077,2.25912,2.26583c-0.00226,1.24389-1.01083,2.25244-2.25912,2.25465
				c-1.25058-0.00221-2.25912-1.01077-2.26141-2.25465H281.20309h-0.39124c0,1.67342,1.36362,3.03491,3.0416,3.03491
				s3.03934-1.36149,3.03934-3.03491c0-1.6824-1.36136-3.04388-3.03934-3.04388s-3.03711,1.36148-3.0416,3.04388H281.20309z"/>
		</g>
		<g>
			<line class="st10" x1="282.48395" y1="28.27848" x2="190.88316" y2="80.23659"/>
		</g>
	</g>
	<polygon class="st0" points="306.80661,-23.19546 306.8067,-23.19558 306.8067,-23.19556 306.80673,-23.19556 306.8067,-23.19552 
		306.8067,-23.19554 306.80667,-23.19556 306.80673,-23.19554 306.8067,-23.19556 306.80667,-23.19553 306.8067,-23.19556 
		306.8067,-23.19556 306.80664,-23.19553 306.80667,-23.19558 306.80667,-23.19558 306.8067,-23.19555 306.80673,-23.19557 
		306.80667,-23.19557 306.80667,-23.19554 306.80667,-23.19556 306.8067,-23.19553 306.80664,-23.19553 306.8067,-23.19556 
		306.8067,-23.19553 306.8067,-23.19554 306.80667,-23.19556 306.8067,-23.19555 306.8067,-23.19556 306.8067,-23.19551 
		306.80673,-23.19554 306.8067,-23.19555 306.80667,-23.19553 306.80673,-23.19558 306.80667,-23.19555 306.80667,-23.19558 
		306.80673,-23.19555 306.80667,-23.19553 306.80667,-23.19551 306.8067,-23.19556 306.8067,-23.19553 306.8067,-23.19554 
		306.80667,-23.19555 306.8067,-23.19553 306.80667,-23.19555 306.80673,-23.19553 306.80667,-23.19557 306.8067,-23.19558 
		306.80667,-23.19555 306.8067,-23.19554 306.8067,-23.19551 306.80667,-23.19555 306.80667,-23.19551 306.80673,-23.19555 
		306.8067,-23.19556 306.8067,-23.19551 306.80667,-23.19554 306.80667,-23.19551 306.8067,-23.19558 306.8067,-23.19555 
		306.8067,-23.19556 306.8067,-23.19556 306.80673,-23.19557 306.80673,-23.19555 306.8067,-23.19556 306.80664,-23.19552 
		306.80667,-23.19555 306.8067,-23.19551 306.80673,-23.19554 306.80667,-23.19554 306.8067,-23.19558 306.80667,-23.19553 
		306.80673,-23.19557 306.80667,-23.19556 306.8067,-23.19553 306.80667,-23.19551 306.80673,-23.19554 306.80673,-23.19557 
		306.80667,-23.19557 306.80664,-23.19555 306.8067,-23.19553 306.8067,-23.19553 306.8067,-23.19557 306.80667,-23.19551 
		306.80667,-23.19555 306.8067,-23.19556 306.80664,-23.19551 306.80667,-23.19552 306.80673,-23.19556 	"/>
	<g>
		<defs>
			<rect id="SVGID_7_" x="177.4984" y="75.29253" width="8" height="15"/>
		</defs>
		<clipPath id="SVGID_8_">
			<use xlink:href="#SVGID_7_"  style="overflow:visible;"/>
		</clipPath>
		<path class="st11" d="M181.4984,82.79253L181.4984,82.79253z"/>
		<path class="st12" d="M183.9406,77.88162c-0.20938,0.1937-0.70314,0.614-0.70314,0.8828c0,0.14999,0.15001,0.3,0.29845,0.3
			c0.13594,0,0.21094-0.1047,0.28593-0.1953c0.1797-0.2235,0.52345-0.6438,1.18282-0.9735
			c0.10469-0.05939,0.25468-0.1344,0.25468-0.314c0-0.15-0.10469-0.22501-0.20938-0.3c-0.32967-0.2235-0.4953-0.4938-0.61406-0.8532
			c-0.03125-0.1343-0.09061-0.3297-0.29999-0.3297s-0.3,0.1954-0.3,0.3141c0,0.075,0.1203,0.5547,0.35938,0.8688h-5.04688
			c-0.2547,0-0.52344,0-0.52344,0.3c0,0.3,0.26874,0.3,0.52344,0.3H183.9406"/>
		<path class="st12" d="M180.72809,89.99252c-0.58438,0-1.46875-0.375-1.73749-1.8125
			c-0.16563-0.89844-0.16563-2.27656-0.16563-3.15938c0-0.95937,0-1.94687,0.12032-2.75625
			c0.28438-1.78281,1.40781-1.91718,1.78281-1.91718c0.49376,0,1.48282,0.27031,1.7672,1.75312
			c0.14999,0.8375,0.14999,1.97656,0.14999,2.92031c0,1.12344,0,2.14063-0.16562,3.1
			C182.25465,89.54253,181.40154,89.99252,180.72809,89.99252 M183.88747,85.20033c0-1.19844-0.075-2.39687-0.59843-3.50469
			c-0.68907-1.43752-1.91719-1.67812-2.54688-1.67812c-0.89844,0-1.99219,0.38906-2.60625,1.78281
			c-0.47813,1.03281-0.55313,2.20156-0.55313,3.4c0,1.12344,0.05937,2.47031,0.67343,3.60938
			c0.64375,1.21249,1.7375,1.5125,2.47188,1.5125c0.80782,0,1.94687-0.31406,2.60626-1.7375
			C183.81247,87.5519,183.88747,86.38314,183.88747,85.20033z"/>
	</g>
	<polygon class="st0" points="315.60028,0.00012 315.60037,0 315.60037,0.00002 315.60037,0.00002 315.60037,0 315.60034,0.00001 
		315.60034,0.00007 315.60031,0.00002 315.60037,0 315.60034,0.00006 315.60037,0.00002 315.60034,0.00002 315.60031,0.00002 
		315.60031,0.00002 315.60034,0.00002 315.60037,0.00004 315.60034,0.00005 315.60037,0.00005 315.60031,0.00004 315.60034,0.00007 
		315.60031,0.00006 315.60037,0.00008 315.60034,0.00005 315.60037,0.00002 315.60034,0.00002 315.60037,0 315.60034,0.00007 
		315.60034,0.00007 315.60034,0.00001 315.60031,0.00004 315.60037,0.00001 315.60037,0.00005 315.60034,0.00003 315.60034,0.00001 
		315.60037,0.00007 315.60034,0.00001 315.60034,0.00006 315.60037,0.00007 315.60037,0.00004 315.60037,0.00002 315.60031,0.00005 
		315.60037,0.00003 315.60034,0 315.60034,0.00007 315.60031,0.00006 315.60037,0 315.60034,0.00005 315.6004,0.00004 
		315.60034,0.00005 315.60031,0.00004 315.60034,0.00005 315.60034,0.00002 315.60034,0.00007 315.60034,0 315.60037,0.00004 
		315.6004,0.00005 315.60034,0.00004 315.60037,0.00005 315.60034,0.00001 315.60034,0.00004 315.60037,0.00001 315.60037,0.00005 
		315.60031,0.00007 315.60037,0.00007 315.60037,0.00004 315.60037,0.00007 315.60031,0.00004 315.60037,0.00001 315.60037,0.00005 
		315.60034,0.00001 315.60034,0.00005 315.60034,0.00001 315.60037,0.00004 315.60034,0.00001 315.6004,0.00001 315.60034,0.00007 
		315.60031,0.00005 315.60037,0.00006 315.60034,0.00004 315.60037,0.00003 315.60037,0.00007 315.60031,0.00003 315.6004,0.00004 
		315.60034,0.00007 315.60034,0.00002 315.60034,0.00007 315.60037,0.00002 315.60037,0.00006 	"/>
	<g>
		<defs>
			<rect id="SVGID_9_" x="280.76389" y="4.46226" width="8" height="15"/>
		</defs>
		<clipPath id="SVGID_10_">
			<use xlink:href="#SVGID_9_"  style="overflow:visible;"/>
		</clipPath>
		<path class="st13" d="M284.76389,11.96226L284.76389,11.96226z"/>
		<path class="st14" d="M286.60605,6.45136c-0.20938,0.1937-0.70312,0.614-0.70312,0.8828c0,0.15,0.14999,0.3,0.29846,0.3
			c0.13593,0,0.21094-0.1047,0.28592-0.1953c0.17969-0.2235,0.52344-0.6438,1.18283-0.9735
			c0.10468-0.0594,0.25467-0.1344,0.25467-0.314c0-0.15-0.10468-0.225-0.20938-0.3c-0.32968-0.2235-0.4953-0.4938-0.61404-0.8532
			c-0.03125-0.1343-0.09064-0.3297-0.30002-0.3297c-0.20935,0-0.29999,0.1954-0.29999,0.3141c0,0.075,0.1203,0.5547,0.35938,0.8688
			h-5.04688c-0.2547,0-0.52344,0-0.52344,0.3s0.26874,0.3,0.52344,0.3H286.60605"/>
		<path class="st14" d="M282.43576,14.69351c0.08905-0.32813,0.08905-0.35938,0.22501-0.52344
			c0.73279-0.97344,1.40781-1.19844,1.79684-1.19844c0.53906,0,0.94376,0.45,0.94376,1.40782
			c0,0.88437-0.4953,2.60625-0.76407,3.175c-0.49374,1.00312-1.1828,1.54375-1.76718,1.54375
			c-0.50937,0-1.00311-0.40469-1.00311-1.51407c0-0.28437,0-0.56875,0.23904-1.5125L282.43576,14.69351 M283.84357,9.03256
			c0-0.0141,0-0.1641-0.19531-0.1641c-0.34375,0-1.4375,0.1204-1.82657,0.15c-0.1203,0.0141-0.28436,0.0297-0.28436,0.2985
			c0,0.17967,0.13437,0.17967,0.35934,0.17967c0.71875,0,0.74844,0.10625,0.74844,0.25469
			c0,0.10469-0.13437,0.61406-0.20935,0.92969l-1.22815,4.88125c-0.17969,0.75-0.23904,0.98906-0.23904,1.51406
			c0,1.42188,0.79373,2.35,1.90155,2.35c1.76718,0,3.60938-2.23125,3.60938-4.3875c0-1.3625-0.79373-2.39687-1.99219-2.39687
			c-0.68906,0-1.30313,0.43437-1.75156,0.89843L283.84357,9.03256z"/>
	</g>
	<polygon class="st0" points="287.60187,117.78365 287.60196,117.78354 287.60199,117.78356 287.60199,117.78355 
		287.60196,117.78354 287.60193,117.78357 287.60196,117.78353 287.60199,117.78354 287.60199,117.78354 287.60193,117.78359 
		287.60199,117.78355 287.60196,117.78354 287.60193,117.7836 287.60196,117.78356 287.60193,117.78355 287.60193,117.78358 
		287.60193,117.78354 287.60199,117.78357 287.60193,117.78358 287.60196,117.78358 287.60196,117.78361 287.60193,117.78358 
		287.60199,117.78361 287.60193,117.78355 287.60199,117.78358 287.60196,117.7836 287.60193,117.78355 287.60199,117.78358 
		287.60193,117.78355 287.60199,117.78358 287.60199,117.78355 287.60196,117.78355 287.60196,117.78359 287.60196,117.78359 
		287.60193,117.78355 287.60199,117.78355 287.60193,117.78358 287.60193,117.78361 287.60199,117.78359 287.60199,117.78361 
		287.60199,117.78358 287.60196,117.78358 287.60193,117.78353 287.60196,117.78355 287.60196,117.78362 287.60193,117.78357 
		287.60199,117.78354 287.60193,117.78355 287.60193,117.78358 287.60199,117.78357 287.60199,117.78358 287.60199,117.78355 
		287.60196,117.78361 287.60196,117.78358 287.60196,117.78358 287.60199,117.78354 287.60193,117.78357 287.60199,117.78358 
		287.60199,117.78354 287.60199,117.78358 287.60193,117.78355 287.60199,117.78357 287.60196,117.78355 287.60196,117.78353 
		287.60193,117.78355 287.60196,117.78355 287.60193,117.7836 287.60193,117.78353 287.60193,117.78357 287.60196,117.78357 
		287.60196,117.78354 287.60199,117.78358 287.60196,117.78358 287.60196,117.78361 287.60196,117.78357 287.60196,117.78357 
		287.60196,117.78354 287.60199,117.78355 287.60193,117.7836 287.60196,117.78361 287.60199,117.78358 287.60199,117.78356 
		287.60193,117.78357 287.60196,117.78356 287.60196,117.78355 287.60199,117.78357 287.60196,117.78358 287.60199,117.7836 
		287.60199,117.78362 287.60199,117.78355 287.60199,117.78356 287.60199,117.78359 	"/>
	<polygon class="st0" points="235.55573,138.95595 235.55583,138.95583 235.55583,138.95586 235.55585,138.95586 
		235.55582,138.95584 235.55582,138.95586 235.5558,138.95584 235.55579,138.95584 235.55583,138.9559 235.55579,138.95589 
		235.55583,138.95586 235.55582,138.95584 235.55577,138.95589 235.55579,138.95584 235.5558,138.95584 235.55583,138.95587 
		235.5558,138.95587 235.55582,138.95589 235.55579,138.95584 235.5558,138.95587 235.55585,138.95589 235.55577,138.95589 
		235.55582,138.95586 235.55582,138.95589 235.55582,138.95587 235.55579,138.95586 235.55583,138.95587 235.55585,138.95586 
		235.55585,138.9559 235.55585,138.95587 235.55585,138.95586 235.55583,138.95587 235.55585,138.9559 235.55579,138.95589 
		235.5558,138.95584 235.55583,138.95587 235.5558,138.95587 235.5558,138.9559 235.55582,138.95587 235.55583,138.9559 
		235.5558,138.95587 235.55577,138.95587 235.55577,138.95587 235.55582,138.95587 235.55582,138.95586 235.55582,138.95584 
		235.55583,138.95587 235.55577,138.95584 235.55577,138.95589 235.55583,138.95584 235.5558,138.95584 235.5558,138.95584 
		235.55577,138.95589 235.55583,138.95587 235.55583,138.95584 235.55583,138.95587 235.55577,138.95587 235.55583,138.95587 
		235.55585,138.95584 235.5558,138.95584 235.5558,138.95587 235.55582,138.95584 235.55577,138.95587 235.55577,138.95584 
		235.55585,138.95584 235.55583,138.9559 235.55582,138.95589 235.5558,138.9559 235.55579,138.9559 235.5558,138.95587 
		235.55579,138.95589 235.55577,138.95587 235.5558,138.95586 235.55585,138.95586 235.55585,138.95587 235.55582,138.95587 
		235.55579,138.95584 235.55579,138.95586 235.5558,138.95587 235.5558,138.95584 235.55583,138.95589 235.55585,138.95587 
		235.55585,138.95589 235.55579,138.9559 235.55583,138.95583 235.55579,138.9559 235.5558,138.95586 235.55579,138.9559 
		235.55585,138.95584 	"/>
	<g>
		<defs>
			<rect id="SVGID_11_" x="231.46339" y="130.36755" width="15.77134" height="8.83195"/>
		</defs>
		<clipPath id="SVGID_12_">
			<use xlink:href="#SVGID_11_"  style="overflow:visible;"/>
		</clipPath>
		<path class="st15" d="M239.34908,134.78354L239.34908,134.78354z"/>
		<path class="st16" d="M234.28844,135.02109l1.86102-3.11778l0.30261,3.11778H234.28844z M233.15488,136.40994
			c-0.37851,0.63283-0.74619,0.76492-1.16216,0.7935c-0.11336,0.00888-0.19911,0.00888-0.19911,0.18925
			c0,0.05618,0.04732,0.1035,0.12321,0.1035c0.25529,0,0.54805-0.02858,0.81223-0.02858c0.31247,0,0.64268,0.02858,0.9453,0.02858
			c0.05618,0,0.1794,0,0.1794-0.1794c0-0.10448-0.08478-0.11336-0.15082-0.11336c-0.21783-0.01872-0.44455-0.09462-0.44455-0.33119
			c0-0.11336,0.05717-0.21686,0.13208-0.34895l0.71858-1.20946h2.37161c0.01874,0.19814,0.15082,1.48349,0.15082,1.57812
			c0,0.2829-0.49089,0.31148-0.68015,0.31148c-0.13208,0-0.2267,0-0.2267,0.18925c0,0.1035,0.11336,0.1035,0.13208,0.1035
			c0.38739,0,0.7935-0.02858,1.18088-0.02858c0.23657,0,0.83194,0.02858,1.0675,0.02858c0.05722,0,0.17052,0,0.17052-0.18925
			c0-0.1035-0.09462-0.1035-0.21683-0.1035c-0.5865,0-0.5865-0.06604-0.61508-0.34007l-0.57565-5.9054
			c-0.01874-0.18925-0.01874-0.22667-0.1794-0.22667c-0.15179,0-0.18925,0.06599-0.24643,0.16061L233.15488,136.40994z"/>
		<path class="st16" d="M245.3688,131.87473c-0.13211,0.12221-0.44356,0.38734-0.44356,0.55692
			c0,0.09464,0.09464,0.18927,0.18825,0.18927c0.08574,0,0.13304-0.06606,0.18036-0.12321
			c0.11336-0.14099,0.33025-0.40614,0.74623-0.61414c0.06599-0.03748,0.16063-0.08478,0.16063-0.19809
			c0-0.09462-0.06599-0.14194-0.13205-0.18925c-0.20799-0.14099-0.31245-0.31151-0.38741-0.53824
			c-0.01968-0.08473-0.05716-0.20799-0.18925-0.20799s-0.18925,0.12326-0.18925,0.19815c0,0.04732,0.0759,0.34993,0.22673,0.54808
			h-3.18385c-0.16068,0-0.33018,0-0.33018,0.18925s0.16951,0.18925,0.33018,0.18925H245.3688"/>
		<path class="st16" d="M241.68423,134.64258c0.05716-0.24544,0.27399-1.11484,0.93542-1.11484c0.04732,0,0.27405,0,0.47314,0.12321
			c-0.26515,0.04732-0.45346,0.2829-0.45346,0.50961c0,0.15179,0.10353,0.33119,0.35884,0.33119
			c0.20799,0,0.5096-0.17052,0.5096-0.54805c0-0.49089-0.55692-0.62395-0.87828-0.62395c-0.54802,0-0.87827,0.50073-0.99164,0.71857
			c-0.23656-0.62395-0.74712-0.71857-1.02116-0.71857c-0.98274,0-1.52098,1.21931-1.52098,1.4549
			c0,0.09464,0.09462,0.09464,0.11336,0.09464c0.0759,0,0.10454-0.01874,0.12321-0.1035
			c0.32135-1.00148,0.94432-1.23805,1.26569-1.23805c0.17941,0,0.5106,0.08478,0.5106,0.63283
			c0,0.29373-0.16068,0.92656-0.5106,2.24937c-0.15085,0.58553-0.48204,0.98276-0.89702,0.98276
			c-0.05716,0-0.27405,0-0.47314-0.12321c0.23657-0.04732,0.44456-0.24544,0.44456-0.51059
			c0-0.25432-0.20799-0.33022-0.34993-0.33022c-0.28288,0-0.51945,0.24544-0.51945,0.54805
			c0,0.43469,0.47214,0.62297,0.88812,0.62297c0.62398,0,0.964-0.66141,0.99164-0.71759
			c0.11337,0.34993,0.45441,0.71759,1.02116,0.71759c0.9729,0,1.51108-1.21834,1.51108-1.45491
			c0-0.09462-0.08472-0.09462-0.11336-0.09462c-0.08472,0-0.10345,0.03844-0.12219,0.10449
			c-0.31247,1.01132-0.95418,1.23804-1.25679,1.23804c-0.36867,0-0.51944-0.30261-0.51944-0.62395
			c0-0.20799,0.05614-0.41597,0.16068-0.83194L241.68423,134.64258"/>
		<path class="st16" d="M246.1505,134.71452c0-0.17741-0.01288-0.18333-0.1962-0.18333
			c-0.41991,0.41301-1.01625,0.41893-1.28537,0.41893v0.23657c0.15771,0,0.59048,0,0.95026-0.18335v3.34354
			c0,0.21587,0,0.30162-0.65552,0.30162h-0.24837v0.23558c0.11728-0.0069,0.92357-0.02661,1.16606-0.02661
			c0.20403,0,1.03006,0.01971,1.17397,0.02661v-0.23558h-0.24937c-0.65546,0-0.65546-0.08575-0.65546-0.30162V134.71452"/>
	</g>
	<polygon class="st0" points="353.99072,134.78366 353.99081,134.78354 353.99081,134.78355 353.99084,134.78355 
		353.99081,134.78357 353.99084,134.78354 353.99084,134.78354 353.99078,134.78357 353.99084,134.78358 353.99078,134.78358 
		353.99081,134.78355 353.99081,134.78355 353.99078,134.78355 353.99084,134.78354 353.99081,134.7836 353.99084,134.78354 
		353.99084,134.78355 353.99078,134.7836 353.99084,134.78354 353.99081,134.7836 353.99078,134.78358 353.99081,134.7836 
		353.99078,134.78357 353.99084,134.78358 353.99084,134.78354 353.99081,134.78362 353.99078,134.78357 353.99081,134.7836 
		353.99078,134.78355 353.99078,134.7836 353.99084,134.78354 353.99081,134.78358 353.99081,134.78355 353.99078,134.78354 
		353.99078,134.78357 353.99081,134.78355 353.99078,134.78358 353.99084,134.78355 353.99084,134.78358 353.99081,134.78354 
		353.99084,134.78358 353.99081,134.78358 353.99081,134.78358 353.99081,134.78354 353.99081,134.78355 353.99081,134.78355 
		353.99084,134.78357 353.99078,134.78358 353.99078,134.78358 353.99084,134.78355 353.99081,134.78354 353.99081,134.78355 
		353.99078,134.78358 353.99081,134.78357 353.99081,134.78355 353.99084,134.78357 353.99075,134.78358 353.99084,134.78357 
		353.99084,134.78354 353.99078,134.78354 353.99081,134.78357 353.99081,134.78355 353.99078,134.78357 353.99078,134.78355 
		353.99084,134.78354 353.99084,134.7836 353.99081,134.78358 353.99078,134.7836 353.99078,134.7836 353.99081,134.78358 
		353.99078,134.78358 353.99078,134.78358 353.99078,134.78355 353.99084,134.78357 353.99084,134.78357 353.99081,134.78354 
		353.99081,134.78357 353.99081,134.78354 353.99078,134.78358 353.99078,134.78357 353.99081,134.78355 353.99081,134.78354 
		353.99081,134.78355 353.99081,134.7836 353.99084,134.78354 353.99078,134.78362 353.99084,134.78357 353.99078,134.78362 
		353.99084,134.78355 	"/>
	<g>
		<defs>
			<rect id="SVGID_13_" x="357.09952" y="127.27966" width="16.40219" height="8.83195"/>
		</defs>
		<clipPath id="SVGID_14_">
			<use xlink:href="#SVGID_13_"  style="overflow:visible;"/>
		</clipPath>
		<path class="st17" d="M365.30063,131.69563L365.30063,131.69563z"/>
		<path class="st18" d="M359.92456,131.93318l1.86102-3.11778l0.30261,3.11778H359.92456z M358.79102,133.32205
			c-0.37851,0.63283-0.74619,0.76491-1.16217,0.7935c-0.11334,0.00887-0.1991,0.00887-0.1991,0.18925
			c0,0.05618,0.0473,0.10349,0.1232,0.10349c0.25531,0,0.54807-0.02858,0.81223-0.02858c0.31247,0,0.6427,0.02858,0.94531,0.02858
			c0.05618,0,0.17938,0,0.17938-0.1794c0-0.10448-0.08478-0.11334-0.15082-0.11334
			c-0.21783-0.01874-0.44455-0.09464-0.44455-0.33121c0-0.11336,0.05719-0.21686,0.13208-0.34894l0.7186-1.20947h2.37161
			c0.01874,0.19814,0.15082,1.48351,0.15082,1.57812c0,0.2829-0.49091,0.31149-0.68015,0.31149
			c-0.13208,0-0.22672,0-0.22672,0.18925c0,0.10349,0.11337,0.10349,0.13208,0.10349c0.38739,0,0.79352-0.02858,1.18088-0.02858
			c0.23657,0,0.83194,0.02858,1.0675,0.02858c0.05722,0,0.17053,0,0.17053-0.18925c0-0.10349-0.09464-0.10349-0.21683-0.10349
			c-0.58652,0-0.58652-0.06606-0.61508-0.34009l-0.57565-5.9054c-0.01874-0.18925-0.01874-0.22667-0.17941-0.22667
			c-0.15179,0-0.18924,0.06599-0.24643,0.16062L358.79102,133.32205z"/>
		<path class="st18" d="M371.00494,128.78683c-0.13211,0.12219-0.44357,0.38733-0.44357,0.55692
			c0,0.09462,0.09464,0.18925,0.18826,0.18925c0.08572,0,0.13303-0.06606,0.18036-0.12321
			c0.11337-0.14099,0.33026-0.40614,0.74622-0.61414c0.06601-0.03746,0.16064-0.08478,0.16064-0.19809
			c0-0.09462-0.06601-0.14194-0.13205-0.18925c-0.20801-0.14099-0.31247-0.31151-0.38742-0.53824
			c-0.01968-0.08472-0.05713-0.20799-0.18924-0.20799s-0.18927,0.12327-0.18927,0.19815c0,0.04732,0.0759,0.34993,0.22675,0.54808
			h-3.18387c-0.16068,0-0.33017,0-0.33017,0.18925c0,0.18927,0.16949,0.18927,0.33017,0.18927H371.00494"/>
		<path class="st18" d="M367.32037,131.55467c0.05716-0.24544,0.27399-1.11484,0.93542-1.11484c0.0473,0,0.27405,0,0.47314,0.12321
			c-0.26517,0.04732-0.45346,0.2829-0.45346,0.50961c0,0.15179,0.10352,0.33119,0.35883,0.33119
			c0.20801,0,0.50961-0.17052,0.50961-0.54805c0-0.49089-0.55692-0.62395-0.8783-0.62395c-0.548,0-0.87827,0.50073-0.99164,0.71858
			c-0.23654-0.62396-0.7471-0.71858-1.02115-0.71858c-0.98276,0-1.521,1.21931-1.521,1.45491
			c0,0.09462,0.09464,0.09462,0.11337,0.09462c0.0759,0,0.10452-0.01872,0.1232-0.1035
			c0.32135-1.00148,0.94434-1.23805,1.26569-1.23805c0.17941,0,0.51062,0.08478,0.51062,0.63283
			c0,0.29373-0.16068,0.92656-0.51062,2.24939c-0.15085,0.58551-0.48203,0.98276-0.897,0.98276
			c-0.05716,0-0.27405,0-0.47314-0.12323c0.23657-0.0473,0.44455-0.24544,0.44455-0.51059
			c0-0.25432-0.20798-0.33022-0.34991-0.33022c-0.2829,0-0.51944,0.24544-0.51944,0.54805
			c0,0.43471,0.47211,0.62297,0.88809,0.62297c0.62399,0,0.96402-0.66141,0.99164-0.71759
			c0.11337,0.34993,0.45441,0.71759,1.02118,0.71759c0.9729,0,1.51108-1.21834,1.51108-1.4549
			c0-0.09464-0.08472-0.09464-0.11337-0.09464c-0.08472,0-0.10345,0.03844-0.12219,0.10449
			c-0.31247,1.01134-0.95416,1.23805-1.25677,1.23805c-0.36868,0-0.51944-0.30263-0.51944-0.62396
			c0-0.20798,0.05612-0.41597,0.16068-0.83194L367.32037,131.55467"/>
		<path class="st18" d="M372.9014,134.60347h-0.22275c-0.01968,0.14392-0.08572,0.53032-0.17053,0.59636
			c-0.05322,0.03943-0.55792,0.03943-0.64957,0.03943h-1.20651c0.68903-0.61015,0.9187-0.7935,1.31198-1.10204
			c0.48499-0.38638,0.93738-0.7925,0.93738-1.41547c0-0.7935-0.69489-1.27847-1.53473-1.27847
			c-0.81223,0-1.36322,0.56975-1.36322,1.17299c0,0.33417,0.28192,0.36768,0.34799,0.36768
			c0.15671,0,0.34695-0.11139,0.34695-0.34796c0-0.11827-0.04636-0.34697-0.38638-0.34697
			c0.203-0.46623,0.64856-0.61014,0.95706-0.61014c0.65552,0,0.99655,0.51158,0.99655,1.04288
			c0,0.56973-0.40707,1.02217-0.61703,1.25874l-1.5791,1.56038c-0.06604,0.05817-0.06604,0.07196-0.06604,0.25529h2.70081
			L372.9014,134.60347"/>
	</g>
	<polygon class="st0" points="396.49744,95.54025 396.49753,95.54013 396.49753,95.54015 396.49756,95.54015 396.49747,95.54013 
		396.4975,95.54018 396.49747,95.54015 396.49753,95.54015 396.49747,95.54018 396.4975,95.54019 396.49753,95.54015 
		396.4975,95.54015 396.49747,95.54017 396.49753,95.54015 396.4975,95.5402 396.4975,95.54014 396.49753,95.54018 
		396.49753,95.54018 396.49753,95.54021 396.4975,95.5402 396.4975,95.54018 396.49753,95.54018 396.49756,95.54021 
		396.49753,95.54017 396.4975,95.54018 396.49753,95.5402 396.4975,95.54018 396.49753,95.5402 396.49753,95.54021 
		396.49753,95.54017 396.49753,95.54014 396.49747,95.54018 396.4975,95.5402 396.4975,95.54014 396.4975,95.54015 
		396.4975,95.54017 396.49747,95.54018 396.4975,95.54021 396.4975,95.54021 396.4975,95.54018 396.49756,95.54015 
		396.49753,95.54015 396.49753,95.54018 396.4975,95.54017 396.4975,95.54014 396.49753,95.54017 396.4975,95.54015 
		396.49753,95.5402 396.49753,95.54018 396.49753,95.54017 396.4975,95.54018 396.4975,95.54016 396.4975,95.54018 
		396.4975,95.54015 396.4975,95.54015 396.4975,95.54015 396.49756,95.54017 396.49756,95.54018 396.49753,95.54021 
		396.49747,95.54018 396.49747,95.54018 396.49753,95.54017 396.4975,95.54018 396.49747,95.54015 396.4975,95.54014 
		396.4975,95.54015 396.4975,95.54014 396.4975,95.54015 396.49753,95.54018 396.4975,95.5402 396.49753,95.5402 
		396.49753,95.54015 396.49747,95.54018 396.4975,95.54014 396.49753,95.54017 396.49753,95.54015 396.49753,95.5402 
		396.4975,95.54014 396.49753,95.54015 396.4975,95.54015 396.4975,95.54015 396.49753,95.54015 396.49753,95.5402 
		396.49756,95.54015 396.49747,95.5402 396.49756,95.54015 396.49753,95.54015 396.4975,95.54021 396.49756,95.54015 	"/>
	<g>
		<defs>
			
				<rect id="SVGID_15_" x="390.06244" y="77.46293" transform="matrix(0.27883 -0.96034 0.96034 0.27883 195.39204 448.11807)" width="12" height="33"/>
		</defs>
		<clipPath id="SVGID_16_">
			<use xlink:href="#SVGID_15_"  style="overflow:visible;"/>
		</clipPath>
		<path class="st19" d="M396.06244,93.96293L396.06244,93.96293z"/>
		<path class="st20" d="M388.68457,94.12305c0.04181-0.14405,0.07101-0.24459-0.11505-0.29861
			c-0.15906-0.04618-0.1839,0.03934-0.23923,0.17948c-0.71283,2.02368-2.59482,2.7561-4.16287,2.30083
			c-0.87631-0.25443-3.5538-1.56223-2.30908-5.84925c1.24863-4.30053,4.19473-3.97398,5.07254-3.71911
			c1.56805,0.45528,2.46811,2.13541,2.1452,4.31787c-0.02838,0.20978-0.04102,0.2533,0.16006,0.31168
			c0.22958,0.06666,0.24222,0.02315,0.32977-0.27846l0.98987-3.40921c0.07101-0.2446,0.10019-0.34515-0.05737-0.39089
			c-0.0585-0.01699-0.11554-0.03355-0.28116,0.10548l-1.02811,0.8567c-0.38239-0.67237-0.90552-1.60523-2.28751-2.00648
			c-2.68893-0.78072-5.66824,0.83386-6.52042,3.76891c-0.86438,2.97705,0.81027,5.91196,3.48422,6.68832
			C386.21078,97.38125,388.2001,95.79164,388.68457,94.12305"/>
		<path class="st20" d="M395.02655,96.13524c-0.1503,0.51768-0.37598,1.29497-0.87595,1.83479
			c-0.50482,0.5563-1.25766,0.79003-1.97791,0.58091c-0.61829-0.17951-1.16394-0.66498-1.35892-1.43911
			c-0.1763-0.73779,0.07858-1.6156,0.22888-2.13328c0.16293-0.5612,0.38818-1.33698,0.91718-1.86999
			c0.58078-0.5489,1.34357-0.65446,1.91977-0.48716c0.63171,0.18341,1.15952,0.67995,1.35367,1.40667
			C395.42737,94.75475,395.18512,95.58905,395.02655,96.13524 M396.18747,96.59759c0.53458-1.84116-0.46176-3.78349-2.20239-4.28887
			c-1.79764-0.52194-3.64841,0.64095-4.17032,2.43858c-0.53851,1.85466,0.5567,3.66952,2.24026,4.15833
			C393.79565,99.41101,395.65726,98.42374,396.18747,96.59759z"/>
		<path class="st20" d="M399.38889,100.86414l0.12939-0.44566c-0.96341-0.27972-1.12091-0.32545-0.93314-0.97218l2.58093-8.8892
			l-2.11798-0.44407l-0.12939,0.44569c1.00684,0.29232,1.09274,0.42787,0.8884,1.13163l-2.17181,7.48015
			c-0.18777,0.64674-0.34537,0.60098-1.31012,0.32086l-0.12939,0.44566l1.60919,0.42004L399.38889,100.86414"/>
		<path class="st20" d="M405.05341,98.42334l4.21103-3.92365l-0.91733,4.87994L405.05341,98.42334z M402.71402,100.03658
			c-0.85593,0.79605-1.47406,0.83459-2.11987,0.69427c-0.17648-0.03661-0.3071-0.07452-0.38681,0.20007
			c-0.02484,0.08553,0.02628,0.17847,0.14191,0.21204c0.38855,0.11282,0.84686,0.19871,1.24905,0.31548
			c0.47568,0.1381,0.96567,0.32756,1.42636,0.46131c0.08557,0.02484,0.2731,0.0793,0.35242-0.19379
			c0.04617-0.15906-0.07898-0.21004-0.17953-0.23923c-0.32333-0.12479-0.63492-0.34054-0.53036-0.70067
			c0.05011-0.17256,0.18286-0.30486,0.35532-0.4728l1.62851-1.52354l3.6102,1.04821
			c-0.05905,0.30989-0.42606,2.32497-0.4679,2.46902c-0.12503,0.43065-0.88492,0.25721-1.173,0.17356
			c-0.20111-0.05839-0.34515-0.10021-0.4288,0.18789c-0.04575,0.15755,0.12683,0.20766,0.15536,0.21594
			c0.58963,0.1712,1.22055,0.3072,1.81018,0.4784c0.36014,0.10456,1.25388,0.41123,1.61246,0.51535
			c0.0871,0.02528,0.25958,0.07536,0.34323-0.21274c0.04575-0.15755-0.0983-0.19938-0.28433-0.25339
			c-0.89282-0.25923-0.86362-0.35976-0.78601-0.78955l1.7338-9.24415c0.05515-0.29639,0.07166-0.35333-0.17294-0.42435
			c-0.23105-0.06709-0.31726,0.0168-0.44608,0.13559L402.71402,100.03658z"/>
	</g>
	<polygon class="st0" points="300.93704,121.51659 300.93713,121.51648 300.93713,121.5165 300.93716,121.51649 
		300.93713,121.51648 300.93713,121.51647 300.9371,121.51649 300.93713,121.51649 300.93713,121.51649 300.9371,121.51653 
		300.93713,121.51649 300.93713,121.51648 300.9371,121.51654 300.9371,121.51648 300.9371,121.51648 300.93713,121.51649 
		300.93716,121.51649 300.9371,121.51653 300.9371,121.51653 300.93713,121.51649 300.9371,121.51653 300.9371,121.51654 
		300.93716,121.51654 300.9371,121.51648 300.93716,121.51654 300.93716,121.51653 300.93713,121.51649 300.93707,121.51652 
		300.93716,121.51654 300.93713,121.51651 300.93707,121.51649 300.9371,121.51653 300.93716,121.51651 300.93713,121.51653 
		300.93713,121.51652 300.9371,121.51649 300.9371,121.51649 300.93707,121.51649 300.93716,121.51649 300.9371,121.51656 
		300.93716,121.51649 300.9371,121.51649 300.9371,121.51652 300.93713,121.51653 300.9371,121.51653 300.9371,121.51648 
		300.93713,121.51651 300.93713,121.51649 300.93713,121.51648 300.93716,121.51655 300.9371,121.51651 300.93707,121.51652 
		300.93713,121.51652 300.9371,121.5165 300.93713,121.51647 300.93713,121.51651 300.93713,121.51653 300.9371,121.51649 
		300.93716,121.51651 300.93713,121.51654 300.93716,121.51649 300.93713,121.51649 300.9371,121.5165 300.93713,121.51649 
		300.9371,121.51649 300.93716,121.51651 300.93716,121.51648 300.93716,121.51651 300.93713,121.51655 300.93713,121.51648 
		300.9371,121.51649 300.9371,121.51648 300.9371,121.51649 300.9371,121.51651 300.9371,121.51649 300.9371,121.51652 
		300.93713,121.51649 300.93713,121.51648 300.9371,121.51651 300.93707,121.51654 300.9371,121.51648 300.93707,121.51652 
		300.93716,121.51649 300.93713,121.51653 300.9371,121.51649 300.9371,121.51651 300.93713,121.5165 300.93716,121.51653 
		300.9371,121.51654 300.93713,121.51649 300.9371,121.51648 300.93716,121.51653 300.93713,121.5165 300.93716,121.51653 	"/>
	<g>
		<defs>
			<rect id="SVGID_17_" x="288.98889" y="97.78495" width="50.05065" height="13.08142"/>
		</defs>
		<clipPath id="SVGID_18_">
			<use xlink:href="#SVGID_17_"  style="overflow:visible;"/>
		</clipPath>
		<path class="st21" d="M314.01422,104.32566L314.01422,104.32566z"/>
		<polyline class="st22" points="290.54944,98.01598 289.40836,99.17397 289.56122,99.32771 290.54944,98.45859 291.52966,99.32771 
			291.6825,99.17397 290.54944,98.01598 		"/>
		<path class="st22" d="M292.31168,101.24817c-0.11908,0.11017-0.3999,0.34922-0.3999,0.5021
			c0,0.08532,0.08533,0.17063,0.16974,0.17063c0.07733,0,0.12-0.05955,0.16263-0.11108
			c0.1022-0.12712,0.29773-0.36617,0.67273-0.55369c0.05957-0.03378,0.14487-0.07644,0.14487-0.17859
			c0-0.08531-0.05954-0.12797-0.11908-0.17063c-0.1875-0.12711-0.28171-0.28085-0.34924-0.48526
			c-0.01779-0.07639-0.05154-0.18752-0.17065-0.18752c-0.11908,0-0.17062,0.11114-0.17062,0.17865
			c0,0.04266,0.06845,0.31549,0.20441,0.49413h-2.87045c-0.14484,0-0.2977,0-0.2977,0.17063
			c0,0.17062,0.15286,0.17062,0.2977,0.17062H292.31168"/>
		<path class="st22" d="M289.93979,105.99283c0.05066-0.18662,0.05066-0.2044,0.12799-0.29771
			c0.41678-0.55363,0.80069-0.6816,1.02197-0.6816c0.30658,0,0.53677,0.25592,0.53677,0.80069
			c0,0.50299-0.28171,1.48232-0.43457,1.8058c-0.28082,0.57053-0.67273,0.87802-1.0051,0.87802
			c-0.28973,0-0.57056-0.23017-0.57056-0.86114c0-0.16174,0-0.32349,0.13599-0.86024L289.93979,105.99283 M290.74051,102.77312
			c0-0.00802,0-0.09334-0.11108-0.09334c-0.19553,0-0.8176,0.06848-1.03888,0.08532
			c-0.06842,0.00802-0.16174,0.01689-0.16174,0.16977c0,0.10221,0.07642,0.10221,0.20441,0.10221
			c0.40878,0,0.42566,0.0604,0.42566,0.14486c0,0.05949-0.07642,0.34922-0.11908,0.52872l-0.69849,2.77628
			c-0.1022,0.42657-0.13599,0.56254-0.13599,0.86113c0,0.80871,0.45145,1.33659,1.08154,1.33659
			c1.0051,0,2.05286-1.26904,2.05286-2.49543c0-0.77493-0.45145-1.36323-1.13309-1.36323
			c-0.39191,0-0.74115,0.24707-0.99622,0.51099L290.74051,102.77312z"/>
		<path class="st22" d="M300.59424,107.45827c0.11908,0,0.28079,0,0.28079-0.17062c0-0.16975-0.16171-0.16975-0.28967-0.16975
			h-5.08508c-0.12799,0-0.28967,0-0.28967,0.16975c0,0.17062,0.16168,0.17062,0.28079,0.17062H300.59424 M300.58536,105.80621
			c0.12796,0,0.28967,0,0.28967-0.17063c0-0.17062-0.16171-0.17062-0.28079-0.17062h-5.10284c-0.11911,0-0.28079,0-0.28079,0.17062
			c0,0.17063,0.16168,0.17063,0.28967,0.17063H300.58536z"/>
		<path class="st22" d="M307.45041,106.75176c0,1.02998-0.59631,1.74627-1.22641,1.74627c-0.34033,0-0.6647-0.17063-0.89395-0.51988
			c-0.12003-0.17863-0.12003-0.18752-0.12003-0.35814v-1.89912c0.24707-0.43457,0.66476-0.68161,1.0993-0.68161
			C306.93143,105.03928,307.45041,105.78843,307.45041,106.75176 M308.15778,106.75176c0-1.08241-0.82645-1.92577-1.78003-1.92577
			c-0.6647,0-1.02286,0.37502-1.19257,0.56253V104.826l-1.22726,0.09418v0.26395c0.60516,0,0.6647,0.05066,0.6647,0.42568v3.98663
			c0,0.38302-0.09332,0.38302-0.6647,0.38302v0.26483l0.95444-0.02577l0.96243,0.02577v-0.26483
			c-0.57056,0-0.66476,0-0.66476-0.38302v-1.43079v-0.07732c0.04266,0.13686,0.40082,0.59631,1.04776,0.59631
			C307.27179,108.68465,308.15778,107.85017,308.15778,106.75176z"/>
		<path class="st22" d="M311.54105,105.34587c0-0.2728-0.26398-0.51987-0.63007-0.51987c-0.62213,0-0.92874,0.57141-1.04776,0.93755
			V104.826l-1.18463,0.09418v0.26395c0.59628,0,0.6647,0.05954,0.6647,0.47723v2.28303c0,0.38302-0.09332,0.38302-0.6647,0.38302
			v0.26394l0.97134-0.02577c0.34125,0,0.74115,0,1.08148,0.02577v-0.26394h-0.17859c-0.63007,0-0.64697-0.0942-0.64697-0.40079
			v-1.3117c0-0.84335,0.35724-1.60139,1.00513-1.60139c0.05948,0,0.07639,0,0.09326,0.00887
			c-0.02576,0.00803-0.19547,0.11017-0.19547,0.33237c0,0.23817,0.17859,0.36614,0.36609,0.36614
			C311.32776,105.72089,311.54105,105.6187,311.54105,105.34587"/>
		<path class="st22" d="M315.04419,106.70023c0,0.30659,0,0.76693-0.18747,1.14107c-0.1875,0.38391-0.56165,0.63096-0.98822,0.63096
			c-0.36615,0-0.74118-0.17862-0.97046-0.57053c-0.21329-0.37503-0.21329-0.89491-0.21329-1.2015
			c0-0.33237,0-0.79182,0.20441-1.16685c0.23019-0.39189,0.63007-0.57054,0.97134-0.57054
			c0.37411,0,0.74112,0.18752,0.96243,0.55366C315.04419,105.88264,315.04419,106.37674,315.04419,106.70023 M315.75162,106.76865
			c0-1.09042-0.85223-1.99332-1.88312-1.99332c-1.06464,0-1.89111,0.92869-1.89111,1.99332
			c0,1.09842,0.88602,1.91601,1.88312,1.91601C314.89136,108.68465,315.75162,107.85017,315.75162,106.76865z"/>
		<path class="st22" d="M318.0213,103.44585c0-0.22926-0.19641-0.45142-0.45145-0.45142c-0.2897,0-0.46033,0.23904-0.46033,0.45142
			c0,0.23018,0.19638,0.45234,0.45142,0.45234C317.85068,103.89819,318.0213,103.65913,318.0213,103.44585 M318.0213,109.01702
			V104.826l-1.2948,0.09418v0.26395c0.65585,0,0.7323,0.05954,0.7323,0.47723v3.37255c0,0.38391-0.07645,1.11618-0.62122,1.11618
			c-0.04263,0-0.23904,0-0.46036-0.11108c0.12799-0.03377,0.2977-0.15285,0.2977-0.38302c0-0.22128-0.15283-0.39191-0.39102-0.39191
			c-0.23904,0-0.39188,0.17063-0.39188,0.39191c0,0.44345,0.47635,0.68162,0.96246,0.68162
			C317.49344,110.3376,318.0213,109.79284,318.0213,109.01702z"/>
		<path class="st22" d="M323.24588,109.36983c0-0.06487-0.00534-0.11286-0.10043-0.11286c-0.03555,0-0.09418,0-0.10043,0.07732
			c-0.04709,0.95178-0.85132,1.32413-1.43613,1.32413c-0.63272,0-1.71423-0.3848-1.71423-1.92133
			c0-1.60141,1.14731-1.92667,1.7027-1.92667c0.58475,0,1.28238,0.39014,1.43613,1.40679
			c0.01154,0.07109,0.06488,0.07109,0.10663,0.07109c0.10577,0,0.10577-0.03555,0.10577-0.15375v-1.38367
			c0-0.10042,0-0.15374-0.08267-0.15374c-0.0231,0-0.05331,0-0.1004,0.07109L322.75,107.1179
			c-0.24884-0.24883-0.65674-0.52076-1.22375-0.52076c-1.24149,0-2.26346,0.95799-2.26346,2.13373
			c0,1.20061,1.03979,2.13995,2.26346,2.13995C322.57227,110.87081,323.24588,110.09055,323.24588,109.36983"/>
		<path class="st22" d="M326.27185,109.44003c0,0.28438-0.01779,0.5972-0.18927,0.83981
			c-0.15909,0.22484-0.43106,0.34303-0.72073,0.34303c-0.21863,0-0.53766-0.0711-0.73318-0.36081
			c-0.15909-0.24261-0.17682-0.55009-0.17682-0.82203c0-0.25417,0.00528-0.60253,0.21237-0.85669
			c0.14752-0.17152,0.39636-0.30126,0.69763-0.30126c0.34836,0,0.5972,0.16529,0.72693,0.34836
			C326.25406,108.8615,326.27185,109.15654,326.27185,109.44003 M326.80951,109.49335c0-0.73849-0.6319-1.37657-1.44766-1.37657
			c-0.81583,0-1.44858,0.63808-1.44858,1.37657c0,0.73316,0.65048,1.3188,1.44858,1.3188
			C326.15988,110.81216,326.80951,110.22652,326.80951,109.49335z"/>
		<path class="st22" d="M328.75659,110.75262v-0.21239c-0.38391,0-0.44348,0-0.44348-0.25416v-3.6356l-0.88684,0.06487v0.21328
			c0.3963,0,0.44339,0.04089,0.44339,0.33059v3.02686c0,0.25416-0.05862,0.25416-0.44339,0.25416v0.21239
			c0,0,0.42566-0.02399,0.66202-0.02399C328.31311,110.72862,328.53177,110.73485,328.75659,110.75262"/>
		<path class="st22" d="M330.97031,109.19209l1.24149-1.93289l0.27725,1.93289H330.97031z M330.19003,110.04345
			c-0.20703,0.31904-0.39633,0.47278-0.74469,0.49677c-0.05869,0.00533-0.13599,0.00533-0.13599,0.12353
			c0,0.06487,0.05328,0.08887,0.08264,0.08887c0.15375,0,0.34927-0.02399,0.50836-0.02399
			c0.18927,0,0.43185,0.02399,0.60873,0.02399c0.03021,0,0.11819,0,0.11819-0.12975c0-0.07732-0.07645-0.08265-0.10043-0.08265
			c-0.04712-0.00622-0.25949-0.01778-0.25949-0.17773c0-0.0711,0.05865-0.17152,0.08801-0.22484l0.47275-0.73228h1.69113
			l0.14133,0.98111c-0.02307,0.05865-0.05862,0.15374-0.4079,0.15374c-0.07111,0-0.15375,0-0.15375,0.12975
			c0,0.02311,0.01776,0.08265,0.09509,0.08265c0.17148,0,0.59094-0.02399,0.76248-0.02399
			c0.10574,0,0.24173,0.00623,0.34836,0.00623c0.10666,0.00622,0.23105,0.01777,0.33682,0.01777
			c0.0773,0,0.11819-0.0471,0.11819-0.12441c0-0.08798-0.07111-0.08798-0.16528-0.08798c-0.34308,0-0.35461-0.04799-0.37238-0.18929
			l-0.5199-3.64716c-0.01773-0.12441-0.0293-0.16529-0.14218-0.16529c-0.112,0-0.14752,0.05331-0.20084,0.13597L330.19003,110.04345
			z"/>
		<path class="st22" d="M338.15353,101.24817c-0.11911,0.11017-0.3999,0.34922-0.3999,0.5021
			c0,0.08532,0.08533,0.17063,0.16974,0.17063c0.0773,0,0.11993-0.05955,0.1626-0.11108
			c0.1022-0.12712,0.29776-0.36617,0.67279-0.55369c0.05948-0.03378,0.14481-0.07644,0.14481-0.17859
			c0-0.08531-0.05951-0.12797-0.11905-0.17063c-0.18753-0.12711-0.28171-0.28085-0.34927-0.48526
			c-0.01773-0.07639-0.05151-0.18752-0.17062-0.18752s-0.17062,0.11114-0.17062,0.17865c0,0.04266,0.06842,0.31549,0.20441,0.49413
			h-2.87045c-0.14487,0-0.2977,0-0.2977,0.17063c0,0.17062,0.15283,0.17062,0.2977,0.17062H338.15353"/>
		<path class="st22" d="M335.78165,105.99283c0.05063-0.18662,0.05063-0.2044,0.12796-0.29771
			c0.41681-0.55363,0.80072-0.6816,1.022-0.6816c0.30658,0,0.53674,0.25592,0.53674,0.80069
			c0,0.50299-0.28171,1.48232-0.4346,1.8058c-0.28079,0.57053-0.6727,0.87802-1.00504,0.87802
			c-0.28973,0-0.57059-0.23017-0.57059-0.86114c0-0.16174,0-0.32349,0.13599-0.86024L335.78165,105.99283 M336.58234,102.77312
			c0-0.00802,0-0.09334-0.11108-0.09334c-0.19553,0-0.81757,0.06848-1.03888,0.08532
			c-0.06842,0.00802-0.16174,0.01689-0.16174,0.16977c0,0.10221,0.07642,0.10221,0.20441,0.10221
			c0.40881,0,0.42572,0.0604,0.42572,0.14486c0,0.05949-0.07645,0.34922-0.11911,0.52872l-0.69849,2.77628
			c-0.1022,0.42657-0.13599,0.56254-0.13599,0.86113c0,0.80871,0.45142,1.33659,1.08154,1.33659
			c1.00504,0,2.05283-1.26904,2.05283-2.49543c0-0.77493-0.45145-1.36323-1.13309-1.36323
			c-0.39188,0-0.74115,0.24707-0.99619,0.51099L336.58234,102.77312z"/>
	</g>
	<polygon class="st0" points="284.88351,75.50307 284.88358,75.50298 284.88361,75.50299 284.88361,75.50299 284.88361,75.50302 
		284.88358,75.503 284.88358,75.50298 284.88358,75.50301 284.88361,75.503 284.88358,75.50301 284.88361,75.50299 
		284.88358,75.50298 284.88358,75.50298 284.88358,75.50299 284.88358,75.503 284.88358,75.503 284.88358,75.50297 
		284.88358,75.50302 284.88358,75.50299 284.88361,75.503 284.88354,75.50301 284.88358,75.50298 284.88361,75.50301 
		284.88361,75.50298 284.88361,75.50302 284.88358,75.503 284.88358,75.50301 284.88354,75.50302 284.88354,75.50299 
		284.88358,75.503 284.88358,75.50303 284.88361,75.50303 284.88358,75.50298 284.88361,75.50298 284.88358,75.50301 
		284.88358,75.50298 284.88358,75.50298 284.88358,75.50298 284.88361,75.50301 284.88358,75.50302 284.88358,75.50301 
		284.88358,75.50298 284.88358,75.50303 284.88354,75.503 284.88361,75.50298 284.88358,75.50299 284.88354,75.50303 
		284.88358,75.50302 284.88361,75.50299 284.88361,75.50298 284.88361,75.50301 284.88354,75.50302 284.88358,75.50301 
		284.88361,75.50303 284.88358,75.50301 284.88358,75.503 284.88358,75.50298 284.88358,75.50303 284.88361,75.50298 
		284.88361,75.50298 284.88358,75.50299 284.88358,75.50298 284.88358,75.50298 284.88354,75.50298 284.88361,75.50298 
		284.88361,75.50301 284.88361,75.50301 284.88358,75.50298 284.88354,75.50298 284.88358,75.50297 284.88358,75.50301 
		284.88358,75.503 284.88354,75.50298 284.88358,75.50301 284.88361,75.50299 284.88358,75.50301 284.88361,75.50298 
		284.88358,75.50298 284.88354,75.503 284.88358,75.50299 284.88358,75.50298 284.88358,75.50299 284.88361,75.50302 
		284.88358,75.50298 284.88358,75.50301 284.88361,75.50298 284.88358,75.50303 284.88358,75.50302 284.88358,75.50302 
		284.88361,75.50299 	"/>
	<g>
		<defs>
			
				<rect id="SVGID_19_" x="286.3605" y="61.18457" transform="matrix(1 -0.00152 0.00152 1 -0.11135 0.44609)" width="15.6" height="24.96"/>
		</defs>
		<clipPath id="SVGID_20_">
			<use xlink:href="#SVGID_19_"  style="overflow:visible;"/>
		</clipPath>
		<path class="st23" d="M294.16052,73.66457L294.16052,73.66457z"/>
		<polyline class="st24" points="301.39398,63.31372 299.80356,61.75126 299.59302,61.9612 300.78699,63.31464 299.59711,64.66073 
			299.80826,64.87003 301.39398,63.31372 		"/>
		<path class="st24" d="M296.88699,65.73734c-0.15134-0.16309-0.47974-0.54771-0.68939-0.5474
			c-0.117,0.00018-0.23383,0.11736-0.23367,0.23314c0.00018,0.10603,0.08194,0.16441,0.15268,0.2228
			c0.17456,0.13989,0.50278,0.40752,0.76074,0.92144c0.04645,0.08159,0.10513,0.1985,0.24521,0.19829
			c0.117-0.00018,0.17538-0.08192,0.23376-0.16367c0.17392-0.25741,0.38455-0.38692,0.66476-0.47997
			c0.10471-0.02454,0.25705-0.07108,0.25681-0.23439c-0.00024-0.16331-0.15277-0.23376-0.24536-0.23363
			c-0.0585,0.00009-0.43253,0.0945-0.67722,0.28134l-0.00598-3.93656c-0.00031-0.19865-0.00061-0.40828-0.23462-0.40792
			s-0.23367,0.20998-0.23337,0.40863L296.88699,65.73734"/>
		<path class="st24" d="M290.45319,62.49425c0.25607,0.06908,0.28043,0.06904,0.40857,0.17488
			c0.76013,0.57044,0.93643,1.09667,0.93689,1.40014c0.00064,0.42047-0.34988,0.73666-1.09698,0.73779
			c-0.68979,0.00105-2.03345-0.38326-2.47739-0.59221c-0.78302-0.38394-1.20554-0.92077-1.20621-1.37658
			c-0.00061-0.39731,0.31445-0.78291,1.17978-0.78423c0.2218-0.00034,0.44363-0.00067,1.18002,0.18468L290.45319,62.49425
			 M294.87039,63.58565c0.01102-0.00002,0.12802-0.00019,0.12778-0.15254c-0.0004-0.26812-0.09561-1.12111-0.11917-1.42455
			c-0.01114-0.09382-0.0235-0.22178-0.23315-0.22145c-0.14017,0.00021-0.14001,0.10502-0.13974,0.28052
			c0.00085,0.56062-0.08194,0.58391-0.19778,0.58408c-0.08157,0.00012-0.4791-0.10408-0.72537-0.16221l-3.80884-0.95217
			c-0.58521-0.13927-0.77173-0.1853-1.18124-0.18468c-1.10907,0.00168-1.83206,0.6219-1.83075,1.486
			c0.00211,1.37841,1.74466,2.81267,3.42651,2.81012c1.06277-0.00161,1.86862-0.62196,1.86722-1.55674
			c-0.00082-0.53747-0.34036-1.01593-0.70285-1.36515L294.87039,63.58565z"/>
		<path class="st24" d="M289.5975,76.06633c0.00031,0.19867,0.00061,0.40833,0.2334,0.40797
			c0.23398-0.00035,0.23367-0.21001,0.23337-0.40868l-0.00958-6.32041c-0.00031-0.19866-0.00061-0.40825-0.23462-0.40789
			c-0.23279,0.00035-0.23245,0.20994-0.23215,0.4086L289.5975,76.06633"/>
		<path class="st24" d="M296.9162,85.00333c-0.15131-0.1631-0.47974-0.54769-0.68939-0.54737
			c-0.117,0.00018-0.23383,0.11736-0.23364,0.2331c0.00015,0.106,0.08191,0.16438,0.15265,0.22277
			c0.17456,0.13991,0.50278,0.40757,0.76074,0.92152c0.04645,0.08151,0.10513,0.19843,0.24521,0.19821
			c0.117-0.00018,0.17538-0.08185,0.23376-0.1636c0.17392-0.25743,0.38458-0.38692,0.66476-0.48001
			c0.10471-0.02449,0.25705-0.07105,0.25681-0.23439c-0.00024-0.16333-0.15277-0.23376-0.24536-0.23363
			c-0.05847,0.00009-0.4325,0.09449-0.67722,0.28136l-0.00598-3.93658c-0.00031-0.19867-0.00061-0.40826-0.23462-0.4079
			c-0.23401,0.00035-0.23367,0.20994-0.23337,0.40861L296.9162,85.00333"/>
		<path class="st24" d="M290.48242,81.76025c0.25604,0.06903,0.2804,0.06899,0.40854,0.17488
			c0.76016,0.57043,0.93643,1.09666,0.93692,1.40016c0.00061,0.42042-0.34988,0.73662-1.09698,0.73775
			c-0.68982,0.00105-2.03348-0.38325-2.47742-0.59224c-0.78302-0.3839-1.20551-0.92076-1.20621-1.37651
			c-0.00061-0.39733,0.31448-0.78297,1.17978-0.78429c0.2218-0.00034,0.44363-0.00067,1.18002,0.18471L290.48242,81.76025
			 M294.8996,82.85163c0.01102-0.00002,0.12802-0.00019,0.12778-0.15253c-0.0004-0.26817-0.09561-1.12111-0.11917-1.42457
			c-0.01114-0.09382-0.0235-0.22179-0.23315-0.22148c-0.14017,0.00021-0.14001,0.10505-0.13974,0.28055
			c0.00085,0.56066-0.08194,0.58395-0.19778,0.58413c-0.08157,0.00012-0.4791-0.1041-0.72537-0.16223l-3.80881-0.95215
			c-0.58524-0.13927-0.77176-0.18533-1.18127-0.18471c-1.10904,0.00169-1.83203,0.62186-1.83075,1.48603
			c0.00211,1.37833,1.74466,2.81261,3.42654,2.81006c1.06274-0.00161,1.86859-0.62192,1.86719-1.55675
			c-0.00082-0.53742-0.34036-1.0159-0.70285-1.3651L294.8996,82.85163z"/>
	</g>
	<g>
		<g class="st25">
			<g>
				<defs>
					<rect id="SVGID_21_" y="109.31598" width="137.76788" height="66.21878"/>
				</defs>
				<clipPath id="SVGID_22_">
					<use xlink:href="#SVGID_21_"  style="overflow:visible;"/>
				</clipPath>
				<polygon class="st26" points="44.71,109.3167 137.76732,136.66008 93.05497,175.53368 -0.00055,148.19029 				"/>
			</g>
		</g>
		<polygon class="st0" points="20.05434,145.62108 20.05445,145.621 20.05445,145.62102 20.05446,145.62102 20.05446,145.62103 
			20.05442,145.62105 20.05439,145.62103 20.05445,145.62102 20.05445,145.62103 20.05441,145.62103 20.05445,145.62102 
			20.05444,145.621 20.05443,145.62103 20.05445,145.62103 20.05445,145.62103 20.05441,145.62103 20.05442,145.62102 
			20.05443,145.62102 20.05443,145.62105 20.05441,145.62102 20.05445,145.62102 20.05442,145.62102 20.0544,145.62103 
			20.05444,145.621 20.05445,145.62103 20.0544,145.62105 20.05442,145.62102 20.05444,145.62102 20.05445,145.62103 
			20.05445,145.62102 20.0544,145.62103 20.05442,145.62105 20.05442,145.621 20.05443,145.62099 20.05443,145.62103 
			20.0544,145.62103 20.05444,145.62099 20.0544,145.62103 20.05442,145.62102 20.05445,145.621 20.05442,145.62103 
			20.05442,145.62103 20.05443,145.621 20.0544,145.62102 20.05441,145.621 20.05442,145.621 20.05442,145.62102 
			20.05445,145.62106 20.05443,145.62102 20.05441,145.62102 20.05446,145.62102 20.0544,145.62102 20.05442,145.62105 
			20.0544,145.62103 20.05446,145.621 20.05442,145.62105 20.05442,145.621 20.05442,145.62103 20.05441,145.62099 
			20.05443,145.621 20.05442,145.62105 20.05444,145.621 20.05441,145.62105 20.05441,145.621 20.05445,145.62103 
			20.05443,145.62102 20.05443,145.62102 20.05442,145.62103 20.05441,145.621 20.05443,145.62102 20.05445,145.621 
			20.05442,145.621 20.05447,145.621 20.05444,145.62105 20.05441,145.62105 20.05439,145.62105 20.05444,145.621 20.05443,145.621 
			20.05442,145.62105 20.0544,145.62102 20.05445,145.621 20.0544,145.62103 20.0544,145.62102 20.05445,145.62102 
			20.05447,145.62102 20.05443,145.62103 20.05439,145.62102 20.0544,145.62105 20.05447,145.62102 		"/>
		<g>
			<defs>
				
					<rect id="SVGID_23_" x="15.46448" y="137.82047" transform="matrix(0.26168 -0.96515 0.96515 0.26168 -125.63905 127.1174)" width="9.60445" height="15.71637"/>
			</defs>
			<clipPath id="SVGID_24_">
				<use xlink:href="#SVGID_23_"  style="overflow:visible;"/>
			</clipPath>
			<path class="st27" d="M20.2667,145.67865L20.2667,145.67865z"/>
			<path class="st28" d="M16.8547,145.47444c0.09144,0.01207,0.14504,0.01248,0.24642,0.03996
				c0.18961,0.05141,0.47422,0.10172,0.6693,0.12775c0.1075,0.35426,0.86126,2.97011,1.6252,4.3024l-1.22456-0.33202
				L16.8547,145.47444 M13.21094,148.26768c0.16316-0.2003,0.25883-0.55318,0.2899-0.66774l1.72791-6.37297
				c0.03427-0.1264,0.12674-0.46744,0.08675-0.72141l1.43919,0.39021c-0.21922,0.15683-0.28777,0.40965-0.33882,0.59793
				l-1.74184,6.42432c-0.03427,0.12642-0.12674,0.46745-0.08711,0.72273L13.21094,148.26768z M16.84794,141.65186
				c0.07176-0.26466,0.18457-0.68076,0.96671-0.46869c1.07314,0.29097,1.48286,0.87558,1.07908,2.36481
				c-0.44162,1.62878-0.89766,1.76241-2.89119,1.22189L16.84794,141.65186z M18.48634,145.25389
				c0.47962-0.37177,0.69916-1.0303,0.84982-1.58597c0.16422-0.6057,0.26922-1.29529,0.0066-1.92201
				c0.48677,0.25354,1.63032,0.98341,1.28438,2.25932C20.40472,144.82555,19.85128,145.3653,18.48634,145.25389z
				 M15.88295,145.21097l0.45428,0.12317l1.09947,3.44179c0.07178,0.23573,0.24111,0.8103,0.32796,1.0374
				c0.04717,0.17534,0.08535,0.18568,0.37503,0.26424l1.74205,0.47232c0.22778,0.06177,0.41604,0.11281,0.47781-0.11499
				c0.02713-0.10007-0.02395-0.20863-0.13042-0.26436c-0.43996-0.22812-0.83283-1.2294-1.02608-1.71576
				c-0.05431-0.149-0.45903-1.1535-0.93487-2.74551c1.17814,0.10176,2.39308-0.08336,2.80007-1.58443
				c0.47589-1.7552-1.21515-2.86394-2.70437-3.26772l-3.96335-1.07458c-0.22648-0.06142-0.42925-0.11639-0.49102,0.11142
				c-0.05819,0.21463,0.18145,0.2796,0.28284,0.3071c0.72025,0.19528,0.75822,0.30028,0.58721,0.931l-1.71435,6.32292
				c-0.17101,0.63072-0.25717,0.70348-0.97742,0.50819c-0.10139-0.0275-0.34103-0.09247-0.39887,0.12083
				c-0.06176,0.2278,0.14101,0.28278,0.36749,0.34419l3.45905,0.93785c0.22648,0.0614,0.41609,0.11281,0.47785-0.11497
				c0.05784-0.21332-0.15679-0.27151-0.29505-0.30899c-0.72025-0.19528-0.7428-0.31024-0.57501-0.92911L15.88295,145.21097z"/>
			<path class="st28" d="M23.16098,145.23785c-0.06492,0.10397-0.17721,0.30957-0.18435,0.33591
				c-0.05213,0.19225,0.08196,0.32332,0.22151,0.36115c0.15801,0.04285,0.32862-0.03387,0.39352-0.10109
				c0.06617-0.06686,0.21199-0.32841,0.3051-0.49965c0.08874-0.15546,0.29513-0.53062,0.40607-0.7366
				c0.10479-0.17796,0.20959-0.35593,0.30895-0.54526c0.19361-0.33339,0.22964-0.39854,0.58127-0.6891
				c0.33985-0.28384,0.87555-0.6277,1.53252-0.44957c0.50697,0.13745,0.39513,0.58633,0.34979,0.75356
				c-0.14244,0.52538-0.78244,1.39503-1.02168,1.72455c-0.16418,0.2198-0.21945,0.28822-0.26015,0.43832
				c-0.12567,0.46349,0.18023,0.85741,0.62796,0.97881c0.87566,0.23741,1.58783-0.86711,1.62353-0.99878
				c0.03106-0.11456-0.0822-0.14528-0.10849-0.1524c-0.12245-0.0332-0.146,0.01697-0.20663,0.10513
				c-0.39142,0.64586-0.86505,0.90193-1.21536,0.80695c-0.1843-0.04997-0.18666-0.18207-0.13668-0.36641
				c0.05426-0.20015,0.13007-0.30257,0.39356-0.65378c0.17888-0.24268,0.78999-1.07353,0.92315-1.56467
				c0.23028-0.84933-0.40356-1.18085-0.86831-1.30687c-0.72683-0.19707-1.33773,0.1165-1.69603,0.39532
				c0.10328-0.62082-0.36202-0.95332-0.72152-1.0508c-0.37661-0.10211-0.65156,0.11455-0.81943,0.28525
				c-0.28005,0.27182-0.5378,0.73767-0.54994,0.78242c-0.0307,0.11325,0.09174,0.14645,0.11803,0.15358
				c0.12244,0.03319,0.13751,0.009,0.26371-0.21121c0.27158-0.48047,0.55389-0.86475,0.8962-0.77193
				c0.22652,0.06142,0.23626,0.2704,0.17199,0.50745c-0.04498,0.16591-0.21177,0.46841-0.33662,0.689
				c-0.12612,0.22025-0.31019,0.55481-0.40742,0.73624L23.16098,145.23785"/>
		</g>
		<polygon class="st0" points="110.98402,139.55217 110.98414,139.55203 110.98415,139.55206 110.98415,139.55205 
			110.98412,139.55211 110.98409,139.55208 110.98415,139.55206 110.98415,139.55211 110.98412,139.55205 110.9841,139.55209 
			110.98415,139.55205 110.98412,139.55203 110.98409,139.55203 110.98412,139.55206 110.98412,139.55203 110.98414,139.55206 
			110.98411,139.55209 110.98416,139.55205 110.98409,139.55205 110.98415,139.55209 110.98409,139.55209 110.98414,139.55211 
			110.9841,139.55208 110.98414,139.55208 110.9841,139.55209 110.98412,139.55211 110.98411,139.55208 110.98415,139.55205 
			110.98415,139.55205 110.98408,139.55203 110.98409,139.55209 110.98415,139.55205 110.98416,139.55208 110.98411,139.55208 
			110.98415,139.55203 110.98415,139.55205 110.98415,139.55211 110.98409,139.55205 110.9841,139.55203 110.98412,139.55206 
			110.98415,139.55205 110.98415,139.55205 110.98416,139.55208 110.98414,139.55203 110.98409,139.55208 110.98414,139.55205 
			110.98412,139.55203 110.98415,139.55211 110.9841,139.55206 110.98415,139.55203 110.98412,139.55208 110.98412,139.55203 
			110.98412,139.55209 110.98414,139.55206 110.9841,139.55211 110.98415,139.55206 110.98409,139.55205 110.98415,139.55205 
			110.98414,139.55208 110.98412,139.55208 110.98411,139.55208 110.98415,139.55208 110.9841,139.55203 110.98412,139.55211 
			110.9841,139.55208 110.98412,139.55205 110.98409,139.55208 110.98409,139.55208 110.98414,139.55206 110.98409,139.55209 
			110.98412,139.55208 110.98411,139.55208 110.98412,139.55203 110.98412,139.55206 110.98412,139.55205 110.98409,139.55211 
			110.98412,139.55205 110.98412,139.55203 110.98415,139.55208 110.9841,139.55205 110.98414,139.55203 110.98409,139.55203 
			110.98409,139.55206 110.9841,139.55208 110.98412,139.55209 110.98409,139.55206 110.98409,139.55209 110.98415,139.55205 		"/>
		<polygon class="st0" points="84.77289,136.87523 84.77306,136.87502 84.77307,136.87506 84.77309,136.87505 84.77303,136.87505 
			84.77303,136.87502 84.77297,136.87511 84.77297,136.87503 84.77308,136.87503 84.773,136.87511 84.77307,136.87505 
			84.77303,136.87502 84.77303,136.87514 84.77309,136.87511 84.77301,136.87502 84.77307,136.87511 84.7731,136.87509 
			84.77301,136.87514 84.77302,136.87506 84.77303,136.87502 84.77308,136.87514 84.773,136.87505 84.77303,136.87502 
			84.77297,136.87514 84.77306,136.87502 84.77297,136.87509 84.773,136.87503 84.77304,136.87502 84.77309,136.87506 
			84.77299,136.87502 84.77298,136.87515 84.77309,136.87505 84.77307,136.87509 84.77301,136.87508 84.77308,136.87503 
			84.77309,136.87511 84.77309,136.87514 84.7731,136.87505 84.773,136.87503 84.77303,136.87508 84.77307,136.87505 
			84.77309,136.87503 84.77303,136.87505 84.77303,136.87511 84.77298,136.87503 84.77301,136.87511 84.77304,136.87503 
			84.77306,136.87502 84.77304,136.87514 84.7731,136.87503 84.77306,136.87509 84.77309,136.87508 84.77306,136.87512 
			84.77298,136.87509 84.77303,136.87503 84.77303,136.87514 84.77303,136.87508 84.77301,136.87511 84.77305,136.87508 
			84.77308,136.87512 84.77309,136.87515 84.77304,136.87502 84.77301,136.87509 84.77299,136.87511 84.77298,136.87503 
			84.77308,136.87502 84.77309,136.87511 84.77309,136.87505 84.77299,136.87503 84.77307,136.87508 84.77303,136.87509 
			84.77308,136.87511 84.77303,136.87506 84.77301,136.87508 84.77304,136.87508 84.77303,136.87515 84.77308,136.87508 
			84.77301,136.87505 84.77307,136.87509 84.77297,136.87505 84.77303,136.87511 84.77309,136.87506 84.77304,136.87512 
			84.77307,136.87515 84.77309,136.87505 84.77303,136.87511 84.77306,136.87511 84.77299,136.87515 84.7731,136.87505 		"/>
		<g>
			<defs>
				<rect id="SVGID_25_" x="101.93794" y="130.97136" width="12.67126" height="19.00688"/>
			</defs>
			<clipPath id="SVGID_26_">
				<use xlink:href="#SVGID_25_"  style="overflow:visible;"/>
			</clipPath>
			<path class="st29" d="M108.27357,140.47479L108.27357,140.47479z"/>
			<polyline class="st30" points="107.94887,131.23264 105.4067,133.8125 105.74724,134.15501 107.94887,132.21872 
				110.13268,134.15501 110.47322,133.8125 107.94887,131.23264 			"/>
			<path class="st30" d="M111.87498,138.43353c-0.26531,0.24551-0.89096,0.77809-0.89096,1.11864
				c0,0.19006,0.19007,0.38013,0.37817,0.38013c0.17225,0,0.26729-0.13264,0.36232-0.24748
				c0.22769-0.28313,0.66326-0.8157,1.49877-1.23346c0.13265-0.07524,0.32272-0.17027,0.32272-0.39796
				c0-0.19006-0.13266-0.2851-0.26531-0.38013c-0.41775-0.28313-0.62762-0.62566-0.77809-1.08107
				c-0.0396-0.17017-0.11483-0.41777-0.38013-0.41777s-0.38014,0.2476-0.38014,0.39801c0,0.09503,0.15245,0.70287,0.45538,1.10083
				h-6.39503c-0.32272,0-0.66326,0-0.66326,0.38013c0,0.38014,0.34054,0.38014,0.66326,0.38014H111.87498"/>
			<path class="st30" d="M108.27554,143.99304c0.11485-0.49298,0.55042-2.23924,1.87892-2.23924c0.09503,0,0.5504,0,0.95035,0.2475
				c-0.5326,0.09503-0.91075,0.56821-0.91075,1.02359c0,0.3049,0.20789,0.66524,0.72068,0.66524
				c0.41775,0,1.0236-0.34251,1.0236-1.10081c0-0.98599-1.11863-1.25327-1.76408-1.25327
				c-1.10081,0-1.76408,1.00578-1.99175,1.44334c-0.47517-1.25327-1.50076-1.44334-2.05116-1.44334
				c-1.97395,0-3.05496,2.44911-3.05496,2.92232c0,0.19006,0.19007,0.19006,0.22769,0.19006
				c0.15244,0,0.20986-0.03761,0.24748-0.2079c0.64543-2.01155,1.89672-2.48672,2.54217-2.48672
				c0.36034,0,1.02557,0.17027,1.02557,1.27109c0,0.59-0.32271,1.86108-1.02557,4.51808
				c-0.30292,1.17607-0.96815,1.97395-1.8017,1.97395c-0.11483,0-0.55041,0-0.95035-0.24748
				c0.47517-0.09503,0.89293-0.493,0.89293-1.02557c0-0.51082-0.41776-0.66327-0.70286-0.66327
				c-0.56822,0-1.0434,0.49298-1.0434,1.10081c0,0.87314,0.94836,1.2513,1.78387,1.2513c1.25327,0,1.93633-1.32852,1.99176-1.44136
				c0.22769,0.70285,0.91273,1.44136,2.05116,1.44136c1.95415,0,3.03517-2.44714,3.03517-2.92232
				c0-0.19006-0.17028-0.19006-0.22769-0.19006c-0.17028,0-0.20789,0.07721-0.24551,0.20987
				c-0.62762,2.03136-1.91653,2.48672-2.52435,2.48672c-0.74047,0-1.0434-0.60782-1.0434-1.25327
				c0-0.41776,0.11286-0.83551,0.32272-1.67102L108.27554,143.99304"/>
		</g>
	</g>
	<path class="st8" d="M283.67554,111.16632c-0.43613,1.52515-0.77295,3.5759-0.64682,5.09286l-1.47769-2.20699l-2.54465-0.75301
		C280.49011,112.96909,282.34766,112.03689,283.67554,111.16632"/>
	<g>
		<path class="st8" d="M115.76568,143.73154c0-1.56892,1.26849-2.83742,2.83743-2.83742c1.56683,0,2.84156,1.26849,2.84156,2.83742
			c0,1.57098-1.27473,2.83946-2.84156,2.83946C117.03416,146.571,115.76568,145.30252,115.76568,143.73154"/>
		<path class="st8" d="M115.76568,143.73154h0.4173c0-1.3394,1.08281-2.42012,2.42012-2.42012
			c1.33731,0.00209,2.42224,1.08072,2.42224,2.42012c0,1.34152-1.08493,2.42014-2.42224,2.42218
			c-1.33731,0-2.42012-1.08066-2.42012-2.42218H115.76568h-0.41722c0.00414,1.80051,1.45624,3.25465,3.25464,3.25879
			c1.79842,0,3.25676-1.45828,3.25879-3.25879c-0.00203-1.7984-1.46037-3.25674-3.25879-3.25674
			c-1.7984,0.00421-3.2505,1.45834-3.25464,3.25674H115.76568z"/>
	</g>
	<path class="st8" d="M182.77402,153.77313"/>
	<path class="st31" d="M131.08578,149.63806"/>
</g>
<g id="Layer_2">
	<path class="st8" d="M159.44049,152.29633"/>
	<path class="st32" d="M123.22042,145.2692c21.99224,8.41907,86.53316,29.14725,139.68033-13.11896
		c6.17712-4.91247,12.55212-10.95568,18.85257-18.43749"/>
	<g>
	</g>
	<g>
	</g>
	<g>
	</g>
	<g>
	</g>
	<g>
	</g>
	<g>
	</g>
</g>
</svg>
