<?xml version="1.0" encoding="utf-8"?>
<!-- Generator: Adobe Illustrator 25.2.0, SVG Export Plug-In . SVG Version: 6.00 Build 0)  -->
<svg version="1.1" id="Layer_1" xmlns="http://www.w3.org/2000/svg" xmlns:xlink="http://www.w3.org/1999/xlink" x="0px" y="0px"
	 viewBox="0 0 147.64645 94.77724" style="enable-background:new 0 0 147.64645 94.77724;" xml:space="preserve">
<style type="text/css">
	.st0{opacity:0.8;clip-path:url(#SVGID_2_);}
	.st1{clip-path:url(#SVGID_4_);fill:#C0D5C7;}
	.st2{clip-path:url(#SVGID_2_);fill:none;stroke:#FFFFFF;}
	.st3{clip-path:url(#SVGID_6_);fill:none;stroke:#006639;stroke-width:0.36;stroke-linejoin:round;}
	.st4{fill:none;stroke:#000000;stroke-miterlimit:3.864;}
	.st5{fill:none;stroke:#000000;stroke-width:0.5;stroke-miterlimit:3.864;}
	.st6{fill:none;stroke:#000000;stroke-width:0.5;stroke-miterlimit:3.864;stroke-dasharray:2,2;}
	.st7{clip-path:url(#SVGID_8_);fill:#005B7F;}
	.st8{clip-path:url(#SVGID_8_);fill:none;stroke:#005B7F;stroke-miterlimit:3.864;}
	.st9{opacity:0;clip-path:url(#SVGID_10_);fill:none;stroke:#000000;stroke-width:9.999999e-07;stroke-miterlimit:10;}
	.st10{clip-path:url(#SVGID_10_);}
	.st11{opacity:0;clip-path:url(#SVGID_12_);fill:none;stroke:#000000;stroke-width:9.999999e-07;stroke-miterlimit:10;}
	.st12{clip-path:url(#SVGID_12_);}
	.st13{opacity:0;clip-path:url(#SVGID_14_);fill:none;stroke:#000000;stroke-width:9.999999e-07;stroke-miterlimit:10;}
	.st14{clip-path:url(#SVGID_14_);}
	.st15{opacity:0;fill:none;stroke:#000000;stroke-width:1.000000e-06;stroke-miterlimit:10;}
	.st16{opacity:0;clip-path:url(#SVGID_16_);fill:none;stroke:#000000;stroke-width:9.999999e-07;stroke-miterlimit:10;}
	.st17{clip-path:url(#SVGID_16_);}
	.st18{opacity:0;clip-path:url(#SVGID_18_);fill:none;stroke:#000000;stroke-width:9.999999e-07;stroke-miterlimit:10;}
	.st19{clip-path:url(#SVGID_18_);}
</style>
<g>
	<g>
		<g>
			<defs>
				<rect id="SVGID_1_" width="143.54102" height="92.24301"/>
			</defs>
			<clipPath id="SVGID_2_">
				<use xlink:href="#SVGID_1_"  style="overflow:visible;"/>
			</clipPath>
			<g class="st0">
				<g>
					<defs>
						<rect id="SVGID_3_" x="0.18018" y="27.151" width="143.18082" height="64.91232"/>
					</defs>
					<clipPath id="SVGID_4_">
						<use xlink:href="#SVGID_3_"  style="overflow:visible;"/>
					</clipPath>
					<polygon class="st1" points="39.7666,27.15121 143.3606,57.59122 103.77258,92.06323 0.1806,61.62421 					"/>
				</g>
			</g>
			<polyline class="st2" points="142.76099,57.4617 103.62,91.5477 0.707,61.30872 			"/>
			<g class="st0">
				<g>
					<defs>
						<rect id="SVGID_5_" y="26.97803" width="143.54102" height="65.26498"/>
					</defs>
					<clipPath id="SVGID_6_">
						<use xlink:href="#SVGID_5_"  style="overflow:visible;"/>
					</clipPath>
					<polyline class="st3" points="39.7666,27.15121 143.3606,57.59122 103.77258,92.06323 0.1806,61.62421 39.7666,27.15121 					
						"/>
				</g>
			</g>
		</g>
		<line class="st4" x1="81.9375" y1="24.40411" x2="34.16949" y2="48.27811"/>
		<polyline class="st5" points="77.39059,60.97931 77.39059,55.89832 81.93759,57.23331 		"/>
		<line class="st6" x1="81.9375" y1="62.3143" x2="81.9375" y2="24.4043"/>
		<g>
			<defs>
				<rect id="SVGID_7_" width="143.54102" height="92.24301"/>
			</defs>
			<clipPath id="SVGID_8_">
				<use xlink:href="#SVGID_7_"  style="overflow:visible;"/>
			</clipPath>
			<path class="st7" d="M32.80859,10.49301c0-0.754,0.60901-1.362,1.36099-1.362c0.75201,0,1.36203,0.608,1.36203,1.362
				c0,0.75101-0.61002,1.35901-1.36203,1.35901C33.4176,11.85202,32.80859,11.24402,32.80859,10.49301"/>
			<path class="st7" d="M32.80859,10.49301h0.20001c0-0.64401,0.51999-1.16199,1.16098-1.16199
				c0.642,0,1.16101,0.51797,1.16101,1.16199c-0.00101,0.64001-0.51901,1.15799-1.16101,1.159
				c-0.64099-0.00101-1.16-0.51898-1.16098-1.159H32.80859h-0.19998c0,0.862,0.69897,1.55899,1.56097,1.56
				c0.86301-0.00101,1.561-0.698,1.56201-1.56c-0.00198-0.86398-0.69901-1.561-1.56201-1.56198
				c-0.862,0.00098-1.55899,0.698-1.56097,1.56198H32.80859z"/>
			<path class="st7" d="M80.5762,24.40613c0-0.75403,0.60898-1.362,1.36099-1.362s1.362,0.60797,1.362,1.362
				c0,0.75098-0.60999,1.35898-1.362,1.35898S80.5762,25.1571,80.5762,24.40613"/>
			<path class="st7" d="M80.5762,24.40613h0.19998c0-0.64401,0.52002-1.16202,1.16101-1.16202
				c0.642,0,1.16101,0.51801,1.16101,1.16202c-0.00101,0.63998-0.51901,1.15799-1.16101,1.159
				c-0.64099-0.00101-1.16-0.51901-1.16101-1.159H80.5762h-0.20001c0,0.862,0.69901,1.55899,1.561,1.56
				c0.86301-0.00101,1.561-0.698,1.56201-1.56c-0.00201-0.86401-0.69901-1.561-1.56201-1.56201
				c-0.862,0.00101-1.55899,0.698-1.561,1.56201H80.5762z"/>
			<path class="st7" d="M80.5762,62.31531c0-0.754,0.60898-1.362,1.36099-1.362s1.362,0.608,1.362,1.362
				c0,0.75101-0.60999,1.35901-1.362,1.35901S80.5762,63.06631,80.5762,62.31531"/>
			<path class="st7" d="M80.5762,62.31531h0.19998c0-0.64398,0.52002-1.16199,1.16101-1.16199
				c0.642,0,1.16101,0.51801,1.16101,1.16199c-0.00101,0.64001-0.51901,1.15802-1.16101,1.159
				c-0.64099-0.00098-1.16-0.51898-1.16101-1.159H80.5762h-0.20001c0,0.862,0.69901,1.55899,1.561,1.56
				c0.86301-0.00101,1.561-0.698,1.56201-1.56c-0.00201-0.86398-0.69901-1.561-1.56201-1.56198
				c-0.862,0.00098-1.55899,0.698-1.561,1.56198H80.5762z"/>
			<polyline class="st8" points="34.16989,10.35242 34.16989,48.27841 81.9379,62.31442 			"/>
		</g>
	</g>
	<g>
		<defs>
			
				<rect id="SVGID_9_" x="9.71266" y="54.90343" transform="matrix(0.42395 -0.90569 0.90569 0.42395 -45.93633 46.22035)" width="7.30733" height="8.63593"/>
		</defs>
		<clipPath id="SVGID_10_">
			<use xlink:href="#SVGID_9_"  style="overflow:visible;"/>
		</clipPath>
		<path class="st9" d="M13.36633,59.22139L13.36633,59.22139z"/>
		<path class="st10" d="M17.17857,58.01581c0.23267-0.28646,0.29279-0.36834,0.95081-0.06033
			c0.2341,0.10958,0.30648,0.14346,0.39055-0.03613c0.04664-0.09963-0.053-0.14627-0.08025-0.15903
			c-0.25197-0.11795-0.91337-0.39432-1.16528-0.51223c-0.26136-0.12234-0.88881-0.44928-1.15015-0.57161
			c-0.07239-0.03388-0.1711-0.08009-0.25559,0.10041c-0.04622,0.09873,0.03463,0.13657,0.20572,0.21666
			c0.01786,0.00836,0.1899,0.08889,0.33435,0.17939c0.15333,0.09356,0.2302,0.13988,0.1752,0.25738
			c-0.01672,0.03572-0.03354,0.04962-0.11581,0.15437l-1.56982,1.94582l-2.74879-1.28669l1.5235-1.86893
			c0.23266-0.28647,0.30217-0.36396,0.95082-0.06032c0.23408,0.10957,0.30646,0.14345,0.39053-0.03614
			c0.04664-0.09963-0.05207-0.14584-0.07933-0.1586c-0.25289-0.11837-0.91429-0.39475-1.16624-0.51268
			c-0.26134-0.12233-0.88878-0.44926-1.15012-0.57159c-0.07145-0.03344-0.1711-0.08009-0.25559,0.1004
			c-0.04622,0.09873,0.03463,0.13658,0.20666,0.21711c0.01786,0.00836,0.18896,0.08845,0.3334,0.17895
			c0.15333,0.09356,0.23115,0.14032,0.17615,0.25782c-0.01672,0.03572-0.03888,0.05858-0.11675,0.15393L9.4906,60.21733
			c-0.25482,0.30934-0.30656,0.37337-1.01821,0.04026c-0.16263-0.07613-0.24348-0.11397-0.32797,0.06652
			c-0.04621,0.09871,0.0619,0.14931,0.07977,0.15767c0.25194,0.11794,0.90489,0.39034,1.15684,0.50827
			c0.1899,0.08889,0.38386,0.19114,0.57281,0.27959c0.19836,0.09285,0.38835,0.20356,0.57731,0.29201
			c0.07238,0.03388,0.18049,0.08449,0.26498-0.09601c0.04621-0.09871-0.03558-0.13699-0.20668-0.21708
			c-0.33278-0.15577-0.58566-0.27415-0.50953-0.43678c0.02508-0.05358,0.06406-0.09035,0.09899-0.14046l1.76849-2.18174
			l2.74785,1.28625c-1.07803,1.31876-1.68667,2.07793-1.78576,2.19658c-0.2249,0.24541-0.40039,0.17473-0.9588-0.08666
			c-0.13537-0.06337-0.21715-0.10165-0.30164,0.07885c-0.04621,0.09871,0.06284,0.14975,0.0807,0.15811
			c0.25194,0.11794,0.9049,0.39034,1.15684,0.50828c0.18895,0.08845,0.38291,0.1907,0.57187,0.27915
			c0.19836,0.09285,0.38835,0.20356,0.57825,0.29245c0.07142,0.03343,0.17954,0.08404,0.26403-0.09645
			c0.0462-0.09871-0.0346-0.13653-0.20572-0.21663c-0.33373-0.15622-0.58567-0.27415-0.50954-0.43679
			c0.02508-0.05358,0.06407-0.09034,0.09899-0.14046L17.17857,58.01581"/>
	</g>
	<g>
		<defs>
			<rect id="SVGID_11_" x="83.12536" y="13.23831" width="6.66791" height="9.33507"/>
		</defs>
		<clipPath id="SVGID_12_">
			<use xlink:href="#SVGID_11_"  style="overflow:visible;"/>
		</clipPath>
		<path class="st11" d="M86.45931,18.23925L86.45931,18.23925z"/>
		<path class="st12" d="M88.42114,14.56463c-0.13961,0.12916-0.46884,0.40941-0.46884,0.58864
			c0,0.10002,0.10002,0.20004,0.199,0.20004c0.09064,0,0.14066-0.06981,0.19066-0.13022
			c0.11982-0.14903,0.34903-0.42928,0.78869-0.64912c0.06981-0.03961,0.16982-0.08962,0.16982-0.20937
			c0-0.10002-0.0698-0.15003-0.13961-0.20004c-0.21983-0.14903-0.33027-0.32926-0.40945-0.56891
			c-0.02084-0.08955-0.06042-0.21984-0.20004-0.21984c-0.1396,0-0.20004,0.13029-0.20004,0.20944
			c0,0.05001,0.08022,0.36987,0.23963,0.57931h-3.36521c-0.16982,0-0.34903,0-0.34903,0.20004s0.17921,0.20004,0.34903,0.20004
			H88.42114"/>
		<path class="st12" d="M87.97836,16.70146c0.04063-0.13959,0.04063-0.1594,0.04063-0.22921
			c0-0.18023-0.13961-0.26985-0.28963-0.26985c-0.10002,0-0.25942,0.05941-0.35007,0.20944
			c-0.0198,0.05001-0.10002,0.35943-0.13961,0.53967c-0.0698,0.25942-0.13961,0.52926-0.20004,0.79806l-0.44904,1.79826
			c-0.03959,0.15003-0.46884,0.84912-1.12833,0.84912c-0.50947,0-0.61887-0.43967-0.61887-0.80953
			c0-0.45946,0.16982-1.07832,0.50947-1.95765c0.15941-0.40946,0.19899-0.51885,0.19899-0.71889
			c0-0.44902-0.31984-0.81889-0.81889-0.81889c-0.9481,0-1.31796,1.44818-1.31796,1.53778
			c0,0.10002,0.10001,0.10002,0.11981,0.10002c0.10002,0,0.1094-0.0198,0.1594-0.1792
			c0.26984-0.93872,0.66992-1.23876,1.00853-1.23876c0.08022,0,0.25005,0,0.25005,0.31983
			c0,0.25005-0.10002,0.50947-0.16982,0.69909c-0.39904,1.05853-0.57928,1.62738-0.57928,2.09727
			c0,0.8887,0.62928,1.18772,1.21897,1.18772c0.38862,0,0.72826-0.16982,1.00852-0.44904
			c-0.13023,0.51989-0.25005,1.00852-0.64907,1.53779c-0.26047,0.33965-0.63971,0.62928-1.09917,0.62928
			c-0.13961,0-0.58865-0.03021-0.75848-0.41883c0.1594,0,0.28963,0,0.42924-0.12086c0.10002-0.0896,0.20004-0.21879,0.20004-0.40841
			c0-0.31048-0.26984-0.35007-0.36987-0.35007c-0.22921,0-0.55948,0.1594-0.55948,0.64908
			c0,0.49905,0.43967,0.86891,1.05853,0.86891c1.02936,0,2.05768-0.9085,2.33689-2.03684L87.97836,16.70146"/>
	</g>
	<g>
		<defs>
			<rect id="SVGID_13_" x="27.75378" y="47.44593" width="4.2226" height="7.91737"/>
		</defs>
		<clipPath id="SVGID_14_">
			<use xlink:href="#SVGID_13_"  style="overflow:visible;"/>
		</clipPath>
		<path class="st13" d="M29.86508,51.40461L29.86508,51.40461z"/>
		<path class="st14" d="M31.15413,48.81252c-0.11052,0.10224-0.37113,0.32409-0.37113,0.46597
			c0,0.07917,0.07917,0.15835,0.15752,0.15835c0.07175,0,0.11134-0.05526,0.15093-0.10308
			c0.09484-0.11797,0.27629-0.33981,0.62432-0.51384c0.05526-0.03135,0.13443-0.07094,0.13443-0.16574
			c0-0.07917-0.05526-0.11876-0.11052-0.15834c-0.17401-0.11797-0.26144-0.26064-0.32412-0.45034
			c-0.01649-0.07089-0.04783-0.17403-0.15835-0.17403c-0.11051,0-0.15835,0.10314-0.15835,0.16579
			c0,0.03959,0.0635,0.29279,0.18969,0.45858h-2.66387c-0.13443,0-0.27629,0-0.27629,0.15834
			c0,0.15835,0.14185,0.15835,0.27629,0.15835H31.15413"/>
		<path class="st14" d="M29.45849,55.20495c-0.30845,0-0.77524-0.19793-0.9171-0.95668
			c-0.08743-0.47422-0.08743-1.20162-0.08743-1.6676c0-0.50638,0-1.0276,0.06351-1.45481
			c0.1501-0.94101,0.74308-1.01194,0.94101-1.01194c0.26061,0,0.78266,0.14268,0.93277,0.92534
			c0.07917,0.44205,0.07917,1.04327,0.07917,1.54141c0,0.59298,0,1.12988-0.08742,1.63626
			C30.26425,54.96743,29.81395,55.20495,29.45849,55.20495 M31.12609,52.67551c0-0.63256-0.03959-1.26513-0.31587-1.84986
			c-0.36371-0.75876-1.01194-0.88575-1.34431-0.88575c-0.47422,0-1.05153,0.20536-1.37564,0.94101
			c-0.25237,0.54514-0.29195,1.16204-0.29195,1.7946c0,0.59298,0.03134,1.30389,0.35546,1.90512
			c0.33978,0.63999,0.91709,0.79834,1.30472,0.79834c0.42638,0,1.02761-0.16577,1.37564-0.9171
			C31.0865,53.91673,31.12609,53.29983,31.12609,52.67551z"/>
	</g>
	<polygon class="st15" points="85.31336,68.56832 85.31341,68.56827 85.31341,68.56828 85.31342,68.56828 85.3134,68.56828 
		85.31342,68.56828 85.3134,68.5683 85.31341,68.56829 85.31339,68.5683 85.31339,68.56829 85.31341,68.56828 85.3134,68.56828 
		85.31342,68.56827 85.31339,68.56828 85.3134,68.56828 85.31341,68.56828 85.3134,68.56828 85.31339,68.5683 85.3134,68.5683 
		85.31341,68.56828 85.31342,68.56829 85.31342,68.5683 85.31339,68.56829 85.31339,68.56829 85.31341,68.56829 85.3134,68.5683 
		85.31339,68.56828 85.31341,68.5683 85.3134,68.5683 85.31342,68.5683 85.31339,68.56828 85.31339,68.56827 85.31341,68.56828 
		85.31341,68.56828 85.3134,68.56829 85.31342,68.56829 85.31339,68.56828 85.3134,68.5683 85.31339,68.56828 85.31341,68.5683 
		85.31339,68.5683 85.31341,68.56829 85.3134,68.56829 85.31342,68.56829 85.3134,68.56828 85.31341,68.5683 85.3134,68.56829 
		85.31342,68.56828 85.31341,68.56828 85.3134,68.56829 85.3134,68.56828 85.31341,68.5683 85.31342,68.56829 85.31342,68.56828 
		85.31339,68.5683 85.31341,68.5683 85.31341,68.56829 85.31342,68.5683 85.31339,68.56827 85.31339,68.56828 85.31339,68.56829 
		85.3134,68.56828 85.31341,68.5683 85.3134,68.56828 85.31341,68.56828 85.31339,68.56829 85.31341,68.5683 85.31339,68.56828 
		85.31339,68.5683 85.31339,68.56829 85.31339,68.56828 85.31342,68.56829 85.31339,68.5683 85.31341,68.56829 85.31341,68.56829 
		85.31341,68.56827 85.3134,68.56828 85.31342,68.56827 85.31342,68.56829 85.31341,68.56828 85.31339,68.56828 85.31339,68.56828 
		85.3134,68.56829 85.3134,68.56828 85.3134,68.56828 85.31339,68.56828 85.31341,68.56828 85.3134,68.56828 85.31341,68.56828 
		85.31342,68.56829 85.31342,68.56829 85.31339,68.5683 85.31342,68.56828 	"/>
	<g>
		<defs>
			<rect id="SVGID_15_" x="69.70142" y="64.36106" width="31.54184" height="7.9906"/>
		</defs>
		<clipPath id="SVGID_16_">
			<use xlink:href="#SVGID_15_"  style="overflow:visible;"/>
		</clipPath>
		<path class="st16" d="M85.47234,68.35636L85.47234,68.35636z"/>
		<polyline class="st17" points="71.69643,64.36367 70.85269,65.21992 70.96572,65.3336 71.69643,64.69095 72.42124,65.3336 
			72.53427,65.21992 71.69643,64.36367 		"/>
		<path class="st17" d="M73.04156,66.79572c-0.08805,0.08146-0.29571,0.25822-0.29571,0.37126
			c0,0.06309,0.06309,0.12617,0.12551,0.12617c0.05717,0,0.08871-0.04403,0.12025-0.08213
			c0.07557-0.09399,0.22014-0.27076,0.49744-0.40942c0.04403-0.02498,0.10711-0.05652,0.10711-0.13205
			c0-0.06309-0.04403-0.09463-0.08806-0.12617c-0.13865-0.09399-0.20831-0.20766-0.25825-0.35882
			c-0.01314-0.05648-0.03811-0.13866-0.12617-0.13866c-0.08805,0-0.12617,0.08218-0.12617,0.1321
			c0,0.03155,0.0506,0.23328,0.15115,0.36538h-2.12251c-0.10712,0-0.22014,0-0.22014,0.12617
			c0,0.12617,0.11302,0.12617,0.22014,0.12617H73.04156"/>
		<path class="st17" d="M72.76229,68.14343c0.02563-0.08802,0.02563-0.10052,0.02563-0.14455
			c0-0.11368-0.08805-0.1702-0.18268-0.1702c-0.06309,0-0.16363,0.03747-0.22079,0.1321
			c-0.01249,0.03154-0.06309,0.2267-0.08806,0.34038c-0.04402,0.16362-0.08805,0.33382-0.12617,0.50335l-0.28321,1.13419
			c-0.02498,0.09463-0.29571,0.53556-0.71167,0.53556c-0.32133,0-0.39033-0.27731-0.39033-0.51059
			c0-0.28979,0.10711-0.68011,0.32133-1.23473c0.10054-0.25826,0.1255-0.32725,0.1255-0.45341
			c0-0.28321-0.20173-0.51649-0.51649-0.51649c-0.59798,0-0.83126,0.91339-0.83126,0.96991
			c0,0.06308,0.06309,0.06308,0.07557,0.06308c0.06309,0,0.069-0.01248,0.10054-0.11302
			c0.1702-0.59206,0.42253-0.78131,0.6361-0.78131c0.05059,0,0.15771,0,0.15771,0.20174c0,0.15769-0.06309,0.32131-0.10712,0.44091
			c-0.25168,0.66764-0.36536,1.02642-0.36536,1.32278c0,0.56052,0.3969,0.74912,0.76883,0.74912
			c0.24511,0,0.45933-0.10712,0.63609-0.28322c-0.08214,0.3279-0.15771,0.63609-0.40939,0.96991
			c-0.16428,0.21423-0.40347,0.3969-0.69326,0.3969c-0.08806,0-0.37128-0.01905-0.47839-0.26416
			c0.10054,0,0.18268,0,0.27074-0.07623c0.06308-0.05651,0.12617-0.13799,0.12617-0.25759c0-0.19582-0.1702-0.22079-0.23328-0.22079
			c-0.14456,0-0.35287,0.10054-0.35287,0.40939c0,0.31476,0.27731,0.54803,0.66764,0.54803
			c0.64924,0,1.29781-0.57301,1.47392-1.28468L72.76229,68.14343"/>
		<path class="st17" d="M79.08183,69.70543c0.08807,0,0.20763,0,0.20763-0.12617c0-0.12551-0.11956-0.12551-0.21419-0.12551
			h-3.76008c-0.09463,0-0.2142,0-0.2142,0.12551c0,0.12617,0.11957,0.12617,0.20763,0.12617H79.08183 M79.07527,68.48384
			c0.09463,0,0.21419,0,0.21419-0.12617s-0.11956-0.12617-0.20763-0.12617h-3.7732c-0.08807,0-0.20763,0-0.20763,0.12617
			s0.11957,0.12617,0.2142,0.12617H79.07527z"/>
		<path class="st17" d="M84.15154,69.18301c0,0.76161-0.44096,1.29125-0.90685,1.29125c-0.25166,0-0.49151-0.12617-0.66103-0.38442
			c-0.08874-0.13208-0.08874-0.13865-0.08874-0.26482v-1.40427c0.18269-0.32131,0.49155-0.50401,0.81286-0.50401
			C83.76778,67.91675,84.15154,68.4707,84.15154,69.18301 M84.67458,69.18301c0-0.80037-0.61111-1.42397-1.31622-1.42397
			c-0.49151,0-0.75633,0.27731-0.88183,0.41595v-0.41595l-0.90748,0.06965v0.19518c0.44747,0,0.49151,0.03743,0.49151,0.31475
			v2.94785c0,0.28321-0.06902,0.28321-0.49151,0.28321v0.19583l0.70574-0.01906l0.71166,0.01906v-0.19583
			c-0.4219,0-0.49155,0-0.49155-0.28321V70.2285v-0.05717c0.03155,0.1012,0.29637,0.44093,0.77475,0.44093
			C84.01944,70.61226,84.67458,69.99522,84.67458,69.18301z"/>
		<path class="st17" d="M87.17627,68.14343c0-0.2017-0.19518-0.38439-0.4659-0.38439c-0.46001,0-0.68673,0.42252-0.77475,0.69326
			v-0.69326l-0.87594,0.06965v0.19518c0.44092,0,0.49151,0.04404,0.49151,0.35287v1.68814
			c0,0.28323-0.06902,0.28323-0.49151,0.28323v0.19516l0.71823-0.01905c0.25233,0,0.54803,0,0.79969,0.01905V70.3481h-0.13206
			c-0.4659,0-0.47839-0.06966-0.47839-0.29636v-0.96991c0-0.62361,0.26415-1.18413,0.74321-1.18413
			c0.04399,0,0.05648,0,0.06898,0.00656c-0.01906,0.00593-0.14455,0.08147-0.14455,0.24577
			c0,0.17611,0.13205,0.27073,0.27071,0.27073C87.01856,68.42075,87.17627,68.34519,87.17627,68.14343"/>
		<path class="st17" d="M89.80867,69.14491c0,0.22671,0,0.5671-0.13862,0.84374c-0.13866,0.28388-0.4153,0.46656-0.73072,0.46656
			c-0.27075,0-0.54807-0.13208-0.7176-0.42188c-0.15771-0.27731-0.15771-0.66172-0.15771-0.88843
			c0-0.24577,0-0.58549,0.15115-0.8628c0.1702-0.28978,0.4659-0.42188,0.71823-0.42188c0.27664,0,0.54803,0.13866,0.71167,0.40939
			C89.80867,68.54035,89.80867,68.90572,89.80867,69.14491 M90.33176,69.1955c0-0.80629-0.63017-1.47393-1.39243-1.47393
			c-0.78724,0-1.39835,0.6867-1.39835,1.47393c0,0.8122,0.65514,1.41676,1.39243,1.41676
			C89.69566,70.61226,90.33176,69.99522,90.33176,69.1955z"/>
		<path class="st17" d="M91.96798,66.73852c0-0.16953-0.14522-0.3338-0.3338-0.3338c-0.21423,0-0.34039,0.17677-0.34039,0.3338
			c0,0.1702,0.14522,0.33447,0.33379,0.33447C91.84181,67.07298,91.96798,66.89622,91.96798,66.73852 M91.96798,70.85802v-3.09898
			l-0.9574,0.06965v0.19518c0.48495,0,0.54147,0.04404,0.54147,0.35287v2.49377c0,0.28387-0.05652,0.82534-0.45934,0.82534
			c-0.03154,0-0.17676,0-0.3404-0.08214c0.09463-0.02496,0.22012-0.11302,0.22012-0.28322
			c0-0.16362-0.11301-0.28979-0.28913-0.28979c-0.17677,0-0.28976,0.12617-0.28976,0.28979
			c0,0.3279,0.35221,0.50401,0.71166,0.50401C91.57766,71.8345,91.96798,71.43169,91.96798,70.85802z"/>
		<path class="st17" d="M96.25507,69.51027c0.03941-0.16166,0.04861-0.19649,0.37189-0.19649c0.09597,0,0.14854,0,0.14854-0.0966
			c0-0.01708-0.01317-0.06111-0.06969-0.06111c-0.1268,0-0.44617,0.01775-0.57301,0.01775c-0.07423,0-0.22736,0-0.30158-0.0046
			c-0.08743-0.00394-0.1919-0.01315-0.27534-0.01315c-0.02628,0-0.09135,0-0.09135,0.0966c0,0.06111,0.0519,0.06111,0.13929,0.06111
			c0.00462,0,0.08807,0,0.16624,0.00854c0.09202,0.00854,0.10056,0.01775,0.10056,0.06112c0,0.00459,0,0.03088-0.01707,0.09659
			l-0.25826,1.03103h-1.46405l0.25365-1.01394c0.0394-0.14851,0.04798-0.18334,0.38443-0.18334c0.07423,0,0.13142,0,0.13142-0.0966
			c0-0.01708-0.01317-0.06111-0.07032-0.06111c-0.12684,0-0.44553,0.01775-0.57238,0.01775c-0.07423,0-0.22735,0-0.30162-0.0046
			c-0.08739-0.00394-0.19254-0.01315-0.2753-0.01315c-0.02628,0-0.09202,0-0.09202,0.0966
			c0,0.06111,0.05257,0.06111,0.13996,0.06111c0.00462,0,0.08739,0,0.16624,0.00854
			c0.09202,0.00854,0.10056,0.01775,0.10056,0.06112c0,0.00919,0,0.03088-0.01775,0.09659l-0.58087,2.3203
			c-0.03487,0.14851-0.04404,0.184-0.38511,0.184c-0.07423,0-0.13075,0-0.13075,0.09134c0,0.04403,0.03024,0.06571,0.06965,0.06571
			c0.12684,0,0.44158-0.01774,0.56843-0.01774c0.07423,0,0.22735,0,0.30162,0.00459c0.08739,0.0046,0.19649,0.01315,0.27992,0.01315
			c0.02171,0,0.09135,0,0.09135-0.092c0-0.06506-0.04336-0.06506-0.14391-0.06506c-0.07032,0-0.08739,0-0.16624-0.0092
			c-0.09593-0.01315-0.09593-0.02168-0.09593-0.06571c0-0.00394,0-0.03023,0.01707-0.09594l0.28846-1.14471h1.46409
			l-0.28387,1.13156c-0.03482,0.14851-0.0434,0.184-0.38444,0.184c-0.07426,0-0.13142,0-0.13142,0.09134
			c0,0.04403,0.03087,0.06571,0.07032,0.06571c0.12617,0,0.44091-0.01774,0.56776-0.01774c0.07426,0,0.22735,0,0.30162,0.00459
			c0.08739,0.0046,0.19649,0.01315,0.27992,0.01315c0.0217,0,0.09135,0,0.09135-0.092c0-0.06506-0.04336-0.06506-0.14391-0.06506
			c-0.06965,0-0.08739,0-0.16625-0.0092c-0.09592-0.01315-0.09592-0.02168-0.09592-0.06571
			c0-0.02563,0.01312-0.06966,0.01775-0.09594L96.25507,69.51027"/>
		<path class="st17" d="M100.67223,66.79572c-0.08807,0.08146-0.29569,0.25822-0.29569,0.37126
			c0,0.06309,0.06308,0.12617,0.12549,0.12617c0.05716,0,0.0887-0.04403,0.12024-0.08213
			c0.07558-0.09399,0.22016-0.27076,0.49747-0.40942c0.044-0.02498,0.10708-0.05652,0.10708-0.13205
			c0-0.06309-0.04399-0.09463-0.08802-0.12617c-0.13866-0.09399-0.20831-0.20766-0.25827-0.35882
			c-0.01312-0.05648-0.0381-0.13866-0.12617-0.13866c-0.08806,0-0.12617,0.08218-0.12617,0.1321
			c0,0.03155,0.05059,0.23328,0.15115,0.36538h-2.12252c-0.10712,0-0.22012,0-0.22012,0.12617
			c0,0.12617,0.113,0.12617,0.22012,0.12617H100.67223"/>
		<path class="st17" d="M100.43499,68.14343c0.02565-0.08802,0.02565-0.10052,0.02565-0.14455
			c0-0.11368-0.08807-0.1702-0.18269-0.1702c-0.06309,0-0.16364,0.03747-0.22079,0.1321
			c-0.01249,0.03154-0.06309,0.2267-0.08807,0.34038c-0.04403,0.16362-0.08807,0.33382-0.12617,0.50335l-0.2832,1.13419
			c-0.02499,0.09463-0.29569,0.53556-0.71167,0.53556c-0.32135,0-0.39032-0.27731-0.39032-0.51059
			c0-0.28979,0.10712-0.68011,0.3213-1.23473c0.10056-0.25826,0.12554-0.32725,0.12554-0.45341
			c0-0.28321-0.20174-0.51649-0.51653-0.51649c-0.59795,0-0.83123,0.91339-0.83123,0.96991
			c0,0.06308,0.06308,0.06308,0.07557,0.06308c0.06309,0,0.06898-0.01248,0.10052-0.11302
			c0.1702-0.59206,0.42253-0.78131,0.63609-0.78131c0.0506,0,0.15771,0,0.15771,0.20174c0,0.15769-0.06308,0.32131-0.10711,0.44091
			c-0.25166,0.66764-0.36534,1.02642-0.36534,1.32278c0,0.56052,0.39688,0.74912,0.76882,0.74912
			c0.2451,0,0.45934-0.10712,0.63609-0.28322c-0.08214,0.3279-0.15771,0.63609-0.40937,0.96991
			c-0.16428,0.21423-0.40348,0.3969-0.69329,0.3969c-0.08802,0-0.37127-0.01905-0.47839-0.26416
			c0.10056,0,0.18269,0,0.27076-0.07623c0.06308-0.05651,0.12616-0.13799,0.12616-0.25759c0-0.19582-0.1702-0.22079-0.23328-0.22079
			c-0.14455,0-0.35289,0.10054-0.35289,0.40939c0,0.31476,0.27731,0.54803,0.66763,0.54803
			c0.64925,0,1.29784-0.57301,1.47393-1.28468L100.43499,68.14343"/>
	</g>
	<polygon class="st15" points="27.04544,26.70705 27.04539,26.70701 27.0454,26.70701 27.0454,26.707 27.04541,26.70701 
		27.04539,26.707 27.04542,26.70702 27.0454,26.70702 27.04539,26.70702 27.04541,26.70703 27.0454,26.70701 27.0454,26.70702 
		27.04542,26.70703 27.04539,26.70703 27.04539,26.70701 27.0454,26.70703 27.0454,26.70703 27.04541,26.70702 27.04541,26.70702 
		27.0454,26.70701 27.0454,26.70703 27.04541,26.70703 27.04542,26.70703 27.04542,26.70703 27.04541,26.707 27.04541,26.70702 
		27.0454,26.70701 27.04542,26.70703 27.04542,26.70701 27.04542,26.70701 27.04542,26.707 27.04539,26.70702 27.04541,26.70701 
		27.04541,26.707 27.04541,26.70702 27.04539,26.70703 27.0454,26.70703 27.04541,26.70701 27.04541,26.70702 27.04542,26.70701 
		27.04539,26.707 27.04541,26.70702 27.04542,26.70701 27.0454,26.70702 27.04541,26.707 27.04539,26.70701 27.0454,26.70703 
		27.04541,26.70702 27.04542,26.70702 27.04541,26.70702 27.04542,26.70702 27.04541,26.70703 27.04541,26.70701 27.0454,26.70702 
		27.04541,26.70702 27.0454,26.70702 27.0454,26.707 27.04541,26.70701 27.04541,26.70704 27.04541,26.70703 27.04541,26.70703 
		27.04539,26.70701 27.0454,26.70702 27.04541,26.70701 27.04542,26.707 27.04541,26.70701 27.04541,26.707 27.04542,26.707 
		27.04539,26.70702 27.04539,26.70701 27.04541,26.70702 27.0454,26.70702 27.04542,26.70703 27.04541,26.707 27.04541,26.70702 
		27.04539,26.707 27.0454,26.707 27.04539,26.70701 27.04541,26.70702 27.04541,26.70702 27.04541,26.707 27.04541,26.70703 
		27.04541,26.707 27.04541,26.70703 27.04539,26.70704 27.04539,26.70703 27.04542,26.70702 27.0454,26.70702 27.0454,26.70701 
		27.04542,26.70701 27.0454,26.70701 27.04542,26.707 	"/>
	<g>
		<defs>
			
				<rect id="SVGID_17_" x="23.01104" y="13.24797" transform="matrix(1 -0.00254 0.00254 1 -0.06747 0.06814)" width="7.65185" height="26.78149"/>
		</defs>
		<clipPath id="SVGID_18_">
			<use xlink:href="#SVGID_17_"  style="overflow:visible;"/>
		</clipPath>
		<path class="st18" d="M27.04952,26.63818L27.04952,26.63818z"/>
		<path class="st19" d="M25.58307,36.91148c0.08257,0.0888,0.26177,0.29824,0.37604,0.29795
			c0.06376-0.00016,0.12737-0.06409,0.12721-0.12719c-0.00015-0.05779-0.04473-0.08956-0.08333-0.12134
			c-0.09521-0.07615-0.27424-0.22182-0.41511-0.50177c-0.02536-0.04444-0.05741-0.10812-0.13376-0.10793
			c-0.06377,0.00016-0.09554,0.04475-0.1273,0.08933c-0.09466,0.14039-0.20938,0.21109-0.36204,0.26196
			c-0.05706,0.01343-0.14006,0.03888-0.13983,0.12788c0.00023,0.089,0.08339,0.12732,0.13385,0.12719
			c0.03188-0.00008,0.23567-0.05174,0.36894-0.15371l0.00544,2.14544c0.00027,0.10827,0.00056,0.22252,0.1281,0.22219
			c0.12753-0.00032,0.12724-0.11457,0.12696-0.22284L25.58307,36.91148"/>
		<path class="st19" d="M28.8487,39.39006c-0.37018-0.34246-0.5294-0.52672-0.72725-0.75537
			c-0.00664,0.00002-0.34507-0.39434-0.57481-0.62291c-0.59336-0.60294-0.89926-0.74231-0.92515-0.74225
			c-0.06377,0.00016-0.06362,0.05728-0.06359,0.0699c0.00011,0.0445,0.01279,0.06373,0.07064,0.09547
			c0.30603,0.18986,0.40799,0.32377,0.40838,0.47654c0.00039,0.15277-0.09507,0.2294-0.20311,0.32532
			c-0.1458,0.12126-0.27306,0.22985-0.27252,0.43974c0.00121,0.47758,0.59443,0.769,0.72794,0.76866
			c0.03188-0.00008,0.06969-0.01944,0.06955-0.07656c-0.00014-0.05713-0.0314-0.07033-0.06995-0.08285
			c-0.29323-0.12014-0.30015-0.48944-0.30028-0.54058c-0.00034-0.13351,0.04386-0.25451,0.09397-0.40077
			c0.095-0.2553,0.09482-0.32505,0.0944-0.49044c0.27424,0.22847,0.73391,0.762,0.83651,0.88263l0.53615,0.57187
			c0.42753,0.43133,0.79076,0.65359,0.83593,0.65347c0.0631-0.00016,0.06294-0.06392,0.06291-0.07655
			c-0.00013-0.05114-0.01278-0.06373-0.08262-0.10208c-0.22355-0.14556-0.3954-0.33642-0.39592-0.53968
			c-0.00037-0.14679,0.05659-0.2107,0.24084-0.36992c0.13323-0.10861,0.23457-0.22377,0.2341-0.40842
			c-0.0016-0.63035-0.81089-0.99761-0.98293-0.99717c-0.03188,0.00008-0.0637,0.02607-0.06357,0.07655
			c0.00014,0.05779,0.0387,0.07031,0.08325,0.08946c0.41418,0.14508,0.53611,0.5526,0.53664,0.76249
			c0.00032,0.12753-0.03725,0.24187-0.08141,0.3755c-0.08248,0.21674-0.10748,0.31245-0.10714,0.44596
			C28.8297,39.23136,28.82995,39.33299,28.8487,39.39006"/>
		<path class="st19" d="M28.50885,30.84101c-0.00023-0.08902-0.00053-0.20987-0.12806-0.20955
			c-0.12687,0.00032-0.12656,0.12118-0.12632,0.21683l0.00964,3.80071c0.00024,0.09565,0.00055,0.2165,0.12742,0.21618
			c0.12753-0.00032,0.12722-0.12118,0.127-0.2102L28.50885,30.84101 M27.27408,30.85077
			c-0.00024-0.09565-0.00055-0.2165-0.12808-0.21618c-0.12753,0.00032-0.12722,0.12118-0.127,0.2102l0.00967,3.81397
			c0.00023,0.08902,0.00053,0.20987,0.12806,0.20955c0.12753-0.00032,0.12722-0.12118,0.12698-0.21683L27.27408,30.85077z"/>
		<polyline class="st19" points="23.14085,26.50194 24.00852,27.35262 24.12313,27.23807 23.47166,26.5011 24.1194,25.76683 
			24.00421,25.6529 23.14085,26.50194 		"/>
		<path class="st19" d="M25.55332,25.17868c0.08257,0.08881,0.26177,0.29823,0.37604,0.29794
			c0.06376-0.00016,0.12737-0.06409,0.12721-0.12717c-0.00015-0.05777-0.04473-0.08954-0.08333-0.12133
			c-0.0952-0.07615-0.27424-0.22185-0.41511-0.5018c-0.02536-0.0444-0.05741-0.10809-0.13376-0.10789
			c-0.06376,0.00016-0.09554,0.04471-0.1273,0.0893c-0.09466,0.1404-0.20938,0.21108-0.36204,0.26197
			c-0.05706,0.01341-0.14006,0.03887-0.13983,0.12789c0.00023,0.08902,0.08339,0.12732,0.13385,0.12719
			c0.03188-0.00008,0.23568-0.05174,0.36894-0.15372l0.00544,2.14544c0.00027,0.10827,0.00056,0.2225,0.1281,0.22217
			c0.12753-0.00032,0.12724-0.11455,0.12697-0.22282L25.55332,25.17868"/>
		<path class="st19" d="M26.91623,25.41502c-0.08906-0.02571-0.10169-0.02567-0.14619-0.02556
			c-0.1149,0.00029-0.17181,0.08945-0.17157,0.1851c0.00016,0.06376,0.0383,0.16531,0.13409,0.22284
			c0.03192,0.01254,0.22931,0.06318,0.34428,0.08814c0.1655,0.04409,0.33765,0.08816,0.50912,0.12624l1.14717,0.28336
			c0.09571,0.02501,0.5421,0.29752,0.54317,0.71798c0.00082,0.32482-0.2793,0.39525-0.5151,0.39585
			c-0.29292,0.00074-0.68774-0.10653-1.24889-0.32161c-0.2613-0.10098-0.33111-0.12605-0.45864-0.12573
			c-0.28627,0.00073-0.52155,0.20525-0.52075,0.52343c0.00153,0.60441,0.92539,0.83787,0.98252,0.83773
			c0.06376-0.00016,0.0636-0.06393,0.06357-0.07655c-0.00016-0.06377-0.0128-0.06968-0.1145-0.10131
			c-0.5989-0.17052-0.79083-0.4251-0.79138-0.64096c-0.00013-0.05114-0.0004-0.15941,0.2035-0.15993
			c0.15941-0.0004,0.32496,0.06294,0.44597,0.10714c0.67549,0.25267,1.03845,0.36666,1.33801,0.3659
			c0.56658-0.00144,0.7562-0.40309,0.75524-0.77905c-0.00063-0.24775-0.10945-0.46402-0.28791-0.64224
			c0.33166,0.08218,0.64337,0.15778,0.98144,0.41131c0.21696,0.16549,0.40222,0.40682,0.40297,0.69976
			c0.00023,0.08897-0.01831,0.37533-0.26579,0.48423c-0.00026-0.10164-0.00047-0.18466-0.07774-0.27349
			c-0.05729-0.06362-0.13981-0.12718-0.2607-0.12687c-0.19794,0.0005-0.22274,0.1726-0.22258,0.23637
			c0.00037,0.14611,0.10253,0.35645,0.41471,0.35565c0.31816-0.00081,0.55325-0.28172,0.55225-0.67625
			c-0.00166-0.65627-0.58253-1.31039-1.30233-1.48656L26.91623,25.41502"/>
		<path class="st19" d="M27.8626,19.59201c-0.00027-0.10827-0.00056-0.22254-0.12743-0.22222
			c-0.12753,0.00032-0.12724,0.11459-0.12697,0.22286l0.00874,3.44464c0.00027,0.10827,0.00056,0.2225,0.1281,0.22217
			c0.12687-0.00032,0.12658-0.11455,0.1263-0.22282L27.8626,19.59201"/>
		<path class="st19" d="M25.52518,14.08352c0.08257,0.08881,0.26177,0.29823,0.37604,0.29794
			c0.06376-0.00016,0.12737-0.06409,0.12721-0.12717c-0.00015-0.05777-0.04473-0.08954-0.08333-0.12133
			c-0.09521-0.07615-0.27424-0.22185-0.41511-0.5018c-0.02536-0.0444-0.05741-0.10809-0.13376-0.10789
			c-0.06376,0.00016-0.09554,0.04471-0.1273,0.0893c-0.09466,0.1404-0.20938,0.21109-0.36204,0.26197
			c-0.05706,0.01341-0.14006,0.03887-0.13983,0.12789c0.00023,0.08902,0.08339,0.12732,0.13385,0.12719
			c0.03188-0.00008,0.23567-0.05174,0.36894-0.15372l0.00544,2.14545c0.00027,0.10827,0.00056,0.2225,0.1281,0.22217
			c0.12753-0.00032,0.12724-0.11455,0.12696-0.22282L25.52518,14.08352"/>
		<path class="st19" d="M26.88809,14.31987c-0.08906-0.02571-0.10169-0.02567-0.14619-0.02556
			c-0.1149,0.00029-0.17181,0.08945-0.17157,0.1851c0.00016,0.06377,0.0383,0.16531,0.13409,0.22284
			c0.03192,0.01254,0.22931,0.06318,0.34428,0.08814c0.1655,0.04409,0.33765,0.08816,0.50912,0.12624l1.14717,0.28336
			c0.09571,0.02501,0.5421,0.29752,0.54317,0.71798c0.00082,0.32482-0.2793,0.39525-0.5151,0.39585
			c-0.29292,0.00074-0.68774-0.10653-1.24889-0.32161c-0.2613-0.10098-0.33111-0.12605-0.45864-0.12573
			c-0.28627,0.00073-0.52155,0.20525-0.52075,0.52343c0.00153,0.60441,0.92539,0.83787,0.98252,0.83773
			c0.06376-0.00016,0.0636-0.06393,0.06357-0.07655c-0.00016-0.06376-0.0128-0.06968-0.1145-0.10131
			c-0.5989-0.17052-0.79083-0.4251-0.79138-0.64096c-0.00013-0.05114-0.0004-0.15941,0.2035-0.15993
			c0.15941-0.0004,0.32496,0.06294,0.44597,0.10714c0.67549,0.25267,1.03845,0.36666,1.33801,0.3659
			c0.56658-0.00144,0.7562-0.40309,0.75524-0.77905c-0.00063-0.24775-0.10945-0.46402-0.28791-0.64224
			c0.33166,0.08218,0.64337,0.15778,0.98144,0.41131c0.21696,0.1655,0.40222,0.40683,0.40297,0.69976
			c0.00023,0.08897-0.01831,0.37533-0.26579,0.48423c-0.00026-0.10164-0.00047-0.18467-0.07774-0.27349
			c-0.05729-0.06362-0.13981-0.12718-0.2607-0.12687c-0.19794,0.0005-0.22274,0.17261-0.22258,0.23637
			c0.00037,0.14611,0.10253,0.35645,0.41472,0.35565c0.31816-0.00081,0.55325-0.28172,0.55225-0.67625
			c-0.00166-0.65627-0.58253-1.3104-1.30233-1.48656L26.88809,14.31987"/>
	</g>
	<g>
		<path d="M78.21484,78.78516c0,0,0.48584,0.36572,0.78564,0.62354c-0.01807,0.06592-0.08398,0.09619-0.17383,0.09619h-5.40918
			l-0.04785-0.17383h0.86328v-3.13037l0.97754,0.08398c-0.01221,0.08398-0.06006,0.14404-0.22168,0.17383v2.87256h0.91113v-4.354
			h-2.17676l-0.04785-0.17383h3.89209l0.42578-0.53955c0,0,0.47363,0.36572,0.76758,0.61768
			c-0.01807,0.06592-0.07812,0.0957-0.16797,0.0957h-1.92529v1.93701h0.71387l0.41357-0.53369c0,0,0.46777,0.35986,0.74365,0.60596
			c-0.01807,0.06006-0.08398,0.08984-0.16797,0.08984h-1.70312v2.25488h1.11572L78.21484,78.78516z"/>
		<path d="M83.81299,76.98633c-0.02979,0.06592-0.0957,0.10205-0.23975,0.08984c-0.22803,0.46191-0.52783,0.8877-0.91748,1.27148
			c0.70752,0.40137,1.55322,0.64746,2.41064,0.78516l-0.01221,0.07227c-0.32373,0.06006-0.53369,0.28174-0.63525,0.62354
			c-0.8457-0.24609-1.5835-0.59375-2.17725-1.12158c-0.70752,0.54004-1.63086,0.93555-2.83643,1.12158l-0.03564-0.07812
			c1.06738-0.31787,1.88867-0.81543,2.48242-1.42725c-0.35352-0.41357-0.6416-0.91748-0.83936-1.52881l0.07764-0.06006
			c0.23389,0.52148,0.59375,0.94141,1.04346,1.27734c0.35986-0.42578,0.61768-0.90576,0.79199-1.40918L83.81299,76.98633z
			 M79.50146,75.49902l-0.04785-0.16797h4.40723l0.40186-0.58154c0,0,0.45605,0.39551,0.71973,0.65332
			c-0.01807,0.06641-0.08398,0.09619-0.16797,0.09619H79.50146z M79.60352,77.38818
			c0.60547-0.48584,1.10938-1.25342,1.33105-1.84717l0.87549,0.44385c-0.02393,0.06006-0.08398,0.10205-0.22803,0.08398
			c-0.40137,0.52148-1.09131,1.08545-1.93652,1.38525L79.60352,77.38818z M81.41455,74.19775
			c1.7749,0.12598,1.25928,1.46924,0.56348,1.0376c-0.07812-0.36621-0.35986-0.76172-0.61182-1.00146L81.41455,74.19775z
			 M82.78174,75.65479c2.41064,0.38379,2.05078,1.979,1.271,1.56543c-0.22754-0.54004-0.81543-1.15137-1.31934-1.51709
			L82.78174,75.65479z"/>
		<path d="M87.54639,76.44043c-0.18018,0.16797-0.43164,0.38965-0.73779,0.6416v1.87109c0,0.50391-0.0957,0.79736-0.86963,0.87549
			c-0.01172-0.24609-0.04785-0.41992-0.12549-0.53955c-0.08398-0.12598-0.21631-0.2041-0.47412-0.25195v-0.08398
			c0,0,0.54004,0.03613,0.65967,0.03613c0.09619,0,0.12598-0.03613,0.12598-0.10791v-1.25928
			c-0.0957,0.07178-0.19775,0.1499-0.30566,0.22754c-0.01807,0.07812-0.06592,0.15625-0.13184,0.18604l-0.35986-0.77344
			c0.16162-0.0542,0.44971-0.16211,0.79736-0.30615v-1.16309h-0.72559l-0.04199-0.17383H86.125v-1.41553l0.90576,0.08398
			c-0.01221,0.08984-0.07227,0.1499-0.22217,0.17383v1.15771h0.06006l0.31787-0.46777c0,0,0.354,0.31787,0.55762,0.54541
			c-0.01172,0.06592-0.07812,0.09619-0.16211,0.09619h-0.77344v0.89355c0.23389-0.09619,0.47363-0.19824,0.70752-0.2998
			L87.54639,76.44043z M90.66455,77.16602c-0.04785,0.06006-0.10791,0.08398-0.25781,0.09619
			c-0.22803,0.52148-0.53955,0.97754-0.95361,1.36133c0.46777,0.25781,1.01367,0.41943,1.59521,0.53369L91.03613,79.229
			c-0.28174,0.06006-0.47949,0.27002-0.5752,0.59375c-0.58203-0.2041-1.07373-0.46191-1.45752-0.8335
			c-0.55176,0.38379-1.24121,0.66553-2.09863,0.8335l-0.04199-0.07812c0.74365-0.26367,1.36133-0.62939,1.84082-1.09131
			c-0.30566-0.38965-0.52783-0.87549-0.67773-1.51123h-0.46143l-0.0542-0.17383h2.14697l0.38379-0.36572L90.66455,77.16602z
			 M87.33057,76.88428c0.60547-0.53955,0.67725-1.21729,0.67725-1.76904v-0.74951l0.73779,0.26953h0.67773l0.31787-0.3418
			l0.58154,0.47998c-0.03613,0.04199-0.10791,0.07178-0.21582,0.08984v0.98975c0,0.05957,0.01172,0.08398,0.08398,0.08398h0.1499
			h0.1377c0.03027,0,0.09619,0,0.12598-0.00635c0.03613-0.00586,0.08984-0.01807,0.12598-0.02393h0.06006l0.02979,0.00586
			c0.14404,0.07227,0.19189,0.13232,0.19189,0.25195c0,0.24609-0.20947,0.37207-0.76123,0.37207H89.9751
			c-0.44385,0-0.4917-0.12598-0.4917-0.51611v-1.21729h-0.83984v0.31201c0,0.52148-0.12598,1.36133-1.26514,1.8291
			L87.33057,76.88428z M88.14014,77.14209c0.18555,0.50391,0.48535,0.89355,0.86328,1.1875
			c0.29395-0.34814,0.51562-0.74951,0.67188-1.1875H88.14014z"/>
		<path d="M91.37549,76.58447h1.63135c-0.06641-0.02393-0.13232-0.06592-0.19238-0.12598
			c0.04199-0.17383-0.00586-0.37158-0.07764-0.47363l0.01807-0.01221h-0.36572v0.16797c0,0.06006-0.27002,0.18018-0.51611,0.18018
			H91.7832v-2.03906l0.63574,0.25781h1.30713l0.28809-0.31201l0.62354,0.46777c-0.03613,0.04834-0.13184,0.09619-0.25195,0.12012
			v1.25342c-0.00586,0.04199-0.30566,0.1499-0.49756,0.1499h-0.10205v-0.24609h-0.87549
			c0.76172,0.13184,0.67139,0.50977,0.396,0.61182h0.70117l0.32422-0.40771c0,0,0.37158,0.28174,0.59961,0.48584
			c-0.01807,0.06592-0.07812,0.0957-0.16211,0.0957h-3.34619L91.37549,76.58447z M93.39648,78.02979v1.06738
			c0,0.41943-0.08984,0.68359-0.71387,0.73145c-0.00586-0.17383-0.02393-0.31787-0.08398-0.40771
			c-0.04199-0.07812-0.13184-0.14404-0.33545-0.18018v-0.07764c0,0,0.33545,0.02393,0.42578,0.02393
			c0.07764,0,0.0957-0.03613,0.0957-0.10205v-1.05518h-0.41357v0.13184c0,0.02979-0.09619,0.08398-0.22217,0.12598l0.60596,0.25781
			c-0.03027,0.06006-0.07812,0.08984-0.20996,0.07812c-0.23389,0.36572-0.63574,0.76758-1.10938,1.00098l-0.0542-0.07178
			c0.28174-0.33594,0.4917-0.8457,0.59375-1.22314c-0.04199,0.00586-0.07812,0.00586-0.11377,0.00586h-0.08398v-1.4751
			l0.62939,0.24561h1.29541l0.27002-0.2876l0.5874,0.4375c-0.03564,0.03613-0.10791,0.08398-0.20996,0.10791v0.75
			c-0.00586,0.04199-0.30566,0.1499-0.49756,0.1499h-0.0957v-0.23389H93.39648z M92.37109,77.85596h1.38525v-0.57617h-1.38525
			V77.85596z M92.38916,74.71338v0.44971h1.39697v-0.44971H92.38916z M92.38916,75.79883h1.39697v-0.46191h-1.39697V75.79883z
			 M93.51611,78.32959c1.46924,0.27588,0.91748,1.34326,0.37207,0.9292c-0.03613-0.31152-0.23975-0.67139-0.42578-0.89355
			L93.51611,78.32959z M97.07227,77.92773c-0.04199,0.06592-0.10205,0.08398-0.24561,0.06006
			c-0.74951,0.9292-1.66113,1.50488-2.77051,1.87061l-0.04199-0.0835c0.91162-0.52197,1.64307-1.26562,2.20068-2.30908
			L97.07227,77.92773z M94.52393,77.69971c0.61133-0.48584,1.15137-1.15723,1.58887-1.89502l0.82764,0.51611
			c-0.04199,0.05957-0.10205,0.07764-0.23389,0.04785c-0.60547,0.57568-1.37305,1.0791-2.13477,1.40918L94.52393,77.69971z
			 M94.54199,76.05664c0.5874-0.45557,1.10303-1.09131,1.52295-1.78076l0.80371,0.50342
			c-0.04199,0.06592-0.10205,0.08398-0.23389,0.0542c-0.58203,0.52734-1.31348,0.99512-2.03906,1.30713L94.54199,76.05664z"/>
	</g>
	<g>
		<path d="M21.26221,35.01855c0,0,0.35645-0.49268,0.60889-0.79736c0.06592,0.0166,0.09766,0.08203,0.09912,0.17188l0.104,5.4082
			l-0.17285,0.05127l-0.0166-0.86279l-3.12988,0.06006l0.06494-0.97949c0.08447,0.01025,0.14551,0.05762,0.17822,0.21826
			l2.87207-0.05469l-0.01758-0.91113L17.5,37.40625l0.04199,2.17627l-0.17334,0.05078l-0.07471-3.89111l-0.54785-0.41504
			c0,0,0.35693-0.48096,0.60303-0.77979c0.06641,0.01709,0.09766,0.07666,0.09961,0.1665l0.03662,1.92529l1.93604-0.03711
			l-0.01367-0.71387l-0.5415-0.40332c0,0,0.35107-0.4751,0.5918-0.75537c0.06006,0.0166,0.09131,0.08203,0.09277,0.16602
			l0.03271,1.70312l2.25439-0.04297l-0.02148-1.11572L21.26221,35.01855z"/>
		<path d="M16.61475,31.90723c0.0918-1.77686,1.44434-1.28662,1.02637-0.58301c-0.36426,0.08545-0.75439,0.37402-0.98926,0.63086
			L16.61475,31.90723z M17.95215,33.79541l-0.16699,0.05127l-0.08447-4.40674l-0.58887-0.39062c0,0,0.38672-0.46338,0.63916-0.73193
			c0.06641,0.0166,0.09766,0.08203,0.09912,0.16602L17.95215,33.79541z M19.83936,33.65723
			c-0.49756-0.59619-1.2749-1.08545-1.87256-1.2959l0.42676-0.88379c0.06055,0.02295,0.104,0.08203,0.08838,0.22607
			c0.5293,0.3916,1.10645,1.0708,1.42236,1.91016L19.83936,33.65723z M18.04492,30.5127
			c0.3374-2.41748,1.93994-2.08838,1.54102-1.30078c-0.53564,0.23779-1.13574,0.8374-1.4917,1.34766L18.04492,30.5127z
			 M19.35693,29.45605c0.06641,0.02832,0.10303,0.09375,0.09424,0.23779c0.46631,0.21924,0.89746,0.51074,1.28857,0.89307
			c0.3877-0.71484,0.61768-1.56543,0.73877-2.42529l0.07275,0.01123c0.06641,0.32227,0.29199,0.52832,0.63574,0.62256
			c-0.22949,0.85059-0.56348,1.59473-1.08008,2.19873c0.55371,0.69678,0.9668,1.6123,1.17627,2.81445l-0.07764,0.03711
			c-0.33838-1.06104-0.85156-1.87305-1.47461-2.45459c-0.40674,0.36084-0.90479,0.65869-1.51221,0.86816l-0.06152-0.07617
			c0.5166-0.24414,0.92969-0.61182,1.25684-1.06787c-0.43213-0.35156-0.91748-0.6001-1.42383-0.76416L19.35693,29.45605z"/>
		<path d="M16.58496,24.08984c0.09082,0.04004,0.2002,0.12207,0.32178,0.22168c0.78369-0.41113,1.42773-1.23877,1.74658-2.11475
			l0.07275,0.0166c0.08838,0.2207,0.3623,0.44873,0.63379,0.52783c-0.58154,0.96436-1.46924,1.56934-2.89062,1.89014
			l-0.03125-0.05859L16.58496,24.08984z M16.88281,25.23584c0.06641,0.02881,0.10938,0.08154,0.10596,0.23193
			c0.89014,0.42676,1.90039,1.2168,2.46387,2.41797l-0.05908,0.04883c-0.74951-0.89746-1.92432-1.50439-2.84668-1.74414
			L16.88281,25.23584z M18.6001,23.81104l0.54004-0.646c0.04834,0.04736,0.08594,0.11865,0.10645,0.24414
			c1.5,0.04346,2.33008,0.16455,2.60059,0.48975c0.17773,0.2002,0.26025,0.44482,0.26807,0.84082
			c-0.20361,0.00391-0.37695,0.03711-0.47119,0.14062c-0.10596,0.12207-0.19678,0.37549-0.24512,0.66504l-0.07812,0.00146
			c0.01807-0.30664,0.03906-0.76855,0.03662-0.9126c-0.00195-0.10791-0.01514-0.16211-0.06445-0.21484
			c-0.15332-0.17725-0.94678-0.26367-2.14648-0.30078l0.02051,1.06738c1.03906,0.09961,2.17285,0.43213,3.00928,2.42529
			l-0.08252,0.06738c-0.97119-1.52881-2.02393-1.68848-2.91211-1.71924l0.02051,1.06104l-0.17334,0.05713l-0.05566-2.89551
			L18.6001,23.81104z"/>
		<path d="M18.23145,20.20459c0.06592-0.00146,0.22168,0.30713,0.22705,0.58936l0.00195,0.10107l-1.96631,0.03809l0.27393-0.74268
			l-0.03955-2.06836l-0.36035-0.31689l0.50244-0.69971c0.04883,0.04102,0.10449,0.11816,0.13086,0.24365l1.12695-0.02148
			c0.04199,0.00488,0.1626,0.35693,0.16699,0.58447l0.00195,0.12012l-0.18555,0.00342l0.04199,2.17041L18.23145,20.20459z
			 M16.94287,20.22949l0.42529-0.0083l-0.04199-2.17041l-0.42529,0.0083L16.94287,20.22949z M17.94385,18.03906l-0.44971,0.0083
			l0.04199,2.17041l0.44971-0.0083L17.94385,18.03906z M18.75293,21.74805l-0.16748,0.05078l-0.08447-4.41846l-0.4624-0.34521
			c0,0,0.29785-0.40186,0.51562-0.65186c0.06641,0.01709,0.09717,0.08252,0.09863,0.1665L18.75293,21.74805z M21.16211,16.94531
			c0,0,0.32715-0.43213,0.55615-0.69434c0.06592,0.01025,0.09766,0.07568,0.09961,0.16553l0.10156,5.31836l-0.17285,0.05127
			l-0.04541-2.37988l-0.51611,0.00977l0.03564,1.87012l-0.1665,0.05762l-0.03662-1.92432l-0.46777,0.00879l0.01514,0.7915
			l0.10156-0.00195c0.06006-0.00098,0.21582,0.31396,0.22168,0.60693l0.00195,0.09619l-2.05615,0.03955l0.2793-0.75488
			l-0.0415-2.18262l-0.37256-0.32227l0.51416-0.71777c0.04834,0.03467,0.1167,0.12354,0.14307,0.25537l1.15674-0.02246
			c0.01221,0.00586,0.03027,0.0293,0.04932,0.07666c0.09375-0.12158,0.31006-0.40723,0.47461-0.59668
			c0.06641,0.01709,0.09717,0.07617,0.09863,0.15381l0.03613,1.88232l0.51611-0.00977l-0.02686-1.40234L21.16211,16.94531z
			 M19.25342,18.76904l0.46777-0.00928l-0.01562-0.81494l-0.46777,0.00928L19.25342,18.76904z M19.28174,20.24463l0.46777-0.00928
			l-0.01514-0.7915l-0.46777,0.00928L19.28174,20.24463z M19.87354,17.94189l0.01562,0.81494l0.47363-0.00928l-0.01562-0.81494
			L19.87354,17.94189z M20.37598,19.43164l-0.47363,0.00928l0.01514,0.7915l0.47363-0.00928L20.37598,19.43164z M21.00439,18.73535
			l-0.01953-1.0249l-0.37793-0.28613c0.03857,0.11865,0.07129,0.27441,0.07324,0.38818l0.00244,0.11377L20.521,17.9292
			l0.01562,0.81494L21.00439,18.73535z"/>
	</g>
</g>
<g>
</g>
<g>
</g>
<g>
</g>
<g>
</g>
<g>
</g>
<g>
</g>
</svg>
