<?xml version="1.0" encoding="utf-8"?>
<!-- Generator: Adobe Illustrator 25.2.0, SVG Export Plug-In . SVG Version: 6.00 Build 0)  -->
<svg version="1.1" xmlns="http://www.w3.org/2000/svg" xmlns:xlink="http://www.w3.org/1999/xlink" x="0px" y="0px"
	 viewBox="0 0 209.98511 162.84659" style="enable-background:new 0 0 209.98511 162.84659;" xml:space="preserve">
<style type="text/css">
	.st0{clip-path:url(#SVGID_2_);fill:none;stroke:#000000;stroke-width:0.5;stroke-miterlimit:3.864;}
	.st1{clip-path:url(#SVGID_2_);}
	.st2{clip-path:url(#SVGID_4_);fill:none;stroke:#005B7F;stroke-miterlimit:3.864;}
	.st3{clip-path:url(#SVGID_2_);fill:none;stroke:#005B7F;stroke-miterlimit:3.864;}
	.st4{clip-path:url(#SVGID_6_);fill:#005B7F;}
	.st5{opacity:0;fill:none;stroke:#000000;stroke-width:1.000000e-06;stroke-miterlimit:10;}
	.st6{opacity:0;clip-path:url(#SVGID_8_);fill:none;stroke:#000000;stroke-width:9.999999e-07;stroke-miterlimit:10;}
	.st7{clip-path:url(#SVGID_8_);}
	.st8{opacity:0;clip-path:url(#SVGID_10_);fill:none;stroke:#000000;stroke-width:9.999999e-07;stroke-miterlimit:10;}
	.st9{clip-path:url(#SVGID_10_);}
	.st10{opacity:0;clip-path:url(#SVGID_12_);fill:none;stroke:#000000;stroke-width:9.999999e-07;stroke-miterlimit:10;}
	.st11{clip-path:url(#SVGID_12_);}
	.st12{opacity:0;clip-path:url(#SVGID_14_);fill:none;stroke:#000000;stroke-width:9.999999e-07;stroke-miterlimit:10;}
	.st13{clip-path:url(#SVGID_14_);}
	.st14{opacity:0;clip-path:url(#SVGID_16_);fill:none;stroke:#000000;stroke-width:9.999999e-07;stroke-miterlimit:10;}
	.st15{clip-path:url(#SVGID_16_);}
	.st16{opacity:0;clip-path:url(#SVGID_18_);fill:none;stroke:#000000;stroke-width:9.999999e-07;stroke-miterlimit:10;}
	.st17{clip-path:url(#SVGID_18_);}
	.st18{fill:none;stroke:#000000;stroke-width:0.5;stroke-miterlimit:3.864;}
</style>
<g id="Layer_1">
</g>
<g id="Layer_2">
	<g>
		<g>
			<defs>
				<rect id="SVGID_1_" x="9" width="200.98511" height="162.84659"/>
			</defs>
			<clipPath id="SVGID_2_">
				<use xlink:href="#SVGID_1_"  style="overflow:visible;"/>
			</clipPath>
			<line class="st0" x1="45.10927" y1="108.53593" x2="67.47708" y2="90.42317"/>
			<g class="st1">
				<defs>
					<rect id="SVGID_3_" x="9" width="200.98511" height="162.84659"/>
				</defs>
				<clipPath id="SVGID_4_">
					<use xlink:href="#SVGID_3_"  style="overflow:visible;"/>
				</clipPath>
				<line class="st2" x1="126.09177" y1="162.25397" x2="9.73495" y2="17.88496"/>
			</g>
			<line class="st3" x1="67.91374" y1="90.06851" x2="160.06349" y2="15.48148"/>
			<polyline class="st0" points="26.94661,39.20893 160.06274,15.48206 108.87936,140.92924 			"/>
			<line class="st0" x1="159.39166" y1="16.02697" x2="178.72935" y2="0.36597"/>
			<g class="st1">
				<defs>
					<rect id="SVGID_5_" x="9" width="200.98511" height="162.84659"/>
				</defs>
				<clipPath id="SVGID_6_">
					<use xlink:href="#SVGID_5_"  style="overflow:visible;"/>
				</clipPath>
				<path class="st4" d="M25.3924,37.17177c1.11528-0.90355,2.75227-0.73153,3.65582,0.38373
					c0.90357,1.11526,0.73154,2.75231-0.38561,3.6558c-1.11339,0.90361-2.75226,0.73159-3.65583-0.38367
					C24.10512,39.71236,24.27714,38.07532,25.3924,37.17177"/>
				<path class="st4" d="M25.3924,37.17177l0.23818,0.29299c0.41209-0.33268,0.90357-0.49334,1.39692-0.49334
					c0.64837,0,1.28729,0.27978,1.72773,0.82227c0.3327,0.41211,0.49337,0.90545,0.49526,1.39505
					c-0.00189,0.65025-0.28166,1.28913-0.82605,1.72963c-0.4102,0.33268-0.90357,0.49334-1.39503,0.49524
					c-0.64837-0.0019-1.28729-0.28168-1.72773-0.82417c-0.33459-0.41212-0.49526-0.90355-0.49526-1.39695
					c0-0.64835,0.27977-1.28729,0.82227-1.72773L25.3924,37.17177l-0.23817-0.29484
					c-0.72588,0.58783-1.10393,1.44979-1.10393,2.31556c0,0.65786,0.21738,1.32322,0.66349,1.87333
					c0.58789,0.72397,1.44986,1.1039,2.31562,1.1039c0.65782,0,1.32131-0.21927,1.87138-0.66536
					c0.72586-0.58789,1.10393-1.44991,1.10393-2.31562c0-0.65596-0.21738-1.32132-0.66349-1.87143
					c-0.586-0.72582-1.44796-1.1039-2.31373-1.1039c-0.65782,0-1.3232,0.21737-1.87327,0.66536L25.3924,37.17177z"/>
				<path class="st4" d="M107.42155,138.97791c1.11526-0.90356,2.75037-0.73344,3.65393,0.38373
					c0.90358,1.11717,0.73155,2.75226-0.38371,3.65771c-1.1153,0.89977-2.75416,0.72964-3.65584-0.38562
					C106.13235,141.51843,106.30437,139.88145,107.42155,138.97791"/>
				<path class="st4" d="M107.42155,138.97791l0.23819,0.29298c0.41206-0.33267,0.90355-0.49336,1.39502-0.49336
					c0.64837,0,1.28728,0.27979,1.72585,0.82227c0.33458,0.414,0.49524,0.90736,0.49715,1.39693
					c-0.00191,0.64838-0.27979,1.28729-0.82418,1.72772c-0.41021,0.33272-0.90355,0.49338-1.39692,0.49338
					c-0.65028,0-1.28728-0.27975-1.72773-0.82228c-0.33271-0.41208-0.49527-0.90546-0.49527-1.39691
					c0-0.64647,0.28165-1.28729,0.82608-1.72774L107.42155,138.97791l-0.23819-0.293
					c-0.72775,0.58598-1.1058,1.44795-1.1039,2.31372c-0.0019,0.65782,0.21737,1.3232,0.66349,1.87326
					c0.58598,0.72398,1.44794,1.10394,2.31371,1.10394c0.65781,0,1.3213-0.21927,1.87328-0.6635
					c0.72588-0.58977,1.10202-1.44984,1.10202-2.31561c0-0.65593-0.21736-1.32129-0.66348-1.87328
					c-0.58786-0.72588-1.44794-1.10393-2.31371-1.10393c-0.65594,0-1.3213,0.21739-1.8714,0.66539L107.42155,138.97791z"/>
				<path class="st4" d="M158.02748,14.01571c1.11714-0.90355,2.75224-0.73153,3.6577,0.38373
					c0.90166,1.11526,0.72963,2.75231-0.38753,3.6558c-1.11337,0.90361-2.75035,0.73159-3.6539-0.38368
					C156.7383,16.55631,156.91219,14.91926,158.02748,14.01571"/>
				<path class="st4" d="M158.02748,14.01571l0.23816,0.29299c0.41397-0.33268,0.90355-0.49334,1.39693-0.49334
					c0.64835,0,1.28728,0.27978,1.72772,0.82227c0.33269,0.41212,0.49524,0.90355,0.49524,1.39505
					c-0.00189,0.65025-0.27974,1.28913-0.82605,1.72963c-0.41017,0.33268-0.90167,0.49334-1.395,0.49524
					c-0.64841-0.0019-1.28542-0.28168-1.72774-0.82417c-0.33458-0.41212-0.49527-0.90355-0.49527-1.39695
					c0-0.64644,0.28166-1.28729,0.82417-1.72773L158.02748,14.01571l-0.23819-0.29299
					c-0.72588,0.58599-1.10396,1.44795-1.10396,2.31371c0,0.65786,0.21742,1.32323,0.66542,1.87333
					c0.58786,0.72397,1.44795,1.1039,2.31372,1.1039c0.65779,0,1.32129-0.21927,1.87137-0.66536
					c0.72588-0.58789,1.1058-1.44991,1.10393-2.31562c0-0.65596-0.21739-1.32132-0.66159-1.87143
					c-0.5898-0.72582-1.44984-1.1039-2.31561-1.1039c-0.65593,0-1.32323,0.21736-1.87328,0.66536L158.02748,14.01571z"/>
				<path class="st4" d="M66.2274,88.41261c1.11526-0.9035,2.75227-0.73338,3.65583,0.38374
					c0.90356,1.11716,0.73153,2.75231-0.38564,3.65771c-1.11526,0.8998-2.75225,0.72968-3.6558-0.38558
					C64.94012,90.9532,65.11214,89.31622,66.2274,88.41261"/>
				<path class="st4" d="M66.2274,88.41261l0.23817,0.29305c0.41209-0.33274,0.90546-0.4934,1.39693-0.4934
					c0.64836,0,1.28729,0.27979,1.72583,0.82227c0.33458,0.41396,0.49524,0.90546,0.49524,1.39695
					c0,0.64835-0.27975,1.28728-0.82414,1.72773c-0.4102,0.33268-0.90357,0.49334-1.39505,0.49334
					c-0.65025,0-1.28728-0.27972-1.72771-0.82227c-0.33458-0.41206-0.49525-0.90546-0.49525-1.39689
					c0-0.6465,0.27975-1.28735,0.82227-1.72773L66.2274,88.41261l-0.23817-0.29293
					c-0.72586,0.58598-1.10393,1.44794-1.10393,2.31371c0,0.65781,0.21738,1.32317,0.66349,1.87327
					c0.58788,0.72398,1.44986,1.1039,2.3156,1.1039c0.65593,0,1.32133-0.21927,1.8714-0.66346
					c0.72588-0.5898,1.10393-1.44991,1.10393-2.31562c0-0.65596-0.21739-1.32323-0.66348-1.87328
					c-0.58601-0.72588-1.44798-1.10395-2.31372-1.10395c-0.65783,0-1.32132,0.21742-1.87328,0.66542L66.2274,88.41261z"/>
			</g>
		</g>
		<polygon class="st5" points="189.25995,8.46663 189.26004,8.46651 189.26004,8.46653 189.26006,8.46653 189.26003,8.46658 
			189.26003,8.46652 189.26004,8.46653 189.26004,8.46653 189.26004,8.46656 189.26001,8.46657 189.26004,8.46653 
			189.26003,8.46653 189.25999,8.46653 189.25999,8.46653 189.26001,8.46653 189.26004,8.46655 189.26001,8.46657 
			189.26006,8.46656 189.25999,8.46655 189.26003,8.46658 189.25999,8.46657 189.26004,8.46659 189.26001,8.46656 
			189.26004,8.46653 189.26001,8.46653 189.26004,8.46651 189.26001,8.46658 189.26003,8.46658 189.26003,8.46652 
			189.25999,8.46655 189.26004,8.46652 189.26004,8.46656 189.26003,8.46655 189.26001,8.46652 189.26006,8.46658 
			189.26003,8.46652 189.26001,8.46657 189.26006,8.46659 189.26006,8.46655 189.26006,8.46653 189.25999,8.46656 
			189.26006,8.46654 189.26001,8.46651 189.26003,8.46658 189.25999,8.46657 189.26006,8.46651 189.26003,8.46656 
			189.26007,8.46655 189.26001,8.46657 189.25999,8.46655 189.26003,8.46656 189.26003,8.46653 189.26001,8.46658 
			189.26003,8.46651 189.26006,8.46655 189.26006,8.46656 189.26003,8.46655 189.26006,8.46656 189.26001,8.46652 
			189.26003,8.46655 189.26006,8.46652 189.26004,8.46656 189.25999,8.46658 189.26006,8.46658 189.26004,8.46655 
			189.26004,8.46658 189.25999,8.46655 189.26006,8.46652 189.26004,8.46656 189.26003,8.46652 189.26001,8.46657 
			189.26003,8.46652 189.26006,8.46655 189.26001,8.46652 189.26007,8.46652 189.26003,8.46658 189.25999,8.46656 
			189.26004,8.46657 189.26001,8.46655 189.26004,8.46655 189.26004,8.46658 189.25999,8.46654 189.26007,8.46655 
			189.26001,8.46658 189.26001,8.46653 189.26004,8.46654 189.26006,8.46653 189.26006,8.46657 		"/>
		<g>
			<defs>
				<rect id="SVGID_7_" x="184.63794" y="2.96663" width="10" height="11"/>
			</defs>
			<clipPath id="SVGID_8_">
				<use xlink:href="#SVGID_7_"  style="overflow:visible;"/>
			</clipPath>
			<path class="st6" d="M189.63794,8.46663L189.63794,8.46663z"/>
			<path class="st7" d="M192.48013,4.85569c-0.20938,0.19375-0.70312,0.61406-0.70312,0.88281c0,0.15,0.14999,0.3,0.29843,0.3
				c0.13594,0,0.21094-0.10468,0.28595-0.19531c0.17969-0.22344,0.52344-0.64375,1.1828-0.97344
				c0.10469-0.05937,0.2547-0.13437,0.2547-0.31406c0-0.15-0.10469-0.225-0.20938-0.3
				c-0.32968-0.22344-0.49532-0.49376-0.61406-0.85316c-0.03125-0.1343-0.09062-0.3297-0.3-0.3297c-0.20937,0-0.3,0.1954-0.3,0.3141
				c0,0.075,0.12032,0.5547,0.35938,0.86876h-5.04688c-0.25468,0-0.52344,0-0.52344,0.3s0.26875,0.3,0.52344,0.3H192.48013"/>
			<path class="st7" d="M189.88013,12.92757c0.16406,0.61406,0.68907,1.00312,1.33281,1.00312
				c0.52345,0,0.86876-0.34375,1.10782-0.82344c0.25468-0.53907,0.45-1.45312,0.45-1.48281c0-0.15-0.13437-0.15-0.17967-0.15
				c-0.15001,0-0.16563,0.06094-0.20938,0.27031c-0.21095,0.83907-0.49532,1.85782-1.12344,1.85782
				c-0.31563,0-0.46407-0.19531-0.46407-0.68907c0-0.32968,0.17969-1.03437,0.29845-1.55781l0.4203-1.61719
				c0.04375-0.225,0.19376-0.79375,0.2547-1.01875c0.075-0.34531,0.22343-0.91406,0.22343-1.00312
				c0-0.27031-0.20938-0.40469-0.43439-0.40469c-0.075,0-0.46405,0.01406-0.58281,0.52344
				c-0.28593,1.09375-0.94374,3.71406-1.12343,4.50781c-0.01562,0.06094-0.61406,1.25938-1.70781,1.25938
				c-0.77814,0-0.92813-0.675-0.92813-1.22813c0-0.83906,0.41875-2.02187,0.80782-3.05625
				c0.17967-0.44844,0.25468-0.65937,0.25468-0.94375c0-0.67344-0.47969-1.22812-1.22812-1.22812
				c-1.42189,0-1.97658,2.17187-1.97658,2.30625c0,0.15,0.15001,0.15,0.17969,0.15c0.15001,0,0.16406-0.02969,0.23907-0.26875
				c0.375-1.30313,0.94376-1.85782,1.5125-1.85782c0.13593,0,0.375,0.01563,0.375,0.49532
				c0,0.35937-0.16406,0.79375-0.25468,1.01718c-0.55469,1.48282-0.86876,2.4125-0.86876,3.14532
				c0,1.42344,1.03438,1.79687,1.84219,1.79687C189.08638,13.93069,189.62544,13.25726,189.88013,12.92757"/>
		</g>
		<polygon class="st5" points="4.122,45.36361 4.1221,45.36348 4.1221,45.36351 4.12212,45.3635 4.12207,45.36356 4.12211,45.36349 
			4.12208,45.36351 4.12211,45.3635 4.12207,45.36354 4.12207,45.36354 4.12211,45.36351 4.12208,45.3635 4.12205,45.3635 
			4.12205,45.36351 4.12207,45.36351 4.1221,45.36352 4.12208,45.36354 4.12211,45.36354 4.12205,45.36353 4.12209,45.36355 
			4.12205,45.36354 4.1221,45.36356 4.12207,45.36353 4.1221,45.3635 4.12207,45.3635 4.1221,45.36349 4.12207,45.36356 
			4.12209,45.36356 4.12208,45.36349 4.12205,45.36353 4.1221,45.36349 4.1221,45.36353 4.12209,45.36352 4.12207,45.36349 
			4.12211,45.36356 4.12209,45.36349 4.12207,45.36354 4.12211,45.36356 4.12211,45.36353 4.12212,45.3635 4.12205,45.36353 
			4.12211,45.36351 4.12207,45.36348 4.12211,45.36349 4.12205,45.36354 4.12207,45.36356 4.12212,45.36352 4.12211,45.36353 
			4.12208,45.36354 4.12212,45.36351 4.12211,45.36353 4.12212,45.36352 4.12207,45.36349 4.12212,45.36349 4.12209,45.3635 
			4.12211,45.36353 4.1221,45.36351 4.12207,45.36352 4.12207,45.36352 4.12209,45.36349 4.12207,45.36352 4.12206,45.36351 
			4.12206,45.36356 4.12209,45.3635 4.12205,45.3635 4.12207,45.3635 4.12205,45.36349 4.12208,45.36354 4.12205,45.36353 
			4.1221,45.36354 4.12208,45.36354 4.12212,45.36353 4.12209,45.36351 4.12209,45.36351 4.12211,45.36352 4.12212,45.36356 
			4.12205,45.36352 4.12205,45.36354 4.12207,45.36349 4.12205,45.36349 4.12205,45.36349 4.12212,45.36356 4.12211,45.3635 
			4.12208,45.36349 4.12209,45.36355 4.12207,45.36355 4.12211,45.36351 4.12212,45.36354 		"/>
		<g>
			<defs>
				<rect id="SVGID_9_" y="39.86361" width="9" height="11"/>
			</defs>
			<clipPath id="SVGID_10_">
				<use xlink:href="#SVGID_9_"  style="overflow:visible;"/>
			</clipPath>
			<path class="st8" d="M4.5,45.36361L4.5,45.36361z"/>
			<path class="st9" d="M7.44219,41.75266c-0.20938,0.19375-0.70313,0.61406-0.70313,0.88281c0,0.15,0.15,0.3,0.29844,0.3
				c0.13594,0,0.21094-0.10468,0.28594-0.19531c0.17969-0.22344,0.52344-0.64375,1.18281-0.97344
				c0.10469-0.05937,0.25469-0.13437,0.25469-0.31406c0-0.15-0.10469-0.225-0.20938-0.3
				c-0.32968-0.22344-0.49531-0.49376-0.61406-0.85316c-0.03125-0.1343-0.09062-0.3297-0.3-0.3297c-0.20937,0-0.3,0.1954-0.3,0.3141
				c0,0.075,0.12031,0.5547,0.35938,0.86876H2.65c-0.25469,0-0.52344,0-0.52344,0.3s0.26875,0.3,0.52344,0.3H7.44219"/>
			<path class="st9" d="M7.00938,45.09172c0-0.80781-0.38907-1.04843-0.65938-1.04843c-0.37344,0-0.73437,0.39062-0.73437,0.71875
				c0,0.19531,0.075,0.28593,0.24062,0.45c0.31406,0.3,0.50938,0.68906,0.50938,1.22812c0,0.62969-0.91407,4.05938-2.66563,4.05938
				c-0.76406,0-1.10937-0.525-1.10937-1.30313c0-0.83906,0.40468-1.93281,0.86875-3.175
				c0.10468-0.25469,0.17968-0.46562,0.17968-0.75c0-0.67344-0.47968-1.22812-1.22812-1.22812
				c-1.40781,0-1.97656,2.17187-1.97656,2.30625c0,0.15,0.15,0.15,0.17969,0.15c0.15,0,0.16406-0.02969,0.23906-0.26875
				c0.43438-1.5125,1.07813-1.85782,1.5125-1.85782c0.12031,0,0.375,0,0.375,0.47969c0,0.375-0.15,0.77813-0.25469,1.04844
				c-0.65938,1.7375-0.85313,2.42656-0.85313,3.07031c0,1.61719,1.31719,1.85625,2.00625,1.85625
				C6.15625,50.82767,7.00938,45.87141,7.00938,45.09172"/>
		</g>
		<polygon class="st5" points="215.68718,88.77505 215.68727,88.77493 215.68729,88.77495 215.68729,88.77495 215.68729,88.77493 
			215.68724,88.77496 215.68723,88.77493 215.68729,88.77496 215.68727,88.77498 215.68724,88.77498 215.68729,88.77495 
			215.68726,88.77493 215.68723,88.77493 215.68726,88.77496 215.68726,88.77493 215.68723,88.77498 215.68729,88.77497 
			215.68726,88.77497 215.68729,88.775 215.68729,88.775 215.68729,88.77498 215.68723,88.77497 215.68726,88.77493 
			215.68729,88.77494 215.68726,88.77498 215.6873,88.77497 215.68726,88.77493 215.68723,88.77493 215.68723,88.77493 
			215.68726,88.77493 215.68729,88.77497 215.68729,88.77493 215.68724,88.77496 215.68726,88.77494 215.68727,88.77493 
			215.68723,88.77498 215.68729,88.77494 215.68727,88.77499 215.68726,88.77493 215.68723,88.77496 215.68726,88.77499 
			215.68729,88.77496 215.68724,88.77493 215.68726,88.77493 215.68726,88.77495 215.68723,88.77493 215.68729,88.77493 
			215.68729,88.77493 215.68726,88.77494 215.68729,88.77496 215.68723,88.77498 215.68723,88.77499 215.68726,88.77494 
			215.68724,88.77499 215.68726,88.77494 215.68729,88.77498 215.68727,88.77499 215.68726,88.77496 215.68726,88.77493 
			215.68724,88.77496 215.68727,88.77494 215.68726,88.77498 215.68729,88.77498 215.68723,88.77493 215.68726,88.77494 
			215.68729,88.77495 215.68723,88.775 215.68723,88.77493 215.68726,88.77493 215.68723,88.77499 215.68729,88.77494 
			215.68727,88.77498 215.68729,88.77493 215.68729,88.77493 215.68723,88.77497 215.68729,88.77494 215.68726,88.77497 
			215.68724,88.77496 215.68729,88.77493 215.68729,88.77493 215.68726,88.77497 215.68726,88.775 215.68727,88.775 
			215.68723,88.77496 215.68723,88.77494 215.68726,88.77499 215.68726,88.77499 215.68729,88.77495 		"/>
		<g>
			<defs>
				<rect id="SVGID_11_" x="89.49255" y="144.00468" width="20" height="11"/>
			</defs>
			<clipPath id="SVGID_12_">
				<use xlink:href="#SVGID_11_"  style="overflow:visible;"/>
			</clipPath>
			<path class="st10" d="M99.49255,149.50468L99.49255,149.50468z"/>
			<path class="st11" d="M98.86286,151.35938c0.25469,0,0.52345,0,0.52345-0.29845c0-0.3-0.26875-0.3-0.52345-0.3h-8.10312
				c-0.25468,0-0.52344,0-0.52344,0.3c0,0.29845,0.26875,0.29845,0.52344,0.29845H98.86286"/>
			<path class="st11" d="M108.13475,145.89374c-0.2094,0.19376-0.70309,0.61406-0.70309,0.88281c0,0.15001,0.15,0.3,0.2984,0.3
				c0.13589,0,0.2109-0.10468,0.2859-0.19531c0.1797-0.22343,0.5235-0.64375,1.1829-0.97343
				c0.1046-0.05937,0.2546-0.13437,0.2546-0.31406c0-0.15001-0.1046-0.22501-0.2093-0.3
				c-0.3297-0.22345-0.4953-0.49376-0.61411-0.85316c-0.0312-0.13429-0.0906-0.3297-0.3-0.3297c-0.2094,0-0.3,0.1954-0.3,0.3141
				c0,0.075,0.1203,0.5547,0.35941,0.86876h-5.04691c-0.2547,0-0.5234,0-0.5234,0.3c0,0.29999,0.2687,0.29999,0.5234,0.29999
				H108.13475"/>
			<path class="st11" d="M107.60195,149.2328c0-0.80782-0.3891-1.04843-0.6594-1.04843c-0.3734,0-0.7344,0.39062-0.7344,0.71875
				c0,0.19531,0.075,0.28593,0.2407,0.45c0.314,0.3,0.5093,0.68906,0.5093,1.22812c0,0.6297-0.914,4.05939-2.6656,4.05939
				c-0.7641,0-1.10941-0.52501-1.10941-1.30313c0-0.83907,0.4047-1.93282,0.8688-3.175c0.1047-0.25468,0.1797-0.46562,0.1797-0.75
				c0-0.67343-0.4797-1.22812-1.2282-1.22812c-1.4078,0-1.9765,2.17188-1.9765,2.30624c0,0.15001,0.15,0.15001,0.1797,0.15001
				c0.14999,0,0.16399-0.02969,0.239-0.26875c0.4344-1.5125,1.0782-1.85782,1.5125-1.85782c0.1203,0,0.375,0,0.375,0.47969
				c0,0.375-0.15,0.77812-0.2547,1.04843c-0.6593,1.7375-0.8531,2.42657-0.8531,3.07031c0,1.61719,1.3172,1.85626,2.00629,1.85626
				C106.74886,154.96875,107.60195,150.0125,107.60195,149.2328"/>
		</g>
		<polygon class="st5" points="216.40718,88.7602 216.40727,88.76008 216.40727,88.7601 216.40729,88.7601 216.40726,88.76009 
			216.40724,88.76012 216.40729,88.76009 216.40721,88.76013 216.40729,88.76012 216.40724,88.76014 216.40729,88.7601 
			216.40726,88.7601 216.40723,88.76009 216.40723,88.7601 216.40724,88.7601 216.40727,88.76012 216.40726,88.76013 
			216.40729,88.76013 216.40723,88.76012 216.40726,88.76015 216.40723,88.76014 216.40727,88.76016 216.40724,88.76012 
			216.40727,88.7601 216.40724,88.7601 216.40727,88.76009 216.40724,88.76015 216.40727,88.76015 216.40726,88.76009 
			216.40723,88.76012 216.40727,88.76009 216.40727,88.76012 216.40726,88.76012 216.40724,88.76009 216.40729,88.76015 
			216.40726,88.76009 216.40724,88.76014 216.40729,88.76015 216.40729,88.76012 216.40729,88.7601 216.40723,88.76012 
			216.40729,88.76011 216.40724,88.76008 216.40726,88.76015 216.40723,88.76014 216.40729,88.76008 216.40726,88.76012 
			216.4073,88.76012 216.40724,88.76013 216.40723,88.76012 216.40726,88.76013 216.40726,88.76009 216.40724,88.76015 
			216.40726,88.76008 216.40729,88.76012 216.4073,88.76012 216.40726,88.76012 216.40729,88.76012 216.40724,88.76009 
			216.40726,88.76012 216.40729,88.76009 216.40727,88.76013 216.40723,88.76015 216.40729,88.76015 216.40727,88.76012 
			216.40727,88.76015 216.40723,88.76012 216.40729,88.76009 216.40727,88.76013 216.40726,88.76009 216.40724,88.76013 
			216.40727,88.76009 216.40729,88.76012 216.40726,88.76009 216.4073,88.76009 216.40726,88.76015 216.40723,88.76012 
			216.40727,88.76014 216.40724,88.76012 216.40727,88.76012 216.40727,88.76015 216.40723,88.76012 216.4073,88.76012 
			216.40724,88.76015 216.40726,88.7601 216.40724,88.76015 216.40729,88.7601 216.40729,88.76014 		"/>
		<g>
			<defs>
				<rect id="SVGID_13_" x="62.27335" y="96.27505" width="7.38568" height="13.84816"/>
			</defs>
			<clipPath id="SVGID_14_">
				<use xlink:href="#SVGID_13_"  style="overflow:visible;"/>
			</clipPath>
			<path class="st12" d="M65.96619,103.19913L65.96619,103.19913z"/>
			<path class="st13" d="M68.22084,98.66533c-0.1933,0.17883-0.64913,0.56685-0.64913,0.81501
				c0,0.13848,0.13848,0.27696,0.27552,0.27696c0.1255,0,0.19474-0.09666,0.26398-0.1803
				c0.16589-0.20634,0.48325-0.59437,1.09198-0.89875c0.09665-0.05484,0.23513-0.12408,0.23513-0.28989
				c0-0.13848-0.09665-0.20773-0.1933-0.27696c-0.30437-0.20634-0.45728-0.45588-0.56691-0.78768
				c-0.02885-0.12399-0.08366-0.30438-0.27696-0.30438c-0.19329,0-0.27696,0.18039-0.27696,0.28998
				c0,0.06924,0.11108,0.51211,0.33179,0.80209h-4.65934c-0.23513,0-0.48325,0-0.48325,0.27696s0.24812,0.27696,0.48325,0.27696
				H68.22084"/>
			<path class="st13" d="M65.25503,109.84624c-0.53951,0-1.35596-0.3462-1.60408-1.67332
				c-0.15291-0.82945-0.15291-2.10175-0.15291-2.91677c0-0.8857,0-1.79737,0.11108-2.5446
				c0.26254-1.6459,1.29971-1.76996,1.64591-1.76996c0.45583,0,1.36895,0.24955,1.63149,1.6185
				c0.13848,0.77319,0.13848,1.82478,0.13848,2.69606c0,1.03717,0,1.97625-0.15292,2.86195
				C66.66437,109.43079,65.87675,109.84624,65.25503,109.84624 M68.17179,105.42204c0-1.10641-0.06924-2.21282-0.55247-3.23557
				c-0.63615-1.32713-1.76997-1.54926-2.3513-1.54926c-0.82945,0-1.83921,0.35918-2.40612,1.64591
				c-0.44141,0.9535-0.51065,2.0325-0.51065,3.13892c0,1.03717,0.05482,2.28061,0.62172,3.33221
				c0.59431,1.11939,1.60408,1.39635,2.28206,1.39635c0.74578,0,1.79737-0.28995,2.40612-1.60408
				C68.10255,107.59303,68.17179,106.51402,68.17179,105.42204z"/>
		</g>
		<polygon class="st5" points="85.30534,14.97463 85.30544,14.97451 85.30545,14.97453 85.30546,14.97453 85.30546,14.97456 
			85.3054,14.97458 85.30547,14.97455 85.30546,14.97456 85.30544,14.97451 85.30541,14.97457 85.30545,14.97453 85.30543,14.97453 
			85.30543,14.97451 85.30544,14.97453 85.30542,14.97456 85.30541,14.97455 85.30544,14.97451 85.30544,14.97456 85.3054,14.97452 
			85.30545,14.97452 85.30543,14.97458 85.30546,14.97458 85.30543,14.97452 85.30545,14.97452 85.30544,14.97458 
			85.30543,14.97455 85.30541,14.97453 85.30546,14.97456 85.30542,14.97458 85.3054,14.97452 85.30539,14.97452 85.30541,14.97451 
			85.30542,14.97456 85.30541,14.97453 85.30541,14.97452 85.30545,14.97452 85.30541,14.97456 85.30542,14.97458 
			85.30546,14.97456 85.30545,14.97456 85.30547,14.97457 85.30542,14.97458 85.30546,14.97452 85.30542,14.97457 
			85.30541,14.97455 85.30542,14.97451 85.30542,14.97458 85.30544,14.97452 85.3054,14.97456 85.30542,14.97452 85.30539,14.97453 
			85.30541,14.97456 85.30542,14.97451 85.30544,14.97452 85.30542,14.97453 85.30543,14.97456 85.30541,14.97457 
			85.30542,14.97457 85.30542,14.97456 85.30545,14.97455 85.30541,14.97455 85.30539,14.97454 85.30541,14.97456 
			85.30543,14.97455 85.30543,14.97451 85.30544,14.97453 85.30547,14.97458 85.30547,14.97452 85.30544,14.97456 
			85.30547,14.97452 85.3054,14.97455 85.30544,14.97456 85.30546,14.97455 85.30546,14.97456 85.30541,14.97455 85.30544,14.97456 
			85.30539,14.97458 85.30545,14.97458 85.30547,14.97458 85.30544,14.97452 85.3054,14.97453 85.30544,14.97456 85.30545,14.97455 
			85.30543,14.97453 85.30541,14.97452 85.30545,14.97454 85.30545,14.97453 85.30543,14.97453 85.3054,14.97451 85.3054,14.97453 
			85.30545,14.97453 85.30546,14.97457 		"/>
		<g>
			<defs>
				<rect id="SVGID_15_" x="56.42091" y="5.96663" width="47" height="16"/>
			</defs>
			<clipPath id="SVGID_16_">
				<use xlink:href="#SVGID_15_"  style="overflow:visible;"/>
			</clipPath>
			<path class="st14" d="M79.92091,13.96663L79.92091,13.96663z"/>
			<path class="st15" d="M60.41779,6.58853c0-0.2407,0-0.5547-0.3-0.5547s-0.3,0.2703-0.3,0.5094V20.501
				c0,0.24063,0,0.50938,0.3,0.50938s0.3-0.32969,0.3-0.55313V6.58853 M57.49747,6.54323c0-0.2391,0-0.5094-0.3-0.5094
				s-0.3,0.3297-0.3,0.5547v13.86872c0,0.23907,0,0.55313,0.3,0.55313s0.3-0.26875,0.3-0.50938V6.54323z"/>
			<path class="st15" d="M70.26311,8.35573c-0.2094,0.1937-0.7031,0.614-0.7031,0.8828c0,0.15,0.15,0.3,0.2984,0.3
				c0.1359,0,0.2109-0.1047,0.2859-0.1953c0.1797-0.2235,0.5235-0.6438,1.1829-0.9735c0.1046-0.0594,0.2546-0.1344,0.2546-0.314
				c0-0.15-0.1046-0.225-0.2093-0.3c-0.3297-0.2235-0.49529-0.4938-0.6141-0.8532c-0.0312-0.1343-0.0906-0.3297-0.3-0.3297
				c-0.2094,0-0.3,0.1954-0.3,0.3141c0,0.075,0.1203,0.5547,0.3594,0.8688h-5.0469c-0.25469,0-0.52344,0-0.52344,0.3
				c0,0.3,0.26875,0.3,0.52344,0.3H70.26311"/>
			<path class="st15" d="M67.66311,16.42757c0.1641,0.61406,0.6891,1.00312,1.3328,1.00312c0.5234,0,0.8688-0.34375,1.1078-0.82344
				c0.2547-0.53906,0.45-1.45312,0.45-1.48281c0-0.15-0.1344-0.15-0.1797-0.15c-0.15,0-0.1656,0.06094-0.2093,0.27031
				c-0.211,0.83907-0.4954,1.85782-1.1235,1.85782c-0.3156,0-0.464-0.19532-0.464-0.68907c0-0.32968,0.1796-1.03437,0.2984-1.55781
				l0.4203-1.61719c0.0438-0.225,0.1938-0.79375,0.2547-1.01875c0.075-0.34532,0.2234-0.91402,0.2234-1.00312
				c0-0.2703-0.2093-0.4047-0.4343-0.4047c-0.075,0-0.4641,0.0141-0.5829,0.5234c-0.2859,1.0938-0.9437,3.71411-1.1234,4.50786
				c-0.0156,0.06094-0.6141,1.25938-1.70781,1.25938c-0.77813,0-0.92813-0.675-0.92813-1.22813
				c0-0.83906,0.41875-2.02187,0.80782-3.05625c0.17968-0.44844,0.25468-0.65937,0.25468-0.94376
				c0-0.6734-0.47968-1.2281-1.22812-1.2281c-1.42188,0-1.97656,2.17186-1.97656,2.30624c0,0.15,0.15,0.15,0.17968,0.15
				c0.15,0,0.16407-0.02969,0.23907-0.26875c0.375-1.30309,0.94375-1.85779,1.5125-1.85779c0.13593,0,0.375,0.0156,0.375,0.4953
				c0,0.3594-0.16407,0.79374-0.25468,1.01717c-0.5547,1.48282-0.86875,2.4125-0.86875,3.14532
				c0,1.42343,1.03437,1.79687,1.84219,1.79687C66.86931,17.43069,67.40841,16.75725,67.66311,16.42757"/>
			<path class="st15" d="M84.19121,13.82132c0.2547,0,0.5235,0,0.5235-0.29844c0-0.3-0.2688-0.3-0.5235-0.3h-8.1031
				c-0.2547,0-0.52341,0-0.52341,0.3c0,0.29844,0.26871,0.29844,0.52341,0.29844H84.19121"/>
			<path class="st15" d="M96.66311,8.35573c-0.2094,0.1937-0.7031,0.614-0.7031,0.8828c0,0.15,0.15,0.3,0.2984,0.3
				c0.1359,0,0.2109-0.1047,0.2859-0.1953c0.1797-0.2235,0.5235-0.6438,1.1829-0.9735c0.1046-0.0594,0.2546-0.1344,0.2546-0.314
				c0-0.15-0.1046-0.225-0.2093-0.3c-0.3297-0.2235-0.4953-0.4938-0.6141-0.8532c-0.0312-0.1343-0.0906-0.3297-0.3-0.3297
				c-0.2094,0-0.3,0.1954-0.3,0.3141c0,0.075,0.1203,0.5547,0.3594,0.8688h-5.0469c-0.2547,0-0.5234,0-0.5234,0.3
				c0,0.3,0.2687,0.3,0.5234,0.3H96.66311"/>
			<path class="st15" d="M96.23031,11.69473c0-0.8078-0.3891-1.0484-0.6594-1.0484c-0.3734,0-0.7344,0.3906-0.7344,0.7187
				c0,0.1953,0.075,0.286,0.2407,0.45c0.314,0.30004,0.5093,0.6891,0.5093,1.22816c0,0.62969-0.914,4.05938-2.6656,4.05938
				c-0.7641,0-1.1094-0.525-1.1094-1.30313c0-0.83906,0.4047-1.93281,0.8688-3.175c0.1047-0.25469,0.1797-0.46562,0.1797-0.75001
				c0-0.6734-0.4797-1.2281-1.2282-1.2281c-1.40781,0-1.9765,2.17186-1.9765,2.30624c0,0.15,0.15,0.15,0.1797,0.15
				c0.15,0,0.164-0.02969,0.23901-0.26875c0.43439-1.51249,1.07819-1.85779,1.5125-1.85779c0.1203,0,0.375,0,0.375,0.4797
				c0,0.375-0.15,0.77809-0.2547,1.0484c-0.6593,1.7375-0.8531,2.42656-0.8531,3.07031c0,1.61719,1.3172,1.85625,2.0063,1.85625
				C95.37721,17.43069,96.23031,12.47444,96.23031,11.69473"/>
			<path class="st15" d="M102.51781,6.58853c0-0.2407,0-0.5547-0.3-0.5547c-0.3,0-0.3,0.2703-0.3,0.5094V20.501
				c0,0.24063,0,0.50938,0.3,0.50938c0.3,0,0.3-0.32969,0.3-0.55313V6.58853 M99.59751,6.54323c0-0.2391,0-0.5094-0.3-0.5094
				c-0.3,0-0.3,0.3297-0.3,0.5547v13.86872c0,0.23907,0,0.55313,0.3,0.55313c0.3,0,0.3-0.26875,0.3-0.50938V6.54323z"/>
		</g>
		<polygon class="st5" points="215.97517,89.78304 215.97528,89.78293 215.97528,89.78295 215.9753,89.78294 215.97522,89.78294 
			215.9753,89.78299 215.97528,89.78294 215.97525,89.78298 215.9753,89.78294 215.97523,89.78298 215.97528,89.78294 
			215.97525,89.78294 215.9753,89.78297 215.97522,89.78297 215.97523,89.78297 215.97528,89.78297 215.97525,89.78296 
			215.97523,89.78295 215.97527,89.78294 215.97522,89.78296 215.9753,89.78297 215.97528,89.78297 215.97525,89.783 
			215.9753,89.78294 215.97527,89.78297 215.97522,89.78299 215.97528,89.783 215.97528,89.78296 215.97528,89.78294 
			215.97528,89.78294 215.97522,89.78293 215.97525,89.78296 215.97522,89.78297 215.97528,89.783 215.97525,89.78295 
			215.97528,89.78298 215.97525,89.78297 215.97525,89.78299 215.97527,89.78297 215.97525,89.78297 215.97528,89.78294 
			215.97527,89.78297 215.97527,89.78297 215.97523,89.78294 215.9753,89.78294 215.97528,89.78298 215.97525,89.78293 
			215.97523,89.783 215.97527,89.78294 215.97522,89.78297 215.97528,89.78297 215.97528,89.78297 215.9753,89.78297 
			215.97525,89.78294 215.97525,89.78293 215.97527,89.78292 215.97527,89.78296 215.97528,89.78296 215.97525,89.78293 
			215.97528,89.78298 215.97528,89.783 215.97525,89.783 215.97525,89.78293 215.97527,89.78294 215.97527,89.78296 
			215.97525,89.78296 215.97522,89.78297 215.97523,89.78297 215.9753,89.78297 215.97523,89.78297 215.97528,89.78298 
			215.97522,89.78294 215.97525,89.78296 215.97528,89.78294 215.97522,89.78293 215.97525,89.78294 215.97523,89.78292 
			215.97528,89.78294 215.97528,89.78299 215.9753,89.78293 215.97527,89.78297 215.97525,89.78294 215.97525,89.78296 
			215.9753,89.78298 215.97525,89.78293 215.97523,89.78298 215.97527,89.78299 215.97522,89.78296 215.97522,89.78293 
			215.97528,89.78294 215.97525,89.78293 215.97523,89.78297 215.97528,89.78295 215.9753,89.78298 		"/>
		<g>
			<defs>
				<rect id="SVGID_17_" x="137.24321" y="80.77505" width="70" height="16"/>
			</defs>
			<clipPath id="SVGID_18_">
				<use xlink:href="#SVGID_17_"  style="overflow:visible;"/>
			</clipPath>
			<path class="st16" d="M172.24321,88.77505L172.24321,88.77505z"/>
			<path class="st17" d="M141.24008,81.39694c0-0.2407,0-0.5547-0.3-0.5547c-0.29999,0-0.29999,0.2703-0.29999,0.5094v13.95777
				c0,0.24063,0,0.50938,0.29999,0.50938c0.3,0,0.3-0.32969,0.3-0.55313V81.39694 M138.31976,81.35165
				c0-0.2391,0-0.5094-0.29999-0.5094c-0.3,0-0.3,0.3297-0.3,0.5547v13.86872c0,0.23907,0,0.55313,0.3,0.55313
				c0.29999,0,0.29999-0.26875,0.29999-0.50938V81.35165z"/>
			<path class="st17" d="M151.0854,83.16415c-0.2094,0.1937-0.70309,0.614-0.70309,0.8828c0,0.15,0.14999,0.3,0.2984,0.3
				c0.13589,0,0.21089-0.1047,0.28589-0.1953c0.1797-0.2235,0.52351-0.6438,1.18291-0.9735
				c0.1046-0.0594,0.25459-0.1344,0.25459-0.314c0-0.15-0.1046-0.225-0.20929-0.3c-0.3297-0.2235-0.4953-0.4938-0.61411-0.8532
				c-0.0312-0.1343-0.09059-0.3297-0.3-0.3297c-0.2094,0-0.3,0.1954-0.3,0.31409c0,0.075,0.1203,0.5547,0.35941,0.8688h-5.04691
				c-0.25468,0-0.52344,0-0.52344,0.3c0,0.3,0.26875,0.3,0.52344,0.3H151.0854"/>
			<path class="st17" d="M148.48541,91.23598c0.16409,0.61406,0.68909,1.00312,1.33279,1.00312
				c0.52339,0,0.8688-0.34375,1.1078-0.82344c0.2547-0.53906,0.45-1.45312,0.45-1.48281c0-0.15-0.1344-0.15-0.1797-0.15
				c-0.14999,0-0.1656,0.06094-0.2093,0.27032c-0.211,0.83907-0.49539,1.85782-1.12349,1.85782
				c-0.3156,0-0.464-0.19532-0.464-0.68907c0-0.32968,0.1796-1.03437,0.2984-1.55781l0.4203-1.6172
				c0.04379-0.225,0.1938-0.79375,0.2547-1.01875c0.075-0.34532,0.22339-0.91402,0.22339-1.00312
				c0-0.2703-0.20929-0.4047-0.4343-0.4047c-0.075,0-0.4641,0.0141-0.5829,0.5234c-0.2859,1.0938-0.9437,3.71411-1.1234,4.50786
				c-0.01559,0.06094-0.61411,1.25938-1.70781,1.25938c-0.77812,0-0.92813-0.675-0.92813-1.22813
				c0-0.83906,0.41875-2.02187,0.80782-3.05625c0.17969-0.44844,0.25468-0.65937,0.25468-0.94376
				c0-0.6734-0.47968-1.2281-1.22812-1.2281c-1.42188,0-1.97656,2.17186-1.97656,2.30624c0,0.15,0.15001,0.15,0.17969,0.15
				c0.14999,0,0.16406-0.02969,0.23906-0.26875c0.375-1.30309,0.94376-1.85779,1.51251-1.85779c0.13593,0,0.375,0.0156,0.375,0.4953
				c0,0.3594-0.16408,0.79374-0.2547,1.01717c-0.55469,1.48282-0.86874,2.4125-0.86874,3.14532
				c0,1.42343,1.03436,1.79687,1.84219,1.79687C147.6916,92.23911,148.2307,91.56567,148.48541,91.23598"/>
			<path class="st17" d="M165.0135,88.62974c0.2547,0,0.5235,0,0.5235-0.29844c0-0.3-0.2688-0.3-0.5235-0.3h-8.1031
				c-0.2547,0-0.52339,0-0.52339,0.3c0,0.29844,0.26869,0.29844,0.52339,0.29844H165.0135"/>
			<path class="st17" d="M175.00101,95.66879c0-0.04375,0-0.07344-0.2547-0.32812c-1.8718-1.8875-2.3515-4.71875-2.3515-7.00937
				c0-2.60625,0.5687-5.21255,2.4109-7.08435c0.1953-0.1797,0.1953-0.2094,0.1953-0.2547c0-0.10471-0.0609-0.15-0.14999-0.15
				c-0.15001,0-1.49841,1.0187-2.38121,2.9203c-0.7641,1.6484-0.9438,3.31094-0.9438,4.56876
				c0,1.16718,0.16411,2.97968,0.98911,4.67187c0.89841,1.84219,2.1859,2.81563,2.33591,2.81563
				C174.94011,95.81879,175.00101,95.77505,175.00101,95.66879"/>
			<path class="st17" d="M185.7135,88.62974c0.2547,0,0.5235,0,0.5235-0.29844c0-0.3-0.2688-0.3-0.5235-0.3h-8.10309
				c-0.2547,0-0.52341,0-0.52341,0.3c0,0.29844,0.26871,0.29844,0.52341,0.29844H185.7135"/>
			<path class="st17" d="M194.98541,83.16415c-0.20941,0.1937-0.70311,0.614-0.70311,0.8828c0,0.15,0.15001,0.3,0.2984,0.3
				c0.13589,0,0.21091-0.1047,0.2859-0.1953c0.1797-0.2235,0.5235-0.6438,1.18289-0.9735
				c0.1046-0.0594,0.25461-0.1344,0.25461-0.314c0-0.15-0.1046-0.225-0.2093-0.3c-0.3297-0.2235-0.4953-0.4938-0.61409-0.8532
				c-0.0312-0.1343-0.09061-0.3297-0.3-0.3297c-0.20941,0-0.3,0.1954-0.3,0.31409c0,0.075,0.1203,0.5547,0.35941,0.8688h-5.04691
				c-0.2547,0-0.52341,0-0.52341,0.3c0,0.3,0.26871,0.3,0.52341,0.3H194.98541"/>
			<path class="st17" d="M194.45261,86.50314c0-0.8078-0.3891-1.0484-0.65939-1.0484c-0.37341,0-0.73441,0.3906-0.73441,0.7187
				c0,0.1953,0.075,0.286,0.24069,0.45c0.31401,0.30004,0.50931,0.6891,0.50931,1.22816c0,0.62968-0.914,4.05938-2.6656,4.05938
				c-0.7641,0-1.10941-0.525-1.10941-1.30313c0-0.83906,0.40471-1.93281,0.8688-3.175
				c0.10471-0.25469,0.1797-0.46562,0.1797-0.75001c0-0.6734-0.47971-1.2281-1.2282-1.2281
				c-1.40781,0-1.9765,2.17186-1.9765,2.30624c0,0.15,0.14999,0.15,0.1797,0.15c0.14999,0,0.16399-0.02969,0.239-0.26875
				c0.4344-1.51249,1.0782-1.85779,1.5125-1.85779c0.1203,0,0.375,0,0.375,0.4797c0,0.375-0.15001,0.77809-0.2547,1.0484
				c-0.6593,1.7375-0.8531,2.42656-0.8531,3.07031c0,1.61719,1.3172,1.85625,2.0063,1.85625
				C193.5995,92.23911,194.45261,87.28285,194.45261,86.50314"/>
			<path class="st17" d="M199.5713,88.3313c0-1.16875-0.164-2.98125-0.9875-4.67345c-0.89999-1.8422-2.1875-2.8156-2.33749-2.8156
				c-0.089,0-0.15001,0.0594-0.15001,0.15c0,0.0453,0,0.075,0.28441,0.3437c1.4688,1.4828,2.3219,3.8641,2.3219,6.99535
				c0,2.56094-0.5531,5.19687-2.411,7.08437c-0.19531,0.17969-0.19531,0.20938-0.19531,0.25313c0,0.09062,0.061,0.15,0.15001,0.15
				c0.14999,0,1.4985-1.01719,2.3813-2.92031C199.3916,91.2516,199.5713,89.5891,199.5713,88.3313"/>
			<path class="st17" d="M206.5401,81.39694c0-0.2407,0-0.5547-0.3-0.5547c-0.29999,0-0.29999,0.2703-0.29999,0.5094v13.95777
				c0,0.24063,0,0.50938,0.29999,0.50938c0.3,0,0.3-0.32969,0.3-0.55313V81.39694 M203.6198,81.35165
				c0-0.2391,0-0.5094-0.29999-0.5094c-0.3,0-0.3,0.3297-0.3,0.5547v13.86872c0,0.23907,0,0.55313,0.3,0.55313
				c0.29999,0,0.29999-0.26875,0.29999-0.50938V81.35165z"/>
		</g>
		<polyline class="st18" points="62.27335,83.07166 68.31947,78.4374 73.97046,85.16614 		"/>
	</g>
	<g>
	</g>
	<g>
	</g>
	<g>
	</g>
	<g>
	</g>
	<g>
	</g>
	<g>
	</g>
</g>
</svg>
