<?xml version="1.0" encoding="utf-8"?>
<!-- Generator: Adobe Illustrator 25.2.0, SVG Export Plug-In . SVG Version: 6.00 Build 0)  -->
<svg version="1.1" id="Layer_1" xmlns="http://www.w3.org/2000/svg" xmlns:xlink="http://www.w3.org/1999/xlink" x="0px" y="0px"
	 viewBox="0 0 128.55688 82.77344" style="enable-background:new 0 0 128.55688 82.77344;" xml:space="preserve">
<style type="text/css">
	.st0{fill:none;stroke:#000000;stroke-width:0.5;}
	.st1{clip-path:url(#SVGID_2_);fill:none;stroke:#000000;stroke-width:0.5;}
	.st2{opacity:0;fill:none;stroke:#000000;stroke-width:1.000000e-06;stroke-miterlimit:10;}
	.st3{opacity:0;clip-path:url(#SVGID_4_);fill:none;stroke:#000000;stroke-width:9.999999e-07;stroke-miterlimit:10;}
	.st4{clip-path:url(#SVGID_4_);}
	.st5{opacity:0;clip-path:url(#SVGID_6_);fill:none;stroke:#000000;stroke-width:9.999999e-07;stroke-miterlimit:10;}
	.st6{clip-path:url(#SVGID_6_);}
	.st7{opacity:0;clip-path:url(#SVGID_8_);fill:none;stroke:#000000;stroke-width:9.999999e-07;stroke-miterlimit:10;}
	.st8{clip-path:url(#SVGID_8_);}
</style>
<g>
	<g>
		<path d="M118.51562,78.18359v-0.28125h0.21484c0.3252,0,0.52539-0.02734,0.60059-0.08105
			c0.07422-0.05469,0.11133-0.16895,0.11133-0.34473v-4.73828c0-0.17285-0.03809-0.28613-0.11426-0.33984
			c-0.07617-0.05469-0.27539-0.08203-0.59766-0.08203h-0.21484v-0.28125h2.8252c0.65332,0,1.20801,0.16113,1.66406,0.48145
			c0.45508,0.32129,0.68262,0.70117,0.68262,1.14062c0,0.33691-0.14746,0.6377-0.44336,0.90137s-0.67285,0.45215-1.12988,0.56641
			c0.59473,0.20508,0.96094,0.55273,1.09863,1.04102l0.11426,0.7207c0.02344,0.17383,0.04297,0.30371,0.05957,0.3916
			c0.01562,0.08789,0.03711,0.19238,0.06348,0.31152c0.02637,0.12109,0.05371,0.20898,0.08203,0.2666
			c0.02734,0.05664,0.06152,0.11523,0.10254,0.17578c0.04102,0.05957,0.08887,0.10059,0.14355,0.12012
			c0.05371,0.02148,0.11719,0.03125,0.19043,0.03125c0.1377,0,0.26562-0.06152,0.38281-0.18457s0.1875-0.32812,0.21094-0.61523
			c0.01172-0.09668,0.04785-0.14551,0.10938-0.14551c0.07617,0,0.11426,0.04883,0.11426,0.14551
			c0,0.08496-0.01172,0.17676-0.03516,0.27441c-0.02344,0.09863-0.06348,0.20508-0.12012,0.31836
			c-0.05762,0.11523-0.14746,0.21094-0.27051,0.28809c-0.12305,0.07812-0.26562,0.11621-0.42676,0.11621
			c-0.46875,0-0.84668-0.12598-1.13379-0.37695c-0.12012-0.1084-0.20703-0.2334-0.26074-0.37402
			c-0.05469-0.14062-0.08594-0.2666-0.09473-0.37793s-0.01367-0.29004-0.01367-0.53613c0-0.34863-0.01855-0.59863-0.05469-0.75098
			c-0.03711-0.15234-0.13281-0.30371-0.28809-0.45312c-0.21094-0.20508-0.49023-0.30762-0.83887-0.30762h-1.0332v2.27246
			c0,0.17285,0.03809,0.28711,0.1123,0.34277c0.0752,0.05566,0.27441,0.08301,0.59961,0.08301h0.21582v0.28125
			c-0.2168-0.01758-0.65527-0.02637-1.31445-0.02637S118.73242,78.16602,118.51562,78.18359z M120.21582,75.00586h0.99805
			c0.31934,0,0.58691-0.03809,0.80176-0.11621c0.21582-0.07715,0.37402-0.18652,0.47656-0.32715s0.17285-0.28223,0.21094-0.42383
			c0.03809-0.14258,0.05762-0.30273,0.05762-0.48145c0-0.21094-0.02344-0.39551-0.07031-0.55371s-0.12207-0.28418-0.22461-0.37793
			s-0.20508-0.1709-0.30762-0.23047c-0.10254-0.06055-0.23242-0.10156-0.39062-0.12598
			c-0.1582-0.02246-0.29199-0.03711-0.40039-0.04297s-0.24902-0.00977-0.42188-0.00977c-0.29297,0-0.46973,0.00684-0.53125,0.01758
			c-0.06738,0.00684-0.11426,0.02539-0.14062,0.05762s-0.04297,0.06641-0.04883,0.10352
			c-0.00586,0.03613-0.00879,0.09766-0.00879,0.18262V75.00586z"/>
		<path d="M125.07227,76.20215c0-0.56543,0.18164-1.04883,0.54492-1.4502s0.80566-0.60254,1.32715-0.60254
			c0.52734,0,0.92773,0.1709,1.20117,0.51172c0.27441,0.34082,0.41113,0.75684,0.41113,1.24609
			c0,0.09473-0.01172,0.15137-0.03516,0.16992s-0.08594,0.02832-0.18848,0.02832h-2.51367
			c0,0.61328,0.09082,1.06348,0.27246,1.35156c0.25195,0.40234,0.58984,0.60352,1.01465,0.60352
			c0.05957,0,0.12402-0.00586,0.19531-0.01758c0.07031-0.01172,0.17773-0.04297,0.32324-0.09473
			c0.14453-0.05176,0.28027-0.14648,0.40625-0.28418c0.12695-0.1377,0.22754-0.31543,0.30176-0.5332
			c0.0166-0.08496,0.05371-0.12598,0.10938-0.12305c0.07617,0,0.11426,0.03516,0.11426,0.10547
			c0,0.05273-0.02832,0.13867-0.08594,0.25684c-0.05664,0.11816-0.13965,0.24805-0.24805,0.38867
			c-0.1084,0.13965-0.26758,0.2627-0.47656,0.36816c-0.20996,0.10547-0.44043,0.1582-0.69238,0.1582
			c-0.52734,0-0.98926-0.2002-1.38672-0.60059C125.27051,77.28516,125.07227,76.79102,125.07227,76.20215z M125.82812,75.90723
			h2.13574c0-0.12598-0.01172-0.25879-0.0332-0.39844c-0.02246-0.14062-0.06445-0.30762-0.12793-0.50195
			c-0.0625-0.19434-0.16699-0.35254-0.31348-0.47559s-0.32812-0.18359-0.54492-0.18359c-0.09668,0-0.19727,0.01953-0.30176,0.06055
			c-0.10352,0.04102-0.21875,0.11133-0.34473,0.21094c-0.12598,0.09863-0.23242,0.26074-0.32031,0.48633
			C125.88965,75.33008,125.83984,75.59766,125.82812,75.90723z"/>
	</g>
	<g>
		<path d="M4.42383,75.45801c0-0.67773,0.17871-1.3457,0.53613-2.00391c0.35742-0.65918,0.8252-1.19434,1.40381-1.60645
			s1.16846-0.61816,1.76904-0.61816c0.58643,0,1.07373,0.21191,1.46143,0.63574c0.38818,0.42383,0.58203,0.99707,0.58203,1.71875
			c0,0.70215-0.18115,1.37988-0.54346,2.0332c-0.36279,0.65234-0.82812,1.1748-1.39648,1.56738s-1.14941,0.58789-1.74268,0.58789
			c-0.6123,0-1.11035-0.21484-1.49414-0.64648C4.61572,76.69531,4.42383,76.13965,4.42383,75.45801z M5.23242,75.73535
			c0,0.54004,0.11865,0.97754,0.35596,1.31152c0.2373,0.33496,0.55957,0.50195,0.9668,0.50195
			c0.34863,0,0.70898-0.13379,1.08105-0.40039s0.69873-0.64453,0.97998-1.13086c0.23438-0.40234,0.42676-0.87109,0.57764-1.40625
			s0.22656-1.00391,0.22656-1.40625c0-0.57227-0.13037-1.00684-0.39111-1.30469S8.44922,71.4541,8.07129,71.4541
			c-0.38379,0-0.76562,0.14062-1.14502,0.42383s-0.69189,0.64355-0.93799,1.08105c-0.27539,0.48145-0.47021,0.98438-0.58447,1.50879
			C5.28955,74.99316,5.23242,75.41602,5.23242,75.73535z"/>
	</g>
	<g>
		<path d="M0.25049,7.57324V7.29199h0.2373c0.33691,0,0.54395-0.02734,0.62158-0.08105
			c0.07764-0.05469,0.1167-0.16895,0.1167-0.34473V2.12793c0-0.17285-0.03955-0.28613-0.11865-0.33984
			C1.02832,1.7334,0.82178,1.70605,0.48779,1.70605h-0.2373V1.4248c0.21094,0.01758,0.6709,0.02734,1.37988,0.02734
			c0.70312,0,1.15869-0.00977,1.3667-0.02734v0.28125H2.76416c-0.33691,0-0.54443,0.02734-0.62158,0.08203
			c-0.07812,0.05371-0.1167,0.16699-0.1167,0.33984v4.73828c0,0.17285,0.03857,0.28711,0.1167,0.34277
			c0.07715,0.05566,0.28467,0.08301,0.62158,0.08301h0.23291v0.28125C2.78613,7.55566,2.32764,7.54688,1.62158,7.54688
			C0.91846,7.54688,0.46143,7.55566,0.25049,7.57324z"/>
		<path d="M3.5332,7.57324V7.29199c0.32129,0,0.51904-0.01953,0.59277-0.05957c0.07324-0.03906,0.11035-0.15527,0.11035-0.34863
			V4.47461c0-0.22266-0.03906-0.36133-0.11719-0.41699S3.8457,3.97363,3.5332,3.97363V3.69238l1.26611-0.0957L4.79883,4.54004
			C5.08057,3.91113,5.52539,3.59668,6.1333,3.59668c0.7041,0,1.10449,0.29199,1.20117,0.87793
			c0.10254-0.22852,0.26172-0.43164,0.47656-0.61035c0.21582-0.17871,0.4917-0.26758,0.82861-0.26758
			c0.45117,0,0.76611,0.11035,0.94482,0.33301C9.71631,4.0791,9.79541,4.2373,9.82178,4.4043s0.03955,0.4668,0.03955,0.89941
			v1.71582C9.86719,7.14551,9.91846,7.22266,10.01514,7.25c0.09668,0.02832,0.27979,0.04199,0.54932,0.04199v0.28125
			C9.95215,7.55566,9.6167,7.54688,9.55811,7.54688c-0.04688,0-0.38672,0.00879-1.01953,0.02637V7.29199
			c0.31934,0,0.5166-0.01953,0.59082-0.05957c0.0752-0.03906,0.1123-0.15527,0.1123-0.34863V4.79004
			c0-0.30371-0.04688-0.5459-0.14062-0.72656C9.00732,3.88379,8.83154,3.79395,8.57373,3.79395
			c-0.31055,0-0.59033,0.12988-0.83936,0.39062S7.36084,4.79492,7.36084,5.2334v1.65039c0,0.19336,0.03711,0.30957,0.1123,0.34863
			c0.07422,0.04004,0.27148,0.05957,0.59082,0.05957v0.28125c-0.6123-0.01758-0.94922-0.02637-1.01074-0.02637
			c-0.04688,0-0.38525,0.00879-1.01514,0.02637V7.29199c0.31934,0,0.51611-0.01953,0.59131-0.05957
			c0.07422-0.03906,0.11182-0.15527,0.11182-0.34863V4.79004c0-0.30371-0.04688-0.5459-0.14111-0.72656
			C6.50635,3.88379,6.33008,3.79395,6.07178,3.79395c-0.31152,0-0.5918,0.12988-0.84131,0.39062S4.85596,4.79492,4.85596,5.2334
			v1.65039c0,0.19336,0.0376,0.30957,0.11279,0.34863c0.0752,0.04004,0.27197,0.05957,0.59033,0.05957v0.28125
			C4.94531,7.55566,4.60938,7.54688,4.55029,7.54688C4.50342,7.54688,4.16455,7.55566,3.5332,7.57324z"/>
	</g>
	<polyline class="st0" points="120.58682,69.57536 12.58682,69.57536 12.58682,3.57536 	"/>
	<path d="M14.33682,57.57536c0,0.96701-0.784,1.75-1.75,1.75c-0.966,0-1.75-0.78299-1.75-1.75c0-0.967,0.784-1.75,1.75-1.75
		C13.55282,55.82536,14.33682,56.60837,14.33682,57.57536"/>
	<path d="M50.33682,69.57536c0,0.967-0.78401,1.75-1.75,1.75c-0.966,0-1.75-0.783-1.75-1.75c0-0.967,0.784-1.75,1.75-1.75
		C49.55281,67.82536,50.33682,68.60837,50.33682,69.57536"/>
	<path d="M50.33682,21.57536c0,0.96701-0.78401,1.75-1.75,1.75c-0.966,0-1.75-0.78299-1.75-1.75c0-0.967,0.784-1.75,1.75-1.75
		C49.55281,19.82536,50.33682,20.60837,50.33682,21.57536"/>
	<g>
		<defs>
			<rect id="SVGID_1_" x="2.58681" y="0.10536" width="118.027" height="81.432"/>
		</defs>
		<clipPath id="SVGID_2_">
			<use xlink:href="#SVGID_1_"  style="overflow:visible;"/>
		</clipPath>
		<polyline class="st1" points="2.58682,69.57536 12.58682,69.57536 12.58682,79.57536 		"/>
	</g>
	<polygon class="st2" points="81.76226,52.75796 81.76236,52.75784 81.76237,52.75787 81.76237,52.75786 81.76237,52.75791 
		81.76237,52.75787 81.76236,52.75786 81.76233,52.75785 81.76234,52.75785 81.76233,52.7579 81.76237,52.75786 81.76234,52.75786 
		81.76231,52.75785 81.76231,52.75787 81.76234,52.75788 81.76237,52.75785 81.76237,52.75787 81.76231,52.75785 81.76238,52.75787 
		81.76234,52.75788 81.76231,52.75791 81.76233,52.7579 81.76231,52.75789 81.76234,52.75788 81.76235,52.75789 81.76234,52.75786 
		81.76237,52.75791 81.76237,52.75791 81.76235,52.75791 81.76234,52.75785 81.76236,52.75784 81.76231,52.75789 81.76237,52.75785 
		81.76237,52.75785 81.76237,52.75788 81.76231,52.75785 81.76237,52.75789 81.76234,52.75791 81.76231,52.75789 81.76238,52.75787 
		81.76237,52.75789 81.76238,52.75784 81.76237,52.75788 81.76235,52.75791 81.76233,52.75784 81.76236,52.75789 81.76237,52.7579 
		81.76231,52.75788 81.76234,52.75788 81.76235,52.75791 81.76231,52.75785 81.76234,52.75791 81.76231,52.75789 81.76233,52.75786 
		81.76237,52.75785 81.76237,52.75792 81.76234,52.75788 81.76233,52.75792 81.76235,52.75788 81.76237,52.75787 81.76237,52.75792 
		81.76234,52.75785 81.76237,52.7579 81.76236,52.75786 81.76231,52.75786 81.76234,52.75787 81.76231,52.75789 81.76238,52.75784 
		81.76231,52.75789 81.76234,52.75786 81.76234,52.75788 81.76237,52.7579 81.76234,52.75787 81.76233,52.75787 81.76235,52.75788 
		81.76237,52.75791 81.76237,52.75788 81.76231,52.75786 81.76233,52.75789 81.76233,52.75785 81.76237,52.75788 81.76237,52.75788 
		81.76238,52.7579 81.76231,52.75792 81.76234,52.75785 81.76231,52.75785 81.76233,52.75787 81.76232,52.75792 81.76238,52.75786 	
		"/>
	<g>
		<defs>
			<rect id="SVGID_3_" x="52.07764" y="16.57536" width="37" height="10"/>
		</defs>
		<clipPath id="SVGID_4_">
			<use xlink:href="#SVGID_3_"  style="overflow:visible;"/>
		</clipPath>
		<path class="st3" d="M70.07764,21.57536L70.07764,21.57536z"/>
		<path class="st4" d="M52.97764,22.82692c0.48594-0.52344,0.74688-0.74844,1.07188-1.02812
			c0-0.00938,0.55937-0.48594,0.88437-0.81094c0.85625-0.83906,1.05469-1.27188,1.05469-1.30781
			c0-0.09063-0.08125-0.09063-0.1-0.09063c-0.0625,0-0.08906,0.01875-0.13438,0.1c-0.27031,0.43281-0.45937,0.57656-0.67656,0.57656
			c-0.21562,0-0.325-0.13437-0.45937-0.28906c-0.17188-0.20625-0.325-0.3875-0.62188-0.3875
			c-0.67656,0-1.09219,0.83906-1.09219,1.02813c0,0.04531,0.02813,0.1,0.10938,0.1s0.09844-0.04532,0.11719-0.1
			c0.17031-0.41407,0.69375-0.42344,0.76562-0.42344c0.18906,0,0.36094,0.0625,0.56875,0.13594
			c0.36094,0.13437,0.45938,0.13437,0.69375,0.13437c-0.325,0.3875-1.08125,1.0375-1.25312,1.18125l-0.81094,0.75781
			c-0.61406,0.60313-0.92969,1.11719-0.92969,1.18125c0,0.08907,0.09063,0.08907,0.10781,0.08907
			c0.07344,0,0.09063-0.01719,0.14532-0.11719c0.20625-0.31563,0.47812-0.55781,0.76562-0.55781
			c0.20781,0,0.29844,0.08125,0.52344,0.34218c0.15312,0.18907,0.31562,0.33282,0.57656,0.33282
			c0.89375,0,1.41563-1.14375,1.41563-1.3875c0-0.04532-0.03594-0.09063-0.10782-0.09063
			c-0.08125,0-0.09843,0.05469-0.12656,0.11719c-0.20781,0.58594-0.78437,0.75781-1.08125,0.75781
			c-0.18125,0-0.34375-0.05469-0.53281-0.11719c-0.30625-0.11718-0.44063-0.15312-0.63125-0.15312
			C53.20264,22.80036,53.05733,22.80036,52.97764,22.82692"/>
		<path class="st4" d="M64.98074,22.37536c0.1266,0,0.2985,0,0.2985-0.17969s-0.1719-0.17969-0.3078-0.17969h-5.38286
			c-0.13438,0-0.30625,0-0.30625,0.17969s0.17187,0.17969,0.29844,0.17969H64.98074 M64.97144,20.62692
			c0.1359,0,0.3078,0,0.3078-0.17969c0-0.18125-0.1719-0.18125-0.2985-0.18125h-5.39997c-0.12657,0-0.29844,0-0.29844,0.18125
			c0,0.17969,0.17187,0.17969,0.30625,0.17969H64.97144z"/>
		<path class="st4" d="M71.26204,25.73943c0-0.02656,0-0.04531-0.1531-0.19844c-1.1266-1.13593-1.4157-2.84062-1.4157-4.22031
			c0-1.56875,0.3422-3.1375,1.4516-4.26406c0.1172-0.10781,0.1172-0.12656,0.1172-0.15313c0-0.06406-0.036-0.09062-0.0906-0.09062
			c-0.0891,0-0.9016,0.6125-1.4329,1.75781c-0.4593,0.99219-0.5687,1.99375-0.5687,2.75c0,0.70313,0.1,1.79531,0.5953,2.81406
			c0.5406,1.10938,1.3172,1.69532,1.4063,1.69532C71.22604,25.83005,71.26204,25.80193,71.26204,25.73943"/>
		<path class="st4" d="M74.78854,20.85192c0.0547-0.23437,0.2625-1.06406,0.8938-1.06406c0.0453,0,0.2609,0,0.45,0.11719
			c-0.2516,0.04531-0.4328,0.27031-0.4328,0.4875c0,0.14375,0.1,0.31562,0.3437,0.31562c0.1985,0,0.486-0.1625,0.486-0.52344
			c0-0.46875-0.5313-0.59531-0.8391-0.59531c-0.5219,0-0.8375,0.47813-0.9453,0.68594
			c-0.2266-0.59531-0.71249-0.68594-0.975-0.68594c-0.9375,0-1.4516,1.16406-1.4516,1.38906
			c0,0.09063,0.0907,0.09063,0.1078,0.09063c0.07349,0,0.1-0.01875,0.1188-0.1c0.3062-0.95469,0.9016-1.18125,1.2078-1.18125
			c0.1703,0,0.4859,0.08125,0.4859,0.60469c0,0.27968-0.15311,0.88281-0.4859,2.14531
			c-0.1453,0.55937-0.4609,0.93906-0.8562,0.93906c-0.0547,0-0.2625,0-0.4516-0.11719c0.225-0.04531,0.4234-0.23593,0.4234-0.4875
			c0-0.24375-0.1984-0.31562-0.3328-0.31562c-0.2703,0-0.4969,0.23437-0.4969,0.52344c0,0.41406,0.4516,0.59375,0.8485,0.59375
			c0.5953,0,0.9187-0.62969,0.9469-0.68438c0.1078,0.33281,0.4328,0.68438,0.9734,0.68438c0.9281,0,1.4422-1.1625,1.4422-1.3875
			c0-0.09063-0.0813-0.09063-0.1078-0.09063c-0.0813,0-0.0985,0.03594-0.1172,0.1c-0.2969,0.96406-0.911,1.18125-1.1985,1.18125
			c-0.3531,0-0.4968-0.28906-0.4968-0.59531c0-0.19844,0.0547-0.39688,0.1531-0.79375L74.78854,20.85192"/>
		<path class="st4" d="M78.70734,23.56598c0-0.59531-0.225-0.94687-0.5766-0.94687c-0.2968,0-0.4781,0.22656-0.4781,0.47812
			c0,0.24375,0.1813,0.47813,0.4781,0.47813c0.1078,0,0.225-0.03594,0.3157-0.11719c0.0265-0.01875,0.0359-0.02656,0.0453-0.02656
			c0.0093,0,0.0187,0.00781,0.0187,0.13437c0,0.66719-0.3156,1.20938-0.614,1.50625c-0.0985,0.09844-0.0985,0.11719-0.0985,0.14375
			c0,0.06407,0.0438,0.1,0.0891,0.1C77.98704,25.31598,78.70734,24.62067,78.70734,23.56598"/>
		<path class="st4" d="M85.26044,20.13942c0.036-0.125,0.036-0.14375,0.036-0.20625c0-0.1625-0.12659-0.24375-0.2625-0.24375
			c-0.0891,0-0.2344,0.05313-0.3157,0.18906c-0.0172,0.04532-0.089,0.325-0.125,0.4875
			c-0.064,0.23438-0.1265,0.47657-0.18121,0.72032l-0.4063,1.62343c-0.0359,0.13594-0.4234,0.76719-1.0187,0.76719
			c-0.4594,0-0.5578-0.39687-0.5578-0.73125c0-0.41406,0.1531-0.97344,0.4593-1.76719
			c0.14381-0.37031,0.1797-0.46875,0.1797-0.64843c0-0.40625-0.2875-0.74063-0.739-0.74063c-0.8563,0-1.1907,1.30781-1.1907,1.38906
			c0,0.09063,0.09071,0.09063,0.10941,0.09063c0.0891,0,0.0985-0.01875,0.1438-0.1625c0.2437-0.84844,0.6047-1.11875,0.9109-1.11875
			c0.0719,0,0.225,0,0.225,0.28906c0,0.225-0.0906,0.45938-0.1531,0.63125c-0.361,0.95625-0.5235,1.47031-0.5235,1.89375
			c0,0.80156,0.5688,1.07188,1.1,1.07188c0.3516,0,0.6594-0.15313,0.911-0.40469c-0.1172,0.46875-0.225,0.91094-0.586,1.3875
			c-0.2343,0.30781-0.5765,0.56875-0.9921,0.56875c-0.12659,0-0.5313-0.02656-0.68439-0.37813c0.1437,0,0.26089,0,0.3875-0.10937
			c0.0906-0.08125,0.1797-0.19844,0.1797-0.36875c0-0.27969-0.2438-0.31563-0.3328-0.31563c-0.2079,0-0.5047,0.14375-0.5047,0.58594
			c0,0.45,0.3953,0.78438,0.9547,0.78438c0.9296,0,1.8578-0.82032,2.1109-1.83907L85.26044,20.13942"/>
		<path class="st4" d="M88.18394,21.32067c0-0.70312-0.1-1.79375-0.5954-2.8125c-0.5406-1.10937-1.3171-1.69531-1.4062-1.69531
			c-0.0547,0-0.0906,0.03594-0.0906,0.09062c0,0.02657,0,0.04532,0.1718,0.20625c0.8829,0.89375,1.3969,2.32657,1.3969,4.21094
			c0,1.54219-0.3328,3.12969-1.4515,4.26563c-0.1172,0.10781-0.1172,0.12656-0.1172,0.15313
			c0,0.05469,0.0359,0.09062,0.0906,0.09062c0.0891,0,0.9016-0.61407,1.4328-1.75938
			C88.07454,23.08005,88.18394,22.07848,88.18394,21.32067"/>
	</g>
	<polygon class="st2" points="81.51426,52.75796 81.51436,52.75784 81.51437,52.75787 81.51437,52.75786 81.51435,52.75791 
		81.51433,52.75788 81.51434,52.75788 81.51438,52.75786 81.51437,52.75786 81.51433,52.7579 81.51437,52.75786 81.51434,52.75786 
		81.51431,52.75785 81.51431,52.75787 81.51434,52.75788 81.51437,52.75785 81.51438,52.75787 81.51431,52.75785 81.51437,52.75785 
		81.51437,52.75786 81.51434,52.75786 81.51438,52.75787 81.51434,52.75791 81.51437,52.75789 81.51431,52.75788 81.51437,52.7579 
		81.51437,52.75784 81.51431,52.75791 81.51438,52.75786 81.51431,52.75787 81.51437,52.75791 81.51433,52.75788 81.51434,52.75786 
		81.51434,52.75787 81.51438,52.75789 81.51435,52.7579 81.51434,52.75788 81.51431,52.75785 81.51434,52.75789 81.51434,52.75787 
		81.51434,52.75787 81.51434,52.75786 81.51434,52.75787 81.51437,52.75789 81.51437,52.75786 81.51437,52.75787 81.51434,52.75785 
		81.51437,52.75788 81.51433,52.75789 81.51437,52.75785 81.51435,52.75788 81.51433,52.75785 81.51434,52.75784 81.51431,52.7579 
		81.51434,52.7579 81.51437,52.75785 81.51436,52.75785 81.51431,52.75785 81.51435,52.75792 81.51434,52.75788 81.51437,52.75788 
		81.51433,52.75785 81.51437,52.75789 81.51437,52.75788 81.51434,52.75791 81.51438,52.75784 81.51434,52.75787 81.51437,52.75789 
		81.51433,52.75788 81.51433,52.75786 81.51434,52.75786 81.51437,52.75789 81.51437,52.75785 81.51433,52.75785 81.51431,52.75784 
		81.51438,52.75787 81.51435,52.75786 81.51437,52.75785 81.51433,52.75786 81.51433,52.75784 81.51434,52.75786 81.51438,52.75789 
		81.51438,52.75791 81.51437,52.75785 81.51435,52.75789 81.51431,52.75788 81.51436,52.75786 81.51437,52.75786 	"/>
	<g>
		<defs>
			<rect id="SVGID_5_" x="15.33682" y="52.57536" width="35" height="10"/>
		</defs>
		<clipPath id="SVGID_6_">
			<use xlink:href="#SVGID_5_"  style="overflow:visible;"/>
		</clipPath>
		<path class="st5" d="M32.83682,57.57536L32.83682,57.57536z"/>
		<path class="st6" d="M17.81182,57.33005c0.10938-0.26094,0.10938-0.27969,0.19844-0.52344
			c0.07187-0.17969,0.11719-0.30625,0.11719-0.47656c0-0.40625-0.2875-0.74063-0.73907-0.74063
			c-0.84687,0-1.19062,1.30781-1.19062,1.38906c0,0.09063,0.09062,0.09063,0.10938,0.09063
			c0.08907,0,0.09844-0.01875,0.14375-0.1625c0.24375-0.84844,0.60469-1.11875,0.91094-1.11875c0.07188,0,0.225,0,0.225,0.28906
			c0,0.18906-0.0625,0.37813-0.09844,0.46875c-0.07343,0.23438-0.47812,1.27969-0.62343,1.66875
			c-0.08907,0.23438-0.20625,0.53125-0.20625,0.72031c0,0.425,0.30625,0.73907,0.73906,0.73907
			c0.84687,0,1.18125-1.30625,1.18125-1.3875c0-0.09063-0.08125-0.09063-0.10781-0.09063c-0.09063,0-0.09063,0.02656-0.13594,0.1625
			c-0.1625,0.56875-0.45938,1.11875-0.92031,1.11875c-0.15313,0-0.21563-0.09062-0.21563-0.29844
			c0-0.225,0.05469-0.35156,0.26094-0.90156L17.81182,57.33005 M18.49776,53.93942c0-0.17969-0.12656-0.32344-0.33438-0.32344
			c-0.24218,0-0.48593,0.23438-0.48593,0.47657c0,0.17187,0.12656,0.325,0.34218,0.325
			C18.22745,54.41755,18.49776,54.20973,18.49776,53.93942z"/>
		<path class="st6" d="M27.73992,58.37536c0.1266,0,0.2985,0,0.2985-0.17969c0-0.17969-0.1719-0.17969-0.3078-0.17969h-5.38286
			c-0.13438,0-0.30625,0-0.30625,0.17969c0,0.17969,0.17187,0.17969,0.29844,0.17969H27.73992 M27.73062,56.62692
			c0.1359,0,0.3078,0,0.3078-0.17969c0-0.18125-0.1719-0.18125-0.2985-0.18125h-5.39997c-0.12657,0-0.29844,0-0.29844,0.18125
			c0,0.17969,0.17187,0.17969,0.30625,0.17969H27.73062z"/>
		<path class="st6" d="M33.92122,61.73943c0-0.02656,0-0.04531-0.1531-0.19844c-1.1266-1.13593-1.4157-2.84062-1.4157-4.22031
			c0-1.56875,0.3422-3.1375,1.4516-4.26406c0.1172-0.10781,0.1172-0.12656,0.1172-0.15313c0-0.06406-0.036-0.09062-0.0906-0.09062
			c-0.0891,0-0.9016,0.6125-1.4329,1.75781c-0.4593,0.99219-0.5687,1.99375-0.5687,2.75c0,0.70313,0.1,1.79531,0.5953,2.81406
			c0.5406,1.10938,1.3172,1.69532,1.4063,1.69532C33.88522,61.83005,33.92122,61.80193,33.92122,61.73943"/>
		<path class="st6" d="M36.68212,59.57536c-0.3515,0-0.8844-0.225-1.0453-1.09063c-0.1-0.54218-0.1-1.37031-0.1-1.90312
			c0-0.57656,0-1.17188,0.0719-1.65938c0.1719-1.07187,0.8484-1.15312,1.0734-1.15312c0.2969,0,0.8922,0.1625,1.0641,1.05469
			c0.0906,0.50468,0.0906,1.19062,0.0906,1.75781c0,0.67656,0,1.28906-0.1,1.86719
			C37.60242,59.30505,37.08842,59.57536,36.68212,59.57536 M38.58522,56.68942c0-0.72031-0.0453-1.44219-0.3609-2.10937
			c-0.4156-0.86563-1.1547-1.00938-1.5328-1.00938c-0.5422,0-1.2,0.23438-1.5688,1.07188
			c-0.289,0.62343-0.3343,1.32656-0.3343,2.04687c0,0.67656,0.0359,1.48906,0.4062,2.17344
			c0.3875,0.73125,1.0453,0.91094,1.4875,0.91094c0.4875,0,1.1719-0.18907,1.5688-1.04532
			C38.53992,58.10505,38.58522,57.40192,38.58522,56.68942z"/>
		<path class="st6" d="M40.76653,59.56598c0-0.59531-0.225-0.94687-0.5766-0.94687c-0.2968,0-0.4781,0.22656-0.4781,0.47812
			c0,0.24375,0.1813,0.47813,0.4781,0.47813c0.1078,0,0.225-0.03594,0.3157-0.11719c0.0265-0.01875,0.0359-0.02656,0.0453-0.02656
			c0.0093,0,0.0187,0.00781,0.0187,0.13437c0,0.66719-0.3156,1.20938-0.614,1.50625c-0.0985,0.09844-0.0985,0.11719-0.0985,0.14375
			c0,0.06407,0.0438,0.1,0.0891,0.1C40.04622,61.31598,40.76653,60.62067,40.76653,59.56598"/>
		<path class="st6" d="M45.58842,53.80505c0-0.21719,0-0.23438-0.2078-0.23438c-0.5594,0.57656-1.3532,0.57656-1.6407,0.57656
			v0.27969c0.1797,0,0.711,0,1.1813-0.23437v4.67031c0,0.325-0.0281,0.43281-0.8391,0.43281h-0.289v0.27969
			c0.3156-0.02656,1.1-0.02656,1.4609-0.02656c0.3609,0,1.1453,0,1.4609,0.02656v-0.27969h-0.289
			c-0.811,0-0.8375-0.09844-0.8375-0.43281V53.80505"/>
		<path class="st6" d="M50.04312,57.32067c0-0.70312-0.1-1.79375-0.5954-2.8125c-0.5406-1.10937-1.3171-1.69531-1.4062-1.69531
			c-0.0547,0-0.0906,0.03594-0.0906,0.09062c0,0.02657,0,0.04532,0.1718,0.20625c0.8829,0.89375,1.3969,2.32657,1.3969,4.21094
			c0,1.54219-0.3328,3.12969-1.4515,4.26562c-0.1172,0.10781-0.1172,0.12656-0.1172,0.15313
			c0,0.05469,0.0359,0.09063,0.0906,0.09063c0.0891,0,0.9016-0.61407,1.4328-1.75938
			C49.93372,59.08005,50.04312,58.07848,50.04312,57.32067"/>
	</g>
	<polygon class="st2" points="81.51426,52.75796 81.51436,52.75784 81.51437,52.75787 81.51437,52.75786 81.51431,52.7579 
		81.51438,52.75784 81.51437,52.75789 81.51437,52.75789 81.51436,52.75786 81.51433,52.7579 81.51437,52.75786 81.51434,52.75786 
		81.51431,52.75785 81.51431,52.75787 81.51435,52.75785 81.51434,52.75788 81.51436,52.75785 81.51437,52.75789 81.51436,52.75785 
		81.51434,52.7579 81.51437,52.75792 81.51434,52.75791 81.51431,52.75789 81.51437,52.75788 81.51431,52.75789 81.51436,52.75785 
		81.51432,52.75784 81.51437,52.75789 81.51438,52.75785 81.51437,52.75786 81.51431,52.75786 81.51437,52.75789 81.51434,52.75785 
		81.51437,52.75785 81.51438,52.75789 81.51434,52.75788 81.51434,52.75784 81.51438,52.75786 81.51431,52.75786 81.51433,52.75791 
		81.51436,52.75788 81.51434,52.75785 81.51431,52.75791 81.51434,52.75787 81.51433,52.75785 81.51438,52.75791 81.51433,52.75788 
		81.51437,52.75791 81.51434,52.7579 81.51437,52.75789 81.51434,52.7579 81.51434,52.75788 81.51434,52.75785 81.51437,52.7579 
		81.51434,52.75785 81.51431,52.75791 81.51437,52.75788 81.51437,52.75788 81.51431,52.75788 81.51434,52.75785 81.51431,52.75787 
		81.51437,52.75788 81.51434,52.75786 81.51437,52.75791 81.51431,52.75787 81.51437,52.75789 81.51437,52.75785 81.51438,52.75789 
		81.51434,52.7579 81.51434,52.75789 81.51434,52.75785 81.51437,52.75792 81.51434,52.75787 81.51434,52.75787 81.51435,52.75788 
		81.51437,52.75791 81.51436,52.75788 81.51435,52.75786 81.51433,52.75789 81.51433,52.75789 81.51437,52.75788 81.51438,52.75788 
		81.51438,52.7579 81.51431,52.75792 81.51435,52.75785 81.51431,52.75785 81.51437,52.75787 81.51432,52.75792 81.51438,52.75786 	
		"/>
	<g>
		<defs>
			<rect id="SVGID_7_" x="33.07764" y="72.77344" width="38" height="10"/>
		</defs>
		<clipPath id="SVGID_8_">
			<use xlink:href="#SVGID_7_"  style="overflow:visible;"/>
		</clipPath>
		<path class="st7" d="M52.07764,77.77344L52.07764,77.77344z"/>
		<path class="st8" d="M36.68858,77.05c0.05469-0.23437,0.2625-1.06406,0.89375-1.06406c0.04531,0,0.26094,0,0.45,0.11719
			c-0.25156,0.04531-0.43281,0.27031-0.43281,0.4875c0,0.14375,0.1,0.31562,0.34375,0.31562
			c0.19843,0,0.48593-0.16251,0.48593-0.52345c0-0.46875-0.53125-0.59531-0.83906-0.59531
			c-0.52187,0-0.8375,0.47813-0.94531,0.68594c-0.22656-0.59531-0.7125-0.68594-0.975-0.68594
			c-0.9375,0-1.45156,1.16406-1.45156,1.38906c0,0.09063,0.09062,0.09063,0.10781,0.09063c0.07344,0,0.1-0.01875,0.11875-0.1
			c0.30625-0.9547,0.90156-1.18125,1.20781-1.18125c0.17031,0,0.48594,0.08125,0.48594,0.60469
			c0,0.27968-0.15313,0.8828-0.48594,2.14531c-0.14531,0.55937-0.46094,0.93906-0.85625,0.93906
			c-0.05469,0-0.2625,0-0.45156-0.11719c0.225-0.04531,0.42344-0.23593,0.42344-0.4875c0-0.24374-0.19844-0.31562-0.33282-0.31562
			c-0.27031,0-0.49687,0.23438-0.49687,0.52345c0,0.41405,0.45156,0.59375,0.84844,0.59375
			c0.59531,0,0.91875-0.62969,0.94687-0.68438c0.10781,0.33281,0.43281,0.68438,0.97344,0.68438
			c0.92812,0,1.44219-1.1625,1.44219-1.3875c0-0.09063-0.08125-0.09063-0.10782-0.09063c-0.08125,0-0.09843,0.03594-0.11718,0.1
			c-0.29688,0.96407-0.91094,1.18125-1.19844,1.18125c-0.35313,0-0.49688-0.28905-0.49688-0.59531
			c0-0.19844,0.05469-0.39688,0.15313-0.79375L36.68858,77.05"/>
		<path class="st8" d="M47.48074,78.57344c0.1266,0,0.2985,0,0.2985-0.1797c0-0.17969-0.1719-0.17969-0.3078-0.17969h-5.38286
			c-0.13438,0-0.30625,0-0.30625,0.17969c0,0.1797,0.17187,0.1797,0.29844,0.1797H47.48074 M47.47144,76.825
			c0.1359,0,0.3078,0,0.3078-0.17969c0-0.18125-0.1719-0.18125-0.2985-0.18125h-5.39997c-0.12657,0-0.29844,0-0.29844,0.18125
			c0,0.17969,0.17187,0.17969,0.30625,0.17969H47.47144z"/>
		<path class="st8" d="M53.76204,81.9375c0-0.02657,0-0.04531-0.1531-0.19844c-1.1266-1.13593-1.4157-2.84062-1.4157-4.22031
			c0-1.56875,0.3422-3.1375,1.4516-4.26406c0.1172-0.1078,0.1172-0.12656,0.1172-0.15313c0-0.06406-0.036-0.09061-0.0906-0.09061
			c-0.0891,0-0.9016,0.6125-1.4329,1.7578c-0.4593,0.9922-0.5687,1.99375-0.5687,2.75c0,0.70313,0.1,1.79531,0.5953,2.81406
			c0.5406,1.10938,1.3172,1.69531,1.4063,1.69531C53.72604,82.02812,53.76204,82,53.76204,81.9375"/>
		<path class="st8" d="M57.28854,77.05c0.0547-0.23437,0.2625-1.06406,0.8938-1.06406c0.0453,0,0.2609,0,0.45,0.11719
			c-0.2516,0.04531-0.4328,0.27031-0.4328,0.4875c0,0.14375,0.1,0.31562,0.3437,0.31562c0.1985,0,0.486-0.16251,0.486-0.52345
			c0-0.46875-0.5313-0.59531-0.8391-0.59531c-0.5219,0-0.8375,0.47813-0.9453,0.68594c-0.2266-0.59531-0.7125-0.68594-0.975-0.68594
			c-0.9375,0-1.4516,1.16406-1.4516,1.38906c0,0.09063,0.0907,0.09063,0.1078,0.09063c0.0735,0,0.1-0.01875,0.1188-0.1
			c0.3062-0.9547,0.9016-1.18125,1.2078-1.18125c0.1703,0,0.4859,0.08125,0.4859,0.60469c0,0.27968-0.1531,0.8828-0.4859,2.14531
			c-0.1453,0.55937-0.4609,0.93906-0.8562,0.93906c-0.0547,0-0.2625,0-0.4516-0.11719c0.225-0.04531,0.4234-0.23593,0.4234-0.4875
			c0-0.24374-0.1984-0.31562-0.3328-0.31562c-0.2703,0-0.4969,0.23438-0.4969,0.52345c0,0.41405,0.4516,0.59375,0.8485,0.59375
			c0.5953,0,0.9187-0.62969,0.9469-0.68438c0.1078,0.33281,0.4328,0.68438,0.9734,0.68438c0.9281,0,1.4422-1.1625,1.4422-1.3875
			c0-0.09063-0.0813-0.09063-0.1078-0.09063c-0.0813,0-0.0985,0.03594-0.1172,0.1c-0.2969,0.96407-0.911,1.18125-1.1985,1.18125
			c-0.3531,0-0.4968-0.28905-0.4968-0.59531c0-0.19844,0.0547-0.39688,0.1531-0.79375L57.28854,77.05"/>
		<path class="st8" d="M61.20734,79.76406c0-0.59531-0.225-0.94688-0.5766-0.94688c-0.2968,0-0.4781,0.22656-0.4781,0.47813
			c0,0.24374,0.1813,0.47813,0.4781,0.47813c0.1078,0,0.225-0.03594,0.3157-0.11719c0.0265-0.01875,0.0359-0.02657,0.0453-0.02657
			c0.0093,0,0.0187,0.00781,0.0187,0.13438c0,0.66718-0.3156,1.20937-0.614,1.50625c-0.0985,0.09843-0.0985,0.11719-0.0985,0.14375
			c0,0.06407,0.0438,0.10001,0.0891,0.10001C60.48704,81.51406,61.20734,80.81875,61.20734,79.76406"/>
		<path class="st8" d="M65.62293,79.77344c-0.35149,0-0.8844-0.225-1.0453-1.09063c-0.1-0.54218-0.1-1.37031-0.1-1.90312
			c0-0.57656,0-1.17188,0.0719-1.65938c0.1719-1.07187,0.8484-1.15312,1.07339-1.15312c0.29691,0,0.8922,0.1625,1.0641,1.0547
			c0.0906,0.50468,0.0906,1.19061,0.0906,1.7578c0,0.67656,0,1.28906-0.1,1.8672
			C66.54324,79.50313,66.02924,79.77344,65.62293,79.77344 M67.52603,76.8875c0-0.72031-0.0453-1.44219-0.36089-2.10937
			c-0.4156-0.86563-1.1547-1.00938-1.53281-1.00938c-0.5422,0-1.2,0.23438-1.56879,1.07188
			c-0.289,0.62343-0.3343,1.32656-0.3343,2.04687c0,0.67656,0.0359,1.48906,0.4062,2.17344
			c0.3875,0.73125,1.0453,0.91094,1.4875,0.91094c0.4875,0,1.17191-0.18907,1.5688-1.04532
			C67.48074,78.30313,67.52603,77.6,67.52603,76.8875z"/>
		<path class="st8" d="M70.38393,77.51875c0-0.70312-0.1-1.79375-0.5954-2.8125c-0.5406-1.10937-1.3171-1.6953-1.4062-1.6953
			c-0.0547,0-0.0906,0.03593-0.0906,0.09061c0,0.02657,0,0.04533,0.1718,0.20625c0.8829,0.89375,1.3969,2.32657,1.3969,4.21094
			c0,1.54219-0.3328,3.12969-1.4515,4.26563c-0.1172,0.10781-0.1172,0.12656-0.1172,0.15312
			c0,0.05469,0.0359,0.09062,0.0906,0.09062c0.0891,0,0.9016-0.61407,1.4328-1.75938
			C70.27454,79.27813,70.38393,78.27656,70.38393,77.51875"/>
	</g>
</g>
<g>
</g>
<g>
</g>
<g>
</g>
<g>
</g>
<g>
</g>
<g>
</g>
</svg>
